<svg width="50" height="50" viewBox="0 0 50 50" fill="none" xmlns="http://www.w3.org/2000/svg">
<g clip-path="url(#clip0_270_300)">
<path d="M47.5832 6.24582V43.7437C47.5915 45.3916 46.945 46.9753 45.7859 48.1465C44.6267 49.3178 43.0498 49.9808 41.402 49.9896C41.1458 49.9915 40.8898 49.9776 40.6353 49.9479C39.0973 49.7197 37.6957 48.9373 36.6943 47.7478C35.6929 46.5584 35.1607 45.044 35.1978 43.4896V6.49998C35.161 4.94402 35.6947 3.42833 36.6982 2.23866C37.7017 1.049 39.1058 0.267555 40.6457 0.0416512C41.5194 -0.0603865 42.4048 0.0242035 43.2433 0.289828C44.0819 0.555452 44.8545 0.996059 45.5101 1.58251C46.1656 2.16897 46.6893 2.88791 47.0463 3.6918C47.4033 4.4957 47.5877 5.36622 47.5832 6.24582ZM8.61032 37.6146C7.78752 37.5995 6.96997 37.7485 6.20542 38.0529C5.44086 38.3574 4.74465 38.8111 4.15743 39.3877C3.57022 39.9642 3.10378 40.652 2.78538 41.4108C2.46697 42.1697 2.30298 42.9843 2.30298 43.8073C2.30298 44.6302 2.46697 45.4449 2.78538 46.2037C3.10378 46.9626 3.57022 47.6504 4.15743 48.2269C4.74465 48.8034 5.44086 49.2572 6.20542 49.5616C6.96997 49.8661 7.78752 50.0151 8.61032 50C10.2331 49.9702 11.7793 49.3047 12.9163 48.1466C14.0534 46.9885 14.6905 45.4303 14.6905 43.8073C14.6905 42.1843 14.0534 40.6261 12.9163 39.468C11.7793 38.3099 10.2331 37.6443 8.61032 37.6146ZM25.0103 18.8437H24.9062C23.2527 18.9342 21.6994 19.6645 20.5749 20.88C19.4504 22.0954 18.843 23.7008 18.8812 25.3562V41.9917C18.8812 46.5062 20.8687 49.2458 23.777 49.8312C24.6794 50.0143 25.6113 49.9942 26.505 49.7723C27.3987 49.5505 28.2319 49.1325 28.944 48.5486C29.656 47.9648 30.2292 47.2298 30.622 46.3969C31.0147 45.564 31.2171 44.6541 31.2145 43.7333V25.0687C31.2159 24.2526 31.0565 23.4442 30.7454 22.6897C30.4344 21.9352 29.9778 21.2494 29.4016 20.6713C28.8255 20.0933 28.1412 19.6343 27.3877 19.3208C26.6343 19.0072 25.8264 18.8451 25.0103 18.8437Z" fill="white"/>
</g>
<defs>
<clipPath id="clip0_270_300">
<rect width="50" height="50" fill="white"/>
</clipPath>
</defs>
</svg>
