<svg width="50" height="50" viewBox="0 0 50 50" fill="none" xmlns="http://www.w3.org/2000/svg">
<g clip-path="url(#clip0_270_302)">
<path fill-rule="evenodd" clip-rule="evenodd" d="M31.2501 4.16663C32.9428 4.16652 34.5955 4.68191 35.988 5.6442C37.3806 6.6065 38.4471 7.97006 39.0457 9.55344C39.6442 11.1368 39.7463 12.8649 39.3385 14.5078C38.9306 16.1506 38.0322 17.6303 36.7626 18.75C38.3154 20.1162 39.3046 22.0112 39.5379 24.0663C39.7713 26.1214 39.232 28.1898 38.025 29.8694C36.8179 31.549 35.0294 32.7197 33.0072 33.1539C30.985 33.5881 28.8736 33.2548 27.0834 32.2187V37.5C27.0834 38.8924 26.7344 40.2627 26.0683 41.4855C25.4023 42.7084 24.4404 43.7448 23.2706 44.5002C22.1008 45.2555 20.7604 45.7057 19.3718 45.8096C17.9832 45.9135 16.5907 45.6678 15.3216 45.0949C14.0524 44.522 12.947 43.6402 12.1065 42.53C11.2659 41.4199 10.7169 40.1168 10.5096 38.7399C10.3023 37.3629 10.4434 35.956 10.92 34.6476C11.3965 33.3392 12.1933 32.1711 13.2376 31.25C12.3499 30.4688 11.6392 29.5072 11.1527 28.4294C10.6663 27.3516 10.4154 26.1824 10.4168 25C10.4154 23.8175 10.6663 22.6483 11.1527 21.5705C11.6392 20.4928 12.3499 19.5312 13.2376 18.75C11.9681 17.6303 11.0696 16.1506 10.6618 14.5078C10.2539 12.8649 10.356 11.1368 10.9546 9.55344C11.5531 7.97006 12.6196 6.6065 14.0122 5.6442C15.4048 4.68191 17.0574 4.16652 18.7501 4.16663H31.2501ZM22.9168 33.3333H18.7501C17.926 33.3333 17.1204 33.5777 16.4352 34.0355C15.75 34.4933 15.216 35.1441 14.9006 35.9054C14.5852 36.6668 14.5027 37.5046 14.6635 38.3128C14.8243 39.1211 15.2211 39.8635 15.8038 40.4462C16.3866 41.029 17.129 41.4258 17.9372 41.5866C18.7455 41.7473 19.5833 41.6648 20.3446 41.3495C21.106 41.0341 21.7567 40.5 22.2146 39.8148C22.6724 39.1296 22.9168 38.324 22.9168 37.5V33.3333ZM22.9168 20.8333H18.7501C17.645 20.8333 16.5852 21.2723 15.8038 22.0537C15.0224 22.8351 14.5834 23.8949 14.5834 25C14.5834 26.105 15.0224 27.1648 15.8038 27.9462C16.5852 28.7276 17.645 29.1666 18.7501 29.1666H22.9168V20.8333ZM31.2501 20.8333C30.145 20.8333 29.0852 21.2723 28.3038 22.0537C27.5224 22.8351 27.0834 23.8949 27.0834 25C27.0834 26.105 27.5224 27.1648 28.3038 27.9462C29.0852 28.7276 30.145 29.1666 31.2501 29.1666C32.3552 29.1666 33.415 28.7276 34.1964 27.9462C34.9778 27.1648 35.4168 26.105 35.4168 25C35.4168 23.8949 34.9778 22.8351 34.1964 22.0537C33.415 21.2723 32.3552 20.8333 31.2501 20.8333ZM31.2501 8.33329H27.0834V16.6666H31.2501C32.3313 16.6715 33.3721 16.2558 34.1525 15.5075C34.9329 14.7592 35.3919 13.7368 35.4325 12.6563C35.4731 11.5759 35.092 10.5219 34.3699 9.71721C33.6478 8.91248 32.6411 8.41996 31.5626 8.34371L31.2501 8.33329ZM22.9168 8.33329H18.7501C17.645 8.33329 16.5852 8.77228 15.8038 9.55368C15.0224 10.3351 14.5834 11.3949 14.5834 12.5C14.5834 13.605 15.0224 14.6648 15.8038 15.4462C16.5852 16.2276 17.645 16.6666 18.7501 16.6666H22.9168V8.33329Z" fill="white"/>
</g>
<defs>
<clipPath id="clip0_270_302">
<rect width="50" height="50" fill="white"/>
</clipPath>
</defs>
</svg>
