<svg width="50" height="53" viewBox="0 0 50 53" fill="none" xmlns="http://www.w3.org/2000/svg">
<path fill-rule="evenodd" clip-rule="evenodd" d="M49.626 11.5923C49.6444 11.6606 49.6538 11.731 49.654 11.8018V22.8007C49.654 22.9419 49.6168 23.0806 49.5462 23.2027C49.4757 23.3249 49.3742 23.4262 49.252 23.4964L40.043 28.8114V39.3462C40.043 39.6329 39.891 39.8976 39.643 40.0419L20.42 51.1351C20.376 51.1602 20.328 51.1762 20.28 51.1932C20.262 51.1993 20.245 51.2103 20.226 51.2153C20.0916 51.2508 19.9504 51.2508 19.816 51.2153C19.794 51.2093 19.774 51.1973 19.753 51.1892C19.709 51.1732 19.663 51.1592 19.621 51.1351L0.402 40.0419C0.279907 39.9716 0.178461 39.8703 0.107885 39.7481C0.0373084 39.626 9.67394e-05 39.4874 0 39.3462L0 6.34942C0 6.27724 0.01 6.20707 0.028 6.13891C0.034 6.11585 0.048 6.0948 0.056 6.07174C0.071 6.02964 0.085 5.98653 0.107 5.94744C0.122 5.92137 0.144 5.90032 0.162 5.87626C0.185 5.84418 0.206 5.8111 0.233 5.78303C0.256 5.75998 0.286 5.74294 0.312 5.72289C0.341 5.69883 0.367 5.67276 0.4 5.65372L10.011 0.107134C10.1327 0.0369422 10.2706 0 10.411 0C10.5514 0 10.6893 0.0369422 10.811 0.107134L20.421 5.65372H20.423C20.455 5.67377 20.482 5.69883 20.511 5.72188C20.537 5.74193 20.566 5.75998 20.589 5.78203C20.617 5.8111 20.637 5.84418 20.661 5.87626C20.678 5.90032 20.701 5.92137 20.715 5.94744C20.738 5.98753 20.751 6.02964 20.767 6.07174C20.775 6.0948 20.789 6.11585 20.795 6.13991C20.8134 6.20822 20.8228 6.27866 20.823 6.34942V26.9589L28.831 22.3366V11.8008C28.831 11.7306 28.841 11.6594 28.859 11.5923C28.866 11.5682 28.879 11.5472 28.887 11.5241C28.903 11.482 28.917 11.4389 28.939 11.3998C28.954 11.3737 28.976 11.3527 28.993 11.3286C29.017 11.2965 29.037 11.2635 29.065 11.2354C29.088 11.2123 29.117 11.1953 29.143 11.1752C29.173 11.1512 29.199 11.1251 29.231 11.1061L38.843 5.55949C38.9646 5.4892 39.1026 5.4522 39.243 5.4522C39.3834 5.4522 39.5214 5.4892 39.643 5.55949L49.253 11.1061C49.287 11.1261 49.313 11.1512 49.343 11.1742C49.368 11.1943 49.397 11.2123 49.42 11.2344C49.448 11.2635 49.468 11.2965 49.492 11.3286C49.51 11.3527 49.532 11.3737 49.546 11.3998C49.569 11.4389 49.582 11.482 49.598 11.5241C49.607 11.5472 49.62 11.5682 49.626 11.5923ZM48.052 22.3366V13.1902L44.689 15.1309L40.043 17.8125V26.9589L48.053 22.3366H48.052ZM38.442 38.8821V29.7297L33.872 32.3461L20.822 39.8124V49.051L38.442 38.8821ZM1.602 7.73782V38.8821L19.22 49.05V39.8134L10.016 34.5916L10.013 34.5896L10.009 34.5876C9.978 34.5695 9.952 34.5435 9.923 34.5214C9.898 34.5014 9.869 34.4853 9.847 34.4633L9.845 34.4603C9.819 34.4352 9.801 34.4041 9.779 34.3761C9.759 34.349 9.735 34.3259 9.719 34.2979L9.718 34.2949C9.7 34.2648 9.689 34.2287 9.676 34.1946C9.663 34.1645 9.646 34.1365 9.638 34.1044C9.628 34.0663 9.626 34.0252 9.622 33.9861C9.618 33.956 9.61 33.926 9.61 33.8959V33.8939V12.3601L4.965 9.67757L1.602 7.73782ZM10.412 1.72911L2.405 6.34942L10.41 10.9697L18.416 6.34842L10.41 1.72911H10.412ZM14.576 30.5637L19.221 27.8832V7.73782L15.858 9.67857L11.212 12.3601V32.5055L14.576 30.5637ZM39.243 7.18146L31.237 11.8018L39.243 16.4221L47.248 11.8008L39.243 7.18146ZM38.442 17.8125L33.796 15.1309L30.433 13.1902V22.3366L35.078 25.0171L38.442 26.9589V17.8125ZM20.02 38.424L31.763 31.7035L37.633 28.3453L29.633 23.728L20.422 29.044L12.027 33.8889L20.02 38.424Z" fill="white"/>
</svg>
