<svg width="50" height="50" viewBox="0 0 50 50" fill="none" xmlns="http://www.w3.org/2000/svg">
<g clip-path="url(#clip0_338_193)">
<path d="M31.25 3.12402H50V49.999H0V0.902344L31.25 32.1523V3.12402ZM3.125 46.874H41.5283L3.125 8.4707V46.874ZM42.8467 43.749L45.9717 46.874H46.875V6.24902H34.375V9.37402H40.625V12.499H34.375V15.624H40.625V18.749H34.375V21.874H43.75V24.999H34.375V28.124H40.625V31.249H34.375V34.374H40.625V37.499H36.5967L39.7217 40.624H43.75V43.749H42.8467ZM9.375 25.9023L24.0967 40.624H9.375V25.9023ZM12.5 33.4707V37.499H16.5283L12.5 33.4707Z" fill="white"/>
</g>
<defs>
<clipPath id="clip0_338_193">
<rect width="50" height="50" fill="white"/>
</clipPath>
</defs>
</svg>
