<svg width="50" height="50" viewBox="0 0 50 50" fill="none" xmlns="http://www.w3.org/2000/svg">
<path d="M35 6.875C35 6.37772 35.1975 5.90081 35.5492 5.54917C35.9008 5.19754 36.3777 5 36.875 5H43.125C43.6223 5 44.0992 5.19754 44.4508 5.54917C44.8025 5.90081 45 6.37772 45 6.875V13.125C45 13.6223 44.8025 14.0992 44.4508 14.4508C44.0992 14.8025 43.6223 15 43.125 15C42.6277 15 42.1508 14.8025 41.7992 14.4508C41.4475 14.0992 41.25 13.6223 41.25 13.125V11.4L30.075 22.575C29.7234 22.9261 29.2469 23.1234 28.75 23.1234C28.2531 23.1234 27.7766 22.9261 27.425 22.575L21.25 16.4L10.7 26.95C10.5283 27.1342 10.3213 27.282 10.0913 27.3845C9.86135 27.4869 9.61307 27.542 9.36131 27.5465C9.10955 27.5509 8.85948 27.5046 8.62601 27.4103C8.39254 27.316 8.18045 27.1756 8.00241 26.9976C7.82436 26.8195 7.684 26.6075 7.5897 26.374C7.49539 26.1405 7.44908 25.8905 7.45352 25.6387C7.45797 25.3869 7.51307 25.1387 7.61555 24.9087C7.71803 24.6787 7.86579 24.4717 8.05 24.3L19.925 12.425C20.2766 12.0739 20.7531 11.8766 21.25 11.8766C21.7469 11.8766 22.2234 12.0739 22.575 12.425L28.75 18.6L38.6 8.75H36.875C36.3777 8.75 35.9008 8.55246 35.5492 8.20083C35.1975 7.84919 35 7.37228 35 6.875ZM9.375 35C9.87228 35 10.3492 35.1975 10.7008 35.5492C11.0525 35.9008 11.25 36.3777 11.25 36.875V43.125C11.25 43.6223 11.0525 44.0992 10.7008 44.4508C10.3492 44.8025 9.87228 45 9.375 45C8.87772 45 8.40081 44.8025 8.04918 44.4508C7.69755 44.0992 7.5 43.6223 7.5 43.125V36.875C7.5 36.3777 7.69755 35.9008 8.04918 35.5492C8.40081 35.1975 8.87772 35 9.375 35ZM21.25 29.375C21.25 28.8777 21.0525 28.4008 20.7008 28.0492C20.3492 27.6975 19.8723 27.5 19.375 27.5C18.8777 27.5 18.4008 27.6975 18.0492 28.0492C17.6975 28.4008 17.5 28.8777 17.5 29.375V43.125C17.5 43.6223 17.6975 44.0992 18.0492 44.4508C18.4008 44.8025 18.8777 45 19.375 45C19.8723 45 20.3492 44.8025 20.7008 44.4508C21.0525 44.0992 21.25 43.6223 21.25 43.125V29.375ZM29.375 32.5C29.8723 32.5 30.3492 32.6975 30.7008 33.0492C31.0525 33.4008 31.25 33.8777 31.25 34.375V43.125C31.25 43.6223 31.0525 44.0992 30.7008 44.4508C30.3492 44.8025 29.8723 45 29.375 45C28.8777 45 28.4008 44.8025 28.0492 44.4508C27.6975 44.0992 27.5 43.6223 27.5 43.125V34.375C27.5 33.8777 27.6975 33.4008 28.0492 33.0492C28.4008 32.6975 28.8777 32.5 29.375 32.5ZM41.25 24.375C41.25 23.8777 41.0525 23.4008 40.7008 23.0492C40.3492 22.6975 39.8723 22.5 39.375 22.5C38.8777 22.5 38.4008 22.6975 38.0492 23.0492C37.6975 23.4008 37.5 23.8777 37.5 24.375V43.125C37.5 43.6223 37.6975 44.0992 38.0492 44.4508C38.4008 44.8025 38.8777 45 39.375 45C39.8723 45 40.3492 44.8025 40.7008 44.4508C41.0525 44.0992 41.25 43.6223 41.25 43.125V24.375Z" fill="white"/>
</svg>
