<svg width="256" height="256" viewBox="0 0 256 256" fill="none" xmlns="http://www.w3.org/2000/svg">
<path d="M89.0741 145.23L20.9006 213.404" stroke="white" stroke-width="16"/>
<path d="M111.273 167.43L43.0994 235.603" stroke="white" stroke-width="16"/>
<path d="M43.0992 235.604C40.1555 238.547 36.163 240.201 31.9999 240.201C27.8369 240.201 23.8444 238.547 20.9006 235.604" stroke="white" stroke-width="16" stroke-linecap="round" stroke-linejoin="round"/>
<path d="M20.9007 213.404C17.957 216.348 16.3032 220.341 16.3032 224.504C16.3032 228.667 17.957 232.659 20.9007 235.603" stroke="white" stroke-width="16" stroke-linecap="round" stroke-linejoin="round"/>
<path d="M240.656 86.4832C240.656 95.7592 238.829 104.944 235.279 113.514C231.729 122.084 226.526 129.871 219.967 136.43C213.408 142.989 205.621 148.192 197.051 151.742C188.481 155.292 179.296 157.119 170.02 157.119C160.744 157.119 151.559 155.292 142.989 151.742C134.419 148.192 126.633 142.989 120.073 136.43C113.514 129.871 108.311 122.084 104.762 113.514C101.212 104.944 99.3848 95.7592 99.3848 86.4832C99.3848 67.7495 106.827 49.7831 120.073 36.5363C133.32 23.2896 151.287 15.8477 170.02 15.8477C179.296 15.8477 188.481 17.6747 197.051 21.2245C205.621 24.7742 213.408 29.9772 219.967 36.5363C226.526 43.0954 231.729 50.8822 235.279 59.4521C238.829 68.022 240.656 77.2072 240.656 86.4832Z" stroke="white" stroke-width="16" stroke-linecap="round" stroke-linejoin="round"/>
<path d="M89.0742 145.23L111.273 167.429" stroke="white" stroke-width="16" stroke-linecap="round" stroke-linejoin="round"/>
<path d="M100.173 156.33L120.073 136.43" stroke="white" stroke-width="16" stroke-linecap="round" stroke-linejoin="round"/>
<path d="M70.1265 164.178L92.3251 186.376" stroke="white" stroke-width="16" stroke-linecap="round" stroke-linejoin="round"/>
<path d="M209.262 86.4824C209.262 96.89 205.128 106.871 197.769 114.231C190.409 121.59 180.428 125.724 170.02 125.724" stroke="white" stroke-width="16" stroke-linecap="round" stroke-linejoin="round"/>
</svg>
