<svg width="50" height="50" viewBox="0 0 50 50" fill="none" xmlns="http://www.w3.org/2000/svg">
<path d="M4.16666 14.5833V10.4167C4.16666 9.27083 4.57499 8.29028 5.39166 7.475C6.20832 6.65972 7.18888 6.25139 8.33332 6.25H41.6667C42.8125 6.25 43.7937 6.65833 44.6104 7.475C45.4271 8.29167 45.8347 9.27222 45.8333 10.4167V14.5833H41.6667V10.4167H8.33332V14.5833H4.16666ZM16.6667 43.75V39.5833H8.33332C7.18749 39.5833 6.20693 39.1757 5.39166 38.3604C4.57638 37.5451 4.16805 36.5639 4.16666 35.4167V31.25H8.33332V35.4167H41.6667V31.25H45.8333V35.4167C45.8333 36.5625 45.4257 37.5437 44.6104 38.3604C43.7951 39.1771 42.8139 39.5847 41.6667 39.5833H33.3333V43.75H16.6667ZM9.99999 22.9167L15.4167 17.5L12.5 14.5833L4.16666 22.9167L12.5 31.25L15.4167 28.3333L9.99999 22.9167ZM40 22.9167L34.5833 28.3333L37.5 31.25L45.8333 22.9167L37.5 14.5833L34.5833 17.5L40 22.9167Z" fill="white"/>
</svg>
