<svg width="50" height="50" viewBox="0 0 50 50" fill="none" xmlns="http://www.w3.org/2000/svg">
<path d="M23.9583 6.25C26.0063 6.25016 27.998 6.92064 29.6291 8.15904C31.2603 9.39744 32.4412 11.1357 32.9917 13.1083L33.1 13.5354L36.9958 12.5625C37.2806 12.4916 37.5771 12.4817 37.8659 12.5334C38.1548 12.5851 38.4295 12.6972 38.672 12.8624C38.9145 13.0276 39.1194 13.2422 39.2732 13.4921C39.427 13.742 39.5263 14.0216 39.5646 14.3125L39.5833 14.5833V18.3542C40.7578 19.4803 41.7204 20.8083 42.425 22.275L42.7125 22.9167H43.75C44.2603 22.9167 44.7528 23.1041 45.1341 23.4432C45.5154 23.7822 45.759 24.2495 45.8187 24.7563L45.8333 25V31.25C45.8334 31.5929 45.7488 31.9305 45.5871 32.2329C45.4253 32.5352 45.1915 32.793 44.9062 32.9833L44.6812 33.1125L42.2479 34.3312C41.2517 36.2585 39.8088 37.9194 38.0396 39.175L37.5 39.5375V41.6667C37.4999 42.1769 37.3126 42.6694 36.9735 43.0508C36.6344 43.4321 36.1672 43.6757 35.6604 43.7354L35.4167 43.75H29.1667C28.6564 43.7499 28.1639 43.5626 27.7825 43.2235C27.4012 42.8844 27.1576 42.4172 27.0979 41.9104L27.0833 41.6667H25C24.9999 42.1769 24.8126 42.6694 24.4735 43.0508C24.1344 43.4321 23.6672 43.6757 23.1604 43.7354L22.9167 43.75H16.6667C16.1564 43.7499 15.6639 43.5626 15.2825 43.2235C14.9012 42.8844 14.6576 42.4172 14.5979 41.9104L14.5833 41.6667V39.5375C13.0783 38.5753 11.7782 37.3252 10.7578 35.8589C9.73746 34.3927 9.01688 32.7393 8.63749 30.9937C7.40901 30.6281 6.32252 29.8939 5.5251 28.8904C4.72768 27.8869 4.25783 26.6627 4.17916 25.3833L4.16666 25V23.9583C4.16725 23.4273 4.37057 22.9166 4.73509 22.5305C5.09961 22.1444 5.59781 21.912 6.1279 21.8809C6.65798 21.8498 7.17995 22.0222 7.58714 22.3631C7.99434 22.7039 8.25602 23.1873 8.31874 23.7146L8.33332 23.9583V25C8.33332 25.3083 8.39999 25.6021 8.52082 25.8646C8.83881 23.989 9.54818 22.2014 10.6028 20.6181C11.6573 19.0348 13.0335 17.6913 14.6417 16.675C14.4938 15.3635 14.6246 14.0356 15.0254 12.7781C15.4262 11.5206 16.0879 10.362 16.9674 9.37788C17.8468 8.3938 18.9242 7.6065 20.1289 7.06749C21.3336 6.52848 22.6385 6.24991 23.9583 6.25ZM35.4167 17.25L29.6708 18.6875L29.4208 18.7354L29.1667 18.75H21.875C19.7685 18.7486 17.7229 19.4567 16.068 20.7601C14.4132 22.0635 13.2455 23.8863 12.7533 25.9345C12.2611 27.9827 12.4731 30.137 13.355 32.05C14.2369 33.963 15.7374 35.5233 17.6146 36.4792C17.917 36.6338 18.1771 36.86 18.3721 37.1382C18.5671 37.4163 18.6911 37.7379 18.7333 38.075L18.75 38.3333V39.5833H20.8333C20.8334 39.0731 21.0207 38.5805 21.3598 38.1992C21.6989 37.8179 22.1661 37.5743 22.6729 37.5146L22.9167 37.5H29.1667C29.6769 37.5001 30.1694 37.6874 30.5508 38.0265C30.9321 38.3656 31.1757 38.8328 31.2354 39.3396L31.25 39.5833H33.3333V38.3333C33.3335 37.9497 33.4396 37.5736 33.64 37.2464C33.8403 36.9192 34.1271 36.6537 34.4687 36.4792C36.3805 35.5005 37.9005 33.8981 38.7771 31.9375C38.9333 31.5868 39.1835 31.2861 39.5 31.0687L39.7479 30.9229L41.6667 29.9625V27.0833H41.2354C40.7818 27.0832 40.3406 26.935 39.9789 26.6613C39.6171 26.3875 39.3546 26.0032 39.2312 25.5667C38.7101 23.734 37.6434 22.1033 36.1729 20.8917C35.7649 20.5546 35.5005 20.0749 35.4333 19.55L35.4167 19.2854V17.25ZM33.3333 22.9167C33.8859 22.9167 34.4158 23.1362 34.8065 23.5269C35.1972 23.9176 35.4167 24.4475 35.4167 25C35.4167 25.5525 35.1972 26.0824 34.8065 26.4731C34.4158 26.8638 33.8859 27.0833 33.3333 27.0833C32.7808 27.0833 32.2509 26.8638 31.8602 26.4731C31.4695 26.0824 31.25 25.5525 31.25 25C31.25 24.4475 31.4695 23.9176 31.8602 23.5269C32.2509 23.1362 32.7808 22.9167 33.3333 22.9167ZM23.9583 10.4167C22.6964 10.4167 21.4775 10.8748 20.5279 11.7059C19.5784 12.537 18.9629 13.6846 18.7958 14.9354C19.8054 14.701 20.8385 14.5828 21.875 14.5833H28.9104L29.0562 14.5479C28.8092 13.3791 28.1678 12.3307 27.2397 11.5785C26.3115 10.8264 25.153 10.4162 23.9583 10.4167Z" fill="white"/>
</svg>
