<svg width="50" height="50" viewBox="0 0 50 50" fill="none" xmlns="http://www.w3.org/2000/svg">
<g clip-path="url(#clip0_338_197)">
<path d="M44.5312 6.56205C43.994 6.21449 43.3796 6.00423 42.7421 5.94974C42.1046 5.89525 41.4634 5.9982 40.875 6.24955L21.5937 13.8433C21.1373 14.0291 20.6491 14.1246 20.1562 14.1245H7.8125C6.7765 14.1245 5.78293 14.5361 5.05036 15.2687C4.3178 16.0012 3.90625 16.9948 3.90625 18.0308V18.3433H0V27.7183H3.90625V28.1245C3.93073 29.1442 4.35306 30.1139 5.08299 30.8263C5.81292 31.5387 6.79254 31.9373 7.8125 31.9371L12.5 41.8745C12.8174 42.5437 13.3171 43.1098 13.9418 43.5078C14.5664 43.9058 15.2906 44.1196 16.0313 44.1245H18C19.0306 44.1163 20.0161 43.7011 20.742 42.9694C21.4678 42.2378 21.875 41.2489 21.875 40.2183V32.3121L40.875 39.9058C41.3423 40.0918 41.8408 40.1872 42.3438 40.187C43.1241 40.1745 43.884 39.9356 44.5312 39.4996C45.0452 39.1525 45.4692 38.6881 45.7681 38.1447C46.067 37.6012 46.2322 36.9945 46.25 36.3746V9.7808C46.2471 9.14491 46.0891 8.51934 45.7896 7.9584C45.49 7.39747 45.0581 6.91814 44.5312 6.56205ZM17.9688 18.0308V28.1245H7.8125V18.0308H17.9688ZM17.9688 40.2183H16L12.1563 31.9371H17.9688V40.2183ZM23.0312 28.5933C22.6602 28.4037 22.2733 28.2468 21.875 28.1245V17.812C22.2695 17.7306 22.6563 17.6156 23.0312 17.4683L42.3438 9.7808V36.2808L23.0312 28.5933ZM46.3437 19.1245V26.937C47.3798 26.937 48.3733 26.5255 49.1059 25.7929C49.8384 25.0604 50.25 24.0668 50.25 23.0308C50.25 21.9948 49.8384 21.0012 49.1059 20.2687C48.3733 19.5361 47.3798 19.1245 46.3437 19.1245Z" fill="white"/>
</g>
<defs>
<clipPath id="clip0_338_197">
<rect width="50" height="50" fill="white"/>
</clipPath>
</defs>
</svg>
