<svg width="55" height="55" viewBox="0 0 55 55" fill="none" xmlns="http://www.w3.org/2000/svg">
<path d="M48.125 8.59375V16.3281C48.125 16.784 47.9439 17.2211 47.6216 17.5435C47.2993 17.8658 46.8621 18.0469 46.4062 18.0469C45.9504 18.0469 45.5132 17.8658 45.1909 17.5435C44.8686 17.2211 44.6875 16.784 44.6875 16.3281V10.3125H38.6719C38.216 10.3125 37.7789 10.1314 37.4565 9.80909C37.1342 9.48676 36.9531 9.04959 36.9531 8.59375C36.9531 8.13791 37.1342 7.70074 37.4565 7.37841C37.7789 7.05608 38.216 6.875 38.6719 6.875H46.4062C46.8621 6.875 47.2993 7.05608 47.6216 7.37841C47.9439 7.70074 48.125 8.13791 48.125 8.59375ZM46.4062 36.9531C45.9504 36.9531 45.5132 37.1342 45.1909 37.4565C44.8686 37.7789 44.6875 38.216 44.6875 38.6719V44.6875H38.6719C38.216 44.6875 37.7789 44.8686 37.4565 45.1909C37.1342 45.5132 36.9531 45.9504 36.9531 46.4062C36.9531 46.8621 37.1342 47.2993 37.4565 47.6216C37.7789 47.9439 38.216 48.125 38.6719 48.125H46.4062C46.8621 48.125 47.2993 47.9439 47.6216 47.6216C47.9439 47.2993 48.125 46.8621 48.125 46.4062V38.6719C48.125 38.216 47.9439 37.7789 47.6216 37.4565C47.2993 37.1342 46.8621 36.9531 46.4062 36.9531ZM16.3281 44.6875H10.3125V38.6719C10.3125 38.216 10.1314 37.7789 9.80909 37.4565C9.48676 37.1342 9.04959 36.9531 8.59375 36.9531C8.13791 36.9531 7.70074 37.1342 7.37841 37.4565C7.05608 37.7789 6.875 38.216 6.875 38.6719V46.4062C6.875 46.8621 7.05608 47.2993 7.37841 47.6216C7.70074 47.9439 8.13791 48.125 8.59375 48.125H16.3281C16.784 48.125 17.2211 47.9439 17.5435 47.6216C17.8658 47.2993 18.0469 46.8621 18.0469 46.4062C18.0469 45.9504 17.8658 45.5132 17.5435 45.1909C17.2211 44.8686 16.784 44.6875 16.3281 44.6875ZM8.59375 18.0469C9.04959 18.0469 9.48676 17.8658 9.80909 17.5435C10.1314 17.2211 10.3125 16.784 10.3125 16.3281V10.3125H16.3281C16.784 10.3125 17.2211 10.1314 17.5435 9.80909C17.8658 9.48676 18.0469 9.04959 18.0469 8.59375C18.0469 8.13791 17.8658 7.70074 17.5435 7.37841C17.2211 7.05608 16.784 6.875 16.3281 6.875H8.59375C8.13791 6.875 7.70074 7.05608 7.37841 7.37841C7.05608 7.70074 6.875 8.13791 6.875 8.59375V16.3281C6.875 16.784 7.05608 17.2211 7.37841 17.5435C7.70074 17.8658 8.13791 18.0469 8.59375 18.0469ZM37.8125 37.8125C37.5455 37.8131 37.282 37.7515 37.043 37.6325C36.8039 37.5135 36.5959 37.3405 36.4354 37.1271C35.3947 35.7396 34.0453 34.6135 32.4941 33.8378C30.9428 33.0622 29.2322 32.6584 27.4979 32.6584C25.7635 32.6584 24.0529 33.0622 22.5016 33.8378C20.9504 34.6135 19.601 35.7396 18.5604 37.1271C18.2863 37.4918 17.8786 37.7327 17.4269 37.7967C16.9752 37.8608 16.5166 37.7428 16.152 37.4687C15.7873 37.1947 15.5464 36.787 15.4824 36.3353C15.4183 35.8836 15.5363 35.425 15.8104 35.0604C17.3336 33.0208 19.3637 31.4151 21.6992 30.4025C20.4194 29.2341 19.5228 27.706 19.127 26.0189C18.7312 24.3317 18.8547 22.5643 19.4813 20.9486C20.1079 19.3329 21.2084 17.9444 22.6382 16.9653C24.0681 15.9862 25.7606 15.4623 27.4936 15.4623C29.2265 15.4623 30.919 15.9862 32.3489 16.9653C33.7787 17.9444 34.8792 19.3329 35.5058 20.9486C36.1324 22.5643 36.256 24.3317 35.8601 26.0189C35.4643 27.706 34.5677 29.2341 33.2879 30.4025C35.625 31.4144 37.6566 33.0202 39.1811 35.0604C39.3729 35.3153 39.4899 35.6185 39.5192 35.9362C39.5484 36.2539 39.4887 36.5734 39.3466 36.859C39.2046 37.1447 38.9859 37.3852 38.7149 37.5536C38.444 37.7219 38.1315 37.8116 37.8125 37.8125ZM27.5 29.2188C28.5198 29.2187 29.5167 28.9163 30.3647 28.3498C31.2126 27.7832 31.8735 26.9779 32.2638 26.0357C32.654 25.0935 32.7561 24.0568 32.5572 23.0566C32.3582 22.0564 31.8671 21.1376 31.146 20.4165C30.4249 19.6954 29.5062 19.2043 28.5059 19.0053C27.5057 18.8064 26.469 18.9085 25.5268 19.2987C24.5846 19.689 23.7793 20.3499 23.2127 21.1978C22.6462 22.0458 22.3438 23.0427 22.3438 24.0625C22.3438 25.43 22.887 26.7415 23.854 27.7085C24.821 28.6755 26.1325 29.2188 27.5 29.2188Z" fill="white"/>
</svg>
