<svg width="1039" height="648" viewBox="0 0 1039 648" fill="none" xmlns="http://www.w3.org/2000/svg">
<path d="M287.417 1V381.747L1.00195 453.166" stroke="white" stroke-opacity="0.5" stroke-width="0.25" stroke-linecap="round" stroke-linejoin="round"/>
<path d="M333.805 1V381.747L1.00195 485.473" stroke="white" stroke-opacity="0.5" stroke-width="0.25" stroke-linecap="round" stroke-linejoin="round"/>
<path d="M380.194 1V381.747L1.00195 539.302" stroke="white" stroke-opacity="0.5" stroke-width="0.25" stroke-linecap="round" stroke-linejoin="round"/>
<path d="M426.584 1V381.747L1.2207 646.778" stroke="white" stroke-opacity="0.5" stroke-width="0.25" stroke-linecap="round" stroke-linejoin="round"/>
<path d="M472.974 1V381.747L260.109 646.778" stroke="white" stroke-opacity="0.5" stroke-width="0.25" stroke-linecap="round" stroke-linejoin="round"/>
<path d="M519.362 1V381.747L518.999 646.778" stroke="white" stroke-opacity="0.5" stroke-width="0.25" stroke-linecap="round" stroke-linejoin="round"/>
<path d="M565.755 1V381.747L777.886 646.778" stroke="white" stroke-opacity="0.5" stroke-width="0.25" stroke-linecap="round" stroke-linejoin="round"/>
<path d="M612.143 1V381.747L1036.77 646.778" stroke="white" stroke-opacity="0.5" stroke-width="0.25" stroke-linecap="round" stroke-linejoin="round"/>
<path d="M658.536 1V381.747L1037.89 539.549" stroke="white" stroke-opacity="0.5" stroke-width="0.25" stroke-linecap="round" stroke-linejoin="round"/>
<path d="M704.924 1V381.747L1037.89 485.611" stroke="white" stroke-opacity="0.5" stroke-width="0.25" stroke-linecap="round" stroke-linejoin="round"/>
<path d="M751.313 1V381.747L1037.89 453.256" stroke="white" stroke-opacity="0.5" stroke-width="0.25" stroke-linecap="round" stroke-linejoin="round"/>
<path d="M797.706 1V381.747L1037.89 431.688" stroke="white" stroke-opacity="0.5" stroke-width="0.25" stroke-linecap="round" stroke-linejoin="round"/>
<path d="M844.094 1V381.747L1037.89 416.285" stroke="white" stroke-opacity="0.5" stroke-width="0.25" stroke-linecap="round" stroke-linejoin="round"/>
<path d="M890.482 1V381.747L1037.89 404.733" stroke="white" stroke-opacity="0.5" stroke-width="0.25" stroke-linecap="round" stroke-linejoin="round"/>
<path d="M936.875 1V381.747L1037.89 395.748" stroke="white" stroke-opacity="0.5" stroke-width="0.25" stroke-linecap="round" stroke-linejoin="round"/>
<path d="M983.263 1V381.747L1037.89 388.562" stroke="white" stroke-opacity="0.5" stroke-width="0.25" stroke-linecap="round" stroke-linejoin="round"/>
<path d="M1029.65 1V381.747L1037.89 382.68" stroke="white" stroke-opacity="0.5" stroke-width="0.25" stroke-linecap="round" stroke-linejoin="round"/>
<path d="M1.00195 416.238L194.636 381.747V1" stroke="white" stroke-opacity="0.5" stroke-width="0.25" stroke-linecap="round" stroke-linejoin="round"/>
<path d="M241.023 1V381.747L1 431.626" stroke="white" stroke-opacity="0.5" stroke-width="0.25" stroke-linecap="round" stroke-linejoin="round"/>
<path d="M148.247 1V381.747L1 404.699" stroke="white" stroke-opacity="0.5" stroke-width="0.25" stroke-linecap="round" stroke-linejoin="round"/>
<path d="M101.854 1V381.747L1.00195 395.719" stroke="white" stroke-opacity="0.5" stroke-width="0.25" stroke-linecap="round" stroke-linejoin="round"/>
<path d="M55.465 1V381.747L1 388.537" stroke="white" stroke-opacity="0.5" stroke-width="0.25" stroke-linecap="round" stroke-linejoin="round"/>
<path d="M9.07157 1V381.747L1 382.662" stroke="white" stroke-opacity="0.5" stroke-width="0.25" stroke-linecap="round" stroke-linejoin="round"/>
<path d="M1.00195 352.856H1037.89" stroke="white" stroke-opacity="0.5" stroke-width="0.25" stroke-linecap="round" stroke-linejoin="round"/>
<path d="M1.00195 323.963H1037.89" stroke="white" stroke-opacity="0.5" stroke-width="0.25" stroke-linecap="round" stroke-linejoin="round"/>
<path d="M1.00195 295.072H1037.89" stroke="white" stroke-opacity="0.5" stroke-width="0.25" stroke-linecap="round" stroke-linejoin="round"/>
<path d="M1.00195 266.182H1037.89" stroke="white" stroke-opacity="0.5" stroke-width="0.25" stroke-linecap="round" stroke-linejoin="round"/>
<path d="M1.00195 237.287H1037.89" stroke="white" stroke-opacity="0.5" stroke-width="0.25" stroke-linecap="round" stroke-linejoin="round"/>
<path d="M1.00195 208.396H1037.89" stroke="white" stroke-opacity="0.5" stroke-width="0.25" stroke-linecap="round" stroke-linejoin="round"/>
<path d="M1.00195 179.506H1037.89" stroke="white" stroke-opacity="0.5" stroke-width="0.25" stroke-linecap="round" stroke-linejoin="round"/>
<path d="M1.00195 150.612H1037.89" stroke="white" stroke-opacity="0.5" stroke-width="0.25" stroke-linecap="round" stroke-linejoin="round"/>
<path d="M1.00195 121.722H1037.89" stroke="white" stroke-opacity="0.5" stroke-width="0.25" stroke-linecap="round" stroke-linejoin="round"/>
<path d="M1.00195 92.8311H1037.89" stroke="white" stroke-opacity="0.5" stroke-width="0.25" stroke-linecap="round" stroke-linejoin="round"/>
<path d="M1.00195 63.9365H1037.89" stroke="white" stroke-opacity="0.5" stroke-width="0.25" stroke-linecap="round" stroke-linejoin="round"/>
<path d="M1.00195 35.0459H1037.89" stroke="white" stroke-opacity="0.5" stroke-width="0.25" stroke-linecap="round" stroke-linejoin="round"/>
<path d="M1.00195 6.15234H1037.89" stroke="white" stroke-opacity="0.5" stroke-width="0.25" stroke-linecap="round" stroke-linejoin="round"/>
<path d="M1037.89 508.858H1" stroke="white" stroke-opacity="0.5" stroke-width="0.25" stroke-linecap="round" stroke-linejoin="round"/>
<path d="M1037.89 486.526H1" stroke="white" stroke-opacity="0.5" stroke-width="0.25" stroke-linecap="round" stroke-linejoin="round"/>
<path d="M1037.89 469.008H1" stroke="white" stroke-opacity="0.5" stroke-width="0.25" stroke-linecap="round" stroke-linejoin="round"/>
<path d="M1037.89 538.297H1" stroke="white" stroke-opacity="0.5" stroke-width="0.25" stroke-linecap="round" stroke-linejoin="round"/>
<path d="M1037.89 454.895H1" stroke="white" stroke-opacity="0.5" stroke-width="0.25" stroke-linecap="round" stroke-linejoin="round"/>
<path d="M1037.89 443.284H1" stroke="white" stroke-opacity="0.5" stroke-width="0.25" stroke-linecap="round" stroke-linejoin="round"/>
<path d="M1037.89 384.344H1" stroke="white" stroke-opacity="0.5" stroke-width="0.25" stroke-linecap="round" stroke-linejoin="round"/>
<path d="M1037.89 381.747H1" stroke="white" stroke-opacity="0.5" stroke-width="0.25" stroke-linecap="round" stroke-linejoin="round"/>
<path d="M1037.89 390.304H1" stroke="white" stroke-opacity="0.5" stroke-width="0.25" stroke-linecap="round" stroke-linejoin="round"/>
<path d="M1037.89 387.185H1" stroke="white" stroke-opacity="0.5" stroke-width="0.25" stroke-linecap="round" stroke-linejoin="round"/>
<path d="M1037.89 418.205H1" stroke="white" stroke-opacity="0.5" stroke-width="0.25" stroke-linecap="round" stroke-linejoin="round"/>
<path d="M1037.89 433.562H1" stroke="white" stroke-opacity="0.5" stroke-width="0.25" stroke-linecap="round" stroke-linejoin="round"/>
<path d="M1037.89 578.883H1" stroke="white" stroke-opacity="0.5" stroke-width="0.25" stroke-linecap="round" stroke-linejoin="round"/>
<path d="M1037.89 397.57H1" stroke="white" stroke-opacity="0.5" stroke-width="0.25" stroke-linecap="round" stroke-linejoin="round"/>
<path d="M1037.89 393.749H1" stroke="white" stroke-opacity="0.5" stroke-width="0.25" stroke-linecap="round" stroke-linejoin="round"/>
<path d="M1037.89 412.035H1" stroke="white" stroke-opacity="0.5" stroke-width="0.25" stroke-linecap="round" stroke-linejoin="round"/>
<path d="M1037.89 406.619H1" stroke="white" stroke-opacity="0.5" stroke-width="0.25" stroke-linecap="round" stroke-linejoin="round"/>
<path d="M1037.89 401.833H1" stroke="white" stroke-opacity="0.5" stroke-width="0.25" stroke-linecap="round" stroke-linejoin="round"/>
<path d="M1037.89 425.306H1" stroke="white" stroke-opacity="0.5" stroke-width="0.25" stroke-linecap="round" stroke-linejoin="round"/>
<path d="M1036.77 646.778H1.2207" stroke="white" stroke-opacity="0.5" stroke-width="0.25" stroke-linecap="round" stroke-linejoin="round"/>
</svg>
