<svg width="2548" height="1421" viewBox="0 0 2548 1421" fill="none" xmlns="http://www.w3.org/2000/svg">
<path d="M0 1380.5H2548V1393.98C2548 1393.98 2431.96 1420.94 2300.28 1420.94C2168.6 1420.94 379.402 1419.59 247.722 1419.59C116.043 1419.59 0 1393.98 0 1393.98V1380.5Z" fill="url(#paint0_linear_432_1937)"/>
<path d="M0 1381C0 1379.9 0.895431 1379 2 1379H2546C2547.1 1379 2548 1379.9 2548 1381V1393.98H0V1381Z" fill="url(#paint1_linear_432_1937)"/>
<path d="M1084.71 1379H1464.94V1379C1464.94 1387.27 1458.23 1393.98 1449.96 1393.98H1099.69C1091.42 1393.98 1084.71 1387.27 1084.71 1379V1379Z" fill="url(#paint2_linear_432_1937)"/>
<path fill-rule="evenodd" clip-rule="evenodd" d="M242 44C242 19.6992 261.699 0 286 0H2262.08C2286.38 0 2306.08 19.6992 2306.08 44V1379.06H1464.94H1084.71H242V44ZM258 45.0684C258 27.3945 272.327 13.0684 290 13.0684H2258.8C2276.48 13.0684 2290.8 27.3945 2290.8 45.0684V1339.56H258V45.0684Z" fill="#1A202C"/>
<rect x="268" y="23" width="2017" height="1330" rx="35" stroke="black" stroke-width="30"/>
<defs>
<linearGradient id="paint0_linear_432_1937" x1="1274" y1="1380.5" x2="1274" y2="1420.94" gradientUnits="userSpaceOnUse">
<stop stop-color="#80868A"/>
<stop offset="1" stop-color="#2A2C2F"/>
</linearGradient>
<linearGradient id="paint1_linear_432_1937" x1="5.35215e-06" y1="1386.49" x2="2548" y2="1386.49" gradientUnits="userSpaceOnUse">
<stop stop-color="#2A2C2F"/>
<stop offset="0.208333" stop-color="#80868A"/>
<stop offset="0.770833" stop-color="#80868A"/>
<stop offset="1" stop-color="#2A2C2F"/>
</linearGradient>
<linearGradient id="paint2_linear_432_1937" x1="1084.71" y1="1386.49" x2="1464.94" y2="1386.49" gradientUnits="userSpaceOnUse">
<stop stop-color="#2A2C2F"/>
<stop offset="0.229167" stop-color="#80868A"/>
<stop offset="0.802083" stop-color="#80868A"/>
<stop offset="1" stop-color="#2A2C2F"/>
</linearGradient>
</defs>
</svg>
