<svg width="449" height="449" viewBox="0 0 449 449" fill="none" xmlns="http://www.w3.org/2000/svg">
<rect x="10" y="10" width="429" height="429" rx="62" fill="#FCD34D"/>
<rect x="10" y="10" width="429" height="429" rx="62" stroke="black" stroke-width="20"/>
<path d="M236.019 377C215.366 377 195.339 372.945 176.467 364.968C158.24 357.257 141.888 346.229 127.829 332.171C113.789 318.112 102.743 301.76 95.0316 283.533C87.0547 264.661 83 244.634 83 223.981C83 203.328 87.0358 183.301 95.0316 164.429C102.743 146.202 113.771 129.851 127.829 115.792C141.888 101.752 158.24 90.7053 176.467 82.9937C195.339 75.0547 215.366 71 236.019 71C242.613 71 249.225 71.4168 255.648 72.2505C269.366 73.9937 282.781 77.6316 295.571 83.0316C312.055 90.0042 327.004 99.6863 340.116 111.869L320.373 131.613C297.276 110.467 267.528 98.8905 236.019 98.8905C167.032 98.8905 110.909 155.013 110.909 224C110.909 292.987 167.032 349.109 236.019 349.109C266.808 349.109 296.12 337.949 319.027 317.6L338.467 337.627C325.754 349.109 311.354 358.299 295.571 364.968C282.44 370.52 268.646 374.196 254.549 375.882C248.486 376.621 242.253 377 236.019 377Z" fill="black"/>
<path d="M236.019 297.382C226.11 297.382 216.503 295.449 207.465 291.622C198.731 287.927 190.886 282.641 184.141 275.896C177.396 269.15 172.11 261.306 168.415 252.571C164.587 243.533 162.636 233.927 162.636 224.018C162.636 214.108 164.568 204.502 168.415 195.464C172.11 186.729 177.415 178.885 184.141 172.14C190.886 165.394 198.731 160.108 207.465 156.413C216.503 152.586 226.11 150.634 236.019 150.634C245.928 150.634 255.535 152.567 264.573 156.394C271.564 159.35 277.968 163.329 283.728 168.256L263.928 188.056C255.99 181.86 246.27 178.506 236.019 178.506C210.933 178.506 190.526 198.912 190.526 223.999C190.526 249.085 210.933 269.491 236.019 269.491C246.004 269.491 255.535 266.27 263.398 260.34L282.914 280.424C277.381 285.047 271.242 288.799 264.592 291.603C255.554 295.43 245.947 297.363 236.038 297.363L236.019 297.382Z" fill="black"/>
<path d="M289.019 227.282L356.32 151L376.461 171.141C375.419 172.335 374.415 173.547 373.448 174.779L337.903 213.091H434.971V241.531H337.884L373.126 279.425C374.434 281.131 375.817 282.779 377.276 284.408L357.684 304.568L289 227.301L289.019 227.282Z" fill="black"/>
</svg>
