<svg width="456" height="395" viewBox="0 0 456 395" fill="none" xmlns="http://www.w3.org/2000/svg">
<g clip-path="url(#clip0_442_2056)">
<path d="M410.57 202.67L410.11 317.02L378.72 335.26L379.18 220.91L410.57 202.67Z" fill="#E2AE04"/>
<path d="M379.18 220.91L378.72 335.26L347.12 317.02L347.58 202.67L379.18 220.91Z" fill="#FCD34D"/>
<path d="M410.57 202.67L379.18 220.91L347.58 202.67L378.97 184.43L410.57 202.67Z" fill="#FCD34D"/>
<path d="M450.59 288.959L450.13 340.119L418.74 358.369L419.2 307.199L450.59 288.959Z" fill="#CFCDE2"/>
<path d="M419.2 307.199L418.74 358.369L387.14 340.119L387.6 288.959L419.2 307.199Z" fill="#E7E6F1"/>
<path d="M450.59 288.959L419.2 307.199L387.6 288.959L418.99 270.719L450.59 288.959Z" fill="#F4F4FB"/>
<path d="M344.8 83.9702L353.8 78.7402L353.09 331.9L344.08 337.14L344.8 83.9702Z" fill="#BFC7ED"/>
<path d="M332.18 70.96C336.07 73.2 339.22 78.66 339.21 83.13L338.49 336.3C338.49 340.77 335.31 342.58 331.42 340.33L229.19 281.31C225.3 279.07 222.15 273.61 222.16 269.14L222.88 15.97C222.89 11.5 226.06 9.69 229.96 11.94L332.19 70.96H332.18Z" fill="#F4F4FA"/>
<path d="M272.7 43.3609L291.51 54.2209C292.24 54.6409 292.83 54.3009 292.83 53.4609C292.83 52.6209 292.23 51.5909 291.51 51.1709L272.7 40.3109C271.97 39.8909 271.38 40.2309 271.38 41.0709C271.38 41.9109 271.98 42.9409 272.7 43.3609Z" fill="#2A1A30"/>
<path d="M264.92 37.2103C264.92 38.4403 265.78 39.9303 266.85 40.5503C267.92 41.1703 268.78 40.6703 268.78 39.4403C268.78 38.2103 267.92 36.7203 266.85 36.1003C265.79 35.4803 264.92 35.9803 264.92 37.2103Z" fill="#2A1A30"/>
<path d="M241.03 1.44922L343.26 60.4692C344.16 60.9892 345.04 61.6292 345.87 62.3492C347.59 63.8492 349.15 65.7392 350.41 67.8192L341.41 73.0492C340.14 70.9692 338.59 69.0792 336.87 67.5792C336.03 66.8492 335.16 66.2192 334.26 65.6992L232.03 6.67922L241.03 1.44922Z" fill="#F4F4FA"/>
<path d="M334.26 65.7105L343.26 60.4805C349.1 63.8505 353.82 72.0305 353.8 78.7405L344.8 83.9705C344.82 77.2605 340.1 69.0805 334.26 65.7105Z" fill="#EBEEFC"/>
<path d="M350 338.69L341 343.92C342.9 342.82 344.08 340.47 344.08 337.14L353.08 331.91C353.08 335.24 351.89 337.59 349.99 338.69H350Z" fill="#BFC7ED"/>
<path d="M350 338.69L341 343.92C342.9 342.82 344.08 340.47 344.08 337.14L353.08 331.91C353.08 335.25 351.89 337.59 349.99 338.7L350 338.69Z" fill="#BFC7ED"/>
<mask id="mask0_442_2056" style="mask-type:luminance" maskUnits="userSpaceOnUse" x="341" y="331" width="13" height="13">
<path d="M350 338.69L341 343.92C342.9 342.82 344.08 340.47 344.08 337.14L353.08 331.91C353.08 335.25 351.89 337.59 349.99 338.7L350 338.69Z" fill="white"/>
</mask>
<g mask="url(#mask0_442_2056)">
<g style="mix-blend-mode:multiply" opacity="0.2">
<path d="M344.08 337.14L353.08 331.91C353.08 335.24 351.89 337.59 349.99 338.69L340.99 343.92C342.89 342.82 344.07 340.47 344.07 337.14H344.08Z" fill="#BFC7ED"/>
</g>
</g>
<path d="M224.5 5.95042L233.5 0.720421C235.42 -0.399579 238.09 -0.239579 241.03 1.46042L232.03 6.69042C229.09 4.99042 226.43 4.84042 224.5 5.95042Z" fill="#F4F4FA"/>
<mask id="mask1_442_2056" style="mask-type:luminance" maskUnits="userSpaceOnUse" x="224" y="0" width="18" height="7">
<path d="M241.03 1.45L232.03 6.68C229.09 4.98 226.43 4.83 224.5 5.94L233.5 0.71C234.31 0.24 235.25 0 236.28 0C237.71 0 239.32 0.47 241.03 1.45Z" fill="white"/>
</mask>
<g mask="url(#mask1_442_2056)">
<path d="M224.5 5.95051L233.5 0.720506C234.67 0.0405065 236.1 -0.169494 237.71 0.150506L228.71 5.38051C227.1 5.06051 225.67 5.27051 224.5 5.95051Z" fill="#F4F4FA"/>
<path d="M228.71 5.38039L237.72 0.150391C238.76 0.360391 239.88 0.790391 241.03 1.45039L232.03 6.68039C230.87 6.01039 229.76 5.58039 228.71 5.37039V5.38039Z" fill="#F4F4FA"/>
</g>
<path d="M221.42 12.7299C221.42 11.6699 221.54 10.7099 221.77 9.85991C222.29 7.88991 223.37 6.48991 224.82 5.77991C226.15 5.12991 227.8 5.04991 229.62 5.60991C230.39 5.84991 231.2 6.20991 232.03 6.67991L334.26 65.6999C338.84 68.3399 342.73 73.9299 344.19 79.4599C344.59 80.9899 344.81 82.5099 344.81 83.9599L344.09 337.13C344.09 337.85 344.03 338.52 343.93 339.15C343.57 341.27 342.63 342.83 341.3 343.73C339.36 345.04 336.57 344.96 333.48 343.18L231.25 284.16C225.41 280.79 220.69 272.61 220.71 265.9L221.43 12.7299H221.42ZM222.16 269.13C222.14 273.6 225.3 279.06 229.19 281.3L331.42 340.32C333.48 341.51 335.34 341.56 336.63 340.69C337.52 340.09 338.14 339.05 338.38 337.64C338.45 337.22 338.49 336.77 338.49 336.29L339.21 83.1199C339.21 82.1499 339.07 81.1399 338.8 80.1199C337.83 76.4399 335.23 72.6999 332.18 70.9499L229.95 11.9299C229.4 11.6099 228.86 11.3699 228.35 11.2099C227.13 10.8299 226.03 10.8899 225.15 11.3199C224.18 11.7999 223.46 12.7299 223.11 14.0399C222.96 14.6099 222.88 15.2499 222.88 15.9499L222.16 269.12V269.13Z" fill="#EBEEFC"/>
<path d="M339.44 93.1593L338.73 336.429C338.73 337.769 338.44 338.879 337.92 339.699C336.74 341.619 334.37 342.029 331.65 340.459L229.42 281.439C228.89 281.139 228.38 280.769 227.88 280.349C224.73 277.729 222.38 273.129 222.39 269.259L223.11 25.9993C223.12 21.5293 226.29 19.7193 230.18 21.9693L332.41 80.9893C335.4 82.7193 337.96 86.3493 338.97 89.9693C339.27 91.0493 339.44 92.1293 339.44 93.1593Z" fill="#2E2E37"/>
<path d="M55.8501 191.492C52.6701 187.552 52.1601 187.432 47.5601 180.802C46.3201 179.012 45.3301 177.022 44.6901 174.932C44.0501 172.832 44.1801 170.862 44.6001 168.692C44.7901 167.712 45.1301 166.612 46.0401 166.152C46.8601 165.732 47.8501 166.002 48.6901 166.342C53.7601 168.392 57.5901 173.072 60.0001 177.832C62.2501 182.262 68.55 192.462 68.8 193.382C69.97 197.772 70.06 202.682 64.33 200.782C62.12 200.052 57.5801 193.642 55.8501 191.492Z" fill="#CFD2FA"/>
<path d="M32.64 297.541C33.16 302.281 33.1701 307.061 33.1801 311.831C33.1801 313.281 33.6701 314.641 33.5401 316.101C33.4501 317.031 33.11 317.981 32.42 318.611C31.72 319.251 30.7401 319.511 29.7901 319.501C27.8501 319.481 26.0001 318.381 24.9001 316.791C23.2901 314.441 23.67 311.451 23.39 308.761C23.19 306.831 23.0501 304.891 22.9701 302.961C22.8601 300.511 23.74 299.401 25.52 297.861C26.9 296.681 28.2101 294.761 29.7801 293.911C30.5301 293.501 31.63 293.871 32.23 294.411C32.91 295.011 33.27 295.921 33.33 296.831L32.6201 297.541H32.64Z" fill="#15151A"/>
<path d="M46.3301 290.882C47.8101 291.122 49.3701 292.102 50.7001 292.722C53.8701 294.212 56.9601 295.862 60.0501 297.512C62.2301 298.682 67.1101 300.712 66.0101 303.962C65.5001 305.462 63.9901 306.452 62.4301 306.732C59.3301 307.282 56.6301 306.362 54.1701 304.612C51.7301 302.882 48.9801 301.612 46.0801 300.882C43.6001 300.262 42.0001 298.882 41.9101 296.212C41.8301 293.602 43.2101 290.382 46.3301 290.892V290.882Z" fill="#15151A"/>
<path d="M54.52 235.042C53.44 243.072 54.4601 266.542 46.6301 264.452C44.1801 263.802 39.9201 259.472 39.5401 254.132C39.3301 251.252 39.49 247.152 39.33 244.272C39.01 238.312 33.22 219.122 45.37 215.432C47.2 214.882 50.0201 211.272 51.5701 212.552C54.8801 215.282 55.3101 229.142 54.5101 235.042H54.52Z" fill="#15151A"/>
<path d="M51.2 293.261C50.91 294.961 49.86 296.821 44.09 296.591C42.52 296.531 41.64 291.961 41.39 290.741C40.3 285.471 41.23 279.221 40.87 273.851C40.3 265.311 39.4 259.251 39.77 255.311C39.92 253.681 41.97 255.421 42.89 254.071C45.12 250.791 53.27 252.811 52.99 254.441C51.77 261.461 51.22 293.201 51.21 293.271L51.2 293.261Z" fill="#15151A"/>
<path d="M38.0801 258.291C38.0301 260.111 37.8401 261.931 37.6801 263.741C37.4101 266.671 37.1201 269.591 36.8201 272.511C35.1201 288.911 34.8901 297.301 33.4401 300.691C32.2401 303.491 28.5001 303.171 26.0901 302.301C25.0401 301.921 24.0501 301.271 23.4501 300.311C22.8801 299.381 22.7201 298.261 22.6001 297.181C21.4101 286.671 22.1901 276.251 24.9601 266.051C25.6101 263.661 26.4201 261.191 27.8501 259.141C28.3601 258.411 31.1901 263.471 31.9701 263.051C32.8201 262.591 30.9501 261.111 31.9101 261.211C33.7201 261.401 35.4401 262.301 36.6201 263.691L38.0901 258.291H38.0801Z" fill="#47464E"/>
<path d="M26.01 215.981C26.01 215.981 26.76 215.031 26.77 215.041C29.39 216.471 32.68 216.221 35.82 216.691C42.59 217.691 43.08 218.911 47.64 216.041C48.83 217.211 47.5 225.161 47.29 226.181C46.06 232.221 42.2 231.831 41.92 234.651C41.28 241.191 40.06 254.121 38.89 260.591C38.43 263.111 37.89 265.681 36.48 267.811C34.83 270.291 32.05 271.571 29.1 271.221C28.34 271.131 27.57 270.861 27.02 270.331C25.73 269.091 24.33 269.381 24.55 267.611C25.2 262.461 24.74 255.181 23.77 250.081C21.8 239.761 21.22 228.481 26.01 215.971V215.981Z" fill="#47464E"/>
<path d="M25.73 205.412L25.7501 205.432C25.9701 207.142 26.1101 208.852 26.1801 210.572C26.1001 208.842 25.95 207.122 25.73 205.412Z" fill="#F3A984"/>
<path d="M26.18 210.582C26.23 211.632 26.25 212.682 26.25 213.732C26.23 213.732 26.21 213.712 26.19 213.702C26.22 212.662 26.21 211.622 26.18 210.582Z" fill="#F3A984"/>
<path d="M25.73 205.411L25.75 205.431C22.92 183.331 13.56 180.461 25.73 172.221C28.77 170.161 34.85 167.451 40.79 165.591C49.11 162.991 50.28 166.021 52.67 172.661C54.9 178.841 54.25 189.031 53.26 195.601C51.75 205.551 53.05 209.881 53.54 215.931C46.26 221.091 35.82 218.851 27.51 216.841C26.99 216.751 26.5 216.591 26.03 216.391C26.36 212.621 26.2 209.161 25.73 205.411Z" fill="#E7E8FC"/>
<path d="M40.9401 210.782C41.8501 211.552 42.9201 212.472 43.8001 213.232C45.0901 211.212 45.1201 211.042 46.3201 209.012C46.3601 196.972 45.8401 185.692 42.9701 174.172C41.8601 174.962 41.3001 175.362 40.1701 176.152C41.6301 187.182 42.5401 198.652 40.9401 210.782Z" fill="#47464E"/>
<path d="M44.1601 173.901C44.1601 173.901 44.1801 174.001 44.1801 174.071C44.1801 174.411 43.9601 174.831 43.8501 175.151C43.6001 175.841 43.2901 176.501 42.9101 177.131C42.7101 177.471 42.4601 177.831 42.0901 177.981C41.6701 178.151 41.19 178.021 40.8 177.801C40.35 177.551 39.5301 177.181 39.6301 176.621C39.7201 176.131 39.89 175.641 40.05 175.171C40.38 174.211 40.82 173.031 41.7 172.441C42.69 171.781 43.4 172.771 43.92 173.501C44.03 173.651 44.1201 173.751 44.1501 173.891L44.1601 173.901Z" fill="#15151A"/>
<path d="M31.5901 169.032C31.3801 175.752 43.9801 175.862 43.8001 169.542C43.5501 160.742 43.0101 159.722 38.8601 158.362C37.7201 157.992 36.5301 157.702 35.3301 157.682C30.9501 157.602 32.6501 159.822 32.8101 161.372C33.3001 165.972 31.6601 166.612 31.5801 169.032H31.5901Z" fill="#F3A984"/>
<path d="M33.67 167.291C37.22 165.011 40.31 168.851 43.79 169.191C43.79 169.311 43.79 169.431 43.8 169.551C43.97 175.581 32.52 175.751 31.64 169.931C32.08 168.921 32.72 168.011 33.67 167.301V167.291Z" fill="#F3A984"/>
<path d="M41.74 173.172C41.96 173.892 42.91 174.142 43.54 174.562C43.82 174.742 44.29 175.102 44.65 175.022C45.01 174.942 45.23 174.462 45.35 174.162C46.24 171.992 46.75 169.632 46.77 167.282C46.77 166.542 46.66 165.712 46.07 165.182C45.55 164.712 44.64 164.612 44 164.892C43.31 165.192 43.14 166.552 43.39 167.172C44.27 169.422 43.27 172.012 41.72 173.162L41.74 173.172Z" fill="#F2F2FC"/>
<path d="M41.8401 173.203C41.8401 173.203 40.7501 174.933 39.4101 176.123C39.0801 176.413 38.8101 176.783 38.3701 176.633C36.2101 175.943 31.6501 172.113 30.7401 169.693C30.4101 168.823 31.0501 167.733 31.5401 167.053C31.6301 166.933 32.3301 165.983 32.4601 165.893C32.5501 166.033 33.0201 167.763 33.7801 168.883C35.5301 171.463 38.7301 172.773 41.8301 173.203H41.8401Z" fill="#F2F2FC"/>
<path d="M48.65 148.701C49.5 150.111 49.97 151.731 49.92 153.441C49.9 154.181 49.76 154.911 49.5 155.601C49.25 156.251 48.83 156.871 48.81 157.581C48.78 158.421 49.37 159.371 49.63 160.171C49.86 160.891 49.99 161.701 49.69 162.391C49.52 162.791 49.22 163.121 48.98 163.481C47.83 165.211 48.83 167.801 46.87 169.021C46.38 169.321 45.81 169.371 45.23 169.391C44.51 169.411 41.3 168.441 40.06 167.871C38.69 167.231 37.37 165.631 36.4 164.481C35.64 163.581 34.35 162.411 33.87 161.331C33.72 161.001 34.09 160.951 33.76 160.781C33.56 160.681 33.34 159.391 33.12 159.361C32.85 159.331 32.5 159.031 32.28 158.871C31.85 158.571 31.62 159.621 31.49 159.121C30.93 156.981 30.2 154.791 30.33 152.551C30.45 150.501 30.44 148.731 31.8 147.011C32.82 145.721 34.26 144.791 35.81 144.231C38.18 143.381 40.84 143.391 43.21 144.251C45.45 145.061 47.42 146.661 48.64 148.691L48.65 148.701Z" fill="#FFC7AD"/>
<path d="M41.32 152.001C40.6 151.911 39.22 151.631 38.66 152.251C37.88 153.111 38.31 154.441 38.41 155.451C38.55 156.861 38.61 158.281 38.7 159.691C38.72 159.991 38.74 160.311 38.58 160.561C38.36 160.921 37.87 161.031 37.46 160.921C37.05 160.811 36.72 160.521 36.42 160.241C35.89 159.751 35.4 159.211 34.93 158.661C34.54 158.201 34.11 157.721 33.51 158.211C32.86 158.741 32.79 160.031 32.92 160.791C32.94 160.921 33.14 161.931 32.74 161.901C32.33 161.871 29.1 157.891 29.48 151.661C29.85 145.681 34.09 144.921 34.09 144.921C34.09 144.921 36.19 141.991 40.97 142.641C43.86 143.031 46.97 144.001 48.93 146.291C49.93 147.461 50.58 148.931 50.72 150.461C50.77 150.991 50.88 151.811 50.46 152.211C50.07 152.591 49.28 152.691 48.77 152.781C47.23 153.061 45.65 152.801 44.12 152.501C43.19 152.311 42.25 152.111 41.31 152.001H41.32Z" fill="#15151A"/>
<path d="M33.55 156.761C31.77 156.611 31.28 158.801 32.46 160.541C32.81 161.041 33.43 161.501 33.89 161.911C37.03 164.691 37.89 161.771 36.89 160.821C34.58 158.621 35.78 156.961 33.55 156.771V156.761Z" fill="#FFC7AD"/>
<path d="M34.5401 161.001C34.3401 160.811 32.3301 159.571 33.7301 158.781C34.1201 158.561 34.5401 158.911 34.5901 159.311C34.6201 159.521 34.5501 159.731 34.5701 159.951C34.5901 160.071 34.6401 160.191 34.7001 160.301C34.8701 160.601 35.4801 160.891 35.3501 161.321C35.2401 161.701 34.6501 161.111 34.5301 161.001H34.5401Z" fill="#F3A984"/>
<path d="M22.74 210.83C22.92 211.01 23.11 211.18 23.37 211.3C23.74 211.48 24.18 211.54 24.58 211.41C25.09 211.25 25.45 210.81 25.8 210.41C26.36 209.75 26.96 209.12 27.58 208.52C27.74 208.36 27.94 208.2 28.16 208.22C28.36 208.24 28.52 208.42 28.58 208.61C28.62 208.74 28.5 209.38 28.58 209.4C28.75 209.44 29.14 209.21 29.31 209.16C29.6 209.07 29.89 208.99 30.18 208.91C30.78 208.76 31.39 208.65 32.01 208.59C33.22 208.46 34.46 208.49 35.66 208.68C35.77 208.7 35.88 208.72 35.97 208.77C36.06 208.83 36.13 208.93 36.11 209.04C36.09 209.16 35.98 209.23 35.87 209.29C35.06 209.73 34.12 209.79 33.24 210C32.86 210.09 32.53 210.27 32.15 210.38C31.66 210.52 31.19 210.69 30.73 210.91C32.22 210.59 33.74 210.42 35.26 210.41C35.57 210.41 36.3 210.44 36.49 210.74C36.74 211.15 36.07 211.41 35.8 211.5C34.97 211.79 34.14 212.08 33.32 212.37C34.23 212.05 35.25 211.98 36.2 212.09C36.67 212.14 37.01 212.16 36.88 212.72C36.79 213.09 36.5 213.4 36.12 213.46C35.54 213.55 34.97 213.63 34.4 213.75C33.6 213.92 32.81 214.13 32.06 214.45C32.7 214.5 33.35 214.55 33.96 214.76C34.46 214.93 35.05 215.25 35.33 215.72C35.52 216.03 35.55 216.65 35.07 216.68C34.56 216.72 34.05 216.72 33.55 216.69C32.48 216.63 31.41 216.46 30.34 216.61C28.79 216.82 27.38 217.69 25.83 217.88C24.43 218.05 23.03 217.65 21.79 217.02C20.63 216.43 19.78 215.41 18.7 214.72C18.04 214.3 17.32 214.06 16.78 213.49C16.18 212.86 15.6 212.2 15.04 211.53C14.77 211.21 14.5 210.85 14.48 210.43C14.45 209.85 14.91 209.36 15.39 209.02C16.03 208.58 16.76 208.27 17.52 208.12C18.23 207.98 19.03 207.84 19.7 208.17C20.59 208.6 21.37 209.5 22.12 210.15C22.36 210.36 22.55 210.6 22.77 210.82L22.74 210.83Z" fill="#FFC7AD"/>
<path d="M23.3 174C23.3 174 24.66 174.81 25.11 181.09C25.23 182.75 24.96 184.43 24.66 186.06C24.39 187.53 23.8 189.49 22.55 190.41C21.35 191.3 20.19 192.28 19.02 193.23C16.66 195.15 14.26 197.03 11.82 198.85C10.69 199.69 9.43001 200.91 8.10001 201.44C4.33001 202.93 0.690015 200.92 0.070015 198.13C-0.169985 197.07 0.259988 195.91 0.729988 194.98C1.40999 193.62 5.65999 189.06 6.85999 187.8C18.97 175.11 23.3 173.99 23.3 173.99V174Z" fill="#E7E8FC"/>
<path d="M19.96 215.88C18.28 216.34 15.96 214.15 14.87 213.27C12.31 211.22 2.67998 204.48 0.209984 198.64C-0.380016 197.24 3.10999 195.94 4.74999 194.54C5.86999 193.58 7.76998 194.11 8.98998 194.52C10.51 195.03 23.5 209.91 23.71 210.69C24.17 212.35 21.26 215.53 19.95 215.88H19.96Z" fill="#E7E8FC"/>
<path d="M48.7601 170.282C48.7201 170.072 48.7201 169.842 48.8901 169.662C49.1401 169.402 49.6001 169.452 49.8501 169.532C50.2601 169.662 50.5701 169.952 50.7901 170.262C51.0801 170.682 51.2801 171.162 51.6201 171.552C51.7201 171.652 51.8301 171.762 51.9901 171.792C52.1501 171.822 52.3601 171.762 52.4701 171.612C52.6701 171.352 52.4401 170.932 52.3701 170.712C52.2601 170.362 52.1301 170.022 51.9601 169.692C51.7001 169.202 51.3701 168.602 50.9001 168.262C50.3801 167.892 49.6501 167.702 49.1001 167.352C48.9901 167.282 48.8801 167.202 48.8101 167.102C48.7101 166.932 48.7401 166.702 48.7801 166.472C48.8801 165.972 48.9001 165.572 49.4601 165.502C49.8401 165.452 50.2301 165.512 50.6001 165.532C51.1601 165.562 51.7101 165.632 52.2701 165.682C53.2301 165.762 54.2901 165.682 55.0601 166.342C55.6901 166.892 56.0601 167.672 56.4201 168.412C56.9601 169.532 57.2001 170.772 57.4101 171.982C57.6001 173.052 57.8001 174.132 57.9401 175.222C58.0501 176.102 56.7801 177.072 55.8501 177.312C55.6401 177.362 55.4401 177.402 55.2401 177.412C54.4701 177.462 53.8801 177.142 53.4301 176.712C53.2101 176.492 52.3101 175.342 52.0001 175.022C50.7301 173.712 49.5701 172.302 48.8701 170.612C48.8301 170.522 48.7901 170.412 48.7601 170.282Z" fill="#F3A984"/>
<path d="M57.5 174.311C59.24 174.411 60.75 177.211 61.51 178.381C63.86 182.001 66.08 185.541 68.02 189.411C69.12 191.601 70.39 193.921 70.95 196.301C71.53 198.721 70.03 200.971 66.84 201.011C64.28 201.041 59.69 194.451 58.84 192.521C57.15 188.671 54.89 184.941 53.35 181.031C53.03 180.231 52.25 178.941 52.29 178.051C52.38 176.331 56.14 174.231 57.49 174.301L57.5 174.311Z" fill="#F2F2FC"/>
<path d="M36.74 128.661C37.05 128.661 37.3 128.411 37.3 128.101C37.3 125.051 36.64 123.101 35.29 122.161L32.6 120.641C30.16 119.091 28.96 116.841 28.96 113.751C28.96 110.661 29.79 107.551 31.44 104.781C33.09 102.001 35.42 99.7307 38.38 98.0207C41.14 96.4207 43.39 95.9807 45.04 96.7007C46.67 97.4107 47.47 99.1107 47.5 101.901C47.5 102.211 47.75 102.451 48.06 102.451C48.37 102.451 48.61 102.191 48.61 101.891C48.58 98.6607 47.52 96.5707 45.47 95.6807C43.48 94.8107 40.9 95.2707 37.81 97.0607C34.69 98.8607 32.22 101.271 30.47 104.221C28.72 107.171 27.83 110.381 27.83 113.761C27.83 117.141 29.24 119.851 32.02 121.601L34.69 123.111C35.66 123.791 36.18 125.491 36.18 128.111C36.18 128.421 36.43 128.671 36.74 128.671V128.661Z" fill="#35353F"/>
<path d="M38.35 133.92C38.35 133.37 38.21 133 37.92 132.79C37.63 132.58 37.21 132.64 36.64 132.97C36.08 133.3 35.65 133.73 35.36 134.27C35.07 134.81 34.92 135.35 34.92 135.9C34.92 136.45 35.07 136.82 35.36 137.01C35.65 137.2 36.08 137.13 36.64 136.81C37.2 136.48 37.63 136.06 37.92 135.53C38.21 135.01 38.35 134.47 38.35 133.92Z" fill="#35353F"/>
<path d="M15.9316 148.62L27.3997 150.297L27.2376 151.405L15.7696 149.728L15.9316 148.62Z" fill="#35353F"/>
<path d="M20.7072 144.073L28.1927 147.795L27.6941 148.798L20.2085 145.075L20.7072 144.073Z" fill="#35353F"/>
<path d="M21.1189 137.498L29.9153 145.527L29.1602 146.355L20.3638 138.325L21.1189 137.498Z" fill="#35353F"/>
<path d="M138.47 110.46L153.47 104.65C168.85 98.6903 188.18 102.92 207.74 118.76L192.74 124.58C173.17 108.75 153.85 104.51 138.47 110.47V110.46Z" fill="#F4F4FB"/>
<path d="M153.47 104.65L138.47 110.47C153.85 104.51 173.18 108.74 192.74 124.58L207.74 118.76C193.78 107.47 179.95 102.07 167.58 102.07C162.61 102.07 157.88 102.94 153.47 104.65Z" fill="#F4F4FB"/>
<mask id="mask2_442_2056" style="mask-type:luminance" maskUnits="userSpaceOnUse" x="138" y="102" width="70" height="23">
<path d="M153.47 104.65L138.47 110.47C153.85 104.51 173.18 108.74 192.74 124.58L207.74 118.76C193.78 107.47 179.95 102.07 167.58 102.07C162.61 102.07 157.88 102.94 153.47 104.65Z" fill="white"/>
</mask>
<g mask="url(#mask2_442_2056)">
<path d="M138.47 110.46L153.47 104.65C168.85 98.6903 188.18 102.92 207.74 118.76L192.74 124.58C173.17 108.75 153.85 104.51 138.47 110.47V110.46Z" fill="#CFCDE2"/>
</g>
<path d="M233.39 310.82L218.39 316.64C233.57 310.76 244.91 294.93 248.84 270.52C256.75 221.38 231.63 156.03 192.75 124.57L207.75 118.75C246.63 150.21 271.75 215.55 263.84 264.7C259.91 289.11 248.58 304.94 233.39 310.82Z" fill="#F4F4FB"/>
<path d="M192.74 124.57C231.62 156.03 256.74 221.37 248.83 270.52C244.9 294.93 233.57 310.76 218.38 316.64L233.38 310.82C248.56 304.94 259.9 289.11 263.83 264.7C271.74 215.56 246.62 150.21 207.74 118.75L192.74 124.57Z" fill="#F4F4FB"/>
<mask id="mask3_442_2056" style="mask-type:luminance" maskUnits="userSpaceOnUse" x="192" y="118" width="74" height="199">
<path d="M192.74 124.57C231.62 156.03 256.74 221.37 248.83 270.52C244.9 294.93 233.57 310.76 218.38 316.64L233.38 310.82C248.56 304.94 259.9 289.11 263.83 264.7C271.74 215.56 246.62 150.21 207.74 118.75L192.74 124.57Z" fill="white"/>
</mask>
<g mask="url(#mask3_442_2056)">
<path d="M192.74 124.57L207.74 118.75C246.62 150.21 271.74 215.55 263.83 264.7C259.9 289.11 248.57 304.94 233.38 310.82L218.38 316.64C233.56 310.76 244.9 294.93 248.83 270.52C256.73 221.37 231.62 156.03 192.74 124.57Z" fill="#CFCDE2"/>
</g>
<path d="M192.74 124.571C231.62 156.031 256.74 221.371 248.83 270.521C240.92 319.661 202.99 334.001 164.11 302.531C125.22 271.071 100.11 205.731 108.02 156.581C115.93 107.431 153.85 93.1006 192.74 124.561V124.571Z" fill="#FCD34D"/>
<path d="M188.81 149.031C217.01 171.841 235.22 219.231 229.48 254.861C223.75 290.501 196.24 300.891 168.05 278.081C139.85 255.271 121.64 207.881 127.37 172.251C133.1 136.611 160.61 126.221 188.81 149.031Z" fill="#F4F4FB"/>
<path d="M185.37 170.371C204.24 185.641 216.43 217.351 212.59 241.201C208.75 265.051 190.35 272.011 171.48 256.741C152.61 241.471 140.42 209.761 144.26 185.911C148.1 162.061 166.5 155.101 185.38 170.371H185.37Z" fill="#FCD34D"/>
<path d="M182.26 189.701C192.68 198.131 199.41 215.641 197.29 228.811C195.17 241.981 185.01 245.821 174.59 237.391C164.17 228.961 157.44 211.451 159.56 198.281C161.68 185.111 171.84 181.271 182.26 189.701Z" fill="#F4F4FB"/>
<path d="M179.92 204.261C183.98 207.551 186.6 214.371 185.78 219.501C184.95 224.631 180.99 226.131 176.93 222.841C172.87 219.551 170.24 212.731 171.07 207.601C171.9 202.471 175.86 200.971 179.92 204.261Z" fill="#FCD34D"/>
<path d="M101.15 252.22L97.94 252.31L96.93 261.53L115.11 251.5L101.15 252.22Z" fill="#FCD34D"/>
<path d="M97.1999 253.82L90.5799 255.33L96.9599 261.55L115.17 251.34L97.1999 253.82Z" fill="#FCD34D"/>
<path d="M103.73 263.9L97.8401 269.39L97.1301 261.58L115.3 251.23L103.73 263.9Z" fill="#FCD34D"/>
<path d="M175.499 217.189L176.078 218.229L97.3488 262.085L96.7697 261.045L175.499 217.189Z" fill="#35353F"/>
<path d="M181 216.35L172.83 223.66L169.17 216.99L179.26 214.15C179.85 214.88 180.44 215.61 181.01 216.35H181Z" fill="#CFCDE2"/>
<path d="M100.46 264.401L94.2901 269.711L97.0401 261.681L113.8 252.471L100.46 264.401Z" fill="#FCD34D"/>
<path d="M90.9101 194.341L88.1901 192.631L82.23 199.731L102.92 201.501L90.9101 194.341Z" fill="#FCD34D"/>
<path d="M86.7401 193.481L80.4001 191.051L82.2401 199.761L103.05 201.401L86.7401 193.481Z" fill="#FCD34D"/>
<path d="M86.56 205.491L78.61 206.781L82.37 199.891L103.23 201.381L86.56 205.491Z" fill="#FCD34D"/>
<path d="M82.353 199.257L172.183 206.484L172.087 207.671L82.2576 200.443L82.353 199.257Z" fill="#35353F"/>
<path d="M167.03 202.852L177.65 206.312V208.842L166.37 210.432L167.03 202.852Z" fill="#CFCDE2"/>
<path d="M83.57 204.09L75.48 205.07L82.23 199.92L101.29 201.58L83.57 204.09Z" fill="#FCD34D"/>
<path d="M132.39 294.73L130.66 292.02L122.24 295.91L140.21 306.32L132.39 294.73Z" fill="#FCD34D"/>
<path d="M128.98 292.17L124.28 287.27L122.23 295.94L140.37 306.28L128.98 292.17Z" fill="#FCD34D"/>
<path d="M123.71 302.959L115.97 300.739L122.3 296.109L140.53 306.339L123.71 302.959Z" fill="#FCD34D"/>
<path d="M122.604 295.502L200.745 340.398L200.152 341.43L122.012 296.534L122.604 295.502Z" fill="#35353F"/>
<path d="M209.92 346.38L197.65 334.84L193.82 341.41L209.92 346.38Z" fill="#CFCDE2"/>
<path d="M121.59 300.42L113.86 297.87L122.16 296.08L138.69 305.7L121.59 300.42Z" fill="#FCD34D"/>
<path d="M327.3 373.889C326.71 374.409 326.71 375.199 326.65 376.029C326.56 377.259 326.5 378.489 326.46 379.719C326.38 382.179 325.89 389.799 326.03 391.199C326.11 392.089 326.44 392.999 327.1 393.609C327.77 394.219 328.71 394.469 329.62 394.469C331.47 394.449 333.25 393.399 334.3 391.869C335.85 389.619 335.48 386.759 335.74 384.179C335.93 382.329 336.06 380.479 336.14 378.619C336.21 376.959 335.78 375.559 334.32 374.669C332.78 373.729 330.95 373.249 329.15 373.329C328.68 373.349 328.2 373.409 327.77 373.599C327.58 373.679 327.43 373.779 327.31 373.889H327.3Z" fill="#070816"/>
<path d="M302.51 365.42C301.25 365.63 299.92 366.45 298.8 366.98C296.11 368.24 293.48 369.65 290.86 371.04C289 372.03 284.86 373.76 285.8 376.52C286.23 377.79 287.52 378.63 288.84 378.87C291.47 379.34 293.77 378.56 295.86 377.07C297.93 375.6 300.27 374.52 302.73 373.9C304.84 373.37 306.2 372.2 306.27 369.93C306.34 367.71 305.17 364.98 302.52 365.41L302.51 365.42Z" fill="#070816"/>
<path d="M295.87 306.94C296.53 315.48 294.04 340.19 302.43 338.45C305.06 337.91 309.58 339.39 310.3 333.77C310.69 330.74 311.01 320.62 311.34 317.58C312.04 311.3 319.3 291.4 306.69 286.78C304.79 286.09 302.04 282.11 300.32 283.36C299.97 283.62 298.83 284.89 297.87 287.73C297.32 289.35 296.93 291.85 296.51 294.04C295.78 297.79 295.51 302.21 295.87 306.93V306.94Z" fill="#15151A"/>
<path d="M297 368.059C297.12 370.089 300.8 372.069 304.44 370.479C308.17 368.849 308.56 353.919 309.27 348.269C310.39 339.289 310.39 333.389 310.23 329.209C310.16 327.479 296.13 325.749 296.33 327.499C297.2 334.989 297 367.989 297 368.069V368.059Z" fill="#15151A"/>
<path d="M317.87 338.949C323.71 368.719 326.01 374.469 326.98 377.369C327.6 379.229 334.84 380.079 335.96 376.909C337.04 373.839 338.25 356.319 332.28 340.629C331.55 338.719 331.46 336.179 326.25 336.199C323.77 336.199 317.65 337.829 317.87 338.959V338.949Z" fill="#292930"/>
<path d="M325.95 288.06C325.95 288.06 325.07 287.14 325.05 287.15C322.44 288.92 318.96 289.01 315.71 289.82C308.69 291.58 308.31 292.91 303.21 290.37C302.9 295.41 304.69 299.87 304.79 300.96C305.3 306.62 310.58 306.41 311.17 309.35C312.53 316.17 315.15 329.64 317.06 336.32C317.8 338.92 318.64 341.57 320.35 343.67C323.53 347.56 328.95 347.22 330.56 345.34C331.78 343.91 333.29 344.06 332.87 342.22C331.65 336.87 331.37 329.17 331.86 323.7C332.85 312.64 332.29 300.71 325.95 288.06Z" fill="#292930"/>
<path d="M326.78 280.41L326.76 280.44C326.53 282.24 326.38 284.06 326.31 285.87C326.4 284.05 326.55 282.22 326.78 280.41Z" fill="#F3A984"/>
<path d="M326.31 285.859C326.26 286.969 326.23 288.079 326.23 289.189C326.25 289.179 326.27 289.169 326.29 289.159C326.26 288.059 326.27 286.959 326.31 285.859Z" fill="#F3A984"/>
<path d="M277.77 194.2C277.37 193.41 276.62 192.85 275.82 192.46C273.78 191.44 271.16 191.42 269.32 192.77C268.39 193.45 268.17 194.27 267.67 195.21C267.22 196.05 266.73 196.9 266.93 197.87C267.14 198.88 267.73 199.72 268.41 200.48C269.1 201.25 269.87 201.96 270.37 202.86C270.77 203.59 270.99 204.42 271.49 205.08C272.25 206.08 273.85 206.09 275.01 206.04C275.79 206 276.6 205.82 277.2 205.32C278.18 204.5 278.36 203.06 278.28 201.78C278.19 200.48 278.18 199.21 278.13 197.92C278.09 196.68 278.36 195.37 277.76 194.21L277.77 194.2Z" fill="#F3A984"/>
<path d="M275.03 191.05C275.66 191.66 275.96 192.69 275.5 193.43C275.22 193.88 274.89 194.07 274.44 194.3C273.77 194.64 273.2 195.09 272.68 195.63C272.02 196.31 271.43 197.07 270.68 197.66C269.93 198.25 268.98 198.66 268.05 198.52C265.09 198.06 266.27 193.9 267.56 192.42C268.64 191.18 270.13 190.38 271.62 189.68C272.56 189.24 274.32 190.36 275.04 191.06L275.03 191.05Z" fill="#FFC7AD"/>
<path d="M278.49 195.289C278.19 193.479 276.67 191.779 274.83 191.809C274.71 192.609 275.56 193.209 275.78 193.979C276 194.759 275.56 195.559 275.07 196.199C274.58 196.839 274 197.479 273.89 198.279C273.67 199.929 275.73 201.129 277.11 200.279C278.44 199.459 278.71 196.649 278.49 195.299V195.289Z" fill="#FFC7AD"/>
<path d="M293.53 227.42C295.84 230.03 298.26 232.54 300.79 234.94C304.47 238.43 310.06 241.4 307.05 247.15C305.66 249.79 304.28 252.44 302.89 255.09C302.36 256.1 301.54 257.28 300.4 257.13C299.68 257.03 299.15 256.41 298.71 255.84C288.59 242.83 278.76 229.35 272.52 214.1C271.47 211.53 269.61 206.82 270.91 204.05C271.37 203.07 272.24 202.33 273.19 201.81C274.72 200.97 277.08 200.46 278.54 201.64C279.91 202.74 280.81 204.76 281.55 206.31C283.04 209.44 284.52 212.57 286.01 215.71C287.35 218.54 288.49 221.42 290.48 223.86C291.47 225.07 292.48 226.27 293.52 227.44L293.53 227.42Z" fill="#CED4F1"/>
<path d="M328.24 285.86C328.17 285.2 328.12 284.54 328.13 283.88C328.17 280.76 328.18 277.63 328.21 274.51C328.24 270.35 329.99 266.28 331.1 262.27C331.72 260.04 333.06 256.66 333.24 255.06C333.67 251.38 331.54 248.55 326.78 245.32C323.56 243.14 317.14 240.28 310.86 238.31C306.61 236.98 302.5 236.6 300.22 241.02C299.02 243.33 297.99 245.73 297.88 248.32C297.72 252.35 297.57 256.39 297.44 260.42C297.13 269.97 297.02 279.53 296.63 289.08C296.55 291.03 296.67 292.86 297.87 294.52C299.09 296.2 300.73 296.6 302.5 297.39C304.55 298.31 306.78 298.91 308.99 299.29C313.39 300.04 317.97 299.79 322.25 298.49C324.39 297.84 328.11 296.46 328.95 294.1C329.78 291.77 328.51 288.25 328.25 285.87L328.24 285.86Z" fill="#DADFF6"/>
<path d="M320.59 241.949C320.81 249.049 307.49 249.169 307.68 242.489C307.95 233.179 308.51 232.109 312.9 230.669C314.1 230.269 315.36 229.969 316.63 229.949C321.26 229.869 319.47 232.219 319.29 233.859C318.77 238.719 320.51 239.399 320.59 241.949Z" fill="#F3A984"/>
<path d="M312.09 280.489C311.26 281.189 310.28 282.039 309.46 282.739C308.28 280.879 308.24 280.729 307.15 278.869C307.12 267.819 307.59 257.459 310.23 246.879C311.25 247.609 311.76 247.969 312.8 248.699C311.46 258.819 310.63 269.359 312.09 280.499V280.489Z" fill="#292930"/>
<path d="M309.13 246.62C309.13 246.62 309.11 246.72 309.11 246.78C309.11 247.09 309.31 247.48 309.42 247.77C309.65 248.4 309.94 249.01 310.28 249.59C310.47 249.91 310.69 250.23 311.03 250.37C311.41 250.53 311.86 250.41 312.22 250.21C312.63 249.98 313.38 249.64 313.29 249.12C313.21 248.67 313.05 248.22 312.9 247.79C312.8 247.49 312.69 247.18 312.56 246.89C312.53 246.82 312.51 246.75 312.45 246.7C312.39 246.65 312.33 246.6 312.27 246.56C312.15 246.47 312.02 246.39 311.89 246.31C311.58 246.13 311.25 245.98 310.92 245.83C310.73 245.74 310.53 245.65 310.32 245.61C310.2 245.58 310.07 245.57 309.94 245.57C309.87 245.57 309.83 245.63 309.78 245.69C309.73 245.75 309.67 245.82 309.62 245.88C309.52 246.01 309.43 246.13 309.34 246.26C309.24 246.4 309.16 246.49 309.13 246.62Z" fill="#15151A"/>
<path d="M311.47 246.029C311.27 246.689 310.28 246.839 309.71 247.219C309.46 247.389 309.02 247.719 308.69 247.649C308.36 247.579 308.16 247.139 308.04 246.859C307.22 244.869 306.76 242.699 306.73 240.539C306.73 239.859 306.83 239.089 307.37 238.609C307.85 238.179 308.68 238.089 309.27 238.339C309.9 238.619 310.06 239.859 309.83 240.439C309.02 242.509 310.05 244.969 311.47 246.019V246.029Z" fill="#EFF1FA"/>
<path d="M311.27 245.97C311.27 245.97 312.28 247.56 313.5 248.65C313.8 248.92 314.05 249.25 314.46 249.12C316.45 248.48 321.16 245.15 321.99 242.92C322.29 242.12 321.18 240.95 320.73 240.32C320.65 240.21 320.01 239.34 319.89 239.26C319.81 239.38 319.38 240.98 318.68 242.01C317.07 244.38 314.14 245.59 311.28 245.98L311.27 245.97Z" fill="#EFF1FA"/>
<path d="M302.56 219.02C301.56 220.54 300.95 222.31 300.92 224.2C300.91 225.02 301.02 225.83 301.28 226.61C301.52 227.34 301.96 228.04 301.95 228.84C301.94 229.77 301.24 230.8 300.92 231.67C300.63 232.46 300.45 233.34 300.75 234.13C300.92 234.58 301.23 234.96 301.48 235.38C302.66 237.35 301.44 240.18 303.55 241.62C304.08 241.98 304.71 242.06 305.34 242.11C306.13 242.17 309.74 241.25 311.14 240.67C312.69 240.03 314.22 238.33 315.36 237.09C316.25 236.13 317.73 234.9 318.31 233.73C318.49 233.37 318.08 233.3 318.46 233.12C318.69 233.02 318.99 231.6 319.24 231.58C319.54 231.56 319.94 231.24 320.2 231.08C320.69 230.77 320.89 231.94 321.06 231.39C321.79 229.05 322.7 226.66 322.66 224.17C322.62 221.89 322.72 219.94 321.3 217.97C320.23 216.49 318.69 215.39 317 214.7C314.42 213.65 311.47 213.53 308.81 214.36C306.29 215.15 304.03 216.83 302.59 219.02H302.56Z" fill="#FFC7AD"/>
<path d="M322.64 224.18C322.6 221.9 322.7 219.95 321.28 217.98C320.21 216.5 318.67 215.4 316.98 214.71C315.44 214.08 313.77 213.79 312.1 213.83C309.5 218.74 312.94 225.19 310.11 230.27C309.17 231.46 307.34 232.32 307.3 233.84C306.63 236.54 309.28 239.02 307.73 241.7C308.98 241.4 310.38 240.99 311.14 240.67C312.69 240.03 314.22 238.33 315.36 237.09C316.25 236.13 317.73 234.9 318.31 233.73C318.49 233.37 318.08 233.3 318.46 233.12C318.69 233.02 318.99 231.6 319.24 231.58C319.54 231.56 319.94 231.24 320.2 231.08C320.69 230.77 320.89 231.94 321.06 231.39C321.79 229.05 322.7 226.66 322.66 224.17L322.64 224.18Z" fill="#FFC7AD"/>
<path d="M321.49 216.709C320.81 217.169 320.44 217.579 319.57 217.699C318.81 217.809 318.03 217.759 317.29 217.949C315.87 218.319 314.81 219.539 314.25 220.889C313.11 223.659 313.36 228.579 313.91 229.659C315.06 231.919 316.81 229.309 319.09 230.869C319.91 231.419 319.56 232.689 319.32 233.489C319.28 233.629 319.19 235.269 319.19 235.269C319.19 235.269 323.89 230.769 324.23 223.859C324.43 219.789 322.78 217.709 321.48 216.709H321.49Z" fill="#946553"/>
<path d="M319.99 215.879C319.99 215.879 318.04 212.389 312.69 212.519C307.54 212.639 302.93 215.439 301.34 217.769C300.52 218.979 300.02 220.529 299.41 221.859C299.14 222.459 299.07 222.809 299.54 223.289C301.32 225.139 303.88 223.749 305.96 223.509C308.56 223.209 311.25 223.469 313.76 222.609C315.29 222.089 316.66 221.169 318 220.259C319.37 219.329 320.82 218.319 321.47 216.799C321.01 216.389 320.57 216.079 319.98 215.879H319.99Z" fill="#946553"/>
<path d="M318.89 228.67C320.86 228.58 321.31 231.04 319.91 232.9C319.5 233.44 318.79 233.91 318.27 234.34C314.67 237.27 313.85 233.99 315 232.99C317.66 230.67 316.41 228.77 318.89 228.66V228.67Z" fill="#FFC7AD"/>
<path d="M297.75 258.899C297.26 258.579 296.69 258.359 296.17 258.079C295.88 257.929 295.61 257.759 295.37 257.539C295.11 257.309 294.97 256.979 294.74 256.729C294.51 256.479 294.13 256.299 293.8 256.489C293.45 256.689 293.54 257.219 293.56 257.559C293.61 258.259 294.09 258.719 294.61 259.129C295.13 259.539 295.62 259.889 296 260.359C296.96 260.319 297.76 259.979 298.57 259.659C298.33 259.369 298.06 259.099 297.75 258.889V258.899Z" fill="#FFC7AD"/>
<path d="M293.95 265.239V247.859L290.39 249.909V267.289C290.39 267.689 290.53 267.959 290.74 268.069L292.97 269.349L293.41 267.559L293.17 266.929C293.61 266.569 293.95 265.859 293.95 265.249V265.239Z" fill="#C3C0D8"/>
<path d="M295.26 268.34L293.59 269.3C293.07 269.6 292.65 269.28 292.65 268.59V251.21L296.21 249.16V266.54C296.21 267.23 295.79 268.04 295.27 268.34H295.26Z" fill="#CED4F1"/>
<path d="M287 247.64L294.33 243.27C294.92 242.93 295.74 242.97 296.65 243.5L289.32 247.87C288.41 247.35 287.59 247.3 287 247.64Z" fill="#15151A"/>
<mask id="mask4_442_2056" style="mask-type:luminance" maskUnits="userSpaceOnUse" x="287" y="243" width="10" height="5">
<path d="M287 247.64L294.33 243.27C294.92 242.93 295.74 242.97 296.65 243.5L289.32 247.87C288.41 247.35 287.59 247.3 287 247.64Z" fill="white"/>
</mask>
<g mask="url(#mask4_442_2056)">
<path d="M287 247.64L294.33 243.27C294.48 243.18 294.65 243.12 294.83 243.08L287.5 247.45C287.32 247.49 287.15 247.55 287 247.64Z" fill="#15151A"/>
<path d="M287.5 247.46L294.83 243.09C295.18 243.02 295.57 243.06 296 243.2L288.68 247.57C288.25 247.42 287.86 247.39 287.51 247.46H287.5Z" fill="#15151A"/>
<path d="M288.67 247.571L295.99 243.201C296.2 243.271 296.42 243.371 296.64 243.501L289.31 247.871C289.09 247.741 288.87 247.641 288.66 247.571H288.67Z" fill="#15151A"/>
</g>
<path d="M298.95 251.23L291.62 255.6C292.21 255.26 292.57 254.54 292.57 253.51C292.57 251.44 291.12 248.92 289.32 247.88L296.65 243.51C298.45 244.55 299.91 247.07 299.9 249.14C299.9 250.17 299.53 250.89 298.95 251.23Z" fill="#15151A"/>
<mask id="mask5_442_2056" style="mask-type:luminance" maskUnits="userSpaceOnUse" x="289" y="243" width="11" height="13">
<path d="M298.95 251.23L291.62 255.6C292.21 255.26 292.57 254.54 292.57 253.51C292.57 251.44 291.12 248.92 289.32 247.88L296.65 243.51C298.45 244.55 299.91 247.07 299.9 249.14C299.9 250.17 299.53 250.89 298.95 251.23Z" fill="white"/>
</mask>
<g mask="url(#mask5_442_2056)">
<path d="M289.32 247.87L296.65 243.5C297.62 244.06 298.49 245.05 299.08 246.16L291.75 250.53C291.15 249.42 290.29 248.43 289.32 247.87Z" fill="#15151A"/>
<path d="M291.75 250.53L299.08 246.16C299.35 246.67 299.57 247.22 299.71 247.75L292.38 252.12C292.24 251.58 292.02 251.04 291.75 250.53Z" fill="#15151A"/>
<path d="M292.39 252.13L299.72 247.76C299.84 248.23 299.91 248.69 299.91 249.14C299.91 250.17 299.54 250.89 298.96 251.23L291.63 255.6C292.22 255.26 292.58 254.54 292.58 253.51C292.58 253.06 292.51 252.6 292.39 252.13Z" fill="#15151A"/>
</g>
<path d="M289.32 247.87C291.12 248.91 292.58 251.43 292.57 253.5C292.57 255.57 291.1 256.41 289.3 255.37C287.5 254.33 286.04 251.81 286.05 249.74C286.05 247.67 287.52 246.83 289.32 247.87Z" fill="#15151A"/>
<path d="M292.63 243.54L291.36 244.29C292.03 243.9 292.95 243.95 293.98 244.54L295.25 243.79C294.23 243.2 293.3 243.15 292.63 243.54Z" fill="#C3C0D8"/>
<mask id="mask6_442_2056" style="mask-type:luminance" maskUnits="userSpaceOnUse" x="291" y="243" width="5" height="2">
<path d="M292.63 243.54L291.36 244.29C292.03 243.9 292.95 243.95 293.98 244.54L295.25 243.79C294.23 243.2 293.3 243.15 292.63 243.54Z" fill="white"/>
</mask>
<g mask="url(#mask6_442_2056)">
<path d="M293.97 244.53L295.24 243.78C294.22 243.19 293.29 243.14 292.62 243.53L291.35 244.28C292.02 243.89 292.94 243.94 293.97 244.53Z" fill="#C3C0D8"/>
</g>
<path d="M296.59 253.231L297.86 252.491C298.52 252.101 298.93 251.291 298.93 250.131C298.93 247.791 297.28 244.961 295.25 243.791L293.98 244.541C296.01 245.711 297.66 248.551 297.66 250.881C297.66 252.041 297.25 252.861 296.59 253.241V253.231Z" fill="#C3C0D8"/>
<mask id="mask7_442_2056" style="mask-type:luminance" maskUnits="userSpaceOnUse" x="293" y="243" width="6" height="11">
<path d="M296.59 253.231L297.86 252.491C298.52 252.101 298.93 251.291 298.93 250.131C298.93 247.791 297.28 244.961 295.25 243.791L293.98 244.541C296.01 245.711 297.66 248.551 297.66 250.881C297.66 252.041 297.25 252.861 296.59 253.241V253.231Z" fill="white"/>
</mask>
<g mask="url(#mask7_442_2056)">
<path d="M296.59 253.231L297.86 252.491C298.52 252.101 298.93 251.291 298.93 250.131C298.93 247.791 297.28 244.961 295.25 243.791L293.98 244.541C296.01 245.711 297.66 248.551 297.66 250.881C297.66 252.041 297.25 252.861 296.59 253.241V253.231Z" fill="#C3C0D8"/>
</g>
<path d="M293.97 244.53C291.93 243.36 290.29 244.31 290.28 246.64C290.28 248.97 291.93 251.81 293.96 252.98C295.99 254.15 297.64 253.2 297.65 250.87C297.65 248.54 296 245.7 293.97 244.53Z" fill="#959396"/>
<path d="M290.07 243.479L285.86 245.909C286.7 245.419 287.87 245.489 289.15 246.219L293.36 243.789C292.07 243.049 290.91 242.979 290.07 243.479Z" fill="#FCD34D"/>
<mask id="mask8_442_2056" style="mask-type:luminance" maskUnits="userSpaceOnUse" x="285" y="243" width="9" height="4">
<path d="M290.07 243.479L285.86 245.909C286.7 245.419 287.87 245.489 289.15 246.219L293.36 243.789C292.07 243.049 290.91 242.979 290.07 243.479Z" fill="white"/>
</mask>
<g mask="url(#mask8_442_2056)">
<path d="M289.16 246.219L293.37 243.789C292.08 243.049 290.92 242.979 290.08 243.479L285.87 245.909C286.71 245.419 287.88 245.489 289.16 246.219Z" fill="#FCD34D"/>
</g>
<path d="M292.45 257.179L296.66 254.749C297.49 254.259 298 253.239 298 251.779C298 248.839 295.92 245.269 293.36 243.799L289.15 246.229C291.71 247.699 293.79 251.269 293.79 254.209C293.79 255.669 293.28 256.699 292.45 257.179Z" fill="#FCD34D"/>
<mask id="mask9_442_2056" style="mask-type:luminance" maskUnits="userSpaceOnUse" x="289" y="243" width="9" height="15">
<path d="M292.45 257.179L296.66 254.749C297.49 254.259 298 253.239 298 251.779C298 248.839 295.92 245.269 293.36 243.799L289.15 246.229C291.71 247.699 293.79 251.269 293.79 254.209C293.79 255.669 293.28 256.699 292.45 257.179Z" fill="white"/>
</mask>
<g mask="url(#mask9_442_2056)">
<path d="M292.45 257.179L296.66 254.749C297.49 254.259 298 253.239 298 251.779C298 248.839 295.92 245.269 293.36 243.799L289.15 246.229C291.71 247.699 293.79 251.269 293.79 254.209C293.79 255.669 293.28 256.699 292.45 257.179Z" fill="#FCD34D"/>
</g>
<path d="M289.16 246.22C286.6 244.75 284.52 245.94 284.52 248.88C284.52 251.82 286.59 255.39 289.16 256.86C291.72 258.33 293.8 257.14 293.8 254.2C293.8 251.26 291.72 247.69 289.16 246.22Z" fill="#15151A"/>
<path d="M285.62 246.071C286.53 245.721 287.63 245.651 288.91 246.391C291.47 247.871 293.53 251.451 293.52 254.381C293.52 255.841 292.88 256.711 292.17 257.351C290.82 258.571 283.85 267.261 282.52 268.661C282.64 268.121 283.92 265.031 283.93 264.381C283.94 259.481 280.5 253.521 276.24 251.061C275.26 250.501 273.02 250.161 272.16 250.041C275.03 249.521 283.82 246.761 285.62 246.061V246.071Z" fill="#EBEEFC"/>
<path d="M280.3 271.132L282.07 270.102C283.6 269.212 284.55 267.322 284.56 264.632C284.58 259.222 280.77 252.632 276.07 249.922L274.3 250.952C279.01 253.672 282.81 260.262 282.79 265.662C282.79 268.352 281.83 270.242 280.3 271.132Z" fill="#FCD34D"/>
<path d="M281.18 261.931C280.76 260.541 280.16 259.161 279.39 257.831C278.62 256.501 277.73 255.281 276.73 254.231C275.72 253.151 274.65 252.291 273.56 251.661C272.38 250.981 271.24 250.621 270.25 250.621C269.26 250.621 268.39 251.001 267.79 251.751C267.09 252.611 266.72 253.931 266.72 255.551C266.72 256.801 266.93 258.151 267.35 259.561C267.77 260.951 268.37 262.331 269.14 263.661C269.91 264.991 270.8 266.211 271.8 267.271C272.81 268.351 273.88 269.211 274.97 269.841C276.15 270.521 277.29 270.881 278.28 270.881C279.27 270.881 280.14 270.501 280.74 269.751C281.44 268.891 281.81 267.571 281.81 265.951C281.81 264.701 281.6 263.351 281.17 261.931H281.18Z" fill="#C3C0D8"/>
<path d="M270.89 257.811L277.53 253.841C278.07 253.531 278.81 253.571 279.63 254.051L272.99 258.021C272.17 257.551 271.42 257.501 270.88 257.811H270.89Z" fill="#15151A"/>
<mask id="mask10_442_2056" style="mask-type:luminance" maskUnits="userSpaceOnUse" x="270" y="253" width="10" height="6">
<path d="M270.89 257.811L277.53 253.841C278.07 253.531 278.81 253.571 279.63 254.051L272.99 258.021C272.17 257.551 271.42 257.501 270.88 257.811H270.89Z" fill="white"/>
</mask>
<g mask="url(#mask10_442_2056)">
<path d="M270.89 257.812L277.53 253.842C277.67 253.762 277.82 253.702 277.98 253.672L271.34 257.642C271.18 257.672 271.03 257.732 270.89 257.812Z" fill="#15151A"/>
<path d="M271.34 257.642L277.98 253.672C278.3 253.612 278.66 253.642 279.04 253.772L272.4 257.742C272.01 257.612 271.66 257.582 271.34 257.642Z" fill="#15151A"/>
<path d="M272.4 257.741L279.04 253.771C279.23 253.841 279.43 253.931 279.63 254.041L272.99 258.011C272.79 257.891 272.59 257.801 272.4 257.741Z" fill="#15151A"/>
</g>
<path d="M281.72 261.061L275.08 265.031C275.61 264.721 275.94 264.071 275.94 263.131C275.94 261.251 274.62 258.961 272.99 258.021L279.63 254.051C281.26 254.991 282.58 257.281 282.58 259.161C282.58 260.091 282.25 260.751 281.72 261.061Z" fill="#15151A"/>
<mask id="mask11_442_2056" style="mask-type:luminance" maskUnits="userSpaceOnUse" x="272" y="254" width="11" height="12">
<path d="M281.72 261.061L275.08 265.031C275.61 264.721 275.94 264.071 275.94 263.131C275.94 261.251 274.62 258.961 272.99 258.021L279.63 254.051C281.26 254.991 282.58 257.281 282.58 259.161C282.58 260.091 282.25 260.751 281.72 261.061Z" fill="white"/>
</mask>
<g mask="url(#mask11_442_2056)">
<path d="M272.99 258.011L279.63 254.041C280.51 254.551 281.29 255.441 281.83 256.451L275.19 260.411C274.65 259.401 273.86 258.511 272.99 258.001V258.011Z" fill="#15151A"/>
<path d="M275.2 260.431L281.84 256.471C282.09 256.941 282.29 257.431 282.41 257.921L275.77 261.881C275.64 261.391 275.45 260.901 275.2 260.431Z" fill="#15151A"/>
<path d="M275.77 261.87L282.41 257.91C282.52 258.33 282.58 258.76 282.58 259.16C282.58 260.09 282.25 260.75 281.72 261.06L275.08 265.03C275.61 264.72 275.94 264.07 275.94 263.13C275.94 262.73 275.88 262.3 275.77 261.88V261.87Z" fill="#15151A"/>
</g>
<path d="M272.99 258.011C274.62 258.951 275.94 261.241 275.94 263.121C275.94 265.001 274.61 265.751 272.97 264.811C271.34 263.871 270.02 261.581 270.02 259.701C270.02 257.821 271.35 257.061 272.99 258.011Z" fill="#292930"/>
<path d="M272.99 259.371C273.97 259.941 274.76 261.311 274.76 262.441C274.76 263.571 273.96 264.021 272.98 263.461C272 262.891 271.21 261.521 271.21 260.391C271.21 259.261 272.01 258.811 272.99 259.371Z" fill="#15151A"/>
<path d="M282.78 265.662C282.77 271.072 278.94 273.252 274.23 270.532C269.52 267.812 265.72 261.222 265.73 255.822C265.75 250.412 269.57 248.232 274.28 250.952C278.99 253.672 282.79 260.262 282.77 265.662H282.78ZM281.81 265.952C281.81 264.702 281.6 263.352 281.17 261.932C280.75 260.542 280.15 259.162 279.38 257.832C278.61 256.502 277.72 255.282 276.72 254.232C275.71 253.152 274.64 252.292 273.55 251.662C272.37 250.982 271.23 250.622 270.24 250.622C269.25 250.622 268.38 251.002 267.78 251.752C267.08 252.612 266.71 253.932 266.71 255.552C266.71 256.802 266.92 258.152 267.34 259.562C267.76 260.952 268.36 262.332 269.13 263.662C269.9 264.992 270.79 266.212 271.79 267.272C272.8 268.352 273.87 269.212 274.96 269.842C276.14 270.522 277.28 270.882 278.27 270.882C279.26 270.882 280.13 270.502 280.73 269.752C281.43 268.892 281.8 267.572 281.8 265.952H281.81Z" fill="#15151A"/>
<path d="M270 249.321L268.23 250.351C269.78 249.451 271.93 249.581 274.29 250.941L276.06 249.911C273.69 248.541 271.55 248.421 270 249.321Z" fill="#FCD34D"/>
<mask id="mask12_442_2056" style="mask-type:luminance" maskUnits="userSpaceOnUse" x="268" y="248" width="9" height="3">
<path d="M270 249.321L268.23 250.351C269.78 249.451 271.93 249.581 274.29 250.941L276.06 249.911C273.69 248.541 271.55 248.421 270 249.321Z" fill="white"/>
</mask>
<g mask="url(#mask12_442_2056)">
<path d="M274.29 250.951L276.06 249.921C273.69 248.551 271.55 248.431 270 249.331L268.23 250.361C269.78 249.461 271.93 249.591 274.29 250.951Z" fill="#FCD34D"/>
</g>
<path d="M280.3 271.132L282.07 270.102C283.6 269.212 284.55 267.322 284.56 264.632C284.58 259.222 280.77 252.632 276.07 249.922L274.3 250.952C279.01 253.672 282.81 260.262 282.79 265.662C282.79 268.352 281.83 270.242 280.3 271.132Z" fill="#FCD34D"/>
<path d="M328.79 249.179C326.76 249.399 326.01 250.849 325.22 252.489C323.72 255.599 319.87 269.269 319 276.969C318.55 280.909 321.02 283.269 323.9 283.289C327.51 283.309 328.43 280.709 329.76 277.799C331.46 274.099 335.33 261.369 335.56 258.849C336.13 252.559 332.21 248.799 328.79 249.179Z" fill="#EFF1FA"/>
<path d="M303.55 264.77C302.49 263.8 300.96 263.11 300.1 261.99C299.79 261.59 299.5 261.18 299.25 260.74C299.15 260.56 299.06 260.37 298.95 260.19C298.84 260.01 298.71 259.84 298.58 259.67C297.77 259.99 296.21 260.33 296.21 260.33V260.73C295.92 261.01 295.41 261.02 295.03 260.94C294.41 260.81 293.84 260.52 293.34 260.14C292.82 259.75 292.2 259.49 291.68 259.08C291.46 258.91 291.25 258.73 290.98 258.67C290.88 258.65 290.77 258.65 290.69 258.71C290.64 258.76 290.61 258.82 290.59 258.89C290.52 259.08 290.45 259.28 290.29 259.4C290.17 259.49 290.02 259.53 289.9 259.62C289.74 259.75 289.67 259.97 289.63 260.17C289.6 260.38 289.59 260.59 289.52 260.79C289.41 261.11 289.14 261.34 288.95 261.61C288.77 261.86 288.65 262.15 288.59 262.46C288.55 262.67 288.45 262.93 288.47 263.14C288.51 263.64 288.88 264.17 289.2 264.53C289.89 265.3 290.88 265.75 291.84 266.11C292.62 266.4 293.43 266.63 294.26 266.77C294.9 266.88 295.54 266.98 296.19 267.06C296.38 267.08 296.57 267.11 296.76 267.13C297.29 267.2 297.85 267.27 298.37 267.4C299.12 267.59 299.81 267.93 300.6 267.99C301.49 268.06 302.1 267.87 302.77 267.25C303.56 266.54 304.5 265.64 303.54 264.76L303.55 264.77Z" fill="#FFC7AD"/>
<path d="M296.45 267.409C303.84 272.229 323.84 291.029 327.62 281.319C328.15 279.969 325.87 275.419 324.79 274.189C323.84 273.109 301.97 262.029 299.85 261.669C298.56 261.449 295.51 266.809 296.45 267.419V267.409Z" fill="#EFF1FA"/>
<path d="M450.39 277.42C454.46 273.07 456.45 266.95 455.72 261.04C455.03 255.49 451.96 250.34 447.44 247.06C447.76 246.18 448 245.31 448.19 244.53C452 228.97 447.86 211.58 437.39 199.15L436.9 199.56C447.25 211.83 451.34 229.01 447.57 244.37C447.4 245.08 447.18 245.86 446.9 246.67C446.79 246.59 446.67 246.52 446.55 246.44C444.2 244.93 442.01 244.31 440.03 244.62C437.76 244.97 435.48 247.01 435.71 249.48C435.83 250.8 436.63 251.9 437.96 252.58C439.67 253.46 441.88 253.42 443.45 252.48C445.29 251.38 446.44 249.53 447.2 247.67C451.5 250.85 454.42 255.78 455.08 261.11C455.79 266.83 453.86 272.76 449.92 276.98L450.39 277.42ZM446.67 247.29C445.96 249.1 444.87 250.9 443.13 251.93C441.74 252.76 439.78 252.79 438.25 252.01C437.12 251.43 436.45 250.52 436.35 249.43C436.16 247.31 438.15 245.57 440.13 245.26C441.94 244.98 443.98 245.56 446.2 246.99C446.36 247.09 446.51 247.19 446.66 247.3L446.67 247.29Z" fill="#35353F"/>
<path d="M436.36 203.501L437.85 200.211L441.25 199.001L433.47 195.461L436.36 203.501Z" fill="#35353F"/>
<path d="M165.54 66.8797L172.96 66.3497L170.97 66.6897L176.18 66.8597L195.99 67.5397L195.5 65.4897L195.31 64.7397L196.08 64.6797L196.27 65.4297L196.97 68.3197L169.04 67.3797L163.7 67.1897L165.54 66.8697V66.8797Z" fill="#35353F"/>
<path d="M183.81 45.3301L192.08 52.2101L191.46 57.3401L196.42 55.8701L206.95 64.6501L196.27 65.4201L195.5 65.4801L176.18 66.8501L169.04 67.3801L155.06 68.3801L183.82 45.3401L183.81 45.3301ZM172.96 66.3501L195.31 64.7301L196.08 64.6701L205.03 64.0301L196.25 56.7001L190.52 58.3901L191.5 52.7301L183.79 46.3001L157.4 67.4501L165.54 66.8701L172.96 66.3401V66.3501Z" fill="#35353F"/>
<path d="M169.11 64.6607L193.63 57.4907L192.08 52.2207L168.84 63.9707L169.12 64.6707L169.11 64.6607ZM192.71 56.9707L172.73 62.8107L191.66 53.1307L192.71 56.9607V56.9707Z" fill="#35353F"/>
<path d="M413.87 101.029L424.8 94.6789C426.7 93.5689 427.88 91.2189 427.89 87.8789L416.96 94.2289C416.96 97.5689 415.77 99.9189 413.87 101.029Z" fill="#CED4F1"/>
<mask id="mask13_442_2056" style="mask-type:luminance" maskUnits="userSpaceOnUse" x="413" y="87" width="15" height="15">
<path d="M413.87 101.029L424.8 94.6789C426.7 93.5689 427.88 91.2189 427.89 87.8789L416.96 94.2289C416.96 97.5689 415.77 99.9189 413.87 101.029Z" fill="white"/>
</mask>
<g mask="url(#mask13_442_2056)">
<path d="M413.87 101.029L424.8 94.6789C426.7 93.5689 427.88 91.2189 427.89 87.8789L416.96 94.2289C416.96 97.5689 415.77 99.9189 413.87 101.029Z" fill="#CED4F1"/>
</g>
<path d="M405.79 61.9294L394.86 68.2794C396.79 67.1594 399.46 67.3194 402.41 69.0194L413.34 62.6694C410.39 60.9694 407.72 60.8094 405.79 61.9294Z" fill="#CED4F1"/>
<mask id="mask14_442_2056" style="mask-type:luminance" maskUnits="userSpaceOnUse" x="394" y="61" width="20" height="9">
<path d="M405.79 61.9294L394.86 68.2794C396.79 67.1594 399.46 67.3194 402.41 69.0194L413.34 62.6694C410.39 60.9694 407.72 60.8094 405.79 61.9294Z" fill="white"/>
</mask>
<g mask="url(#mask14_442_2056)">
<path d="M402.41 69.0194L413.34 62.6694C410.39 60.9694 407.72 60.8094 405.79 61.9294L394.86 68.2794C396.79 67.1594 399.46 67.3194 402.41 69.0194Z" fill="#CED4F1"/>
</g>
<path d="M416.96 94.2291L427.89 87.8791L427.9 83.2891L416.97 89.6391L416.96 94.2291Z" fill="#CED4F1"/>
<path d="M406.4 71.3299L417.33 64.9799L413.33 62.6699L402.41 69.0199L406.4 71.3299Z" fill="#CED4F1"/>
<path d="M416.97 89.6385L427.9 83.2885C427.92 76.5585 423.19 68.3585 417.33 64.9785L406.4 71.3285C412.26 74.7085 416.99 82.9085 416.97 89.6385Z" fill="#CED4F1"/>
<mask id="mask15_442_2056" style="mask-type:luminance" maskUnits="userSpaceOnUse" x="406" y="64" width="22" height="26">
<path d="M416.97 89.6385L427.9 83.2885C427.92 76.5585 423.19 68.3585 417.33 64.9785L406.4 71.3285C412.26 74.7085 416.99 82.9085 416.97 89.6385Z" fill="white"/>
</mask>
<g mask="url(#mask15_442_2056)">
<path d="M416.97 89.6385L427.9 83.2885C427.92 76.5585 423.19 68.3585 417.33 64.9785L406.4 71.3285C412.26 74.7085 416.99 82.9085 416.97 89.6385Z" fill="#CED4F1"/>
</g>
<path d="M402.41 69.0191C396.55 65.6391 391.79 68.3491 391.77 75.0791V79.6691C391.74 86.3991 396.47 94.5891 402.33 97.9791L406.33 100.289C412.19 103.669 416.95 100.959 416.97 94.2291V89.6391C417 82.9091 412.27 74.7091 406.41 71.3291L402.41 69.0191Z" fill="#CED4F1"/>
<path d="M390.64 163.76C394.16 161.73 397.67 159.7 401.19 157.67C401.36 157.57 401.23 157.26 400.75 156.73L393.9 160.69C392.99 162.02 391.84 163.08 390.64 163.77V163.76Z" fill="#BBC2E3"/>
<mask id="mask16_442_2056" style="mask-type:luminance" maskUnits="userSpaceOnUse" x="390" y="156" width="12" height="8">
<path d="M390.64 163.76C394.16 161.73 397.67 159.7 401.19 157.67C401.36 157.57 401.23 157.26 400.75 156.73L393.9 160.69C392.99 162.02 391.84 163.08 390.64 163.77V163.76Z" fill="white"/>
</mask>
<g mask="url(#mask16_442_2056)">
<path d="M400.76 156.73L393.91 160.69C393 162.02 391.85 163.08 390.65 163.77L391.07 163.53L391.51 163.28L393.46 162.15L401.2 157.68C401.37 157.58 401.24 157.27 400.76 156.74V156.73Z" fill="#BBC2E3"/>
</g>
<path d="M410.24 112.21C411.08 111.07 411.68 109.88 412.01 108.76L401.26 157.59C401.29 157.48 401.21 157.29 401.01 157.02C400.94 156.93 400.86 156.83 400.76 156.72L410.24 112.21Z" fill="#BBC2E3"/>
<path d="M398.78 118.831L393.9 160.681C393.9 160.681 400.58 157.511 400.75 156.721C405.01 137.871 410.23 112.211 410.23 112.211L398.77 118.831H398.78Z" fill="#A9B0D3"/>
<path d="M383.1 158.75L388.85 112.64C388.89 112.43 389.74 112.77 391.23 113.63L384.68 163.62C383.19 162.76 382.66 160.87 383.1 158.75Z" fill="#CED4F1"/>
<mask id="mask17_442_2056" style="mask-type:luminance" maskUnits="userSpaceOnUse" x="388" y="102" width="22" height="12">
<path d="M404.56 103.54C399.34 106.56 394.11 109.57 388.88 112.59C389.05 112.49 389.87 112.84 391.23 113.63L409.72 102.95C408.37 102.16 406.44 102.45 404.56 103.54Z" fill="white"/>
</mask>
<g mask="url(#mask17_442_2056)">
<path d="M391.23 113.631L409.72 102.951C408.72 102.371 407.41 102.381 406.03 102.861L389.15 112.611C389.52 112.711 390.23 113.051 391.23 113.631Z" fill="#F4F4FB"/>
<path d="M389.15 112.611L406.03 102.861C405.54 103.031 405.05 103.261 404.56 103.541L403.9 103.921L403.22 104.321L402.51 104.731L401.78 105.151L401.03 105.581L400.26 106.021L399.48 106.471L398.68 106.931L397.87 107.401L397.05 107.871L396.23 108.341L395.4 108.821L394.57 109.301L393.74 109.781L392.91 110.261L392.09 110.741L391.27 111.211L390.46 111.681L389.66 112.141L388.87 112.601C388.87 112.601 389 112.581 389.14 112.611H389.15Z" fill="#B7B7BC"/>
</g>
<path d="M410.75 103.549L409.72 102.949L391.23 113.629L392.26 114.229L410.75 103.549Z" fill="#F2F2F9"/>
<path d="M392.26 114.231L391.23 113.631L384.68 163.621L385.71 164.221L392.26 114.231Z" fill="#BBC2E3"/>
<mask id="mask18_442_2056" style="mask-type:luminance" maskUnits="userSpaceOnUse" x="392" y="103" width="21" height="16">
<path d="M410.24 112.211C412.8 108.751 413.03 104.871 410.75 103.551L392.26 114.231C394.54 115.551 397.46 117.621 398.78 118.831L410.24 112.211Z" fill="white"/>
</mask>
<g mask="url(#mask18_442_2056)">
<path d="M398.78 118.83L410.24 112.21C411.02 111.15 411.59 110.06 411.93 109.01L397.18 117.52C397.82 118 398.37 118.46 398.77 118.83H398.78Z" fill="#B7B7BC"/>
<path d="M397.18 117.531L411.93 109.021C412.71 106.631 412.33 104.481 410.75 103.561L392.26 114.241C393.84 115.161 395.74 116.441 397.19 117.541L397.18 117.531Z" fill="#F4F4FB"/>
</g>
<mask id="mask19_442_2056" style="mask-type:luminance" maskUnits="userSpaceOnUse" x="385" y="114" width="14" height="51">
<path d="M398.78 118.83C397.46 117.61 394.54 115.55 392.26 114.23L385.71 164.22C387.99 165.54 391.66 163.96 393.9 160.68L398.78 118.83Z" fill="white"/>
</mask>
<g mask="url(#mask19_442_2056)">
<path d="M393.9 160.68L398.78 118.83C397.46 117.61 394.54 115.55 392.26 114.23L385.71 164.22C387.99 165.54 391.66 163.96 393.91 160.68H393.9Z" fill="#CED4F1"/>
</g>
<mask id="mask20_442_2056" style="mask-type:luminance" maskUnits="userSpaceOnUse" x="391" y="101" width="31" height="26">
<path d="M391.57 126.93L417.12 112.13C419.98 110.47 421.75 106.94 421.76 101.92L396.21 116.72C396.2 121.74 394.42 125.27 391.57 126.93Z" fill="white"/>
</mask>
<g mask="url(#mask20_442_2056)">
<path d="M391.57 126.93L417.12 112.13C419.98 110.47 421.75 106.94 421.76 101.92L396.21 116.72C396.2 121.74 394.42 125.27 391.57 126.93Z" fill="#E2AE04"/>
</g>
<path d="M388.59 62.9694L363.04 77.7694C365.93 76.0894 369.94 76.3294 374.37 78.8794L399.92 64.0794C395.49 61.5194 391.49 61.2894 388.59 62.9694Z" fill="#FCD34D"/>
<mask id="mask21_442_2056" style="mask-type:luminance" maskUnits="userSpaceOnUse" x="363" y="61" width="37" height="18">
<path d="M388.59 62.9694L363.04 77.7694C365.93 76.0894 369.94 76.3294 374.37 78.8794L399.92 64.0794C395.49 61.5194 391.49 61.2894 388.59 62.9694Z" fill="white"/>
</mask>
<g mask="url(#mask21_442_2056)">
<path d="M374.36 78.8794L399.91 64.0794C395.48 61.5194 391.48 61.2894 388.58 62.9694L363.03 77.7694C365.92 76.0894 369.93 76.3294 374.36 78.8794Z" fill="#FCD34D"/>
</g>
<path d="M396.21 116.719L421.77 101.929L421.79 95.0293L396.23 109.829L396.21 116.719Z" fill="#FCD34D"/>
<path d="M380.36 82.3401L405.91 67.5401L399.91 64.0801L374.36 78.8801L380.36 82.3401Z" fill="#FCD34D"/>
<path d="M396.23 109.829L421.78 95.0291C421.81 84.9191 414.7 72.6191 405.91 67.5391L380.36 82.3391C389.15 87.4191 396.26 99.7191 396.23 109.829Z" fill="#FCD34D"/>
<path d="M374.36 78.8786C365.57 73.7986 358.42 77.8786 358.39 87.9786L358.37 94.8686C358.34 104.979 365.44 117.279 374.24 122.349L380.24 125.809C389.03 130.889 396.19 126.819 396.22 116.709L396.24 109.819C396.27 99.7086 389.16 87.4086 380.37 82.3286L374.37 78.8686L374.36 78.8786Z" fill="#DD4948"/>
<path d="M416.98 79.1191C417.08 79.2791 417.18 79.4391 417.27 79.5991C420.07 84.5191 421.8 90.0391 421.78 95.0291L396.23 109.829C396.24 104.669 394.39 98.9391 391.41 93.8891L416.98 79.1291V79.1191Z" fill="#FCD34D"/>
<path d="M380.36 82.3391L405.91 67.5391C410.22 70.0291 414.12 74.2591 416.98 79.1191L391.41 93.8791C388.55 89.0391 384.66 84.8191 380.36 82.3391Z" fill="#FCD34D"/>
<path d="M360.04 78.0493C362.54 77.0793 365.38 76.5393 368.52 77.0493C370.58 77.3793 372.53 78.5893 374.86 79.9393C386.53 86.6793 395.74 102.329 395.7 115.739C395.7 118.269 395.71 120.679 395.01 122.519C394.61 123.579 394.12 124.539 393.56 125.409C392.53 127.029 391.28 128.379 389.97 129.559C383.8 135.119 376.46 148.479 350.91 180.609C351.45 178.129 352.32 164.619 352.33 161.649C352.39 139.299 336.68 112.079 317.22 100.849C312.76 98.2793 301.31 90.8693 297.38 90.3393C344.56 80.9193 351.81 81.2493 360.04 78.0493Z" fill="#F4F4FB"/>
<path d="M335.74 192.439L343.84 187.729C350.82 183.669 355.15 175.039 355.19 162.779C355.26 138.089 337.9 108.019 316.41 95.6191L308.31 100.329C329.8 112.729 347.16 142.799 347.08 167.489C347.05 179.749 342.72 188.379 335.73 192.439H335.74Z" fill="#FCD34D"/>
<path d="M339.75 150.449C337.84 144.109 335.09 137.819 331.58 131.739C328.07 125.659 323.98 120.119 319.44 115.279C314.82 110.359 309.95 106.409 304.96 103.529C299.58 100.419 294.35 98.7793 289.84 98.7793C285.33 98.7793 281.37 100.509 278.61 103.929C275.43 107.879 273.74 113.869 273.72 121.269C273.7 126.989 274.68 133.159 276.62 139.599C278.53 145.939 281.28 152.229 284.79 158.309C288.3 164.389 292.38 169.929 296.93 174.769C301.55 179.689 306.42 183.639 311.41 186.519C316.79 189.629 322.02 191.269 326.53 191.269C331.04 191.269 335 189.539 337.76 186.119C340.94 182.169 342.63 176.179 342.65 168.779C342.67 163.059 341.69 156.889 339.75 150.449Z" fill="#CED4F1"/>
<path d="M296.72 129.25L319.41 111C322.36 109.29 326.44 109.53 330.94 112.13L306.33 130.19C302.58 128.02 299.18 127.82 296.72 129.25Z" fill="#484853"/>
<mask id="mask22_442_2056" style="mask-type:luminance" maskUnits="userSpaceOnUse" x="296" y="109" width="35" height="22">
<path d="M296.72 129.25L319.41 111C322.36 109.29 326.44 109.53 330.94 112.13L306.33 130.19C302.58 128.02 299.18 127.82 296.72 129.25Z" fill="white"/>
</mask>
<g mask="url(#mask22_442_2056)">
<path d="M296.72 129.25L319.41 111C320.17 110.56 321 110.25 321.89 110.07L298.79 128.48C298.05 128.63 297.35 128.89 296.72 129.25Z" fill="#484853"/>
<path d="M298.79 128.481L321.89 110.071C323.62 109.731 325.59 109.901 327.71 110.631L303.64 128.941C301.88 128.331 300.24 128.191 298.79 128.481Z" fill="#484853"/>
<path d="M303.64 128.941L327.71 110.631C328.76 110.991 329.84 111.491 330.94 112.131L306.33 130.191C305.41 129.661 304.51 129.241 303.63 128.941H303.64Z" fill="#484853"/>
</g>
<path d="M342.37 150.501L315.86 162.171C318.28 160.761 319.79 157.771 319.8 153.511C319.82 144.941 313.8 134.501 306.34 130.191L330.95 112.131C339.9 117.301 347.13 129.831 347.1 140.111C347.09 145.221 345.28 148.811 342.37 150.501Z" fill="#484853"/>
<mask id="mask23_442_2056" style="mask-type:luminance" maskUnits="userSpaceOnUse" x="306" y="112" width="42" height="51">
<path d="M342.37 150.501L315.86 162.171C318.28 160.761 319.79 157.771 319.8 153.511C319.82 144.941 313.8 134.501 306.34 130.191L330.95 112.131C339.9 117.301 347.13 129.831 347.1 140.111C347.09 145.221 345.28 148.811 342.37 150.501Z" fill="white"/>
</mask>
<g mask="url(#mask23_442_2056)">
<path d="M306.33 130.191L330.94 112.131C335.75 114.911 340.06 119.811 343.02 125.341L316.4 141.201C313.94 136.591 310.34 132.501 306.34 130.191H306.33Z" fill="#484853"/>
<path d="M316.4 141.202L343.02 125.342C344.38 127.892 345.46 130.582 346.16 133.262L319.01 147.802C318.42 145.572 317.53 143.332 316.39 141.202H316.4Z" fill="#484853"/>
<path d="M319.01 147.79L346.16 133.25C346.77 135.57 347.1 137.89 347.09 140.1C347.08 145.21 345.27 148.8 342.36 150.49L315.85 162.16C318.27 160.75 319.78 157.76 319.79 153.5C319.79 151.66 319.52 149.73 319.01 147.79Z" fill="#484853"/>
</g>
<path d="M306.33 130.19C313.79 134.5 319.81 144.94 319.79 153.51C319.77 162.08 313.7 165.54 306.24 161.23C298.78 156.92 292.76 146.49 292.78 137.92C292.8 129.35 298.87 125.89 306.33 130.2V130.19Z" fill="#282837"/>
<path d="M306.31 136.38C310.79 138.97 314.41 145.24 314.4 150.39C314.39 155.54 310.74 157.61 306.26 155.03C301.78 152.44 298.16 146.17 298.17 141.02C298.18 135.87 301.83 133.79 306.31 136.38Z" fill="#161620"/>
<path d="M347.09 167.49C347.02 192.18 329.55 202.13 308.06 189.73C286.58 177.33 269.22 147.26 269.29 122.57C269.36 97.8795 286.83 87.9195 308.32 100.33C329.81 112.73 347.17 142.8 347.09 167.49ZM342.65 168.78C342.67 163.06 341.69 156.89 339.75 150.45C337.84 144.11 335.09 137.82 331.58 131.74C328.07 125.66 323.98 120.12 319.44 115.28C314.82 110.36 309.95 106.41 304.96 103.53C299.58 100.42 294.35 98.7795 289.84 98.7795C285.33 98.7795 281.37 100.51 278.61 103.93C275.43 107.88 273.74 113.87 273.72 121.27C273.7 126.99 274.68 133.16 276.62 139.6C278.53 145.94 281.28 152.23 284.79 158.31C288.3 164.39 292.38 169.93 296.93 174.77C301.55 179.69 306.42 183.64 311.41 186.52C316.79 189.63 322.02 191.27 326.53 191.27C331.04 191.27 335 189.54 337.76 186.12C340.94 182.17 342.63 176.18 342.65 168.78Z" fill="#E2AE04"/>
<path d="M288.74 92.9099L280.64 97.6199C287.71 93.5099 297.51 94.0899 308.32 100.33L316.42 95.6199C305.61 89.3799 295.81 88.7999 288.74 92.9099Z" fill="#FCD34D"/>
<mask id="mask24_442_2056" style="mask-type:luminance" maskUnits="userSpaceOnUse" x="280" y="90" width="37" height="11">
<path d="M288.74 92.9099L280.64 97.6199C287.71 93.5099 297.51 94.0899 308.32 100.33L316.42 95.6199C305.61 89.3799 295.81 88.7999 288.74 92.9099Z" fill="white"/>
</mask>
<g mask="url(#mask24_442_2056)">
<path d="M308.32 100.33L316.42 95.6199C305.61 89.3799 295.81 88.7999 288.74 92.9099L280.64 97.6199C287.71 93.5099 297.51 94.0899 308.32 100.33Z" fill="#FCD34D"/>
</g>
<path d="M335.74 192.439L343.84 187.729C350.82 183.669 355.15 175.039 355.19 162.779C355.26 138.089 337.9 108.019 316.41 95.6191L308.31 100.329C329.8 112.729 347.16 142.799 347.08 167.489C347.05 179.749 342.72 188.379 335.73 192.439H335.74Z" fill="#FCD34D"/>
<path d="M373.99 79.0896C365.16 73.9896 357.99 78.0796 357.96 88.2196L357.94 95.1396C357.91 105.28 365.04 117.63 373.87 122.72L379.89 126.2C388.72 131.3 395.9 127.21 395.93 117.07L395.95 110.15C395.98 100.01 388.85 87.6596 380.02 82.5596L374 79.0796L373.99 79.0896Z" fill="#F4F4FB"/>
<path d="M95.37 184.639L96.24 184.309C90.2 168.399 88.97 150.489 92.78 133.899C96.11 119.389 103.18 105.859 113.24 94.7587L112.55 94.1387C102.39 105.349 95.24 119.029 91.88 133.689C88.03 150.459 89.28 168.549 95.38 184.629L95.37 184.639Z" fill="#35353F"/>
<path d="M108.67 92.2792L117.54 89.6992L115.34 98.6692L108.67 92.2792Z" fill="#35353F"/>
<path d="M268.01 90.6202L270.44 89.2102L274.89 79.1602L272.46 80.5702L268.01 90.6202Z" fill="#FCD34D"/>
<path d="M258.35 50.4101L255.92 51.8201C256.61 51.4201 257.56 51.4801 258.6 52.0801L261.03 50.6701C259.98 50.0601 259.03 50.0101 258.35 50.4101Z" fill="#FCD34D"/>
<mask id="mask25_442_2056" style="mask-type:luminance" maskUnits="userSpaceOnUse" x="255" y="50" width="7" height="3">
<path d="M258.35 50.4101L255.92 51.8201C256.61 51.4201 257.56 51.4801 258.6 52.0801L261.03 50.6701C259.98 50.0601 259.03 50.0101 258.35 50.4101Z" fill="white"/>
</mask>
<g mask="url(#mask25_442_2056)">
<path d="M258.61 52.0801L261.04 50.6701C259.99 50.0601 259.04 50.0101 258.36 50.4101L255.93 51.8201C256.62 51.4201 257.57 51.4801 258.61 52.0801Z" fill="#FCD34D"/>
</g>
<path d="M280.22 83.7694L282.65 82.3595C283.33 81.9695 283.75 81.1295 283.75 79.9395L281.32 81.3494C281.32 82.5394 280.9 83.3794 280.22 83.7694Z" fill="#FCD34D"/>
<mask id="mask26_442_2056" style="mask-type:luminance" maskUnits="userSpaceOnUse" x="280" y="79" width="4" height="5">
<path d="M280.22 83.7694L282.65 82.3595C283.33 81.9695 283.75 81.1295 283.75 79.9395L281.32 81.3494C281.32 82.5394 280.9 83.3794 280.22 83.7694Z" fill="white"/>
</mask>
<g mask="url(#mask26_442_2056)">
<path d="M280.22 83.7694L282.65 82.3595C283.33 81.9695 283.75 81.1295 283.75 79.9395L281.32 81.3494C281.32 82.5394 280.9 83.3794 280.22 83.7694Z" fill="#FCD34D"/>
</g>
<path d="M281.32 81.3506L283.76 79.9406L283.79 68.1406L281.36 69.5606L281.32 81.3506Z" fill="#FCD34D"/>
<path d="M277.6 63.0499L280.03 61.6299L261.04 50.6699L258.61 52.0799L277.6 63.0499Z" fill="#FCD34D"/>
<path d="M281.36 69.5606L283.79 68.1506C283.79 65.7606 282.11 62.8406 280.03 61.6406L277.6 63.0506C279.68 64.2506 281.37 67.1706 281.36 69.5606Z" fill="#FCD34D"/>
<mask id="mask27_442_2056" style="mask-type:luminance" maskUnits="userSpaceOnUse" x="277" y="61" width="7" height="9">
<path d="M281.36 69.5606L283.79 68.1506C283.79 65.7606 282.11 62.8406 280.03 61.6406L277.6 63.0506C279.68 64.2506 281.37 67.1706 281.36 69.5606Z" fill="white"/>
</mask>
<g mask="url(#mask27_442_2056)">
<path d="M281.36 69.5606L283.79 68.1506C283.79 65.7606 282.11 62.8406 280.03 61.6406L277.6 63.0506C279.68 64.2506 281.37 67.1706 281.36 69.5606Z" fill="#FCD34D"/>
</g>
<path d="M258.61 52.0791C256.53 50.8791 254.83 51.8391 254.83 54.2391L254.8 66.0391C254.8 68.4291 256.48 71.3491 258.56 72.5491L263.64 75.4891L268.02 90.6291L272.47 80.5891L277.55 83.5291C279.63 84.7291 281.33 83.7691 281.33 81.3691L281.36 69.5691C281.36 67.1791 279.68 64.2591 277.6 63.0591L258.61 52.0991V52.0791Z" fill="#FCD34D"/>
<path d="M265.86 60.4207C264.88 59.8607 263.91 59.7007 263.24 59.9807C261.03 60.8907 261.06 66.4807 268.81 76.4507C276.6 75.4507 276.66 69.9207 274.46 66.4607C273.79 65.4107 272.82 64.4407 271.84 63.8807C270.68 63.2107 269.52 63.1107 268.84 64.1307C268.17 62.3307 267.01 61.0907 265.85 60.4207H265.86Z" fill="#F4F5FA"/>
<path d="M438.53 164.941L440.84 163.601L445.07 154.051L442.76 155.391L438.53 164.941Z" fill="#FCD34D"/>
<path d="M429.36 126.72L427.05 128.06C427.7 127.68 428.6 127.73 429.6 128.31L431.91 126.97C430.91 126.39 430.01 126.34 429.36 126.72Z" fill="#FCD34D"/>
<mask id="mask28_442_2056" style="mask-type:luminance" maskUnits="userSpaceOnUse" x="427" y="126" width="5" height="3">
<path d="M429.36 126.72L427.05 128.06C427.7 127.68 428.6 127.73 429.6 128.31L431.91 126.97C430.91 126.39 430.01 126.34 429.36 126.72Z" fill="white"/>
</mask>
<g mask="url(#mask28_442_2056)">
<path d="M429.6 128.31L431.91 126.97C430.91 126.39 430.01 126.34 429.36 126.72L427.05 128.06C427.7 127.68 428.6 127.73 429.6 128.31Z" fill="#FCD34D"/>
</g>
<path d="M450.14 158.431L452.45 157.091C453.09 156.721 453.49 155.921 453.5 154.791L451.19 156.131C451.19 157.261 450.79 158.061 450.14 158.431Z" fill="#FCD34D"/>
<mask id="mask29_442_2056" style="mask-type:luminance" maskUnits="userSpaceOnUse" x="450" y="154" width="4" height="5">
<path d="M450.14 158.431L452.45 157.091C453.09 156.721 453.49 155.921 453.5 154.791L451.19 156.131C451.19 157.261 450.79 158.061 450.14 158.431Z" fill="white"/>
</mask>
<g mask="url(#mask29_442_2056)">
<path d="M450.14 158.431L452.45 157.091C453.09 156.721 453.49 155.921 453.5 154.791L451.19 156.131C451.19 157.261 450.79 158.061 450.14 158.431Z" fill="#FCD34D"/>
</g>
<path d="M451.19 156.13L453.5 154.79L453.53 143.58L451.22 144.92L451.19 156.13Z" fill="#FCD34D"/>
<path d="M447.65 138.731L449.96 137.391L431.91 126.971L429.6 128.311L447.65 138.731Z" fill="#FCD34D"/>
<path d="M451.22 144.921L453.53 143.581C453.53 141.311 451.94 138.531 449.96 137.391L447.65 138.731C449.63 139.871 451.23 142.641 451.22 144.921Z" fill="#FCD34D"/>
<mask id="mask30_442_2056" style="mask-type:luminance" maskUnits="userSpaceOnUse" x="447" y="137" width="7" height="8">
<path d="M451.22 144.921L453.53 143.581C453.53 141.311 451.94 138.531 449.96 137.391L447.65 138.731C449.63 139.871 451.23 142.641 451.22 144.921Z" fill="white"/>
</mask>
<g mask="url(#mask30_442_2056)">
<path d="M451.22 144.921L453.53 143.581C453.53 141.311 451.94 138.531 449.96 137.391L447.65 138.731C449.63 139.871 451.23 142.641 451.22 144.921Z" fill="#FCD34D"/>
</g>
<path d="M429.6 128.31C427.62 127.17 426.01 128.08 426 130.36L425.97 141.57C425.97 143.85 427.56 146.62 429.54 147.76L434.37 150.55L438.53 164.94L442.76 155.39L447.59 158.18C449.57 159.32 451.18 158.41 451.19 156.13L451.22 144.92C451.22 142.64 449.63 139.87 447.65 138.73L429.6 128.31Z" fill="#FCD34D"/>
<path d="M432.52 142.879L435.14 144.389L434.49 148.289L436.18 149.259L436.83 145.359L439 146.629L438.35 150.509L440.04 151.479L440.69 147.599L443.83 149.409L444.07 147.589L441.05 145.849L441.41 143.569L444.43 145.309L444.68 143.499L441.67 141.759L442.3 137.869L440.61 136.899L439.98 140.789L437.82 139.539L438.47 135.659L436.78 134.689L436.13 138.569L433.39 136.989L433.12 138.789L435.81 140.349L435.45 142.609L432.77 141.069L432.51 142.879H432.52ZM437.14 143.589L437.5 141.329L439.71 142.609L439.35 144.889L437.14 143.589Z" fill="#F4F5FA"/>
<path d="M353.55 60.4211L355.8 59.1111L363.98 47.6211L361.73 48.9311L353.55 60.4211Z" fill="#FCD34D"/>
<path d="M337.45 4.81041L335.2 6.12041C336.08 5.61041 337.3 5.68041 338.65 6.46041L340.9 5.15041C339.55 4.37041 338.33 4.30041 337.45 4.81041Z" fill="#FCD34D"/>
<mask id="mask31_442_2056" style="mask-type:luminance" maskUnits="userSpaceOnUse" x="335" y="4" width="6" height="3">
<path d="M337.45 4.81041L335.2 6.12041C336.08 5.61041 337.3 5.68041 338.65 6.46041L340.9 5.15041C339.55 4.37041 338.33 4.30041 337.45 4.81041Z" fill="white"/>
</mask>
<g mask="url(#mask31_442_2056)">
<path d="M338.66 6.46048L340.91 5.15048C339.85 4.54048 338.87 4.36048 338.07 4.56048L335.82 5.87048C336.62 5.67048 337.6 5.84048 338.66 6.46048Z" fill="#FCD34D"/>
<path d="M335.82 5.87055L338.07 4.56055C337.85 4.61055 337.65 4.70055 337.46 4.81055L335.21 6.12055C335.4 6.01055 335.6 5.93055 335.82 5.87055Z" fill="#FCD34D"/>
</g>
<path d="M372.08 53.2501L374.33 51.9401C375.2 51.4301 375.74 50.3601 375.75 48.8301L373.5 50.1401C373.5 51.6701 372.96 52.7501 372.08 53.2501Z" fill="#FCD34D"/>
<mask id="mask32_442_2056" style="mask-type:luminance" maskUnits="userSpaceOnUse" x="372" y="48" width="4" height="6">
<path d="M372.08 53.2501L374.33 51.9401C375.2 51.4301 375.74 50.3601 375.75 48.8301L373.5 50.1401C373.5 51.6701 372.96 52.7501 372.08 53.2501Z" fill="white"/>
</mask>
<g mask="url(#mask32_442_2056)">
<path d="M372.08 53.2501L374.33 51.9401C375.2 51.4301 375.74 50.3601 375.75 48.8301L373.5 50.1401C373.5 51.6701 372.96 52.7501 372.08 53.2501Z" fill="#FCD34D"/>
</g>
<path d="M373.49 50.1411L375.74 48.8311L375.79 30.8711L373.54 32.1811L373.49 50.1411Z" fill="#FCD34D"/>
<path d="M368.71 23.8104L370.96 22.5004L340.9 5.15039L338.66 6.46039L368.71 23.8104Z" fill="#FCD34D"/>
<path d="M373.54 32.18L375.79 30.87C375.79 27.79 373.64 24.04 370.96 22.5L368.71 23.81C371.39 25.36 373.55 29.1 373.54 32.18Z" fill="#FCD34D"/>
<mask id="mask33_442_2056" style="mask-type:luminance" maskUnits="userSpaceOnUse" x="368" y="22" width="8" height="11">
<path d="M373.54 32.18L375.79 30.87C375.79 27.79 373.64 24.04 370.96 22.5L368.71 23.81C371.39 25.36 373.55 29.1 373.54 32.18Z" fill="white"/>
</mask>
<g mask="url(#mask33_442_2056)">
<path d="M373.54 32.1798L375.79 30.8698C375.79 29.4098 375.31 27.7898 374.51 26.3398L372.26 27.6498C373.06 29.1098 373.54 30.7198 373.54 32.1798Z" fill="#FCD34D"/>
<path d="M372.26 27.65L374.51 26.34C373.63 24.73 372.36 23.31 370.96 22.5L368.71 23.81C370.12 24.62 371.38 26.04 372.26 27.65Z" fill="#FCD34D"/>
</g>
<path d="M338.66 6.46076C335.98 4.91076 333.8 6.15076 333.8 9.23076L333.75 27.1808C333.75 30.2608 335.9 34.0108 338.58 35.5508L345.47 39.5308L353.56 60.4108L361.74 48.9208L368.63 52.9008C371.31 54.4508 373.49 53.2008 373.5 50.1308L373.55 32.1808C373.55 29.1008 371.4 25.3508 368.72 23.8108L338.67 6.46076H338.66Z" fill="#FCD34D"/>
<path d="M346.04 19.4195C346.04 22.0395 347.87 25.2195 350.13 26.5195C352.39 27.8195 354.22 26.7595 354.22 24.1395C354.22 21.5195 352.39 18.3395 350.13 17.0395C347.87 15.7395 346.04 16.7995 346.04 19.4195Z" fill="white"/>
<path d="M342.69 33.4994V29.8594C342.69 25.8894 345.49 24.2494 348.92 26.2294L351.33 27.6194C354.76 29.5994 357.56 34.4694 357.56 38.4394V42.0794L342.69 33.4994Z" fill="white"/>
<path d="M362.77 33.5108L360.21 32.0308V34.1708L362.77 35.6508V38.9908L364.72 40.1208V36.7808L367.29 38.2608V36.1208L364.72 34.6408V31.4308L362.77 30.3008V33.5108Z" fill="white"/>
<g style="mix-blend-mode:multiply" opacity="0.5">
<path d="M57.35 365.43L105.72 393.68L145.22 370.83V364.16L96.85 342.58L57.35 365.43Z" fill="#BCC5DF"/>
</g>
<path d="M68.9199 359.58V365.5L106.94 387.6V381.68L68.9199 359.58Z" fill="#BCC5DF"/>
<path d="M106.94 381.68V387.6L145.22 365.5V359.58L106.94 381.68Z" fill="#DDE3F4"/>
<path d="M68.92 359.58L106.94 381.68L145.22 359.58L107.19 337.48L68.92 359.58Z" fill="white"/>
<path d="M68.21 351.711V357.631L106.24 379.731V373.801L68.21 351.711Z" fill="#BCC5DF"/>
<path d="M106.24 373.801V379.731L144.51 357.631V351.711L106.24 373.801Z" fill="#DDE3F4"/>
<path d="M68.21 351.711L106.24 373.801L144.51 351.711L106.49 329.611L68.21 351.711Z" fill="white"/>
<path d="M61.1199 347.16V353.08L99.1499 375.18V369.26L61.1199 347.16Z" fill="#BCC5DF"/>
<path d="M99.1499 369.26V375.18L137.42 353.08V347.16L99.1499 369.26Z" fill="#DDE3F4"/>
<path d="M61.1199 347.161L99.1499 369.261L137.42 347.161L99.3999 325.061L61.1199 347.161Z" fill="white"/>
<path d="M61.1199 339.619V345.539L99.1499 367.639V361.719L61.1199 339.619Z" fill="#BCC5DF"/>
<path d="M99.1499 361.719V367.639L137.42 345.539V339.619L99.1499 361.719Z" fill="#DDE3F4"/>
<path d="M61.1199 339.62L99.1499 361.72L137.42 339.62L99.3999 317.52L61.1199 339.62Z" fill="white"/>
<path d="M61.1199 331.08V337L99.1499 359.1V353.18L61.1199 331.08Z" fill="#BCC5DF"/>
<path d="M99.1499 353.18V359.1L137.42 337V331.08L99.1499 353.18Z" fill="#DDE3F4"/>
<path d="M61.1199 331.08L99.1499 353.18L137.42 331.08L99.3999 308.98L61.1199 331.08Z" fill="white"/>
<path d="M96.32 317.34C102.46 317.6 109.5 321.13 107.2 325.69C115.1 324.36 121.21 328.43 121.67 331.97C122.36 337.33 111.33 343.58 82.99 339.67C76.22 323.31 87.04 316.94 96.32 317.34Z" fill="#FCD34D"/>
</g>
<defs>
<clipPath id="clip0_442_2056">
<rect width="455.87" height="394.46" fill="white" transform="matrix(-1 0 0 1 455.87 0)"/>
</clipPath>
</defs>
</svg>
