<svg width="36" height="36" viewBox="0 0 36 36" fill="none" xmlns="http://www.w3.org/2000/svg">
<path d="M8.1345 4.55701C6.2085 4.55701 4.785 6.24301 4.8495 8.07001C4.9095 9.82651 4.83 12.102 4.257 13.956C3.6825 15.816 2.712 16.995 1.125 17.1465V18.8535C2.712 19.005 3.6825 20.184 4.257 22.044C4.83 23.8995 4.9095 26.1735 4.848 27.93C4.785 29.757 6.2085 31.443 8.136 31.443H27.867C29.793 31.443 31.218 29.757 31.155 27.93C31.0935 26.1735 31.173 23.8995 31.7445 22.044C32.3205 20.184 33.2895 19.005 34.875 18.8535V17.1465C33.288 16.995 32.3205 15.816 31.7445 13.956C31.173 12.102 31.0935 9.82651 31.155 8.07001C31.218 6.24301 29.793 4.55701 27.867 4.55701H8.1345ZM24.006 21.1065C24.006 23.6235 22.1295 25.1505 19.014 25.1505H13.71C13.6348 25.1507 13.5603 25.1361 13.4908 25.1074C13.4213 25.0788 13.3581 25.0367 13.3049 24.9836C13.2517 24.9306 13.2095 24.8675 13.1806 24.7981C13.1518 24.7286 13.137 24.6542 13.137 24.579V11.421C13.1372 11.346 13.1522 11.2717 13.1811 11.2024C13.21 11.1332 13.2522 11.0703 13.3054 11.0173C13.3587 10.9644 13.4218 10.9225 13.4912 10.8939C13.5606 10.8654 13.6349 10.8508 13.71 10.851H18.9825C21.5805 10.851 23.286 12.2565 23.286 14.418C23.286 15.933 22.1385 17.292 20.6775 17.529V17.6085C22.6665 17.826 24.006 19.2045 24.006 21.1065ZM18.435 12.663H15.411V16.935H17.958C19.9275 16.935 21.012 16.1415 21.012 14.724C21.012 13.3965 20.079 12.663 18.435 12.663ZM15.411 18.6285V23.337H18.546C20.5965 23.337 21.681 22.5135 21.681 20.967C21.681 19.422 20.5665 18.6285 18.414 18.6285H15.411Z" fill="white"/>
</svg>
