<svg width="50" height="50" viewBox="0 0 50 50" fill="none" xmlns="http://www.w3.org/2000/svg">
<g clip-path="url(#clip0_270_298)">
<path d="M28.0499 41.3125H46.6374C47.227 41.3125 47.8082 41.1604 48.3186 40.875C48.827 40.5915 49.2517 40.179 49.5499 39.6792C49.8441 39.1859 49.9996 38.6223 49.9999 38.0479C49.9987 37.4741 49.8425 36.9112 49.5478 36.4188L37.0665 15.4458C36.768 14.9467 36.3434 14.535 35.8353 14.2521C35.3215 13.9649 34.7427 13.8143 34.154 13.8146C33.5645 13.8146 32.9832 13.9667 32.4728 14.2521C31.9655 14.5353 31.5416 14.947 31.2436 15.4458L28.0478 20.8125L21.8124 10.3188C21.5138 9.81971 21.0892 9.40802 20.5811 9.125C20.0673 8.83789 19.4885 8.68726 18.8999 8.6875C18.3082 8.6875 17.7291 8.83958 17.2186 9.125C16.7106 9.40802 16.286 9.81971 15.9874 10.3188L0.449886 36.4188C0.155288 36.9112 -0.000901008 37.4741 -0.00219727 38.0479C-0.00219727 38.6208 0.151969 39.1833 0.447803 39.6792C0.745451 40.1788 1.16938 40.5912 1.67697 40.875C2.18947 41.1604 2.77072 41.3125 3.3603 41.3125H15.027C19.652 41.3125 23.0603 39.3417 25.4061 35.5L31.0999 25.9312L34.1499 20.8125L43.3061 36.1917H31.0999L28.0499 41.3125ZM14.8395 36.1875L6.6978 36.1833L18.902 15.6792L24.9916 25.9312L20.9145 32.7854C19.3561 35.2771 17.5874 36.1854 14.8395 36.1854" fill="white"/>
</g>
<defs>
<clipPath id="clip0_270_298">
<rect width="50" height="50" fill="white"/>
</clipPath>
</defs>
</svg>
