<svg width="48" height="48" viewBox="0 0 48 48" fill="none" xmlns="http://www.w3.org/2000/svg">
<path d="M18.3799 27.9401V13.5401L29.5699 7.08005C35.7699 3.50005 46.8699 12.33 42.2099 20.41" stroke="white" stroke-linejoin="round"/>
<path d="M18.3799 20.94L30.8499 13.74L42.0399 20.2C48.2399 23.78 46.1399 37.81 36.8099 37.81" stroke="white" stroke-linejoin="round"/>
<path d="M24.4401 17.4399L36.91 24.6399V37.5699C36.91 44.7299 23.71 49.9299 19.05 41.8499" stroke="white" stroke-linejoin="round"/>
<path d="M30.5 21.2V35.34L19.31 41.7999C13.11 45.3799 2.00996 36.5499 6.66996 28.4699" stroke="white" stroke-linejoin="round"/>
<path d="M30.5 27.9399L18.03 35.1399L6.84004 28.6799C0.630036 25.0899 2.73004 11.0699 12.06 11.0699" stroke="white" stroke-linejoin="round"/>
<path d="M24.44 31.44L11.97 24.24V11.31C11.97 4.15002 25.17 -1.04998 29.83 7.03002" stroke="white" stroke-linejoin="round"/>
</svg>
