<svg width="23" height="22" viewBox="0 0 23 22" fill="none" xmlns="http://www.w3.org/2000/svg">
<g clip-path="url(#clip0_283_123)">
<path d="M11.5 3.66663C9.92685 3.66663 8.57445 4.07289 7.51338 4.94263C6.45845 5.80796 5.76998 7.06489 5.38665 8.63276C5.34596 8.79881 5.36706 8.97324 5.44631 9.12602C5.52556 9.27881 5.658 9.40039 5.82085 9.46985C5.9837 9.53931 6.16677 9.55231 6.33855 9.5066C6.51033 9.4609 6.66009 9.35935 6.76205 9.21943C7.24658 8.55649 7.73112 8.15903 8.19725 7.95369C8.64805 7.75569 9.13412 7.71609 9.69225 7.85836C10.2534 8.00209 10.6889 8.42449 11.3712 9.13436L11.3942 9.15783C11.9094 9.69316 12.5366 10.3458 13.3952 10.8533C14.2876 11.3798 15.3962 11.7333 16.8667 11.7333C18.4399 11.7333 19.7923 11.327 20.8534 10.4573C21.9083 9.59196 22.5983 8.33503 22.9801 6.76716C23.0208 6.6011 22.9997 6.42668 22.9205 6.27389C22.8412 6.12111 22.7088 5.99953 22.5459 5.93007C22.3831 5.8606 22.2 5.84761 22.0282 5.89332C21.8564 5.93902 21.7067 6.04057 21.6047 6.18049C21.1202 6.84343 20.6356 7.24089 20.1695 7.44623C19.7187 7.64423 19.2326 7.68383 18.6745 7.54156C18.1133 7.39783 17.6778 6.97543 16.9955 6.26556L16.9725 6.24209C16.4573 5.70676 15.8302 5.05409 14.9715 4.54663C14.0791 4.02009 12.9705 3.66663 11.5 3.66663ZM6.13338 10.2666C4.56018 10.2666 3.20778 10.6729 2.14672 11.5426C1.09178 12.408 0.403316 13.6649 0.019983 15.2328C-0.0207038 15.3988 0.00039212 15.5732 0.0796404 15.726C0.158889 15.8788 0.291333 16.0004 0.454182 16.0699C0.61703 16.1393 0.800099 16.1523 0.971883 16.1066C1.14367 16.0609 1.29342 15.9593 1.39538 15.8194C1.87992 15.1565 2.36445 14.759 2.83058 14.5537C3.28138 14.3557 3.76745 14.3161 4.32558 14.4584C4.88678 14.6021 5.32225 15.0245 6.00458 15.7344L6.02758 15.7578C6.54278 16.2932 7.16992 16.9458 8.02858 17.4533C8.92098 17.9798 10.0296 18.3333 11.5 18.3333C13.0732 18.3333 14.4257 17.927 15.4867 17.0573C16.5417 16.192 17.2317 14.935 17.6135 13.3672C17.6541 13.2011 17.633 13.0267 17.5538 12.8739C17.4745 12.7211 17.3421 12.5995 17.1793 12.5301C17.0164 12.4606 16.8333 12.4476 16.6615 12.4933C16.4898 12.539 16.34 12.6406 16.238 12.7805C15.7535 13.4434 15.269 13.8409 14.8028 14.0462C14.352 14.2442 13.866 14.2838 13.3078 14.1416C12.7466 13.9978 12.3112 13.5754 11.6288 12.8656L11.6058 12.8421C11.0922 12.3068 10.4635 11.6541 9.60485 11.1466C8.71245 10.6186 7.60385 10.2666 6.13338 10.2666Z" fill="white"/>
</g>
<defs>
<clipPath id="clip0_283_123">
<rect width="23" height="22" fill="white"/>
</clipPath>
</defs>
</svg>
