<svg width="474" height="468" viewBox="0 0 474 468" fill="none" xmlns="http://www.w3.org/2000/svg">
<g clip-path="url(#clip0_396_197)">
<path d="M171.37 58.5405C164.37 58.6105 157.39 58.8705 150.46 59.6605C70.55 68.7805 -13.95 156.99 23.3 239.67C32.18 259.37 48.13 272.57 61.19 289.32C90.89 327.42 96.83 374.2 122.06 414.11C141.61 445.05 178.62 460.44 213.6 465.77C251.61 471.57 283.59 464.58 315.47 443.9C351.21 420.72 363.05 382.95 373.71 344.12C378.5 326.66 383.48 308.67 392.68 292.94C404.2 273.24 420.03 255.98 432.87 237.13C446.23 217.53 457.7 196.01 461.2 172.51C472.41 97.2605 382.49 33.8505 313.48 33.0805C289.05 32.8105 265.9 41.3305 243.1 48.6105C218.48 56.4605 197.28 58.2605 171.38 58.5405H171.37Z" fill="#FFE01B"/>
<path opacity="0.7" d="M171.37 58.5405C164.37 58.6105 157.39 58.8705 150.46 59.6605C70.55 68.7805 -13.95 156.99 23.3 239.67C32.18 259.37 48.13 272.57 61.19 289.32C90.89 327.42 96.83 374.2 122.06 414.11C141.61 445.05 178.62 460.44 213.6 465.77C251.61 471.57 283.59 464.58 315.47 443.9C351.21 420.72 363.05 382.95 373.71 344.12C378.5 326.66 383.48 308.67 392.68 292.94C404.2 273.24 420.03 255.98 432.87 237.13C446.23 217.53 457.7 196.01 461.2 172.51C472.41 97.2605 382.49 33.8505 313.48 33.0805C289.05 32.8105 265.9 41.3305 243.1 48.6105C218.48 56.4605 197.28 58.2605 171.38 58.5405H171.37Z" fill="white"/>
<g opacity="0.3">
<path d="M21.38 33.9404V451.87" stroke="black" stroke-miterlimit="10"/>
<path d="M69.29 33.9404V451.87" stroke="black" stroke-miterlimit="10"/>
<path d="M117.2 33.9404V451.87" stroke="black" stroke-miterlimit="10"/>
<path d="M165.11 33.9404V451.87" stroke="black" stroke-miterlimit="10"/>
<path d="M213.02 33.9404V451.87" stroke="black" stroke-miterlimit="10"/>
<path d="M260.93 33.9404V451.87" stroke="black" stroke-miterlimit="10"/>
<path d="M308.84 33.9404V451.87" stroke="black" stroke-miterlimit="10"/>
<path d="M356.75 33.9404V451.87" stroke="black" stroke-miterlimit="10"/>
<path d="M404.66 33.9404V451.87" stroke="black" stroke-miterlimit="10"/>
<path d="M452.58 33.9404V451.87" stroke="black" stroke-miterlimit="10"/>
<path d="M473.95 75.2207H0" stroke="black" stroke-miterlimit="10"/>
<path d="M473.95 123.131H0" stroke="black" stroke-miterlimit="10"/>
<path d="M473.95 171.041H0" stroke="black" stroke-miterlimit="10"/>
<path d="M473.95 218.951H0" stroke="black" stroke-miterlimit="10"/>
<path d="M473.95 266.86H0" stroke="black" stroke-miterlimit="10"/>
<path d="M473.95 314.78H0" stroke="black" stroke-miterlimit="10"/>
<path d="M473.95 362.69H0" stroke="black" stroke-miterlimit="10"/>
<path d="M473.95 410.601H0" stroke="black" stroke-miterlimit="10"/>
</g>
<path opacity="0.15" d="M211.84 61.3698L208.63 23.4998C208.43 21.1598 207.18 19.0398 205.24 17.7198C203.29 16.4098 200.86 16.0398 198.61 16.7298L161.06 28.2798C156.96 29.5398 154.66 33.8898 155.92 37.9798C157.18 42.0798 161.52 44.3798 165.62 43.1198L181.75 38.1598L121.37 118.01L83.01 116.85C80.68 116.79 78.45 117.76 76.92 119.51L29.1 174.39C26.28 177.62 26.62 182.53 29.85 185.34C31.32 186.62 33.14 187.25 34.95 187.25C37.12 187.25 39.27 186.35 40.81 184.59L86.22 132.48L124.91 133.65C127.42 133.72 129.82 132.58 131.34 130.57L194.99 46.3998L196.37 62.6698C196.71 66.7198 200.11 69.7798 204.1 69.7798C204.32 69.7798 204.54 69.7798 204.76 69.7498C209.03 69.3898 212.2 65.6298 211.84 61.3598V61.3698Z" fill="black"/>
<path opacity="0.15" d="M414.17 314.55L410.57 272.09C410.42 270.28 409.81 268.52 408.67 267.1C406.33 264.19 402.56 263.12 399.17 264.16L356.84 277.19C352.35 278.57 349.48 283.16 350.57 287.73C351.76 292.73 356.9 295.61 361.74 294.13L380.05 288.5L329.71 354.98C326.86 358.75 327.49 364.1 331.13 367.1C335 370.28 340.73 369.61 343.76 365.62L395.06 297.86L396.63 316.33C397.02 320.93 400.87 324.4 405.4 324.4C406.29 324.4 407.21 324.27 408.13 323.97C412.09 322.7 414.52 318.71 414.17 314.57V314.55Z" fill="black"/>
<path opacity="0.15" d="M249.11 393.53L245.51 351.07C245.36 349.26 244.75 347.5 243.61 346.08C241.27 343.17 237.5 342.1 234.12 343.14L191.79 356.17C187.3 357.55 184.43 362.14 185.52 366.71C186.71 371.71 191.85 374.59 196.69 373.11L215 367.48L163.6 435.45C160.75 439.22 161.38 444.56 165.03 447.57C168.9 450.75 174.64 450.08 177.66 446.08L230.02 376.83L231.59 395.3C231.98 399.9 235.83 403.37 240.36 403.37C241.25 403.37 242.17 403.24 243.09 402.94C247.05 401.67 249.48 397.68 249.13 393.54L249.11 393.53Z" fill="black"/>
<path opacity="0.15" d="M312.49 28.0499L310.5 4.59993C310.42 3.59993 310.08 2.62993 309.45 1.83993C308.16 0.229935 306.08 -0.360065 304.21 0.219935L280.83 7.41993C278.35 8.17993 276.76 10.7199 277.36 13.2399C278.02 15.9999 280.86 17.5999 283.53 16.7699L293.64 13.6599L265.25 51.2099C263.68 53.2899 264.02 56.2399 266.04 57.8999C268.18 59.6599 271.35 59.2899 273.02 57.0799L301.94 18.8299L302.8 29.0299C303.02 31.5699 305.14 33.4899 307.64 33.4899C308.13 33.4899 308.64 33.4199 309.15 33.2499C311.34 32.5499 312.68 30.3399 312.48 28.0599L312.49 28.0499Z" fill="black"/>
<path d="M445.08 150.32L437.64 62.5096C437.18 57.0796 434.29 52.1596 429.78 49.1096C425.27 46.0596 419.62 45.2196 414.41 46.8196L327.34 73.6096C317.84 76.5296 312.51 86.6096 315.43 96.1096C318.35 105.61 328.42 110.94 337.93 108.02L375.33 96.5096L235.33 281.65L146.39 278.95C140.99 278.8 135.82 281.05 132.27 285.12L21.39 412.37C14.86 419.87 15.64 431.24 23.14 437.77C26.55 440.74 30.76 442.2 34.96 442.2C39.98 442.2 44.98 440.11 48.54 436.03L153.82 315.2L243.53 317.92C249.34 318.07 254.91 315.44 258.43 310.78L406 115.62L409.2 153.35C410 162.74 417.86 169.83 427.11 169.83C427.62 169.83 428.13 169.81 428.65 169.76C438.56 168.92 445.91 160.21 445.07 150.3L445.08 150.32Z" fill="#263238" stroke="#263238" stroke-linecap="round" stroke-linejoin="round"/>
<path d="M452.72 143.01L445.28 55.2C444.82 49.77 441.93 44.85 437.42 41.8C432.91 38.75 427.26 37.91 422.05 39.51L334.98 66.3C325.48 69.22 320.15 79.3 323.07 88.8C325.99 98.3 336.06 103.63 345.57 100.71L382.97 89.2L242.97 274.34L154.03 271.64C148.63 271.49 143.46 273.74 139.91 277.81L29.03 405.06C22.5 412.56 23.28 423.93 30.78 430.46C34.19 433.43 38.4 434.89 42.6 434.89C47.62 434.89 52.62 432.8 56.18 428.72L161.46 307.89L251.17 310.61C256.98 310.76 262.55 308.13 266.07 303.47L413.64 108.31L416.84 146.04C417.64 155.43 425.5 162.52 434.75 162.52C435.26 162.52 435.77 162.5 436.29 162.45C446.2 161.61 453.55 152.9 452.71 142.99L452.72 143.01Z" fill="#FFE01B" stroke="#263238" stroke-linecap="round" stroke-linejoin="round"/>
<path d="M215.54 225.171L198.89 224.201L192.09 222.071C192.09 222.071 176.1 203.371 162.28 193.341C148.46 183.311 121.09 164.881 118.65 168.411C116.21 171.931 121.63 256.211 121.63 256.211C121.63 256.211 116.48 258.921 115.67 260.551C114.86 262.181 88.57 323.151 88.57 323.151C88.57 323.151 83.96 321.801 83.15 323.421C82.34 325.041 79.36 332.361 79.36 332.361L65.54 331.011C65.54 331.011 55.78 328.571 50.36 326.671C44.94 324.771 46.3 329.111 47.65 331.011C49.01 332.911 65.81 348.081 65.81 348.081L76.38 355.671C76.38 355.671 80.72 356.751 81.8 354.861C82.88 352.971 93.72 340.501 93.72 340.501C93.72 340.501 96.7 338.331 98.06 336.981C99.41 335.631 101.31 330.481 101.31 330.481L129.49 295.791L144.67 278.721H230.58C230.58 278.721 235.46 276.551 237.63 270.861L239.8 265.171L215.56 225.181L215.54 225.171ZM137.89 252.431L142.77 216.121L166.62 245.931L137.89 252.431Z" fill="#263238" stroke="#263238" stroke-linecap="round" stroke-linejoin="round"/>
<path d="M320.18 145.53L301.34 155.06L296.46 165.48L319.73 165.26C319.73 165.26 325.49 152.85 325.71 149.08C325.93 145.31 320.17 145.53 320.17 145.53H320.18Z" fill="white" stroke="#263238" stroke-linecap="round" stroke-linejoin="round"/>
<path d="M313.77 157.04C313.77 157.04 312.69 149.45 313.77 148.37C314.85 147.29 328.13 139.16 330.84 139.16C333.55 139.16 340.6 141.33 340.87 142.14C341.14 142.95 341.68 145.66 341.68 146.75C341.68 147.84 333.55 154.34 332.47 155.69C331.39 157.04 313.77 157.04 313.77 157.04Z" fill="white" stroke="#263238" stroke-linecap="round" stroke-linejoin="round"/>
<path d="M288.5 176.39L298.74 176C298.74 176 312.46 157.45 315.36 154.16C318.26 150.87 326.18 143.92 334.88 142.76C343.58 141.6 344.74 145.85 344.74 147.4C344.74 148.95 336.24 164.02 332.37 172.14C328.51 180.26 324.64 185.09 323.67 187.02C322.7 188.95 312.46 206.93 310.53 210.21C308.6 213.5 297.39 221.81 295.84 223.74C294.29 225.67 282.12 244.42 274.58 250.41C267.04 256.4 254.1 262.201 254.1 262.201C254.1 262.201 248.11 266.45 244.63 268.19C241.15 269.93 237.29 269.54 235.93 268.96C234.57 268.38 223.95 259.49 218.15 250.02C212.35 240.55 212.35 226.44 212.74 225.09C213.13 223.74 216.41 221.61 217.38 221.42C218.35 221.23 228.2 218.71 228.2 218.71L236.12 212.91C236.12 212.91 236.7 209.82 237.47 208.85C238.24 207.88 254.09 190.49 254.09 190.49L260.08 183.53L274.19 179.86L288.49 176.38L288.5 176.39Z" fill="white" stroke="#263238" stroke-linecap="round" stroke-linejoin="round"/>
<path d="M245.49 235.03C249.97 235.07 255.6 234.67 262.54 233.46" stroke="#263238" stroke-linecap="round" stroke-linejoin="round"/>
<path d="M230.72 232.44C230.72 232.44 234.18 234.5 242.7 234.95" stroke="#263238" stroke-linecap="round" stroke-linejoin="round"/>
<path d="M242.56 242.41C243.62 242.66 244.69 242.84 245.74 242.95" stroke="#263238" stroke-linecap="round" stroke-linejoin="round"/>
<path d="M227.86 235.9C227.86 235.9 233.58 239.66 240.07 241.72" stroke="#263238" stroke-linecap="round" stroke-linejoin="round"/>
<path d="M265.78 219.28C259.68 220.87 247.84 223.95 241.95 225.32" stroke="#263238" stroke-linecap="round" stroke-linejoin="round"/>
<path d="M269.59 218.28C269.59 218.28 268.95 218.45 267.85 218.74" stroke="#263238" stroke-linecap="round" stroke-linejoin="round"/>
<path d="M285.76 195.311C285.09 196.361 284.51 197.281 284.06 198.041" stroke="#263238" stroke-linecap="round" stroke-linejoin="round"/>
<path d="M298.74 176.011C298.74 176.011 291.7 186.211 287.04 193.331" stroke="#263238" stroke-linecap="round" stroke-linejoin="round"/>
<path d="M296.81 177.551C296.81 177.551 286.18 184.701 281.74 189.531" stroke="#263238" stroke-linecap="round" stroke-linejoin="round"/>
<path d="M274.01 134.46C274.01 134.46 263.38 140.45 263.38 141.8V144.7C263.38 144.7 257 149.14 254.68 150.5C252.36 151.85 256.81 155.33 256.81 155.33L250.82 169.82C250.82 169.82 252.56 172.91 253.91 173.11C255.26 173.3 262.41 173.5 262.41 173.5L264.92 180.26L290.04 175.04L288.88 170.98C288.88 170.98 298.93 166.73 302.99 163.83C307.05 160.93 309.56 149.34 306.28 142.19C303 135.04 299.9 131.17 296.62 129.44C293.33 127.7 285.6 127.7 285.6 127.7C285.6 127.7 291.2 121.9 285.79 121.71C280.38 121.52 278.06 125.96 278.06 125.96C278.06 125.96 274.58 120.74 271.68 124.61C268.78 128.48 274 134.47 274 134.47L274.01 134.46Z" fill="white" stroke="#263238" stroke-linecap="round" stroke-linejoin="round"/>
<path d="M262.41 173.49L268.21 173.39L264.5 177.97L262.41 173.49Z" fill="#263238" stroke="#263238" stroke-linecap="round" stroke-linejoin="round"/>
<path d="M266.86 143.54C266.86 143.54 270.92 142.19 272.27 146.63" stroke="#263238" stroke-linecap="round" stroke-linejoin="round"/>
<path d="M267.63 146.82L265.12 149.14C265.12 149.14 265.7 149.91 268.79 150.88" stroke="#263238" stroke-linecap="round" stroke-linejoin="round"/>
<path d="M259.51 158.23C259.51 158.23 261.06 160.36 266.47 158.23" stroke="#263238" stroke-linecap="round" stroke-linejoin="round"/>
<path d="M296.62 129.43C293.33 127.69 285.6 127.69 285.6 127.69C285.6 127.69 291.2 121.89 285.79 121.7C280.38 121.51 278.06 125.95 278.06 125.95C278.06 125.95 274.58 120.73 271.68 124.6C268.78 128.46 274 134.46 274 134.46C274 134.46 275.74 135.43 278.06 136.2C280.38 136.97 284.82 137.55 285.4 138.71C285.98 139.87 277.67 142.96 278.44 144.7C279.21 146.44 280.95 151.46 280.95 151.46C280.95 151.46 277.47 155.71 278.05 156.29C278.63 156.87 280.18 158.61 280.76 158.61C281.34 158.61 285.78 155.71 286.36 155.71C286.94 155.71 289.84 155.9 289.45 160.15C289.06 164.4 284.04 166.33 281.72 166.72L279.4 167.11C279.4 167.11 281.91 169.24 282.69 170.4C283.47 171.56 288.87 170.98 288.87 170.98C288.87 170.98 298.92 166.73 302.98 163.83C307.04 160.93 309.55 149.34 306.27 142.19C302.99 135.04 299.89 131.17 296.61 129.44L296.62 129.43Z" fill="#263238" stroke="#263238" stroke-linecap="round" stroke-linejoin="round"/>
<path d="M256.03 196.49C256.03 196.49 251.59 226.64 251.2 230.5C250.81 234.37 250.81 253.88 250.81 253.88L258.54 261.42L265.5 252.53L260.09 225.86L257.38 195.91L256.03 196.49Z" fill="#FFE01B" stroke="#263238" stroke-linecap="round" stroke-linejoin="round"/>
<path d="M258.35 186.63L256.03 196.49L271.69 186.44L258.35 186.63Z" fill="#FFE01B" stroke="#263238" stroke-linecap="round" stroke-linejoin="round"/>
<path d="M288.89 170.98L259.71 179.68L260.67 191.47L292.37 176.2L288.89 170.98Z" fill="white" stroke="#263238" stroke-linecap="round" stroke-linejoin="round"/>
<path d="M260.09 182.19L253.71 181.8L261.06 189.34L260.09 182.19Z" fill="white" stroke="#263238" stroke-linecap="round" stroke-linejoin="round"/>
<path d="M253.71 181.8L254.1 190.5L258.35 186.63L253.71 181.8Z" fill="white" stroke="#263238" stroke-linecap="round" stroke-linejoin="round"/>
<path d="M141.14 213.13C141.14 213.13 131.11 195.24 126.51 187.38" stroke="white" stroke-linecap="round" stroke-linejoin="round"/>
<path d="M123.79 191.721L130.84 197.691" stroke="white" stroke-linecap="round" stroke-linejoin="round"/>
<path d="M99.4 306.36C99.4 306.36 122.98 292.27 137.61 283.32" stroke="white" stroke-linecap="round" stroke-linejoin="round"/>
<path d="M121.08 288.201C121.08 288.201 134.09 282.241 137.34 279.261" stroke="white" stroke-linecap="round" stroke-linejoin="round"/>
<path d="M176.22 183.74L151.48 194.37L180.28 236.88L196.12 218.14L176.22 183.74Z" fill="white" stroke="#263238" stroke-linecap="round" stroke-linejoin="round"/>
<path d="M176.03 185.86L154.04 195.06L180.53 234.18L194.34 217.51L176.03 185.86Z" fill="#FFE01B" stroke="#263238" stroke-linecap="round" stroke-linejoin="round"/>
<path d="M196.12 218.14L234.97 211.76L230.72 232.44L180.28 236.88L196.12 218.14Z" fill="white" stroke="#263238" stroke-linecap="round" stroke-linejoin="round"/>
<path d="M218.04 218.57L218.78 216.61L214.95 217.22L214.11 219.15L218.04 218.57Z" stroke="#263238" stroke-width="0.75" stroke-linecap="round" stroke-linejoin="round"/>
<path d="M194.1 230.351L198.14 229.881L199.36 228.021L195.56 228.48L194.1 230.351Z" fill="white" stroke="#263238" stroke-width="0.75" stroke-linecap="round" stroke-linejoin="round"/>
<path d="M218.7 219.38L217.88 221.52L221.34 221.04L222.15 218.87L218.7 219.38Z" stroke="#263238" stroke-width="0.75" stroke-linecap="round" stroke-linejoin="round"/>
<path d="M221.01 224.52L225.46 223.99L226.42 221.23L222 221.85L221.01 224.52Z" stroke="#263238" stroke-width="0.75" stroke-linecap="round" stroke-linejoin="round"/>
<path d="M206.26 224.08L202.67 224.58L201.17 226.9L205.02 226.43L206.26 224.08Z" fill="white" stroke="#263238" stroke-width="0.75" stroke-linecap="round" stroke-linejoin="round"/>
<path d="M208.39 220L209.38 218.1L206.61 218.54L205.36 220.45L208.39 220Z" fill="white" stroke="#263238" stroke-width="0.75" stroke-linecap="round" stroke-linejoin="round"/>
<path d="M204.52 227.4L200.52 227.88L199.31 229.75L203.55 229.25L204.52 227.4Z" fill="white" stroke="#263238" stroke-width="0.75" stroke-linecap="round" stroke-linejoin="round"/>
<path d="M201.49 224.75L198.09 225.23L196.34 227.47L200 227.04L201.49 224.75Z" fill="white" stroke="#263238" stroke-width="0.75" stroke-linecap="round" stroke-linejoin="round"/>
<path d="M222.5 217.9L223.25 215.89L219.81 216.44L219.06 218.41L222.5 217.9Z" stroke="#263238" stroke-width="0.75" stroke-linecap="round" stroke-linejoin="round"/>
<path d="M187.77 232L185.88 234.18L190.38 233.67L192.07 231.5L187.77 232Z" fill="white" stroke="#263238" stroke-width="0.75" stroke-linecap="round" stroke-linejoin="round"/>
<path d="M209.63 229.45L208.7 231.59L213.31 231.06L214.12 228.93L209.63 229.45Z" fill="white" stroke="#263238" stroke-width="0.75" stroke-linecap="round" stroke-linejoin="round"/>
<path d="M198.67 230.73L197.26 232.88L201.92 232.36L203.04 230.22L198.67 230.73Z" fill="white" stroke="#263238" stroke-width="0.75" stroke-linecap="round" stroke-linejoin="round"/>
<path d="M214.32 230.95L217.82 230.55L218.61 228.41L215.13 228.82L214.32 230.95Z" stroke="#263238" stroke-width="0.75" stroke-linecap="round" stroke-linejoin="round"/>
<path d="M222.36 220.89L226.76 220.27L227.53 218.06L223.16 218.71L222.36 220.89Z" stroke="#263238" stroke-width="0.75" stroke-linecap="round" stroke-linejoin="round"/>
<path d="M211.72 222.4L212.63 220.28L208.98 220.83L207.87 222.94L211.72 222.4Z" fill="white" stroke="#263238" stroke-width="0.75" stroke-linecap="round" stroke-linejoin="round"/>
<path d="M199.25 222.271L195.72 222.801L193.89 224.911L197.6 224.391L199.25 222.271Z" fill="white" stroke="#263238" stroke-width="0.75" stroke-linecap="round" stroke-linejoin="round"/>
<path d="M213.06 219.31L213.89 217.38L210.49 217.92L209.49 219.84L213.06 219.31Z" fill="white" stroke="#263238" stroke-width="0.75" stroke-linecap="round" stroke-linejoin="round"/>
<path d="M198.89 224.21L202.14 223.75L203.52 221.64L200.54 222.08L198.89 224.21Z" fill="white" stroke="#263238" stroke-width="0.75" stroke-linecap="round" stroke-linejoin="round"/>
<path d="M219.66 225.59L216.19 226L215.49 227.87L218.96 227.46L219.66 225.59Z" stroke="#263238" stroke-width="0.75" stroke-linecap="round" stroke-linejoin="round"/>
<path d="M225.12 224.93L220.66 225.47L219.97 227.34L224.46 226.82L225.12 224.93Z" stroke="#263238" stroke-width="0.75" stroke-linecap="round" stroke-linejoin="round"/>
<path d="M220.99 222L217.52 222.49L216.55 225.05L220.01 224.64L220.99 222Z" stroke="#263238" stroke-width="0.75" stroke-linecap="round" stroke-linejoin="round"/>
<path d="M203.33 223.58L206.77 223.09L207.87 220.99L204.71 221.46L203.33 223.58Z" fill="white" stroke="#263238" stroke-width="0.75" stroke-linecap="round" stroke-linejoin="round"/>
<path d="M193.32 231.35L191.63 233.52L196.1 233.02L197.5 230.86L193.32 231.35Z" fill="white" stroke="#263238" stroke-width="0.75" stroke-linecap="round" stroke-linejoin="round"/>
<path d="M223.52 217.75L227.87 217.1L228.59 215.04L224.27 215.73L223.52 217.75Z" stroke="#263238" stroke-width="0.75" stroke-linecap="round" stroke-linejoin="round"/>
<path d="M219.61 228.29L218.82 230.441L223.37 229.921L224.13 227.771L219.61 228.29Z" stroke="#263238" stroke-width="0.75" stroke-linecap="round" stroke-linejoin="round"/>
<path d="M200.05 221.24L201.53 219.35L198.25 219.87L196.62 221.75L200.05 221.24Z" fill="white" stroke="#263238" stroke-width="0.75" stroke-linecap="round" stroke-linejoin="round"/>
<path d="M204.12 230.1L203 232.23L207.67 231.7L208.6 229.58L204.12 230.1Z" fill="white" stroke="#263238" stroke-width="0.75" stroke-linecap="round" stroke-linejoin="round"/>
<path d="M211.29 223.37L207.36 223.92L206.11 226.3L210.23 225.81L211.29 223.37Z" fill="white" stroke="#263238" stroke-width="0.75" stroke-linecap="round" stroke-linejoin="round"/>
<path d="M215.18 226.12L210.85 226.64L210.05 228.5L214.48 227.98L215.18 226.12Z" stroke="#263238" stroke-width="0.75" stroke-linecap="round" stroke-linejoin="round"/>
<path d="M194.3 228.63L190.26 229.11L188.64 230.99L192.84 230.5L194.3 228.63Z" fill="white" stroke="#263238" stroke-width="0.75" stroke-linecap="round" stroke-linejoin="round"/>
<path d="M216.5 222.63L212.34 223.22L211.27 225.69L215.54 225.17L216.5 222.63Z" stroke="#263238" stroke-width="0.75" stroke-linecap="round" stroke-linejoin="round"/>
<path d="M209.82 226.771L205.6 227.271L204.63 229.131L209.01 228.62L209.82 226.771Z" fill="white" stroke="#263238" stroke-width="0.75" stroke-linecap="round" stroke-linejoin="round"/>
<path d="M217.67 219.53L213.68 220.13L212.76 222.25L216.87 221.67L217.67 219.53Z" stroke="#263238" stroke-width="0.75" stroke-linecap="round" stroke-linejoin="round"/>
<path d="M196.81 225.41L193 225.95L191.14 228.1L195.08 227.63L196.81 225.41Z" fill="white" stroke="#263238" stroke-width="0.75" stroke-linecap="round" stroke-linejoin="round"/>
<path d="M204.17 220.63L205.41 218.73L202.83 219.15L201.35 221.05L204.17 220.63Z" fill="white" stroke="#263238" stroke-width="0.75" stroke-linecap="round" stroke-linejoin="round"/>
</g>
<defs>
<clipPath id="clip0_396_197">
<rect width="473.95" height="467.73" fill="white"/>
</clipPath>
</defs>
</svg>
