<svg width="195" height="17" viewBox="0 0 195 17" fill="none" xmlns="http://www.w3.org/2000/svg">
<path d="M6.87535 4.23699C4.01573 5.23798 5.89914 6.62907 3.80019 7.56417C2.48766 8.14891 3.18516 9.3014 3.18516 9.99975C3.18516 10.7558 2.949 10.3529 3.93686 9.91276C5.05572 9.4143 6.34046 8.94151 7.49038 8.44489C10.414 7.18224 15.4004 6.43217 19.2443 5.47653C20.3328 5.20593 23.3639 3.90236 24.9846 3.97604C26.0999 4.02674 23.7467 5.8486 23.6179 6.08542C22.9104 7.38614 21.6346 8.54356 19.4493 9.67355C17.6142 10.6225 24.2663 8.77211 24.6429 8.67323C26.5484 8.17299 29.3521 7.61308 30.7249 6.93353C32.1276 6.23921 33.3787 5.73747 35.4743 5.21557C37.5053 4.70978 37.3972 4.47019 38.3787 3.84556C39.55 3.10006 39.472 4.76979 39.472 4.82414C39.472 6.07808 38.5251 6.9207 37.0119 8.06433C36.0933 8.75858 34.2009 10.8141 35.2352 11.5546C35.7345 11.9122 42.1718 10.3524 43.0256 10.152C46.0103 9.45129 47.4803 8.51669 49.9276 7.69465C52.7151 6.75834 57.8389 5.03502 58.4697 3.78032C58.9363 2.85234 59.7681 3.06489 59.7681 3.96517C59.7681 5.38493 59.1232 6.46721 57.923 7.82512C57.2483 8.58856 57.0554 9.43381 56.7271 10.2172C56.5573 10.6224 55.3334 11.3241 55.4629 11.6742C55.7619 12.4829 62.4048 10.3437 62.8433 10.2172C65.1353 9.55622 68.5585 9.01029 69.882 8.10783C71.7369 6.84294 75.395 5.29804 78.3557 4.28049C79.012 4.05494 80.0262 3.61549 80.0642 4.17175C80.1491 5.41572 80.1599 6.65478 79.415 7.87949C78.8081 8.87734 78.2765 9.84609 77.7407 10.8479C77.5593 11.1871 76.7056 12.2213 76.9207 12.1852C80.8424 11.5284 84.6978 10.3326 87.9229 9.36911C90.2287 8.68028 93.0915 8.26434 95.0983 7.45544C97.411 6.52323 98.7558 5.43884 100.839 4.4762C101.606 4.12158 102.509 3.80224 103.299 3.45413C103.511 3.36079 104.05 2.93557 104.05 3.00833C104.05 5.05074 101.705 6.84973 100.839 8.82545C100.675 9.19835 97.1449 13.8296 99.4035 13.9793C103.284 14.2365 109.689 12.024 112.251 11.2828C114.825 10.5381 116.581 9.54011 118.743 8.69497C119.121 8.54714 124.829 6.13688 125.303 6.17241C126.893 6.29146 123.178 11.4394 122.536 12.3592C122.055 13.0474 126.244 12.2945 126.67 12.2179C129.986 11.6209 133.016 10.6828 135.998 9.92364C136.564 9.77952 139.666 8.83642 139.722 9.36911C139.848 10.5648 139.409 11.5818 138.561 12.7289C137.898 13.6253 143.416 11.7205 143.891 11.522C145.918 10.6753 147.897 9.74231 150.144 8.95593C152.294 8.20315 152.638 8.59991 152.638 9.43435C152.638 10.3114 152.638 11.1885 152.638 12.0656C152.638 13.9089 162.61 10.4272 164.46 9.95626C164.607 9.91883 164.272 11.7541 164.392 12.0221C164.887 13.1248 171.538 11.9289 173.071 11.6742C178.51 10.7699 185.868 10.3042 192 10.3042" stroke="black" stroke-width="5" stroke-linecap="round"/>
</svg>
