<svg width="54" height="54" viewBox="0 0 54 54" fill="none" xmlns="http://www.w3.org/2000/svg">
<g clip-path="url(#clip0_298_783)">
<path d="M41.3438 0H12.6562C5.6664 0 0 5.6664 0 12.6562V41.3438C0 48.3336 5.6664 54 12.6562 54H41.3438C48.3336 54 54 48.3336 54 41.3438V12.6562C54 5.6664 48.3336 0 41.3438 0Z" fill="white"/>
<path d="M8.78259 42.8285H15.4942V26.5287L5.90625 19.3379V39.9522C5.90625 41.5437 7.19592 42.8285 8.78259 42.8285Z" fill="#4285F4"/>
<path d="M38.5054 42.8285H45.2172C46.8087 42.8285 48.0935 41.5388 48.0935 39.9521V19.3376L38.5054 26.5287" fill="#34A853"/>
<path d="M38.5054 14.0642V26.5287L48.0935 19.3378V15.5021C48.0935 11.9451 44.033 9.91714 41.1902 12.0506" fill="#FBBC04"/>
<path d="M15.4946 26.5287V14.0644L27.0002 22.6932L38.5058 14.064V26.5285L27.0002 35.1579" fill="#EA4335"/>
<path d="M5.90625 15.5024V19.3376L15.4942 26.5287V14.0644L12.8096 12.0508C9.96195 9.91739 5.90625 11.9453 5.90625 15.5024Z" fill="#C5221F"/>
</g>
<defs>
<clipPath id="clip0_298_783">
<rect width="54" height="54" fill="white"/>
</clipPath>
</defs>
</svg>
