<svg width="482" height="458" viewBox="0 0 482 458" fill="none" xmlns="http://www.w3.org/2000/svg">
<g clip-path="url(#clip0_325_1149)">
<path d="M461.33 114.75C449.49 62.8199 402.08 39.2599 356.32 21.9299C293.63 -1.82012 222.46 -17.0901 169.94 34.8999C150.79 53.8599 133.39 74.7499 114.62 94.0199C108.2 100.6 101.73 107.13 95.18 113.59C71.14 137.29 45.37 160.22 23.66 186.13C0.329987 213.98 -18.5 319.39 31.95 377.37C82.4 435.34 139.62 415.77 184.79 406.73C229.96 397.7 279.66 424.05 340.64 424.05C401.62 424.05 458.09 404.47 475.41 338.97C492.73 273.47 468.64 247.87 466.38 197.43C465.19 170.95 467.45 141.57 461.33 114.75Z" fill="#92E3A9"/>
<path opacity="0.7" d="M461.33 114.75C449.49 62.8199 402.08 39.2599 356.32 21.9299C293.63 -1.82012 222.46 -17.0901 169.94 34.8999C150.79 53.8599 133.39 74.7499 114.62 94.0199C108.2 100.6 101.73 107.13 95.18 113.59C71.14 137.29 45.37 160.22 23.66 186.13C0.329987 213.98 -18.5 319.39 31.95 377.37C82.4 435.34 139.62 415.77 184.79 406.73C229.96 397.7 279.66 424.05 340.64 424.05C401.62 424.05 458.09 404.47 475.41 338.97C492.73 273.47 468.64 247.87 466.38 197.43C465.19 170.95 467.45 141.57 461.33 114.75Z" fill="white"/>
<path d="M54.75 456.37H7.71997" stroke="#263238" stroke-linecap="round" stroke-linejoin="round"/>
<path d="M475.67 456.37H63.13" stroke="#263238" stroke-linecap="round" stroke-linejoin="round"/>
<path d="M148.72 347.87C148.72 347.87 146.92 352.81 143.11 353.48C139.29 354.15 132.56 346.74 136.82 342.93C141.09 339.11 146.93 345.18 148.72 347.87Z" fill="#92E3A9" stroke="#263238" stroke-linecap="round" stroke-linejoin="round"/>
<path d="M154.56 323.62C154.56 323.62 148.95 337.32 151.19 344.05C153.44 350.79 167.36 355.73 171.4 346.97C175.44 338.21 166.46 325.86 163.09 323.17C159.72 320.48 155.68 321.37 154.56 323.62Z" fill="#92E3A9" stroke="#263238" stroke-linecap="round" stroke-linejoin="round"/>
<path d="M187.34 329.459C187.34 329.459 177.68 338.22 176.56 346.98C175.44 355.74 181.95 358.88 188.69 357.76C195.43 356.64 198.8 339.569 196.77 331.709C194.75 323.849 187.34 329.459 187.34 329.459Z" fill="#92E3A9" stroke="#263238" stroke-linecap="round" stroke-linejoin="round"/>
<path d="M189.14 377.96C189.14 377.96 178.36 378.41 177.91 383.57C177.46 388.73 182.63 389.86 187.79 385.37C192.95 380.88 193.63 378.18 189.14 377.96Z" fill="#92E3A9" stroke="#263238" stroke-linecap="round" stroke-linejoin="round"/>
<path d="M178.09 384.81C178.09 384.81 186.58 380.92 190.41 380.25" stroke="#263238" stroke-miterlimit="10"/>
<path d="M191.54 411.76C191.54 411.76 183.62 404.43 179.64 407.75C175.66 411.07 178.51 415.53 185.33 416.02C192.16 416.52 194.54 415.09 191.54 411.75V411.76Z" fill="#92E3A9" stroke="#263238" stroke-linecap="round" stroke-linejoin="round"/>
<path d="M178.9 408.75C178.9 408.75 187.65 412.03 190.82 414.27" stroke="#263238" stroke-miterlimit="10"/>
<path d="M149.78 409.6C149.78 409.6 160.69 399.5 166.18 404.08C171.67 408.66 167.74 414.8 158.33 415.49C148.92 416.17 145.63 414.21 149.78 409.61V409.6Z" fill="#92E3A9" stroke="#263238" stroke-linecap="round" stroke-linejoin="round"/>
<path d="M167.21 405.45C167.21 405.45 155.16 409.98 150.78 413.06" stroke="#263238" stroke-miterlimit="10"/>
<path d="M162.42 388.739C162.42 388.739 161.3 394.129 157.26 396.149C153.22 398.169 146.03 393.9 149.85 387.39C153.67 380.88 160.4 386.039 162.43 388.739H162.42Z" fill="#92E3A9" stroke="#263238" stroke-linecap="round" stroke-linejoin="round"/>
<path d="M152.99 371.9C152.99 371.9 150.97 367.41 143.11 370.33C135.25 373.25 132.11 377.74 137.05 379.31C141.99 380.88 152.99 371.9 152.99 371.9Z" fill="#92E3A9" stroke="#263238" stroke-linecap="round" stroke-linejoin="round"/>
<path d="M151.48 371.7C151.48 371.7 143.15 372.6 138.65 376.43" stroke="#263238" stroke-miterlimit="10"/>
<path d="M175.44 318.01C175.44 318.01 176.79 321.15 179.48 320.48C182.17 319.81 182.85 315.76 187.11 316.89C191.37 318.02 194.97 322.95 194.97 320.71C194.97 318.47 189.58 312.63 183.52 312.63C177.46 312.63 175.66 315.1 175.44 318.02V318.01Z" fill="#92E3A9" stroke="#263238" stroke-linecap="round" stroke-linejoin="round"/>
<path d="M152.99 371.899C152.99 371.899 162.66 370.039 166.69 380.779C167.09 381.829 167.42 382.939 167.7 384.069" stroke="#263238" stroke-miterlimit="10"/>
<path d="M193.34 361.5C193.34 361.5 195.36 357.01 203.22 359.93C211.08 362.85 214.22 367.34 209.28 368.91C204.34 370.48 193.34 361.5 193.34 361.5Z" fill="#92E3A9" stroke="#263238" stroke-linecap="round" stroke-linejoin="round"/>
<path d="M195.14 361.79C195.14 361.79 203.24 361.34 207.07 366.07" stroke="#263238" stroke-miterlimit="10"/>
<path d="M193.34 361.5C193.34 361.5 190.13 360.88 186.65 362.41" stroke="#263238" stroke-miterlimit="10"/>
<path d="M158.14 353.44C153.4 348.6 148.72 347.87 148.72 347.87C148.72 347.87 141.81 346.04 139.11 348.52" stroke="#263238" stroke-miterlimit="10"/>
<path d="M159.1 328.569L158.68 326.689" stroke="#263238" stroke-miterlimit="10"/>
<path d="M170.04 427.84C170.04 427.84 171.05 389.17 170.04 377.42C169.03 365.68 164.34 351.92 164.34 351.92L159.55 330.55" stroke="#263238" stroke-miterlimit="10"/>
<path d="M189.99 336.87L190.86 335.02" stroke="#263238" stroke-miterlimit="10"/>
<path d="M172.39 427.8C172.39 427.8 172.73 392.53 174.07 382.46C175.41 372.39 180.78 356.62 180.78 356.62L189.02 338.97" stroke="#263238" stroke-miterlimit="10"/>
<path d="M178.09 384.81C178.09 384.81 175.74 405.03 174.4 427.85" stroke="#263238" stroke-miterlimit="10"/>
<path d="M166.68 427.799C166.68 427.799 167.35 395.549 166.01 391.179C164.67 386.819 162.42 388.739 162.42 388.739C162.42 388.739 156.21 389.469 153.96 393.069" stroke="#263238" stroke-miterlimit="10"/>
<path d="M168.22 386.579C169.98 396.419 168.36 427.829 168.36 427.829" stroke="#263238" stroke-miterlimit="10"/>
<path d="M184.74 363.459C182.8 364.789 180.93 366.939 179.64 370.369C175.61 381.109 176.07 427.839 176.07 427.839" stroke="#263238" stroke-miterlimit="10"/>
<path d="M159.31 354.72C161.41 357.18 163.44 360.51 165 365.01C170.37 380.44 172.38 420.42 171.38 427.8" stroke="#263238" stroke-miterlimit="10"/>
<path d="M172.94 369.17C172.61 388.65 172.38 427.8 172.38 427.8" stroke="#263238" stroke-miterlimit="10"/>
<path d="M172.99 366.74C173.21 353.86 173.47 341.25 173.73 334.47C174.4 317.02 175.44 318 175.44 318C175.44 318 176.68 314.08 183.66 314.53" stroke="#263238" stroke-miterlimit="10"/>
<path d="M164.39 381.45C164.39 381.45 158.78 376.44 161.02 373.98C163.27 371.52 177.19 369.71 181.23 372.91C185.27 376.11 176.29 380.62 172.92 381.61C169.55 382.59 165.51 382.27 164.39 381.45Z" fill="#92E3A9" stroke="#263238" stroke-linecap="round" stroke-linejoin="round"/>
<path d="M169.58 377.351C169.5 377.861 169.46 378.361 169.46 378.841" stroke="#263238" stroke-miterlimit="10"/>
<path d="M171.51 371.511C171.51 371.511 170.67 373.181 170.07 375.231" stroke="#263238" stroke-miterlimit="10"/>
<path d="M164.39 414.19C164.39 414.19 158.78 409.18 161.02 406.72C163.27 404.26 177.19 402.45 181.23 405.65C185.27 408.85 176.29 413.36 172.92 414.35C169.55 415.33 165.51 415.01 164.39 414.19Z" fill="#92E3A9" stroke="#263238" stroke-linecap="round" stroke-linejoin="round"/>
<path d="M171.51 404.239C171.51 404.239 169.46 408.349 169.46 411.579" stroke="#263238" stroke-miterlimit="10"/>
<path d="M168.57 400.34C168.57 400.34 164.76 396.94 166.28 395.27C167.8 393.6 177.26 392.37 180 394.55C182.74 396.72 176.65 399.79 174.36 400.46C172.07 401.13 169.33 400.91 168.57 400.35V400.34Z" fill="#92E3A9" stroke="#263238" stroke-linecap="round" stroke-linejoin="round"/>
<path d="M173.4 393.59C173.4 393.59 172 396.38 172 398.57" stroke="#263238" stroke-miterlimit="10"/>
<path d="M178.5 422.229H163.3V455.929H178.5V422.229Z" fill="#263238" stroke="#263238" stroke-linecap="round" stroke-linejoin="round"/>
<path d="M433.86 377.71C428.2 377.71 423.52 374.27 423.24 374.06C422.31 373.36 422.12 372.05 422.82 371.12C423.52 370.19 424.83 370 425.76 370.7C426.05 370.92 433.09 376.03 438.97 371.87C443.29 368.81 443.88 348.19 442.91 334.53C442.83 333.37 443.7 332.37 444.86 332.29C446.03 332.22 447.02 333.08 447.1 334.24C447.52 340.13 449.2 369.77 441.39 375.3C438.88 377.08 436.28 377.71 433.86 377.71Z" fill="#263238"/>
<path d="M407.94 377.33H400.95V428.75H407.94V377.33Z" fill="#263238" stroke="#263238" stroke-linecap="round" stroke-linejoin="round"/>
<path d="M431.84 357.31H377.06C374.95 357.31 373.24 359.02 373.24 361.13V368.57C373.24 370.679 374.95 372.39 377.06 372.39H431.84C433.95 372.39 435.66 370.679 435.66 368.57V361.13C435.66 359.02 433.95 357.31 431.84 357.31Z" fill="#8C8C8C" stroke="#263238" stroke-linecap="round" stroke-linejoin="round"/>
<path d="M441.16 287.38C440.61 288.62 440.17 289.91 439.79 291.21C437.15 300.32 436.95 310.18 436.85 319.61C436.81 323.36 435.83 329.43 437.29 332.91C439.1 337.25 447.28 339.23 449.53 334.35C452.37 328.19 450.65 320.01 452.02 313.37C453.54 306.01 457.72 296.9 455.9 289.45C454.16 282.35 448.44 276.64 442.88 284.33C442.19 285.28 441.63 286.31 441.15 287.38H441.16Z" fill="#8C8C8C" stroke="#263238" stroke-linecap="round" stroke-linejoin="round"/>
<path d="M417.3 372.53H391.59V379.52H417.3V372.53Z" fill="#263238" stroke="#263238" stroke-linecap="round" stroke-linejoin="round"/>
<path d="M374.24 453.08C374.24 454.9 372.77 456.37 370.95 456.37C369.13 456.37 367.66 454.9 367.66 453.08C367.66 451.26 369.13 449.79 370.95 449.79C372.77 449.79 374.24 451.26 374.24 453.08Z" fill="white" stroke="#263238" stroke-linecap="round" stroke-linejoin="round"/>
<path d="M441.83 453.08C441.83 454.9 440.36 456.37 438.54 456.37C436.72 456.37 435.25 454.9 435.25 453.08C435.25 451.26 436.72 449.79 438.54 449.79C440.36 449.79 441.83 451.26 441.83 453.08Z" fill="white" stroke="#263238" stroke-linecap="round" stroke-linejoin="round"/>
<path d="M407.64 453.08C407.64 454.9 406.17 456.37 404.35 456.37C402.53 456.37 401.06 454.9 401.06 453.08C401.06 451.26 402.53 449.79 404.35 449.79C406.17 449.79 407.64 451.26 407.64 453.08Z" fill="white" stroke="#263238" stroke-linecap="round" stroke-linejoin="round"/>
<path d="M406.66 428.75L404.45 428.83L402.23 428.75L366.07 449.19V452.18H370.96V449.59L404.45 437.81L437.94 449.59V452.18H442.83V449.19L406.66 428.75Z" fill="#263238" stroke="#263238" stroke-linecap="round" stroke-linejoin="round"/>
<path d="M401.25 428.66H407.65L406.69 452.18H402.21L401.25 428.66Z" fill="#263238" stroke="#263238" stroke-linecap="round" stroke-linejoin="round"/>
<path d="M367.5 215.54C367.5 215.54 366.6 222.56 369.29 226.44C371.98 230.32 372.72 232.56 372.72 234.35C372.72 236.14 371.53 239.13 372.72 240.02C373.91 240.92 377.5 240.02 377.5 240.02C377.5 240.02 383.92 246.59 386.16 245.99C388.4 245.39 390.64 243.6 390.64 243.6C390.64 243.6 397.36 250.47 398.26 252.41C399.16 254.35 399.75 255.84 399.75 255.84L409.76 240.01C409.76 240.01 403.19 235.23 400.05 226.87C396.91 218.51 396.91 207.46 387.36 205.07C377.8 202.68 368.54 211.49 367.5 215.52V215.54Z" fill="white" stroke="#263238" stroke-linecap="round" stroke-linejoin="round"/>
<path d="M379.93 238.99C379.93 238.99 382.77 237.65 382.77 234.96" stroke="#263238" stroke-linecap="round" stroke-linejoin="round"/>
<path d="M371.43 227.709C371.43 227.709 371.28 224.419 374.86 225.019" stroke="#263238" stroke-linecap="round" stroke-linejoin="round"/>
<path d="M376.34 230.019C376.9 230.889 376.99 231.819 376.54 232.109C376.09 232.399 375.27 231.929 374.71 231.069C374.15 230.209 374.06 229.269 374.51 228.979C374.96 228.689 375.78 229.159 376.34 230.019Z" fill="#263238"/>
<path d="M390.64 243.62L394.67 240.56V247.34L390.64 243.62Z" fill="#263238" stroke="#263238" stroke-linecap="round" stroke-linejoin="round"/>
<path d="M329.9 351.94L321.19 439.44C321.19 439.44 308.84 439.7 303.69 439.18C298.54 438.67 293.65 436.61 294.17 439.44C294.68 442.27 302.4 446.9 305.23 448.19C308.06 449.48 311.66 450.25 313.98 451.54C316.3 452.83 321.18 456.43 323.24 455.91C325.3 455.4 329.93 436.61 329.93 436.61L353.82 359.66L380.58 357.6C380.58 357.6 340.18 346.79 336.07 346.28C331.95 345.77 329.89 351.94 329.89 351.94H329.9Z" fill="white" stroke="#263238" stroke-linecap="round" stroke-linejoin="round"/>
<path d="M316.56 446.65C307.81 444.59 304.72 442.02 304.72 442.02L307.05 439.4C305.77 439.35 304.61 439.28 303.69 439.19C298.54 438.68 293.66 436.62 294.17 439.45C294.68 442.28 302.4 446.91 305.23 448.2C308.06 449.49 311.66 450.26 313.98 451.55C316.3 452.84 321.18 456.44 323.24 455.92C324.09 455.71 325.39 452.34 326.62 448.48C324.44 448.23 321.09 447.72 316.55 446.65H316.56Z" fill="#92E3A9" stroke="#263238" stroke-linecap="round" stroke-linejoin="round"/>
<path d="M393.77 312.61L390.37 325.95C390.37 325.95 374.93 326.46 357.43 330.07C339.93 333.67 323.72 338.56 323.21 341.65C322.7 344.74 342.77 381.53 358.46 409.84C361.85 415.96 369.27 431.45 369.27 431.45C369.27 431.45 366.44 439.17 363.61 443.54C360.78 447.91 356.41 452.03 355.38 452.55C354.35 453.06 351.26 454.35 352.29 455.64C353.32 456.93 363.87 455.64 364.64 455.64C365.41 455.64 373.65 448.44 375.96 446.38C378.28 444.32 387.28 437.63 387.02 435.06C386.76 432.49 378.79 426.83 378.27 425.03C377.76 423.23 367.46 400.84 366.95 398.78C366.44 396.72 352.8 356.32 352.8 356.32C352.8 356.32 408.64 359.41 420.73 358.38C432.82 357.35 434.62 352.72 435.4 348.6C436.17 344.48 430.77 311.03 430.77 311.03L394.75 310.77L393.77 312.61Z" fill="white" stroke="#263238" stroke-linecap="round" stroke-linejoin="round"/>
<path d="M352.8 356.32L340.45 351.17" stroke="#263238" stroke-linecap="round" stroke-linejoin="round"/>
<path d="M387.02 435.05C386.89 433.79 384.91 431.78 382.86 429.85C382.03 430.9 381.08 432.07 380.08 433.25C376.99 436.85 363.87 449.72 363.87 449.72L359.68 448.58C357.75 450.7 355.99 452.25 355.38 452.55C354.35 453.06 351.26 454.35 352.29 455.64C353.32 456.93 363.87 455.64 364.64 455.64C365.41 455.64 373.65 448.44 375.96 446.38C378.28 444.32 387.28 437.63 387.02 435.06V435.05Z" fill="#92E3A9" stroke="#263238" stroke-linecap="round" stroke-linejoin="round"/>
<path d="M394.74 310.77L393.76 312.61L390.36 325.95C390.36 325.95 374.92 326.46 357.42 330.07C352.17 331.15 347.05 332.35 342.42 333.57L354.37 356.4C363.52 356.89 409.83 359.3 420.72 358.37C432.81 357.34 434.61 352.71 435.39 348.59C436.16 344.47 430.76 311.02 430.76 311.02L394.74 310.76V310.77Z" fill="#92E3A9" stroke="#263238" stroke-linecap="round" stroke-linejoin="round"/>
<path d="M393.46 327.24C393.46 327.24 411.73 329.81 419.96 336.76" stroke="#263238" stroke-linecap="round" stroke-linejoin="round"/>
<path d="M399.89 326.21C399.89 326.21 411.47 327.75 415.07 330.33" stroke="#263238" stroke-linecap="round" stroke-linejoin="round"/>
<path d="M347.25 288.11C347.25 288.11 343.23 287.76 341.31 288.98C339.39 290.2 330.12 296.5 327.68 298.59C325.23 300.69 322.96 304.36 322.79 304.88C322.62 305.4 323.84 305.58 324.36 305.4C324.88 305.22 327.16 303.48 326.46 304.35C325.76 305.22 326.99 305.44 326.99 305.44C326.99 305.44 339.92 297.89 340.97 298.06C342.02 298.23 344.12 297.54 345.51 296.49C346.91 295.44 350.58 293.52 350.58 293.52L391.83 301.56L398.12 295.79L396.72 281.81L387.46 289.5L347.26 288.1L347.25 288.11Z" fill="white" stroke="#263238" stroke-linecap="round" stroke-linejoin="round"/>
<path d="M405.06 242.59C405.06 242.59 397.38 258.17 393.54 270.15C389.7 282.12 391.73 284.83 392.64 285.51C393.54 286.19 395.58 287.77 395.58 287.77C395.58 287.77 392.19 310.81 393.77 312.62C395.35 314.43 408.45 315.1 419.07 315.1C429.69 315.1 432.17 310.81 432.17 308.55C432.17 306.29 427.43 269.93 423.81 258.18C420.2 246.44 410.48 238.76 405.06 242.6V242.59Z" fill="white" stroke="#263238" stroke-linecap="round" stroke-linejoin="round"/>
<path d="M399.96 241.42C399.96 241.42 391.35 249.77 392.14 252.37C392.92 254.98 396.31 254.72 396.31 254.72C396.31 254.72 395.79 258.89 397.61 258.37C399.44 257.85 407.78 247.15 407.78 247.15C407.78 247.15 403.61 236.72 399.96 241.41V241.42Z" fill="white" stroke="#263238" stroke-linecap="round" stroke-linejoin="round"/>
<path d="M404.62 260.45L399.79 294.39C399.79 294.39 349.87 291.68 348.97 291.68C348.07 291.68 338.13 296.2 334.06 298.46C329.99 300.72 327.28 302.3 326.61 303.88L325.93 305.46C325.93 305.46 329.09 306.14 332.03 305.46C334.97 304.78 337.22 303.65 337.22 303.65C337.22 303.65 343.09 302.97 345.13 301.62C347.16 300.26 351.68 296.43 351.68 296.43C351.68 296.43 390.98 307.05 395.05 307.72C399.12 308.4 408.83 312.46 411.09 310.2C412.97 308.32 418.61 275.44 420.44 264.48C420.89 261.78 420.22 259.01 418.52 256.86C417.16 255.14 415.3 253.57 413.11 253.28C406.47 252.4 404.61 260.45 404.61 260.45H404.62Z" fill="white" stroke="#263238" stroke-linecap="round" stroke-linejoin="round"/>
<path d="M418.52 256.86C417.16 255.14 415.3 253.57 413.11 253.28C406.47 252.4 404.61 260.45 404.61 260.45L399.78 294.39C399.78 294.39 394.94 294.13 388.24 293.77C388.96 297.68 389.97 303.36 390.37 306.64C392.68 307.21 394.35 307.61 395.03 307.72C399.1 308.4 408.81 312.46 411.07 310.2C412.95 308.32 418.59 275.44 420.42 264.48C420.87 261.78 420.2 259.01 418.5 256.86H418.52Z" stroke="#263238" stroke-linecap="round" stroke-linejoin="round"/>
<path d="M401.52 296.72C401.52 296.72 408.82 307.15 408.04 304.54C407.26 301.93 405.95 295.67 403.87 293.59" stroke="#263238" stroke-linecap="round" stroke-linejoin="round"/>
<path d="M332.03 305.45C332.03 305.45 331.95 304.02 332.91 303.47C333.87 302.92 338.69 300.72 339.11 300.58" stroke="#263238" stroke-linecap="round" stroke-linejoin="round"/>
<path d="M329.34 305.81C329.34 305.81 330.03 303.61 330.58 303.19C331.13 302.78 336.92 299.47 336.92 299.47" stroke="#263238" stroke-linecap="round" stroke-linejoin="round"/>
<path d="M454.73 240.9C454.47 229.95 440.12 233.08 437.26 228.38C434.39 223.69 439.35 223.69 436.22 216.12C433.09 208.56 419.79 214.56 413.27 213.51C409.78 212.95 406.81 209.32 404.8 206.07C403.72 202.85 402.84 200.38 398.79 196.33C393.05 190.59 376.99 198.05 376.99 198.05C376.99 198.05 359.78 207.52 360.07 212.97C360.36 218.42 383.59 221.86 385.6 221.86C387.61 221.86 387.89 216.7 390.48 218.13C392.91 219.48 393.55 222.6 393.38 224.16C392.99 225.69 392.67 226.92 392.49 227.6C391.63 230.76 395.02 232.29 394.5 242.46C393.98 252.63 409.37 250.81 413.02 251.33C416.67 251.85 420.46 264.48 423.19 269.07C425.92 273.66 434.41 273.5 438.58 269.33C442.75 265.16 439.1 261.24 439.36 257.85C439.62 254.46 455.01 251.85 454.75 240.9H454.73Z" fill="#263238" stroke="#263238" stroke-linecap="round" stroke-linejoin="round"/>
<path d="M244.82 456.91H238.81L237.52 317.02H246.11L244.82 456.91Z" fill="white" stroke="#263238" stroke-linecap="round" stroke-linejoin="round"/>
<path d="M354.97 456.91H348.96L347.67 317.02H356.26L354.97 456.91Z" fill="white" stroke="#263238" stroke-linecap="round" stroke-linejoin="round"/>
<path d="M365.79 308.52H229.02V317.74H365.79V308.52Z" fill="#263238" stroke="#263238" stroke-linecap="round" stroke-linejoin="round"/>
<path d="M287.15 308.6H266.6C265.32 308.6 264.16 307.94 263.51 306.83C262.86 305.72 262.84 304.39 263.46 303.26L286.04 262.34C286.38 261.72 287.16 261.5 287.78 261.84C288.4 262.18 288.63 262.96 288.28 263.58L265.7 304.5C265.44 304.96 265.63 305.37 265.72 305.52C265.81 305.67 266.08 306.03 266.61 306.03H287.16C287.87 306.03 288.44 306.6 288.44 307.31C288.44 308.02 287.87 308.59 287.16 308.59L287.15 308.6Z" fill="#263238"/>
<path d="M284.485 224.985L279.979 225.857L294.4 300.324L298.906 299.451L284.485 224.985Z" fill="white" stroke="#263238" stroke-linecap="round" stroke-linejoin="round"/>
<path d="M351 306.9L314.1 305.85V308.3H351V306.9Z" fill="white" stroke="#263238" stroke-linecap="round" stroke-linejoin="round"/>
<path d="M353.73 144.029C385.624 144.029 411.48 118.174 411.48 86.2793C411.48 54.3849 385.624 28.5293 353.73 28.5293C321.836 28.5293 295.98 54.3849 295.98 86.2793C295.98 118.174 321.836 144.029 353.73 144.029Z" stroke="#263238" stroke-linecap="round" stroke-linejoin="round"/>
<path d="M314.95 129.06C315.36 112.72 315.67 96.5 315.49 95.58C315.12 93.71 310.83 93.71 310.83 93.71C310.83 93.71 307.47 102.48 306.73 110.87C306.57 112.69 306.22 115.37 305.78 118.45C308.4 122.35 311.49 125.91 314.96 129.06H314.95Z" fill="white" stroke="#263238" stroke-linecap="round" stroke-linejoin="round"/>
<path d="M353.73 144.029C366.16 144.029 377.66 140.099 387.08 133.419L387.15 98.6894C387.15 98.6894 374.95 92.4794 363.64 90.6994C352.33 88.9294 318.61 94.0294 318.61 94.0294L317.49 131.219C327.4 139.229 340.01 144.029 353.75 144.029H353.73Z" fill="#92E3A9" stroke="#263238" stroke-linecap="round" stroke-linejoin="round"/>
<path d="M342.54 71.5098C342.54 71.5098 339.93 98.3698 340.67 100.05C341.42 101.73 344.59 106.21 351.12 106.21C357.65 106.21 364.74 99.3098 364.74 99.3098L366.98 72.2598C366.98 72.2598 358.4 76.3598 352.43 75.0598C346.46 73.7498 342.54 71.5198 342.54 71.5198V71.5098Z" fill="white" stroke="#263238" stroke-linecap="round" stroke-linejoin="round"/>
<path d="M351.44 82.0695L366.04 91.3395L367.2 70.4795L351.44 82.0695Z" fill="#263238"/>
<path d="M336.44 48.9399C336.44 48.9399 334.57 44.6499 332.71 48.0099C330.84 51.3699 337 59.9499 337 59.9499L336.44 48.9399Z" fill="white" stroke="#263238" stroke-linecap="round" stroke-linejoin="round"/>
<path d="M372.26 48.9399C372.26 48.9399 374.13 44.6499 375.99 48.0099C377.86 51.3699 370.74 60.4999 370.74 60.4999L372.26 48.9399Z" fill="white" stroke="#263238" stroke-linecap="round" stroke-linejoin="round"/>
<path d="M337 51.3699C337 51.3699 335.13 44.6499 335.13 42.7899C335.13 40.9299 338.49 40.9199 338.49 40.9199L337 51.3699Z" fill="#263238"/>
<path d="M337.26 41.6292C337.26 41.6292 336.61 64.7292 338.35 68.4392C340.09 72.1492 346.2 80.6492 347.72 81.7392C349.25 82.8292 354.48 83.2692 356 83.0492C357.53 82.8292 369.21 71.1792 369.65 69.6492C370.09 68.1192 371.92 46.8692 371.92 46.8692L371.7 29.2092C371.7 29.2092 367.34 26.8092 360.8 27.2492C354.26 27.6892 338.13 34.6592 338.13 34.6592L337.26 41.6292Z" fill="white" stroke="#263238" stroke-linecap="round" stroke-linejoin="round"/>
<path d="M366.68 32.6995C366.68 32.6995 361.23 39.8895 358.83 40.9795C356.43 42.0695 356.87 37.4895 356.87 37.4895C356.87 37.4895 351.2 41.8495 343.14 43.5895C335.08 45.3295 328.54 45.7695 326.36 42.7195C324.18 39.6695 331.16 35.3095 331.16 35.3095C331.16 35.3095 325.71 32.0395 331.16 26.1595C336.61 20.2695 350.56 13.7395 360.59 17.6595C370.62 21.5795 368.65 25.2895 368.65 25.2895C368.65 25.2895 376.28 24.1995 376.93 30.2995C377.58 36.3995 373.01 43.3795 373.01 43.3795C373.01 43.3795 372.79 48.6095 372.79 49.9195C372.79 51.2295 371.26 51.0095 371.26 51.0095L370.61 44.4695C370.61 44.4695 368.21 44.6895 366.9 40.1095C365.59 35.5295 366.68 32.6995 366.68 32.6995Z" fill="#263238"/>
<path d="M348.57 63.4893C348.57 63.4893 350.81 65.3593 352.86 65.3593C354.91 65.3593 356.96 63.6793 356.96 63.6793" stroke="#263238" stroke-linecap="round" stroke-linejoin="round"/>
<path d="M346.33 68.3396C346.33 68.3396 350.43 70.5796 353.98 70.2096C357.52 69.8396 359.76 66.8496 359.76 66.8496" stroke="#263238" stroke-linecap="round" stroke-linejoin="round"/>
<path d="M356.96 47.0797C356.96 47.0797 364.05 45.0297 366.29 48.9497" stroke="#263238" stroke-linecap="round" stroke-linejoin="round"/>
<path d="M349.32 47.6398C349.32 47.6398 344.47 44.2798 340.74 47.8298" stroke="#263238" stroke-linecap="round" stroke-linejoin="round"/>
<path d="M347.26 52.4495C347.26 53.9695 346.57 55.2095 345.73 55.2095C344.89 55.2095 344.2 53.9695 344.2 52.4495C344.2 50.9295 344.89 49.6895 345.73 49.6895C346.57 49.6895 347.26 50.9295 347.26 52.4495Z" fill="#263238"/>
<path d="M360.18 56.3598C361.025 56.3598 361.71 55.1241 361.71 53.5998C361.71 52.0755 361.025 50.8398 360.18 50.8398C359.335 50.8398 358.65 52.0755 358.65 53.5998C358.65 55.1241 359.335 56.3598 360.18 56.3598Z" fill="#263238"/>
<path d="M403.9 114.879C400.04 105.709 396.9 98.6392 396.27 97.9992C394.4 96.1292 371.27 84.3792 371.27 84.3792C371.27 84.3792 368.66 79.7192 366.05 82.1392C366.05 82.1392 358.22 107.319 355.6 129.519C355.14 133.459 354.78 138.459 354.5 143.999C375.66 143.719 394.07 132.069 403.9 114.869V114.879Z" fill="white" stroke="#263238" stroke-linecap="round" stroke-linejoin="round"/>
<path d="M371.27 84.3891C371.27 84.3891 371.83 90.3591 371.83 98.0091C371.83 105.659 370.71 113.309 370.71 113.309C370.71 113.309 366.61 112.189 362.5 113.499C358.39 114.809 357.46 116.299 357.46 116.299C357.46 116.299 363.24 85.8891 366.04 82.1591C368.84 78.4291 369.77 81.2291 371.26 84.3991L371.27 84.3891Z" fill="white" stroke="#263238" stroke-linecap="round" stroke-linejoin="round"/>
<path d="M382.56 133.979C382.03 132.429 381.77 131.019 381.9 129.899C382.65 123.739 383.77 117.029 383.77 117.029" stroke="#263238" stroke-linecap="round" stroke-linejoin="round"/>
<path d="M335.85 141.209C336.03 134.549 336.31 129.079 336.76 125.989C338.81 111.629 341.05 82.1495 341.05 82.1495C338.81 81.5895 334.71 85.5095 334.71 85.5095C334.71 85.5095 312.7 91.8495 310.83 93.7195C309.96 94.5895 309.82 108.919 309.92 123.889C316.74 131.829 325.67 137.899 335.85 141.209Z" fill="white" stroke="#263238" stroke-linecap="round" stroke-linejoin="round"/>
<path d="M334.71 85.4991C334.71 85.4991 332.29 94.0791 330.05 101.359C327.81 108.629 327.25 112.549 327.25 112.549C327.25 112.549 329.49 109.379 332.85 111.799C336.21 114.219 338.26 116.279 338.26 116.279L341.42 82.1591C341.42 82.1591 336.95 81.5791 334.72 85.4991H334.71Z" fill="white" stroke="#263238" stroke-linecap="round" stroke-linejoin="round"/>
<path d="M80.46 170.68C102.05 170.68 120.86 158.83 130.77 141.28L127.28 137.14C125.18 133.46 123.06 131.67 121.24 131.17C117.76 130.22 92.89 126.53 92.89 126.53L67.07 127.89C67.07 127.89 54.38 130.96 44.45 135.21L33.35 146.31C43.81 161.05 61.01 170.68 80.46 170.68Z" fill="#92E3A9" stroke="#263238" stroke-linecap="round" stroke-linejoin="round"/>
<path d="M86.05 144.71C84.88 145.39 83.64 146.02 82.34 146.57" stroke="#263238" stroke-linecap="round" stroke-linejoin="round"/>
<path d="M99.26 132.74C99.26 132.74 94.93 138.98 87.73 143.68" stroke="#263238" stroke-linecap="round" stroke-linejoin="round"/>
<path d="M97.14 139.08C97.14 139.08 93.87 143.69 90.99 145.23" stroke="#263238" stroke-linecap="round" stroke-linejoin="round"/>
<path d="M66.84 61.52C66.84 61.52 55.65 58.95 53.53 61.82C51.41 64.69 55.65 67.42 55.04 68.02C54.43 68.62 41.43 75.28 42.49 81.78C43.55 88.28 52.32 94.94 52.62 96.75C52.92 98.56 42.49 99.17 41.13 101.89C39.77 104.61 37.8 117.47 49.15 121.7C60.49 125.93 74.71 118.83 78.64 118.83C82.57 118.83 86.5 126.54 91.04 126.09C95.58 125.64 98.15 122.31 98.15 122.31C98.15 122.31 102.84 128.81 109.65 126.09C116.46 123.37 124.32 113.84 120.99 110.97C117.66 108.1 113.88 107.19 116.3 104.62C118.72 102.05 123.71 95.24 122.95 89.34C122.19 83.44 115.24 82.99 112.51 81.17C109.78 79.35 115.54 76.33 115.38 71.34C115.23 66.35 111.6 58.03 93.15 52.43C74.7 46.83 65.62 49.56 64.72 54.24C63.81 58.93 66.84 61.5 66.84 61.5V61.52Z" fill="#263238" stroke="#263238" stroke-linecap="round" stroke-linejoin="round"/>
<path d="M68.8599 110.04C68.8599 110.04 65.0799 133.63 64.9299 134.39C64.7799 135.15 71.5799 141.95 80.8099 140.74C90.0399 139.53 94.7199 133.33 94.7199 133.33L91.8499 109.89C91.8499 109.89 83.9899 113.67 79.1499 113.52C74.3099 113.37 68.8699 110.04 68.8699 110.04H68.8599Z" fill="white" stroke="#263238" stroke-linecap="round" stroke-linejoin="round"/>
<path d="M67.2999 122.7L83.2299 119.62L68.8599 110.04L67.2999 122.7Z" fill="#263238" stroke="#263238" stroke-linecap="round" stroke-linejoin="round"/>
<path d="M60.45 89.2398C60.45 89.2398 57.79 85.8698 56.54 90.1298C55.3 94.3898 60.63 99.5398 60.63 99.5398L60.45 89.2398Z" fill="white" stroke="#263238" stroke-linecap="round" stroke-linejoin="round"/>
<path d="M98.63 89.2398C98.63 89.2398 101.29 85.8698 102.54 90.1298C103.79 94.3898 98.45 99.5398 98.45 99.5398L98.63 89.2398Z" fill="white" stroke="#263238" stroke-linecap="round" stroke-linejoin="round"/>
<path d="M68.82 67.9099C68.82 67.9099 61.19 75.3199 60.09 77.5299C58.99 79.7399 59.43 105.05 60.64 107.49C61.86 109.92 74.02 119.43 76.01 120.2C78 120.97 82.53 121.75 86.07 119.98C89.61 118.21 98.12 109.15 99 106.83C99.88 104.51 98.78 77.9799 98.23 75.4399C97.68 72.8999 84.3 63.8299 78.66 63.3899C73.02 62.9499 68.82 67.9199 68.82 67.9199V67.9099Z" fill="white" stroke="#263238" stroke-linecap="round" stroke-linejoin="round"/>
<path d="M72.8199 104.099C72.8199 104.099 75.0999 106.569 79.2899 106.569C83.4799 106.569 86.8999 103.529 86.8999 103.529" stroke="#263238" stroke-linecap="round" stroke-linejoin="round"/>
<path d="M72.8 77.7092C72.8 77.7092 69.12 77.8592 66.47 80.2092C63.82 82.5592 66.62 83.0092 67.65 82.5592C68.68 82.1192 71.62 80.3492 73.68 80.3492C75.74 80.3492 75.45 77.5492 72.8 77.6992V77.7092Z" fill="#263238" stroke="#263238" stroke-linecap="round" stroke-linejoin="round"/>
<path d="M84.52 76.2394C84.52 76.2394 88.2 76.3894 90.85 78.7394C93.5 81.0894 90.7 81.5394 89.67 81.0894C88.64 80.6494 85.7 78.8794 83.64 78.8794C81.58 78.8794 81.87 76.0795 84.52 76.2295V76.2394Z" fill="#263238" stroke="#263238" stroke-linecap="round" stroke-linejoin="round"/>
<path d="M74.8199 63.3796C74.8199 63.3796 86.2499 73.7996 94.4599 74.1996L102.68 74.5996C102.68 74.5996 84.6399 72.1896 79.0299 59.9696C79.0299 59.9696 72.8199 54.7596 74.8199 63.3796Z" fill="#263238" stroke="#263238" stroke-linecap="round" stroke-linejoin="round"/>
<path d="M82.97 97.54C82.97 97.54 80.98 100.52 79.54 100.52C78.1 100.52 76.67 98.86 76.67 98.86" stroke="#263238" stroke-linecap="round" stroke-linejoin="round"/>
<path d="M76.1 89.5496C76.1 91.4796 75.12 93.0396 73.92 93.0396C72.72 93.0396 71.74 91.4796 71.74 89.5496C71.74 87.6196 72.72 86.0596 73.92 86.0596C75.12 86.0596 76.1 87.6196 76.1 89.5496Z" fill="#263238"/>
<path d="M88.3699 93.19C89.5739 93.19 90.5499 91.6274 90.5499 89.7C90.5499 87.7725 89.5739 86.21 88.3699 86.21C87.166 86.21 86.1899 87.7725 86.1899 89.7C86.1899 91.6274 87.166 93.19 88.3699 93.19Z" fill="#263238"/>
<path d="M80.46 170.68C112.354 170.68 138.21 144.824 138.21 112.93C138.21 81.0352 112.354 55.1797 80.46 55.1797C48.5655 55.1797 22.71 81.0352 22.71 112.93C22.71 144.824 48.5655 170.68 80.46 170.68Z" stroke="#263238" stroke-linecap="round" stroke-linejoin="round"/>
<path d="M130.44 318.24C129.41 312.01 124.47 304.29 124.47 304.29C124.47 304.29 122.29 307.03 122.02 308.34C121.75 309.65 115.48 323.74 113.58 334.92C113.35 336.26 113.21 337.51 113.13 338.68C120.38 333.33 126.35 326.34 130.45 318.24H130.44Z" fill="#92E3A9" stroke="#263238" stroke-linecap="round" stroke-linejoin="round"/>
<path d="M78.9101 349.92C94.2901 349.92 108.25 343.9 118.6 334.1C119.99 327.77 121.38 321.53 121.54 321.25C121.86 320.67 126.79 308.16 124.47 304.29C122.15 300.42 99.9601 289.25 99.9601 289.25L91.1901 285.14C91.1901 285.14 63.4701 285.8 62.3901 286.06C61.3101 286.33 45.8501 293.4 36.0501 299.85C26.3001 306.27 26.4401 306.47 24.7001 312.03C32.8001 334.13 54.0101 349.91 78.9201 349.91L78.9101 349.92Z" fill="#92E3A9" stroke="#263238" stroke-linecap="round" stroke-linejoin="round"/>
<path d="M78.91 349.92C110.804 349.92 136.66 324.064 136.66 292.17C136.66 260.275 110.804 234.42 78.91 234.42C47.0156 234.42 21.16 260.275 21.16 292.17C21.16 324.064 47.0156 349.92 78.91 349.92Z" stroke="#263238" stroke-linecap="round" stroke-linejoin="round"/>
<path d="M67.7301 277.379C64.3101 277.529 61.2401 279.529 59.6801 282.579L54.3701 289.189C54.3701 289.189 54.1001 288.959 58.5901 295.579C63.0801 302.199 73.2901 308.879 73.2901 308.879C73.2901 308.879 74.3401 298.539 76.4001 299.379C78.4601 300.219 85.0301 319.519 85.0301 319.519C85.0301 319.519 86.5901 297.139 90.1401 298.109C93.7001 299.079 97.6001 308.019 97.6001 308.019C97.6001 308.019 103.21 296.889 102.68 289.969C102.15 283.049 92.7001 279.789 92.7001 279.789C92.7001 279.789 77.0101 276.98 67.7301 277.39V277.379Z" fill="white" stroke="#263238" stroke-linecap="round" stroke-linejoin="round"/>
<path d="M94.91 271.229L95 287.059C95 287.059 89.92 301.049 81.63 300.769C73.33 300.489 64.17 283.949 64.17 283.949L65.19 272.219L94.91 271.229Z" fill="white" stroke="#263238" stroke-linecap="round" stroke-linejoin="round"/>
<path d="M65.42 227.7C65.42 227.7 60.05 232.99 59.26 236.06C58.47 239.13 60.04 264.26 62.02 269.56C64 274.86 69.36 284.1 75.2 287.12C81.04 290.14 88.05 287.37 91.78 281.96C95.51 276.54 97.61 268.25 98.2 265.35C98.79 262.45 99.31 236.56 97.97 232.41C96.63 228.26 86.59 222.53 80.18 222.22C73.77 221.91 68.18 225.16 65.41 227.71L65.42 227.7Z" fill="white" stroke="#263238" stroke-linecap="round" stroke-linejoin="round"/>
<path d="M74.3201 262.78C74.3201 262.78 75.6001 265.27 79.0601 265.72C82.5201 266.17 84.7101 263.95 84.9901 262.68" stroke="#263238" stroke-linecap="round" stroke-linejoin="round"/>
<path d="M75.37 246.44C75.37 246.44 69.04 247.84 67.6 248.31C66.16 248.79 65.42 246.27 69.39 245.23C73.36 244.2 77.39 244.08 75.37 246.43V246.44Z" fill="#263238" stroke="#263238" stroke-linecap="round" stroke-linejoin="round"/>
<path d="M84.0401 246.47C84.0401 246.47 90.3701 247.88 91.8001 248.35C93.2301 248.83 93.9801 246.31 90.0101 245.27C86.0401 244.23 82.0101 244.1 84.0301 246.47H84.0401Z" fill="#263238" stroke="#263238" stroke-linecap="round" stroke-linejoin="round"/>
<path d="M74.65 253.71C74.56 254.82 73.84 255.67 73.03 255.61C72.22 255.55 71.64 254.6 71.72 253.49C71.81 252.38 72.53 251.53 73.34 251.59C74.15 251.65 74.73 252.6 74.65 253.71Z" fill="#263238"/>
<path d="M90.3101 253.71C90.2201 254.82 89.5001 255.67 88.6901 255.61C87.8801 255.55 87.3001 254.6 87.3801 253.49C87.4601 252.38 88.1901 251.53 89.0001 251.59C89.8101 251.65 90.3901 252.6 90.3101 253.71Z" fill="#263238"/>
<path d="M77.5801 265.79C77.5801 265.79 70.3701 266.34 69.4201 269.03C68.4701 271.72 68.9201 280.39 70.8901 283.49C72.8601 286.58 78.2301 288.47 81.1701 288.51C84.1101 288.55 87.9601 286.27 89.1901 284.71C90.4101 283.15 91.3701 280.28 91.5501 277.9C91.7301 275.52 92.7001 270.08 90.1101 267.86C87.5201 265.64 77.5801 265.8 77.5801 265.8V265.79Z" fill="#263238" stroke="#263238" stroke-linecap="round" stroke-linejoin="round"/>
<path d="M88.9199 269.899C88.9199 269.899 84.1399 269.989 80.6399 270.089C77.1399 270.189 72.5599 270.019 72.5599 270.019C72.5599 270.019 73.9599 277.929 80.1799 278.409C86.3999 278.889 88.9099 269.899 88.9099 269.899H88.9199Z" fill="white" stroke="#263238" stroke-linecap="round" stroke-linejoin="round"/>
<path d="M71.86 269.699C71.86 269.699 81.25 278.959 88.78 269.439" stroke="#263238" stroke-linecap="round" stroke-linejoin="round"/>
<path d="M73.95 257.97C73.95 257.97 71.18 260.52 70.05 260.8" stroke="#263238" stroke-linecap="round" stroke-linejoin="round"/>
<path d="M86.76 258.77C86.76 258.77 88.66 260.39 89.94 260.49" stroke="#263238" stroke-linecap="round" stroke-linejoin="round"/>
<path d="M59.47 252.63C59.47 252.63 56.6 249.28 55.12 251.74C53.64 254.2 55.28 261.68 56.98 263.47C58.68 265.26 61.03 265.8 61.03 265.8L59.47 252.62V252.63Z" fill="white" stroke="#263238" stroke-linecap="round" stroke-linejoin="round"/>
<path d="M98.9301 251.24C98.9301 251.24 102.46 248.38 103.25 250.1C104.04 251.82 104.07 256.23 102.73 259.26C101.39 262.28 98.3101 264.07 98.3101 264.07L98.9301 251.24Z" fill="white" stroke="#263238" stroke-linecap="round" stroke-linejoin="round"/>
<path d="M45.94 339.58C46.28 332.63 45.24 325.48 41.61 320.24C33.26 308.19 27.74 306.49 27.74 306.49C27.74 306.49 26.25 306.77 23.87 309.66C27.76 321.91 35.61 332.39 45.94 339.58Z" fill="#92E3A9" stroke="#263238" stroke-linecap="round" stroke-linejoin="round"/>
<path d="M271.72 209.52V120.23C271.72 114.16 266.8 109.23 260.72 109.23H172.76C166.69 109.23 161.76 114.15 161.76 120.23V209.52C161.76 215.59 166.68 220.52 172.76 220.52H229.56L271.72 238.4L252.11 220.52H260.73C266.8 220.52 271.73 215.6 271.73 209.52H271.72Z" fill="#263238"/>
<path d="M174.01 115.351H258.01C261.35 115.351 264.07 118.061 264.07 121.411V212.991H167.95V121.411C167.95 118.071 170.66 115.351 174.01 115.351Z" fill="white" stroke="#263238" stroke-linecap="round" stroke-linejoin="round"/>
<path d="M174.01 115.351H258.01C261.35 115.351 264.07 118.061 264.07 121.411V128.111H167.95V121.411C167.95 118.071 170.66 115.351 174.01 115.351Z" fill="#92E3A9" stroke="#263238" stroke-linecap="round" stroke-linejoin="round"/>
<path d="M190.95 143.161C190.95 147.341 187.56 150.731 183.38 150.731C179.2 150.731 175.81 147.341 175.81 143.161C175.81 138.981 179.2 135.591 183.38 135.591C187.56 135.591 190.95 138.981 190.95 143.161Z" fill="#92E3A9"/>
<path d="M187.7 159.7H175.79V163.16H187.7V159.7Z" fill="#B0B0B0"/>
<path d="M187.7 172.24H175.79V175.7H187.7V172.24Z" fill="#B0B0B0"/>
<path d="M187.7 184.78H175.79V188.24H187.7V184.78Z" fill="#B0B0B0"/>
<path d="M187.7 197.181H175.79V200.641H187.7V197.181Z" fill="#B0B0B0"/>
<path d="M256.9 133.971H197.97V153.431H256.9V133.971Z" fill="#92E3A9"/>
<path d="M254.08 158.471H199.28V185.871H254.08V158.471Z" stroke="#263238" stroke-linecap="round" stroke-linejoin="round"/>
<path d="M199.28 185.861L218.4 175.021L228.11 177.871L243.23 165.891L253.79 172.741V185.861H199.28Z" fill="#263238" stroke="#263238" stroke-linecap="round" stroke-linejoin="round"/>
<path d="M209.56 171.59C211.924 171.59 213.84 169.674 213.84 167.31C213.84 164.946 211.924 163.03 209.56 163.03C207.196 163.03 205.28 164.946 205.28 167.31C205.28 169.674 207.196 171.59 209.56 171.59Z" fill="#263238" stroke="#263238" stroke-linecap="round" stroke-linejoin="round"/>
<path d="M215.7 191.7H256.51" stroke="#263238" stroke-linecap="round" stroke-linejoin="round"/>
<path d="M198.64 191.7H212.93" stroke="#263238" stroke-linecap="round" stroke-linejoin="round"/>
<path d="M244 197.141H256.51" stroke="#263238" stroke-linecap="round" stroke-linejoin="round"/>
<path d="M211.82 197.141H240.39" stroke="#263238" stroke-linecap="round" stroke-linejoin="round"/>
<path d="M198.64 197.141H208.77" stroke="#263238" stroke-linecap="round" stroke-linejoin="round"/>
<path d="M225.14 202.58H256.51" stroke="#263238" stroke-linecap="round" stroke-linejoin="round"/>
<path d="M198.64 202.58H221.81" stroke="#263238" stroke-linecap="round" stroke-linejoin="round"/>
<path d="M245.39 208.03H256.51" stroke="#263238" stroke-linecap="round" stroke-linejoin="round"/>
<path d="M205.99 208.03H242.61" stroke="#263238" stroke-linecap="round" stroke-linejoin="round"/>
<path d="M198.64 208.03H202.94" stroke="#263238" stroke-linecap="round" stroke-linejoin="round"/>
<path d="M266.96 153.2H386.49C389.81 153.2 392.5 155.89 392.5 159.21V172.04C392.5 175.36 389.81 178.05 386.49 178.05H266.96C263.64 178.05 260.95 175.36 260.95 172.04V159.21C260.95 155.89 263.64 153.2 266.96 153.2Z" fill="#92E3A9" stroke="#263238" stroke-linecap="round" stroke-linejoin="round"/>
<path d="M279.93 156.891L282.12 163.621H289.19L283.47 167.771L285.65 174.501L279.93 170.341L274.21 174.501L276.4 167.771L270.67 163.621H277.75L279.93 156.891Z" fill="white" stroke="#263238" stroke-linecap="round" stroke-linejoin="round"/>
<path d="M303.5 156.891L305.68 163.621H312.75L307.03 167.771L309.22 174.501L303.5 170.341L297.78 174.501L299.96 167.771L294.24 163.621H301.31L303.5 156.891Z" fill="white" stroke="#263238" stroke-linecap="round" stroke-linejoin="round"/>
<path d="M327.06 156.891L329.25 163.621H336.32L330.6 167.771L332.79 174.501L327.06 170.341L321.34 174.501L323.53 167.771L317.81 163.621H324.88L327.06 156.891Z" fill="white" stroke="#263238" stroke-linecap="round" stroke-linejoin="round"/>
<path d="M350.63 156.891L352.82 163.621H359.89L354.17 167.771L356.35 174.501L350.63 170.341L344.91 174.501L347.1 167.771L341.38 163.621H348.45L350.63 156.891Z" fill="white" stroke="#263238" stroke-linecap="round" stroke-linejoin="round"/>
<path d="M374.2 156.891L376.38 163.621H383.45L377.73 167.771L379.92 174.501L374.2 170.341L368.48 174.501L370.66 167.771L364.94 163.621H372.01L374.2 156.891Z" fill="white" stroke="#263238" stroke-linecap="round" stroke-linejoin="round"/>
<path d="M180.923 98.4069C200.657 93.5198 212.692 73.5608 207.805 53.8274C202.918 34.094 182.959 22.0587 163.225 26.9459C143.492 31.8331 131.457 51.792 136.344 71.5254C141.231 91.2589 161.19 103.294 180.923 98.4069Z" fill="#263238" stroke="#263238" stroke-miterlimit="10"/>
<path d="M179.585 93.0516C196.355 88.9015 206.585 71.9428 202.435 55.1732C198.285 38.4037 181.326 28.1735 164.557 32.3236C147.787 36.4736 137.557 53.4323 141.707 70.2019C145.857 86.9715 162.816 97.2016 179.585 93.0516Z" fill="#92E3A9" stroke="#263238" stroke-linecap="round" stroke-linejoin="round"/>
<path d="M188.89 60.0299C190.47 60.6899 191.65 61.6199 191.66 63.3199C191.66 64.9199 190.88 66.0999 189.21 66.7799C189.37 66.8999 189.49 67.0099 189.62 67.0899C190.43 67.5799 190.97 68.2799 191.28 69.1199C191.96 70.9299 190.54 73.1199 188.5 73.4099C187.89 73.4999 187.27 73.5299 186.55 73.5999C186.75 73.7299 186.87 73.8099 187 73.8899C188.62 74.9199 188.64 77.0199 187.05 78.0899C186.56 78.4199 186.06 78.5999 185.42 78.5899C180.89 78.5299 176.37 78.5199 171.84 78.4599C168.47 78.4099 165.15 77.9599 161.85 77.3499C159.43 76.8999 156.99 76.6899 154.52 76.6499C154.09 76.6499 153.65 76.6199 153.22 76.5499C152.56 76.4399 152.39 76.2499 152.39 75.6199C152.38 71.8699 152.36 68.1299 152.37 64.3799C152.37 62.8399 152.42 61.2999 152.47 59.7699C152.49 59.1599 152.7 58.8799 153.35 58.8199C154.47 58.6999 155.59 58.6699 156.71 58.5899C157.34 58.5499 157.97 58.4899 158.6 58.4399C159.36 58.3799 159.99 58.0499 160.54 57.5799C161.83 56.4599 162.84 55.1299 163.79 53.7699C164.82 52.2899 165.76 50.7699 166.82 49.3099C167.55 48.3099 168.38 47.3799 169.21 46.4499C170.37 45.1599 171.08 43.6899 171.45 42.0499C171.77 40.6499 172.12 39.2599 172.46 37.8599C172.51 37.6399 172.59 37.4299 172.67 37.2199C173.02 36.2999 173.72 35.9399 174.73 36.2299C176.57 36.7599 177.67 37.9599 178.12 39.6899C178.53 41.2799 178.34 42.8699 177.9 44.4099C177.37 46.2599 176.72 48.0799 176.14 49.9199C175.95 50.5099 175.77 51.1099 175.64 51.7099C175.49 52.4399 175.74 52.7299 176.53 52.7499C178.79 52.7899 181.05 52.7999 183.32 52.8399C184.85 52.8699 186.38 52.9399 187.91 52.9499C189.94 52.9599 192.04 55.2499 191.14 57.7699C190.81 58.7099 190.19 59.4299 189.22 59.8599C189.12 59.8999 189.03 59.9599 188.87 60.0299H188.89Z" fill="white" stroke="#263238" stroke-linecap="round" stroke-linejoin="round"/>
<path d="M210.5 233.33H121.87C118.584 233.33 115.92 235.994 115.92 239.28V271.36C115.92 274.646 118.584 277.31 121.87 277.31H210.5C213.786 277.31 216.45 274.646 216.45 271.36V239.28C216.45 235.994 213.786 233.33 210.5 233.33Z" fill="#263238" stroke="#263238" stroke-linecap="round" stroke-linejoin="round"/>
<path d="M121.87 233.33H110.4L115.84 241.89L121.87 233.33Z" fill="#263238" stroke="#263238" stroke-linecap="round" stroke-linejoin="round"/>
<path d="M142.477 248.31C143.778 242.801 140.366 237.28 134.856 235.98C129.346 234.68 123.826 238.092 122.526 243.601C121.225 249.111 124.637 254.631 130.147 255.932C135.656 257.232 141.177 253.82 142.477 248.31Z" fill="white" stroke="#263238" stroke-linecap="round" stroke-linejoin="round"/>
<path d="M132.51 256.22C135.32 256.22 137.87 255.09 139.72 253.25C139.28 249.66 136.22 246.87 132.51 246.87C128.8 246.87 125.74 249.65 125.3 253.25C127.15 255.08 129.7 256.22 132.51 256.22Z" fill="white" stroke="#263238" stroke-linecap="round" stroke-linejoin="round"/>
<path d="M136.98 243.37C136.98 245.84 134.98 247.84 132.51 247.84C130.04 247.84 128.04 245.84 128.04 243.37C128.04 240.9 130.04 238.9 132.51 238.9C134.98 238.9 136.98 240.9 136.98 243.37Z" fill="white" stroke="#263238" stroke-linecap="round" stroke-linejoin="round"/>
<path d="M150.71 240.021H188.83" stroke="white" stroke-linecap="round" stroke-linejoin="round"/>
<path d="M150.71 243.86H179.47" stroke="white" stroke-linecap="round" stroke-linejoin="round"/>
<path d="M150.71 251.89H207.56" stroke="white" stroke-linecap="round" stroke-linejoin="round"/>
<path d="M150.71 258.41H207.56" stroke="white" stroke-linecap="round" stroke-linejoin="round"/>
<path d="M150.71 264.93H178.52" stroke="white" stroke-linecap="round" stroke-linejoin="round"/>
<path d="M186.39 269.87C189.052 269.87 191.21 267.712 191.21 265.05C191.21 262.388 189.052 260.23 186.39 260.23C183.728 260.23 181.57 262.388 181.57 265.05C181.57 267.712 183.728 269.87 186.39 269.87Z" fill="#92E3A9" stroke="#263238" stroke-linecap="round" stroke-linejoin="round"/>
<path d="M189.15 265.891C188.79 267.071 187.69 267.931 186.39 267.931C185.09 267.931 183.96 267.051 183.61 265.851" stroke="#263238" stroke-width="0.5" stroke-linecap="round" stroke-linejoin="round"/>
<path d="M183.44 263.971C183.44 263.971 184.37 263.041 185.62 264.051" stroke="#263238" stroke-width="0.5" stroke-linecap="round" stroke-linejoin="round"/>
<path d="M187.17 263.971C187.17 263.971 188.1 263.041 189.35 264.051" stroke="#263238" stroke-width="0.5" stroke-linecap="round" stroke-linejoin="round"/>
<path d="M197.98 269.87C200.642 269.87 202.8 267.712 202.8 265.05C202.8 262.388 200.642 260.23 197.98 260.23C195.318 260.23 193.16 262.388 193.16 265.05C193.16 267.712 195.318 269.87 197.98 269.87Z" fill="#92E3A9" stroke="#263238" stroke-linecap="round" stroke-linejoin="round"/>
<path d="M200.75 265.891C200.39 267.071 199.29 267.931 197.99 267.931C196.69 267.931 195.56 267.051 195.21 265.851" stroke="#263238" stroke-width="0.5" stroke-linecap="round" stroke-linejoin="round"/>
<path d="M195.03 263.971C195.03 263.971 195.96 263.041 197.21 264.051" stroke="#263238" stroke-width="0.5" stroke-linecap="round" stroke-linejoin="round"/>
<path d="M198.76 263.971C198.76 263.971 199.69 263.041 200.94 264.051" stroke="#263238" stroke-width="0.5" stroke-linecap="round" stroke-linejoin="round"/>
</g>
<defs>
<clipPath id="clip0_325_1149">
<rect width="481.64" height="457.41" fill="white"/>
</clipPath>
</defs>
</svg>
