<svg width="482" height="458" viewBox="0 0 482 458" fill="none" xmlns="http://www.w3.org/2000/svg">
<g clip-path="url(#clip0_417_612)">
<path d="M461.33 114.75C449.49 62.8199 402.08 39.2599 356.32 21.9299C293.63 -1.82012 222.46 -17.0901 169.94 34.8999C150.79 53.8599 133.39 74.7499 114.62 94.0199C108.2 100.6 101.73 107.13 95.18 113.59C71.14 137.29 45.37 160.22 23.66 186.13C0.330002 213.98 -18.5 319.39 31.95 377.37C82.4 435.34 139.62 415.77 184.79 406.73C229.96 397.7 279.66 424.05 340.64 424.05C401.62 424.05 458.09 404.47 475.41 338.97C492.73 273.47 468.64 247.87 466.38 197.43C465.19 170.95 467.45 141.57 461.33 114.75Z" fill="#FCD34D"/>
<path opacity="0.7" d="M461.33 114.75C449.49 62.8199 402.08 39.2599 356.32 21.9299C293.63 -1.82012 222.46 -17.0901 169.94 34.8999C150.79 53.8599 133.39 74.7499 114.62 94.0199C108.2 100.6 101.73 107.13 95.18 113.59C71.14 137.29 45.37 160.22 23.66 186.13C0.330002 213.98 -18.5 319.39 31.95 377.37C82.4 435.34 139.62 415.77 184.79 406.73C229.96 397.7 279.66 424.05 340.64 424.05C401.62 424.05 458.09 404.47 475.41 338.97C492.73 273.47 468.64 247.87 466.38 197.43C465.19 170.95 467.45 141.57 461.33 114.75Z" fill="white"/>
<path d="M54.75 456.369H7.72" stroke="#263238" stroke-linecap="round" stroke-linejoin="round"/>
<path d="M475.67 456.369H63.13" stroke="#263238" stroke-linecap="round" stroke-linejoin="round"/>
<path d="M148.72 347.871C148.72 347.871 146.92 352.811 143.11 353.481C139.29 354.151 132.56 346.741 136.82 342.931C141.09 339.111 146.93 345.181 148.72 347.871Z" fill="#FCD34D" stroke="#263238" stroke-linecap="round" stroke-linejoin="round"/>
<path d="M154.56 323.621C154.56 323.621 148.95 337.321 151.19 344.051C153.44 350.791 167.36 355.731 171.4 346.971C175.44 338.211 166.46 325.861 163.09 323.171C159.72 320.481 155.68 321.371 154.56 323.621Z" fill="#FCD34D" stroke="#263238" stroke-linecap="round" stroke-linejoin="round"/>
<path d="M187.34 329.461C187.34 329.461 177.68 338.221 176.56 346.981C175.44 355.741 181.95 358.881 188.69 357.761C195.43 356.641 198.8 339.571 196.77 331.711C194.75 323.851 187.34 329.461 187.34 329.461Z" fill="#FCD34D" stroke="#263238" stroke-linecap="round" stroke-linejoin="round"/>
<path d="M189.14 377.961C189.14 377.961 178.36 378.411 177.91 383.571C177.46 388.731 182.63 389.861 187.79 385.371C192.95 380.881 193.63 378.181 189.14 377.961Z" fill="#FCD34D" stroke="#263238" stroke-linecap="round" stroke-linejoin="round"/>
<path d="M178.09 384.81C178.09 384.81 186.58 380.92 190.41 380.25" stroke="#263238" stroke-miterlimit="10"/>
<path d="M191.54 411.762C191.54 411.762 183.62 404.432 179.64 407.752C175.66 411.072 178.51 415.532 185.33 416.022C192.16 416.522 194.54 415.092 191.54 411.752V411.762Z" fill="#FCD34D" stroke="#263238" stroke-linecap="round" stroke-linejoin="round"/>
<path d="M178.9 408.752C178.9 408.752 187.65 412.032 190.82 414.272" stroke="#263238" stroke-miterlimit="10"/>
<path d="M149.78 409.6C149.78 409.6 160.69 399.5 166.18 404.08C171.67 408.66 167.74 414.8 158.33 415.49C148.92 416.17 145.63 414.21 149.78 409.61V409.6Z" fill="#FCD34D" stroke="#263238" stroke-linecap="round" stroke-linejoin="round"/>
<path d="M167.21 405.451C167.21 405.451 155.16 409.981 150.78 413.061" stroke="#263238" stroke-miterlimit="10"/>
<path d="M162.42 388.741C162.42 388.741 161.3 394.131 157.26 396.151C153.22 398.171 146.03 393.901 149.85 387.391C153.67 380.881 160.4 386.041 162.43 388.741H162.42Z" fill="#FCD34D" stroke="#263238" stroke-linecap="round" stroke-linejoin="round"/>
<path d="M152.99 371.901C152.99 371.901 150.97 367.411 143.11 370.331C135.25 373.251 132.11 377.741 137.05 379.311C141.99 380.881 152.99 371.901 152.99 371.901Z" fill="#FCD34D" stroke="#263238" stroke-linecap="round" stroke-linejoin="round"/>
<path d="M151.48 371.701C151.48 371.701 143.15 372.601 138.65 376.431" stroke="#263238" stroke-miterlimit="10"/>
<path d="M175.44 318.011C175.44 318.011 176.79 321.151 179.48 320.481C182.17 319.811 182.85 315.761 187.11 316.891C191.37 318.021 194.97 322.951 194.97 320.711C194.97 318.471 189.58 312.631 183.52 312.631C177.46 312.631 175.66 315.101 175.44 318.021V318.011Z" fill="#FCD34D" stroke="#263238" stroke-linecap="round" stroke-linejoin="round"/>
<path d="M152.99 371.9C152.99 371.9 162.66 370.04 166.69 380.78C167.09 381.83 167.42 382.94 167.7 384.07" stroke="#263238" stroke-miterlimit="10"/>
<path d="M193.34 361.5C193.34 361.5 195.36 357.01 203.22 359.93C211.08 362.85 214.22 367.34 209.28 368.91C204.34 370.48 193.34 361.5 193.34 361.5Z" fill="#FCD34D" stroke="#263238" stroke-linecap="round" stroke-linejoin="round"/>
<path d="M195.14 361.791C195.14 361.791 203.24 361.341 207.07 366.071" stroke="#263238" stroke-miterlimit="10"/>
<path d="M193.34 361.501C193.34 361.501 190.13 360.881 186.65 362.411" stroke="#263238" stroke-miterlimit="10"/>
<path d="M158.14 353.441C153.4 348.601 148.72 347.871 148.72 347.871C148.72 347.871 141.81 346.041 139.11 348.521" stroke="#263238" stroke-miterlimit="10"/>
<path d="M159.1 328.571L158.68 326.691" stroke="#263238" stroke-miterlimit="10"/>
<path d="M170.04 427.841C170.04 427.841 171.05 389.171 170.04 377.421C169.03 365.681 164.34 351.921 164.34 351.921L159.55 330.551" stroke="#263238" stroke-miterlimit="10"/>
<path d="M189.99 336.871L190.86 335.021" stroke="#263238" stroke-miterlimit="10"/>
<path d="M172.39 427.801C172.39 427.801 172.73 392.531 174.07 382.461C175.41 372.391 180.78 356.621 180.78 356.621L189.02 338.971" stroke="#263238" stroke-miterlimit="10"/>
<path d="M178.09 384.811C178.09 384.811 175.74 405.031 174.4 427.851" stroke="#263238" stroke-miterlimit="10"/>
<path d="M166.68 427.801C166.68 427.801 167.35 395.551 166.01 391.181C164.67 386.821 162.42 388.741 162.42 388.741C162.42 388.741 156.21 389.471 153.96 393.071" stroke="#263238" stroke-miterlimit="10"/>
<path d="M168.22 386.582C169.98 396.422 168.36 427.832 168.36 427.832" stroke="#263238" stroke-miterlimit="10"/>
<path d="M184.74 363.461C182.8 364.791 180.93 366.941 179.64 370.371C175.61 381.111 176.07 427.841 176.07 427.841" stroke="#263238" stroke-miterlimit="10"/>
<path d="M159.31 354.721C161.41 357.181 163.44 360.511 165 365.011C170.37 380.441 172.38 420.421 171.38 427.801" stroke="#263238" stroke-miterlimit="10"/>
<path d="M172.94 369.172C172.61 388.652 172.38 427.802 172.38 427.802" stroke="#263238" stroke-miterlimit="10"/>
<path d="M172.99 366.74C173.21 353.86 173.47 341.25 173.73 334.47C174.4 317.02 175.44 318 175.44 318C175.44 318 176.68 314.08 183.66 314.53" stroke="#263238" stroke-miterlimit="10"/>
<path d="M164.39 381.45C164.39 381.45 158.78 376.44 161.02 373.98C163.27 371.52 177.19 369.71 181.23 372.91C185.27 376.11 176.29 380.62 172.92 381.61C169.55 382.59 165.51 382.27 164.39 381.45Z" fill="#FCD34D" stroke="#263238" stroke-linecap="round" stroke-linejoin="round"/>
<path d="M169.58 377.35C169.5 377.86 169.46 378.36 169.46 378.84" stroke="#263238" stroke-miterlimit="10"/>
<path d="M171.51 371.51C171.51 371.51 170.67 373.18 170.07 375.23" stroke="#263238" stroke-miterlimit="10"/>
<path d="M164.39 414.191C164.39 414.191 158.78 409.181 161.02 406.721C163.27 404.261 177.19 402.451 181.23 405.651C185.27 408.851 176.29 413.361 172.92 414.351C169.55 415.331 165.51 415.011 164.39 414.191Z" fill="#FCD34D" stroke="#263238" stroke-linecap="round" stroke-linejoin="round"/>
<path d="M171.51 404.24C171.51 404.24 169.46 408.35 169.46 411.58" stroke="#263238" stroke-miterlimit="10"/>
<path d="M168.57 400.34C168.57 400.34 164.76 396.94 166.28 395.27C167.8 393.6 177.26 392.37 180 394.55C182.74 396.72 176.65 399.79 174.36 400.46C172.07 401.13 169.33 400.91 168.57 400.35V400.34Z" fill="#FCD34D" stroke="#263238" stroke-linecap="round" stroke-linejoin="round"/>
<path d="M173.4 393.59C173.4 393.59 172 396.38 172 398.57" stroke="#263238" stroke-miterlimit="10"/>
<path d="M178.5 422.23H163.3V455.93H178.5V422.23Z" fill="#263238" stroke="#263238" stroke-linecap="round" stroke-linejoin="round"/>
<path d="M433.86 377.711C428.2 377.711 423.52 374.271 423.24 374.061C422.31 373.361 422.12 372.051 422.82 371.121C423.52 370.191 424.83 370.001 425.76 370.701C426.05 370.921 433.09 376.031 438.97 371.871C443.29 368.811 443.88 348.191 442.91 334.531C442.83 333.371 443.7 332.371 444.86 332.291C446.03 332.221 447.02 333.081 447.1 334.241C447.52 340.131 449.2 369.771 441.39 375.301C438.88 377.081 436.28 377.711 433.86 377.711Z" fill="#263238"/>
<path d="M407.94 377.33H400.95V428.75H407.94V377.33Z" fill="#263238" stroke="#263238" stroke-linecap="round" stroke-linejoin="round"/>
<path d="M431.84 357.311H377.06C374.95 357.311 373.24 359.021 373.24 361.131V368.571C373.24 370.68 374.95 372.391 377.06 372.391H431.84C433.95 372.391 435.66 370.68 435.66 368.571V361.131C435.66 359.021 433.95 357.311 431.84 357.311Z" fill="#8C8C8C" stroke="#263238" stroke-linecap="round" stroke-linejoin="round"/>
<path d="M441.16 287.381C440.61 288.621 440.17 289.911 439.79 291.211C437.15 300.321 436.95 310.181 436.85 319.611C436.81 323.361 435.83 329.431 437.29 332.911C439.1 337.251 447.28 339.231 449.53 334.351C452.37 328.191 450.65 320.011 452.02 313.371C453.54 306.011 457.72 296.901 455.9 289.451C454.16 282.351 448.44 276.641 442.88 284.331C442.19 285.281 441.63 286.311 441.15 287.381H441.16Z" fill="#8C8C8C" stroke="#263238" stroke-linecap="round" stroke-linejoin="round"/>
<path d="M417.3 372.531H391.59V379.521H417.3V372.531Z" fill="#263238" stroke="#263238" stroke-linecap="round" stroke-linejoin="round"/>
<path d="M374.24 453.081C374.24 454.901 372.77 456.371 370.95 456.371C369.13 456.371 367.66 454.901 367.66 453.081C367.66 451.261 369.13 449.791 370.95 449.791C372.77 449.791 374.24 451.261 374.24 453.081Z" fill="white" stroke="#263238" stroke-linecap="round" stroke-linejoin="round"/>
<path d="M441.83 453.081C441.83 454.901 440.36 456.371 438.54 456.371C436.72 456.371 435.25 454.901 435.25 453.081C435.25 451.261 436.72 449.791 438.54 449.791C440.36 449.791 441.83 451.261 441.83 453.081Z" fill="white" stroke="#263238" stroke-linecap="round" stroke-linejoin="round"/>
<path d="M407.64 453.081C407.64 454.901 406.17 456.371 404.35 456.371C402.53 456.371 401.06 454.901 401.06 453.081C401.06 451.261 402.53 449.791 404.35 449.791C406.17 449.791 407.64 451.261 407.64 453.081Z" fill="white" stroke="#263238" stroke-linecap="round" stroke-linejoin="round"/>
<path d="M406.66 428.75L404.45 428.83L402.23 428.75L366.07 449.19V452.18H370.96V449.59L404.45 437.81L437.94 449.59V452.18H442.83V449.19L406.66 428.75Z" fill="#263238" stroke="#263238" stroke-linecap="round" stroke-linejoin="round"/>
<path d="M401.25 428.66H407.65L406.69 452.18H402.21L401.25 428.66Z" fill="#263238" stroke="#263238" stroke-linecap="round" stroke-linejoin="round"/>
<path d="M367.5 215.541C367.5 215.541 366.6 222.561 369.29 226.441C371.98 230.321 372.72 232.561 372.72 234.351C372.72 236.141 371.53 239.131 372.72 240.021C373.91 240.921 377.5 240.021 377.5 240.021C377.5 240.021 383.92 246.591 386.16 245.991C388.4 245.391 390.64 243.601 390.64 243.601C390.64 243.601 397.36 250.471 398.26 252.411C399.16 254.351 399.75 255.841 399.75 255.841L409.76 240.011C409.76 240.011 403.19 235.231 400.05 226.871C396.91 218.511 396.91 207.461 387.36 205.071C377.8 202.681 368.54 211.491 367.5 215.521V215.541Z" fill="white" stroke="#263238" stroke-linecap="round" stroke-linejoin="round"/>
<path d="M379.93 238.991C379.93 238.991 382.77 237.651 382.77 234.961" stroke="#263238" stroke-linecap="round" stroke-linejoin="round"/>
<path d="M371.43 227.71C371.43 227.71 371.28 224.42 374.86 225.02" stroke="#263238" stroke-linecap="round" stroke-linejoin="round"/>
<path d="M376.34 230.02C376.9 230.89 376.99 231.82 376.54 232.11C376.09 232.4 375.27 231.93 374.71 231.07C374.15 230.21 374.06 229.27 374.51 228.98C374.96 228.69 375.78 229.16 376.34 230.02Z" fill="#263238"/>
<path d="M390.64 243.621L394.67 240.561V247.341L390.64 243.621Z" fill="#263238" stroke="#263238" stroke-linecap="round" stroke-linejoin="round"/>
<path d="M329.9 351.94L321.19 439.44C321.19 439.44 308.84 439.7 303.69 439.18C298.54 438.67 293.65 436.61 294.17 439.44C294.68 442.27 302.4 446.9 305.23 448.19C308.06 449.48 311.66 450.25 313.98 451.54C316.3 452.83 321.18 456.43 323.24 455.91C325.3 455.4 329.93 436.61 329.93 436.61L353.82 359.66L380.58 357.6C380.58 357.6 340.18 346.79 336.07 346.28C331.95 345.77 329.89 351.94 329.89 351.94H329.9Z" fill="white" stroke="#263238" stroke-linecap="round" stroke-linejoin="round"/>
<path d="M316.56 446.65C307.81 444.59 304.72 442.02 304.72 442.02L307.05 439.4C305.77 439.35 304.61 439.28 303.69 439.19C298.54 438.68 293.66 436.62 294.17 439.45C294.68 442.28 302.4 446.91 305.23 448.2C308.06 449.49 311.66 450.26 313.98 451.55C316.3 452.84 321.18 456.44 323.24 455.92C324.09 455.71 325.39 452.34 326.62 448.48C324.44 448.23 321.09 447.72 316.55 446.65H316.56Z" fill="#FCD34D" stroke="#263238" stroke-linecap="round" stroke-linejoin="round"/>
<path d="M393.77 312.611L390.37 325.952C390.37 325.952 374.93 326.462 357.43 330.072C339.93 333.672 323.72 338.561 323.21 341.651C322.7 344.741 342.77 381.531 358.46 409.841C361.85 415.961 369.27 431.452 369.27 431.452C369.27 431.452 366.44 439.172 363.61 443.542C360.78 447.912 356.41 452.031 355.38 452.551C354.35 453.061 351.26 454.352 352.29 455.642C353.32 456.932 363.87 455.642 364.64 455.642C365.41 455.642 373.65 448.442 375.96 446.382C378.28 444.322 387.28 437.631 387.02 435.061C386.76 432.491 378.79 426.831 378.27 425.031C377.76 423.231 367.46 400.841 366.95 398.781C366.44 396.721 352.8 356.322 352.8 356.322C352.8 356.322 408.64 359.412 420.73 358.382C432.82 357.352 434.62 352.722 435.4 348.602C436.17 344.482 430.77 311.031 430.77 311.031L394.75 310.771L393.77 312.611Z" fill="white" stroke="#263238" stroke-linecap="round" stroke-linejoin="round"/>
<path d="M352.8 356.322L340.45 351.172" stroke="#263238" stroke-linecap="round" stroke-linejoin="round"/>
<path d="M387.02 435.052C386.89 433.792 384.91 431.782 382.86 429.852C382.03 430.902 381.08 432.072 380.08 433.252C376.99 436.852 363.87 449.722 363.87 449.722L359.68 448.582C357.75 450.702 355.99 452.252 355.38 452.552C354.35 453.062 351.26 454.352 352.29 455.642C353.32 456.932 363.87 455.642 364.64 455.642C365.41 455.642 373.65 448.442 375.96 446.382C378.28 444.322 387.28 437.632 387.02 435.062V435.052Z" fill="#FCD34D" stroke="#263238" stroke-linecap="round" stroke-linejoin="round"/>
<path d="M394.74 310.772L393.76 312.612L390.36 325.952C390.36 325.952 374.92 326.462 357.42 330.072C352.17 331.152 347.05 332.352 342.42 333.572L354.37 356.402C363.52 356.892 409.83 359.302 420.72 358.372C432.81 357.342 434.61 352.712 435.39 348.592C436.16 344.472 430.76 311.022 430.76 311.022L394.74 310.762V310.772Z" fill="#FCD34D" stroke="#263238" stroke-linecap="round" stroke-linejoin="round"/>
<path d="M393.46 327.242C393.46 327.242 411.73 329.812 419.96 336.762" stroke="#263238" stroke-linecap="round" stroke-linejoin="round"/>
<path d="M399.89 326.211C399.89 326.211 411.47 327.751 415.07 330.331" stroke="#263238" stroke-linecap="round" stroke-linejoin="round"/>
<path d="M347.25 288.111C347.25 288.111 343.23 287.761 341.31 288.981C339.39 290.201 330.12 296.501 327.68 298.591C325.23 300.691 322.96 304.361 322.79 304.881C322.62 305.401 323.84 305.581 324.36 305.401C324.88 305.221 327.16 303.481 326.46 304.351C325.76 305.221 326.99 305.441 326.99 305.441C326.99 305.441 339.92 297.891 340.97 298.061C342.02 298.231 344.12 297.541 345.51 296.491C346.91 295.441 350.58 293.521 350.58 293.521L391.83 301.561L398.12 295.791L396.72 281.811L387.46 289.501L347.26 288.101L347.25 288.111Z" fill="white" stroke="#263238" stroke-linecap="round" stroke-linejoin="round"/>
<path d="M405.06 242.591C405.06 242.591 397.38 258.171 393.54 270.151C389.7 282.121 391.73 284.831 392.64 285.511C393.54 286.191 395.58 287.771 395.58 287.771C395.58 287.771 392.19 310.811 393.77 312.621C395.35 314.431 408.45 315.101 419.07 315.101C429.69 315.101 432.17 310.811 432.17 308.551C432.17 306.291 427.43 269.931 423.81 258.181C420.2 246.441 410.48 238.761 405.06 242.601V242.591Z" fill="white" stroke="#263238" stroke-linecap="round" stroke-linejoin="round"/>
<path d="M399.96 241.422C399.96 241.422 391.35 249.772 392.14 252.372C392.92 254.982 396.31 254.722 396.31 254.722C396.31 254.722 395.79 258.892 397.61 258.372C399.44 257.852 407.78 247.152 407.78 247.152C407.78 247.152 403.61 236.722 399.96 241.412V241.422Z" fill="white" stroke="#263238" stroke-linecap="round" stroke-linejoin="round"/>
<path d="M404.62 260.45L399.79 294.39C399.79 294.39 349.87 291.68 348.97 291.68C348.07 291.68 338.13 296.2 334.06 298.46C329.99 300.72 327.28 302.3 326.61 303.88L325.93 305.46C325.93 305.46 329.09 306.14 332.03 305.46C334.97 304.78 337.22 303.65 337.22 303.65C337.22 303.65 343.09 302.97 345.13 301.62C347.16 300.26 351.68 296.43 351.68 296.43C351.68 296.43 390.98 307.05 395.05 307.72C399.12 308.4 408.83 312.46 411.09 310.2C412.97 308.32 418.61 275.44 420.44 264.48C420.89 261.78 420.22 259.01 418.52 256.86C417.16 255.14 415.3 253.57 413.11 253.28C406.47 252.4 404.61 260.45 404.61 260.45H404.62Z" fill="white" stroke="#263238" stroke-linecap="round" stroke-linejoin="round"/>
<path d="M418.52 256.86C417.16 255.14 415.3 253.57 413.11 253.28C406.47 252.4 404.61 260.45 404.61 260.45L399.78 294.39C399.78 294.39 394.94 294.13 388.24 293.77C388.96 297.68 389.97 303.36 390.37 306.64C392.68 307.21 394.35 307.61 395.03 307.72C399.1 308.4 408.81 312.46 411.07 310.2C412.95 308.32 418.59 275.44 420.42 264.48C420.87 261.78 420.2 259.01 418.5 256.86H418.52Z" stroke="#263238" stroke-linecap="round" stroke-linejoin="round"/>
<path d="M401.52 296.72C401.52 296.72 408.82 307.15 408.04 304.54C407.26 301.93 405.95 295.67 403.87 293.59" stroke="#263238" stroke-linecap="round" stroke-linejoin="round"/>
<path d="M332.03 305.45C332.03 305.45 331.95 304.02 332.91 303.47C333.87 302.92 338.69 300.72 339.11 300.58" stroke="#263238" stroke-linecap="round" stroke-linejoin="round"/>
<path d="M329.34 305.811C329.34 305.811 330.03 303.611 330.58 303.191C331.13 302.781 336.92 299.471 336.92 299.471" stroke="#263238" stroke-linecap="round" stroke-linejoin="round"/>
<path d="M454.73 240.901C454.47 229.951 440.12 233.081 437.26 228.381C434.39 223.691 439.35 223.691 436.22 216.121C433.09 208.561 419.79 214.561 413.27 213.511C409.78 212.951 406.81 209.321 404.8 206.071C403.72 202.851 402.84 200.381 398.79 196.331C393.05 190.591 376.99 198.051 376.99 198.051C376.99 198.051 359.78 207.521 360.07 212.971C360.36 218.421 383.59 221.861 385.6 221.861C387.61 221.861 387.89 216.701 390.48 218.131C392.91 219.481 393.55 222.601 393.38 224.161C392.99 225.691 392.67 226.921 392.49 227.601C391.63 230.761 395.02 232.291 394.5 242.461C393.98 252.631 409.37 250.811 413.02 251.331C416.67 251.851 420.46 264.481 423.19 269.071C425.92 273.661 434.41 273.501 438.58 269.331C442.75 265.161 439.1 261.241 439.36 257.851C439.62 254.461 455.01 251.851 454.75 240.901H454.73Z" fill="#263238" stroke="#263238" stroke-linecap="round" stroke-linejoin="round"/>
<path d="M244.82 456.91H238.81L237.52 317.02H246.11L244.82 456.91Z" fill="white" stroke="#263238" stroke-linecap="round" stroke-linejoin="round"/>
<path d="M354.97 456.91H348.96L347.67 317.02H356.26L354.97 456.91Z" fill="white" stroke="#263238" stroke-linecap="round" stroke-linejoin="round"/>
<path d="M365.79 308.52H229.02V317.74H365.79V308.52Z" fill="#263238" stroke="#263238" stroke-linecap="round" stroke-linejoin="round"/>
<path d="M287.15 308.599H266.6C265.32 308.599 264.16 307.939 263.51 306.829C262.86 305.719 262.84 304.389 263.46 303.259L286.04 262.339C286.38 261.719 287.16 261.499 287.78 261.839C288.4 262.179 288.63 262.959 288.28 263.579L265.7 304.499C265.44 304.959 265.63 305.369 265.72 305.519C265.81 305.669 266.08 306.029 266.61 306.029H287.16C287.87 306.029 288.44 306.599 288.44 307.309C288.44 308.019 287.87 308.589 287.16 308.589L287.15 308.599Z" fill="#263238"/>
<path d="M284.485 224.985L279.979 225.857L294.4 300.324L298.906 299.451L284.485 224.985Z" fill="white" stroke="#263238" stroke-linecap="round" stroke-linejoin="round"/>
<path d="M351 306.9L314.1 305.85V308.3H351V306.9Z" fill="white" stroke="#263238" stroke-linecap="round" stroke-linejoin="round"/>
<path d="M353.73 144.031C385.624 144.031 411.48 118.176 411.48 86.2812C411.48 54.3868 385.624 28.5312 353.73 28.5312C321.836 28.5312 295.98 54.3868 295.98 86.2812C295.98 118.176 321.836 144.031 353.73 144.031Z" stroke="#263238" stroke-linecap="round" stroke-linejoin="round"/>
<path d="M314.95 129.061C315.36 112.721 315.67 96.5009 315.49 95.5809C315.12 93.7109 310.83 93.7109 310.83 93.7109C310.83 93.7109 307.47 102.481 306.73 110.871C306.57 112.691 306.22 115.371 305.78 118.451C308.4 122.351 311.49 125.911 314.96 129.061H314.95Z" fill="white" stroke="#263238" stroke-linecap="round" stroke-linejoin="round"/>
<path d="M353.73 144.031C366.16 144.031 377.66 140.101 387.08 133.421L387.15 98.6914C387.15 98.6914 374.95 92.4814 363.64 90.7014C352.33 88.9314 318.61 94.0314 318.61 94.0314L317.49 131.221C327.4 139.231 340.01 144.031 353.75 144.031H353.73Z" fill="#FCD34D" stroke="#263238" stroke-linecap="round" stroke-linejoin="round"/>
<path d="M342.54 71.5098C342.54 71.5098 339.93 98.3698 340.67 100.05C341.42 101.73 344.59 106.21 351.12 106.21C357.65 106.21 364.74 99.3098 364.74 99.3098L366.98 72.2598C366.98 72.2598 358.4 76.3598 352.43 75.0598C346.46 73.7498 342.54 71.5198 342.54 71.5198V71.5098Z" fill="white" stroke="#263238" stroke-linecap="round" stroke-linejoin="round"/>
<path d="M351.44 82.0705L366.04 91.3405L367.2 70.4805L351.44 82.0705Z" fill="#263238"/>
<path d="M336.44 48.9399C336.44 48.9399 334.57 44.6499 332.71 48.0099C330.84 51.3699 337 59.9499 337 59.9499L336.44 48.9399Z" fill="white" stroke="#263238" stroke-linecap="round" stroke-linejoin="round"/>
<path d="M372.26 48.9399C372.26 48.9399 374.13 44.6499 375.99 48.0099C377.86 51.3699 370.74 60.4999 370.74 60.4999L372.26 48.9399Z" fill="white" stroke="#263238" stroke-linecap="round" stroke-linejoin="round"/>
<path d="M337 51.3699C337 51.3699 335.13 44.6499 335.13 42.7899C335.13 40.9299 338.49 40.9199 338.49 40.9199L337 51.3699Z" fill="#263238"/>
<path d="M337.26 41.6311C337.26 41.6311 336.61 64.7311 338.35 68.4411C340.09 72.1511 346.2 80.6511 347.72 81.7411C349.25 82.8311 354.48 83.2711 356 83.0511C357.53 82.8311 369.21 71.1811 369.65 69.6511C370.09 68.1211 371.92 46.8711 371.92 46.8711L371.7 29.2111C371.7 29.2111 367.34 26.8111 360.8 27.2511C354.26 27.6911 338.13 34.6611 338.13 34.6611L337.26 41.6311Z" fill="white" stroke="#263238" stroke-linecap="round" stroke-linejoin="round"/>
<path d="M366.68 32.7005C366.68 32.7005 361.23 39.8905 358.83 40.9805C356.43 42.0705 356.87 37.4905 356.87 37.4905C356.87 37.4905 351.2 41.8505 343.14 43.5905C335.08 45.3305 328.54 45.7705 326.36 42.7205C324.18 39.6705 331.16 35.3105 331.16 35.3105C331.16 35.3105 325.71 32.0405 331.16 26.1605C336.61 20.2705 350.56 13.7405 360.59 17.6605C370.62 21.5805 368.65 25.2905 368.65 25.2905C368.65 25.2905 376.28 24.2005 376.93 30.3005C377.58 36.4005 373.01 43.3805 373.01 43.3805C373.01 43.3805 372.79 48.6105 372.79 49.9205C372.79 51.2305 371.26 51.0105 371.26 51.0105L370.61 44.4705C370.61 44.4705 368.21 44.6905 366.9 40.1105C365.59 35.5305 366.68 32.7005 366.68 32.7005Z" fill="#263238"/>
<path d="M348.57 63.4902C348.57 63.4902 350.81 65.3602 352.86 65.3602C354.91 65.3602 356.96 63.6802 356.96 63.6802" stroke="#263238" stroke-linecap="round" stroke-linejoin="round"/>
<path d="M346.33 68.3396C346.33 68.3396 350.43 70.5796 353.98 70.2096C357.52 69.8396 359.76 66.8496 359.76 66.8496" stroke="#263238" stroke-linecap="round" stroke-linejoin="round"/>
<path d="M356.96 47.0807C356.96 47.0807 364.05 45.0307 366.29 48.9507" stroke="#263238" stroke-linecap="round" stroke-linejoin="round"/>
<path d="M349.32 47.6398C349.32 47.6398 344.47 44.2798 340.74 47.8298" stroke="#263238" stroke-linecap="round" stroke-linejoin="round"/>
<path d="M347.26 52.4514C347.26 53.9714 346.57 55.2114 345.73 55.2114C344.89 55.2114 344.2 53.9714 344.2 52.4514C344.2 50.9314 344.89 49.6914 345.73 49.6914C346.57 49.6914 347.26 50.9314 347.26 52.4514Z" fill="#263238"/>
<path d="M360.18 56.3598C361.025 56.3598 361.71 55.1241 361.71 53.5998C361.71 52.0755 361.025 50.8398 360.18 50.8398C359.335 50.8398 358.65 52.0755 358.65 53.5998C358.65 55.1241 359.335 56.3598 360.18 56.3598Z" fill="#263238"/>
<path d="M403.9 114.88C400.04 105.71 396.9 98.6402 396.27 98.0002C394.4 96.1302 371.27 84.3802 371.27 84.3802C371.27 84.3802 368.66 79.7202 366.05 82.1402C366.05 82.1402 358.22 107.32 355.6 129.52C355.14 133.46 354.78 138.46 354.5 144C375.66 143.72 394.07 132.07 403.9 114.87V114.88Z" fill="white" stroke="#263238" stroke-linecap="round" stroke-linejoin="round"/>
<path d="M371.27 84.391C371.27 84.391 371.83 90.361 371.83 98.011C371.83 105.661 370.71 113.311 370.71 113.311C370.71 113.311 366.61 112.191 362.5 113.501C358.39 114.811 357.46 116.301 357.46 116.301C357.46 116.301 363.24 85.891 366.04 82.161C368.84 78.431 369.77 81.231 371.26 84.401L371.27 84.391Z" fill="white" stroke="#263238" stroke-linecap="round" stroke-linejoin="round"/>
<path d="M382.56 133.981C382.03 132.431 381.77 131.021 381.9 129.901C382.65 123.741 383.77 117.031 383.77 117.031" stroke="#263238" stroke-linecap="round" stroke-linejoin="round"/>
<path d="M335.85 141.21C336.03 134.55 336.31 129.08 336.76 125.99C338.81 111.63 341.05 82.1505 341.05 82.1505C338.81 81.5905 334.71 85.5105 334.71 85.5105C334.71 85.5105 312.7 91.8505 310.83 93.7205C309.96 94.5905 309.82 108.92 309.92 123.89C316.74 131.83 325.67 137.9 335.85 141.21Z" fill="white" stroke="#263238" stroke-linecap="round" stroke-linejoin="round"/>
<path d="M334.71 85.5011C334.71 85.5011 332.29 94.0811 330.05 101.361C327.81 108.631 327.25 112.551 327.25 112.551C327.25 112.551 329.49 109.381 332.85 111.801C336.21 114.221 338.26 116.281 338.26 116.281L341.42 82.1611C341.42 82.1611 336.95 81.5811 334.72 85.5011H334.71Z" fill="white" stroke="#263238" stroke-linecap="round" stroke-linejoin="round"/>
<path d="M80.46 170.681C102.05 170.681 120.86 158.831 130.77 141.281L127.28 137.141C125.18 133.461 123.06 131.671 121.24 131.171C117.76 130.221 92.89 126.531 92.89 126.531L67.07 127.891C67.07 127.891 54.38 130.961 44.45 135.211L33.35 146.311C43.81 161.051 61.01 170.681 80.46 170.681Z" fill="#FCD34D" stroke="#263238" stroke-linecap="round" stroke-linejoin="round"/>
<path d="M86.05 144.711C84.88 145.391 83.64 146.021 82.34 146.571" stroke="#263238" stroke-linecap="round" stroke-linejoin="round"/>
<path d="M99.26 132.74C99.26 132.74 94.93 138.98 87.73 143.68" stroke="#263238" stroke-linecap="round" stroke-linejoin="round"/>
<path d="M97.14 139.08C97.14 139.08 93.87 143.69 90.99 145.23" stroke="#263238" stroke-linecap="round" stroke-linejoin="round"/>
<path d="M66.84 61.5209C66.84 61.5209 55.65 58.9509 53.53 61.8209C51.41 64.6909 55.65 67.4209 55.04 68.0209C54.43 68.6209 41.43 75.2809 42.49 81.7809C43.55 88.2809 52.32 94.9409 52.62 96.7509C52.92 98.5609 42.49 99.1709 41.13 101.891C39.77 104.611 37.8 117.471 49.15 121.701C60.49 125.931 74.71 118.831 78.64 118.831C82.57 118.831 86.5 126.541 91.04 126.091C95.58 125.641 98.15 122.311 98.15 122.311C98.15 122.311 102.84 128.811 109.65 126.091C116.46 123.371 124.32 113.841 120.99 110.971C117.66 108.101 113.88 107.191 116.3 104.621C118.72 102.051 123.71 95.2409 122.95 89.3409C122.19 83.4409 115.24 82.9909 112.51 81.1709C109.78 79.3509 115.54 76.3309 115.38 71.3409C115.23 66.3509 111.6 58.0309 93.15 52.4309C74.7 46.8309 65.62 49.5609 64.72 54.2409C63.81 58.9309 66.84 61.5009 66.84 61.5009V61.5209Z" fill="#263238" stroke="#263238" stroke-linecap="round" stroke-linejoin="round"/>
<path d="M68.86 110.041C68.86 110.041 65.08 133.631 64.93 134.391C64.78 135.151 71.58 141.951 80.81 140.741C90.04 139.531 94.72 133.331 94.72 133.331L91.85 109.891C91.85 109.891 83.99 113.671 79.15 113.521C74.31 113.371 68.87 110.041 68.87 110.041H68.86Z" fill="white" stroke="#263238" stroke-linecap="round" stroke-linejoin="round"/>
<path d="M67.3 122.701L83.23 119.621L68.86 110.041L67.3 122.701Z" fill="#263238" stroke="#263238" stroke-linecap="round" stroke-linejoin="round"/>
<path d="M60.45 89.2398C60.45 89.2398 57.79 85.8698 56.54 90.1298C55.3 94.3898 60.63 99.5398 60.63 99.5398L60.45 89.2398Z" fill="white" stroke="#263238" stroke-linecap="round" stroke-linejoin="round"/>
<path d="M98.63 89.2398C98.63 89.2398 101.29 85.8698 102.54 90.1298C103.79 94.3898 98.45 99.5398 98.45 99.5398L98.63 89.2398Z" fill="white" stroke="#263238" stroke-linecap="round" stroke-linejoin="round"/>
<path d="M68.82 67.9109C68.82 67.9109 61.19 75.3209 60.09 77.5309C58.99 79.7409 59.43 105.051 60.64 107.491C61.86 109.921 74.02 119.431 76.01 120.201C78 120.971 82.53 121.751 86.07 119.981C89.61 118.211 98.12 109.151 99 106.831C99.88 104.511 98.78 77.9809 98.23 75.4409C97.68 72.9009 84.3 63.8309 78.66 63.3909C73.02 62.9509 68.82 67.9209 68.82 67.9209V67.9109Z" fill="white" stroke="#263238" stroke-linecap="round" stroke-linejoin="round"/>
<path d="M72.82 104.101C72.82 104.101 75.1 106.571 79.29 106.571C83.48 106.571 86.9 103.531 86.9 103.531" stroke="#263238" stroke-linecap="round" stroke-linejoin="round"/>
<path d="M72.8 77.7111C72.8 77.7111 69.12 77.8611 66.47 80.2111C63.82 82.5611 66.62 83.0111 67.65 82.5611C68.68 82.1211 71.62 80.3511 73.68 80.3511C75.74 80.3511 75.45 77.5511 72.8 77.7011V77.7111Z" fill="#263238" stroke="#263238" stroke-linecap="round" stroke-linejoin="round"/>
<path d="M84.52 76.2404C84.52 76.2404 88.2 76.3904 90.85 78.7404C93.5 81.0904 90.7 81.5404 89.67 81.0904C88.64 80.6504 85.7 78.8804 83.64 78.8804C81.58 78.8804 81.87 76.0804 84.52 76.2304V76.2404Z" fill="#263238" stroke="#263238" stroke-linecap="round" stroke-linejoin="round"/>
<path d="M74.82 63.3806C74.82 63.3806 86.25 73.8006 94.46 74.2006L102.68 74.6006C102.68 74.6006 84.64 72.1906 79.03 59.9706C79.03 59.9706 72.82 54.7606 74.82 63.3806Z" fill="#263238" stroke="#263238" stroke-linecap="round" stroke-linejoin="round"/>
<path d="M82.97 97.541C82.97 97.541 80.98 100.521 79.54 100.521C78.1 100.521 76.67 98.861 76.67 98.861" stroke="#263238" stroke-linecap="round" stroke-linejoin="round"/>
<path d="M76.1 89.5506C76.1 91.4806 75.12 93.0406 73.92 93.0406C72.72 93.0406 71.74 91.4806 71.74 89.5506C71.74 87.6206 72.72 86.0605 73.92 86.0605C75.12 86.0605 76.1 87.6206 76.1 89.5506Z" fill="#263238"/>
<path d="M88.37 93.1909C89.574 93.1909 90.55 91.6284 90.55 89.7009C90.55 87.7735 89.574 86.2109 88.37 86.2109C87.166 86.2109 86.19 87.7735 86.19 89.7009C86.19 91.6284 87.166 93.1909 88.37 93.1909Z" fill="#263238"/>
<path d="M80.46 170.682C112.354 170.682 138.21 144.826 138.21 112.932C138.21 81.0372 112.354 55.1816 80.46 55.1816C48.5655 55.1816 22.71 81.0372 22.71 112.932C22.71 144.826 48.5655 170.682 80.46 170.682Z" stroke="#263238" stroke-linecap="round" stroke-linejoin="round"/>
<path d="M130.44 318.239C129.41 312.009 124.47 304.289 124.47 304.289C124.47 304.289 122.29 307.029 122.02 308.339C121.75 309.649 115.48 323.739 113.58 334.919C113.35 336.259 113.21 337.509 113.13 338.679C120.38 333.329 126.35 326.339 130.45 318.239H130.44Z" fill="#FCD34D" stroke="#263238" stroke-linecap="round" stroke-linejoin="round"/>
<path d="M78.91 349.921C94.29 349.921 108.25 343.901 118.6 334.101C119.99 327.771 121.38 321.531 121.54 321.251C121.86 320.671 126.79 308.161 124.47 304.291C122.15 300.421 99.96 289.251 99.96 289.251L91.19 285.141C91.19 285.141 63.47 285.801 62.39 286.061C61.31 286.331 45.85 293.401 36.05 299.851C26.3 306.271 26.44 306.471 24.7 312.031C32.8 334.131 54.01 349.911 78.92 349.911L78.91 349.921Z" fill="#FCD34D" stroke="#263238" stroke-linecap="round" stroke-linejoin="round"/>
<path d="M78.91 349.92C110.804 349.92 136.66 324.064 136.66 292.17C136.66 260.275 110.804 234.42 78.91 234.42C47.0156 234.42 21.16 260.275 21.16 292.17C21.16 324.064 47.0156 349.92 78.91 349.92Z" stroke="#263238" stroke-linecap="round" stroke-linejoin="round"/>
<path d="M67.73 277.38C64.31 277.53 61.24 279.53 59.68 282.58L54.37 289.19C54.37 289.19 54.1 288.96 58.59 295.58C63.08 302.2 73.29 308.88 73.29 308.88C73.29 308.88 74.34 298.54 76.4 299.38C78.46 300.22 85.03 319.52 85.03 319.52C85.03 319.52 86.59 297.14 90.14 298.11C93.7 299.08 97.6 308.02 97.6 308.02C97.6 308.02 103.21 296.89 102.68 289.97C102.15 283.05 92.7 279.79 92.7 279.79C92.7 279.79 77.01 276.98 67.73 277.39V277.38Z" fill="white" stroke="#263238" stroke-linecap="round" stroke-linejoin="round"/>
<path d="M94.91 271.23L95 287.06C95 287.06 89.92 301.05 81.63 300.77C73.33 300.49 64.17 283.95 64.17 283.95L65.19 272.22L94.91 271.23Z" fill="white" stroke="#263238" stroke-linecap="round" stroke-linejoin="round"/>
<path d="M65.42 227.7C65.42 227.7 60.05 232.99 59.26 236.06C58.47 239.13 60.04 264.26 62.02 269.56C64 274.86 69.36 284.1 75.2 287.12C81.04 290.14 88.05 287.37 91.78 281.96C95.51 276.54 97.61 268.25 98.2 265.35C98.79 262.45 99.31 236.56 97.97 232.41C96.63 228.26 86.59 222.53 80.18 222.22C73.77 221.91 68.18 225.16 65.41 227.71L65.42 227.7Z" fill="white" stroke="#263238" stroke-linecap="round" stroke-linejoin="round"/>
<path d="M74.32 262.78C74.32 262.78 75.6 265.27 79.06 265.72C82.52 266.17 84.71 263.95 84.99 262.68" stroke="#263238" stroke-linecap="round" stroke-linejoin="round"/>
<path d="M75.37 246.44C75.37 246.44 69.04 247.84 67.6 248.31C66.16 248.79 65.42 246.27 69.39 245.23C73.36 244.2 77.39 244.08 75.37 246.43V246.44Z" fill="#263238" stroke="#263238" stroke-linecap="round" stroke-linejoin="round"/>
<path d="M84.04 246.47C84.04 246.47 90.37 247.88 91.8 248.35C93.23 248.83 93.98 246.31 90.01 245.27C86.04 244.23 82.01 244.1 84.03 246.47H84.04Z" fill="#263238" stroke="#263238" stroke-linecap="round" stroke-linejoin="round"/>
<path d="M74.65 253.709C74.56 254.819 73.84 255.669 73.03 255.609C72.22 255.549 71.64 254.599 71.72 253.489C71.81 252.379 72.53 251.529 73.34 251.589C74.15 251.649 74.73 252.599 74.65 253.709Z" fill="#263238"/>
<path d="M90.31 253.709C90.22 254.819 89.5 255.669 88.69 255.609C87.88 255.549 87.3 254.599 87.38 253.489C87.46 252.379 88.19 251.529 89 251.589C89.81 251.649 90.39 252.599 90.31 253.709Z" fill="#263238"/>
<path d="M77.58 265.789C77.58 265.789 70.37 266.339 69.42 269.029C68.47 271.719 68.92 280.389 70.89 283.489C72.86 286.579 78.23 288.469 81.17 288.509C84.11 288.549 87.96 286.269 89.19 284.709C90.41 283.149 91.37 280.279 91.55 277.899C91.73 275.519 92.7 270.079 90.11 267.859C87.52 265.639 77.58 265.799 77.58 265.799V265.789Z" fill="#263238" stroke="#263238" stroke-linecap="round" stroke-linejoin="round"/>
<path d="M88.92 269.9C88.92 269.9 84.14 269.99 80.64 270.09C77.14 270.19 72.56 270.02 72.56 270.02C72.56 270.02 73.96 277.93 80.18 278.41C86.4 278.89 88.91 269.9 88.91 269.9H88.92Z" fill="white" stroke="#263238" stroke-linecap="round" stroke-linejoin="round"/>
<path d="M71.86 269.699C71.86 269.699 81.25 278.959 88.78 269.439" stroke="#263238" stroke-linecap="round" stroke-linejoin="round"/>
<path d="M73.95 257.971C73.95 257.971 71.18 260.521 70.05 260.801" stroke="#263238" stroke-linecap="round" stroke-linejoin="round"/>
<path d="M86.76 258.77C86.76 258.77 88.66 260.39 89.94 260.49" stroke="#263238" stroke-linecap="round" stroke-linejoin="round"/>
<path d="M59.47 252.63C59.47 252.63 56.6 249.28 55.12 251.74C53.64 254.2 55.28 261.68 56.98 263.47C58.68 265.26 61.03 265.8 61.03 265.8L59.47 252.62V252.63Z" fill="white" stroke="#263238" stroke-linecap="round" stroke-linejoin="round"/>
<path d="M98.93 251.239C98.93 251.239 102.46 248.379 103.25 250.099C104.04 251.819 104.07 256.229 102.73 259.259C101.39 262.279 98.31 264.069 98.31 264.069L98.93 251.239Z" fill="white" stroke="#263238" stroke-linecap="round" stroke-linejoin="round"/>
<path d="M45.94 339.58C46.28 332.63 45.24 325.48 41.61 320.24C33.26 308.19 27.74 306.49 27.74 306.49C27.74 306.49 26.25 306.77 23.87 309.66C27.76 321.91 35.61 332.39 45.94 339.58Z" fill="#FCD34D" stroke="#263238" stroke-linecap="round" stroke-linejoin="round"/>
<path d="M271.72 209.52V120.23C271.72 114.16 266.8 109.23 260.72 109.23H172.76C166.69 109.23 161.76 114.15 161.76 120.23V209.52C161.76 215.59 166.68 220.52 172.76 220.52H229.56L271.72 238.4L252.11 220.52H260.73C266.8 220.52 271.73 215.6 271.73 209.52H271.72Z" fill="#263238"/>
<path d="M174.01 115.35H258.01C261.35 115.35 264.07 118.06 264.07 121.41V212.99H167.95V121.41C167.95 118.07 170.66 115.35 174.01 115.35Z" fill="white" stroke="#263238" stroke-linecap="round" stroke-linejoin="round"/>
<path d="M174.01 115.35H258.01C261.35 115.35 264.07 118.06 264.07 121.41V128.11H167.95V121.41C167.95 118.07 170.66 115.35 174.01 115.35Z" fill="#FCD34D" stroke="#263238" stroke-linecap="round" stroke-linejoin="round"/>
<path d="M190.95 143.16C190.95 147.34 187.56 150.73 183.38 150.73C179.2 150.73 175.81 147.34 175.81 143.16C175.81 138.98 179.2 135.59 183.38 135.59C187.56 135.59 190.95 138.98 190.95 143.16Z" fill="#FCD34D"/>
<path d="M187.7 159.699H175.79V163.159H187.7V159.699Z" fill="#B0B0B0"/>
<path d="M187.7 172.24H175.79V175.7H187.7V172.24Z" fill="#B0B0B0"/>
<path d="M187.7 184.779H175.79V188.239H187.7V184.779Z" fill="#B0B0B0"/>
<path d="M187.7 197.18H175.79V200.64H187.7V197.18Z" fill="#B0B0B0"/>
<path d="M256.9 133.969H197.97V153.429H256.9V133.969Z" fill="#FCD34D"/>
<path d="M254.08 158.469H199.28V185.869H254.08V158.469Z" stroke="#263238" stroke-linecap="round" stroke-linejoin="round"/>
<path d="M199.28 185.859L218.4 175.019L228.11 177.869L243.23 165.889L253.79 172.739V185.859H199.28Z" fill="#263238" stroke="#263238" stroke-linecap="round" stroke-linejoin="round"/>
<path d="M209.56 171.589C211.924 171.589 213.84 169.673 213.84 167.309C213.84 164.946 211.924 163.029 209.56 163.029C207.196 163.029 205.28 164.946 205.28 167.309C205.28 169.673 207.196 171.589 209.56 171.589Z" fill="#263238" stroke="#263238" stroke-linecap="round" stroke-linejoin="round"/>
<path d="M215.7 191.699H256.51" stroke="#263238" stroke-linecap="round" stroke-linejoin="round"/>
<path d="M198.64 191.699H212.93" stroke="#263238" stroke-linecap="round" stroke-linejoin="round"/>
<path d="M244 197.139H256.51" stroke="#263238" stroke-linecap="round" stroke-linejoin="round"/>
<path d="M211.82 197.139H240.39" stroke="#263238" stroke-linecap="round" stroke-linejoin="round"/>
<path d="M198.64 197.139H208.77" stroke="#263238" stroke-linecap="round" stroke-linejoin="round"/>
<path d="M225.14 202.58H256.51" stroke="#263238" stroke-linecap="round" stroke-linejoin="round"/>
<path d="M198.64 202.58H221.81" stroke="#263238" stroke-linecap="round" stroke-linejoin="round"/>
<path d="M245.39 208.029H256.51" stroke="#263238" stroke-linecap="round" stroke-linejoin="round"/>
<path d="M205.99 208.029H242.61" stroke="#263238" stroke-linecap="round" stroke-linejoin="round"/>
<path d="M198.64 208.029H202.94" stroke="#263238" stroke-linecap="round" stroke-linejoin="round"/>
<path d="M266.96 153.199H386.49C389.81 153.199 392.5 155.889 392.5 159.209V172.039C392.5 175.359 389.81 178.049 386.49 178.049H266.96C263.64 178.049 260.95 175.359 260.95 172.039V159.209C260.95 155.889 263.64 153.199 266.96 153.199Z" fill="#FCD34D" stroke="#263238" stroke-linecap="round" stroke-linejoin="round"/>
<path d="M279.93 156.889L282.12 163.619H289.19L283.47 167.769L285.65 174.499L279.93 170.339L274.21 174.499L276.4 167.769L270.67 163.619H277.75L279.93 156.889Z" fill="white" stroke="#263238" stroke-linecap="round" stroke-linejoin="round"/>
<path d="M303.5 156.889L305.68 163.619H312.75L307.03 167.769L309.22 174.499L303.5 170.339L297.78 174.499L299.96 167.769L294.24 163.619H301.31L303.5 156.889Z" fill="white" stroke="#263238" stroke-linecap="round" stroke-linejoin="round"/>
<path d="M327.06 156.889L329.25 163.619H336.32L330.6 167.769L332.79 174.499L327.06 170.339L321.34 174.499L323.53 167.769L317.81 163.619H324.88L327.06 156.889Z" fill="white" stroke="#263238" stroke-linecap="round" stroke-linejoin="round"/>
<path d="M350.63 156.889L352.82 163.619H359.89L354.17 167.769L356.35 174.499L350.63 170.339L344.91 174.499L347.1 167.769L341.38 163.619H348.45L350.63 156.889Z" fill="white" stroke="#263238" stroke-linecap="round" stroke-linejoin="round"/>
<path d="M374.2 156.889L376.38 163.619H383.45L377.73 167.769L379.92 174.499L374.2 170.339L368.48 174.499L370.66 167.769L364.94 163.619H372.01L374.2 156.889Z" fill="white" stroke="#263238" stroke-linecap="round" stroke-linejoin="round"/>
<path d="M180.924 98.4069C200.657 93.5198 212.692 73.5608 207.805 53.8274C202.918 34.094 182.959 22.0587 163.225 26.9459C143.492 31.8331 131.457 51.792 136.344 71.5254C141.231 91.2589 161.19 103.294 180.924 98.4069Z" fill="#263238" stroke="#263238" stroke-miterlimit="10"/>
<path d="M179.585 93.0535C196.355 88.9035 206.585 71.9448 202.435 55.1752C198.285 38.4056 181.326 28.1755 164.557 32.3255C147.787 36.4756 137.557 53.4343 141.707 70.2039C145.857 86.9734 162.816 97.2036 179.585 93.0535Z" fill="#FCD34D" stroke="#263238" stroke-linecap="round" stroke-linejoin="round"/>
<path d="M188.89 60.0309C190.47 60.6909 191.65 61.6209 191.66 63.3209C191.66 64.9209 190.88 66.1009 189.21 66.7809C189.37 66.9009 189.49 67.0109 189.62 67.0909C190.43 67.5809 190.97 68.2809 191.28 69.1209C191.96 70.9309 190.54 73.1209 188.5 73.4109C187.89 73.5009 187.27 73.5309 186.55 73.6009C186.75 73.7309 186.87 73.8109 187 73.8909C188.62 74.9209 188.64 77.0209 187.05 78.0909C186.56 78.4209 186.06 78.6009 185.42 78.5909C180.89 78.5309 176.37 78.5209 171.84 78.4609C168.47 78.4109 165.15 77.9609 161.85 77.3509C159.43 76.9009 156.99 76.6909 154.52 76.6509C154.09 76.6509 153.65 76.6209 153.22 76.5509C152.56 76.4409 152.39 76.2509 152.39 75.6209C152.38 71.8709 152.36 68.1309 152.37 64.3809C152.37 62.8409 152.42 61.3009 152.47 59.7709C152.49 59.1609 152.7 58.8809 153.35 58.8209C154.47 58.7009 155.59 58.6709 156.71 58.5909C157.34 58.5509 157.97 58.4909 158.6 58.4409C159.36 58.3809 159.99 58.0509 160.54 57.5809C161.83 56.4609 162.84 55.1309 163.79 53.7709C164.82 52.2909 165.76 50.7709 166.82 49.3109C167.55 48.3109 168.38 47.3809 169.21 46.4509C170.37 45.1609 171.08 43.6909 171.45 42.0509C171.77 40.6509 172.12 39.2609 172.46 37.8609C172.51 37.6409 172.59 37.4309 172.67 37.2209C173.02 36.3009 173.72 35.9409 174.73 36.2309C176.57 36.7609 177.67 37.9609 178.12 39.6909C178.53 41.2809 178.34 42.8709 177.9 44.4109C177.37 46.2609 176.72 48.0809 176.14 49.9209C175.95 50.5109 175.77 51.1109 175.64 51.7109C175.49 52.4409 175.74 52.7309 176.53 52.7509C178.79 52.7909 181.05 52.8009 183.32 52.8409C184.85 52.8709 186.38 52.9409 187.91 52.9509C189.94 52.9609 192.04 55.2509 191.14 57.7709C190.81 58.7109 190.19 59.4309 189.22 59.8609C189.12 59.9009 189.03 59.9609 188.87 60.0309H188.89Z" fill="white" stroke="#263238" stroke-linecap="round" stroke-linejoin="round"/>
<path d="M210.5 233.33H121.87C118.584 233.33 115.92 235.994 115.92 239.28V271.36C115.92 274.646 118.584 277.31 121.87 277.31H210.5C213.786 277.31 216.45 274.646 216.45 271.36V239.28C216.45 235.994 213.786 233.33 210.5 233.33Z" fill="#263238" stroke="#263238" stroke-linecap="round" stroke-linejoin="round"/>
<path d="M121.87 233.33H110.4L115.84 241.89L121.87 233.33Z" fill="#263238" stroke="#263238" stroke-linecap="round" stroke-linejoin="round"/>
<path d="M142.477 248.309C143.778 242.8 140.365 237.279 134.856 235.979C129.346 234.679 123.826 238.091 122.526 243.6C121.225 249.11 124.637 254.63 130.147 255.931C135.656 257.231 141.177 253.819 142.477 248.309Z" fill="white" stroke="#263238" stroke-linecap="round" stroke-linejoin="round"/>
<path d="M132.51 256.221C135.32 256.221 137.87 255.091 139.72 253.251C139.28 249.661 136.22 246.871 132.51 246.871C128.8 246.871 125.74 249.651 125.3 253.251C127.15 255.081 129.7 256.221 132.51 256.221Z" fill="white" stroke="#263238" stroke-linecap="round" stroke-linejoin="round"/>
<path d="M136.98 243.37C136.98 245.84 134.98 247.84 132.51 247.84C130.04 247.84 128.04 245.84 128.04 243.37C128.04 240.9 130.04 238.9 132.51 238.9C134.98 238.9 136.98 240.9 136.98 243.37Z" fill="white" stroke="#263238" stroke-linecap="round" stroke-linejoin="round"/>
<path d="M150.71 240.02H188.83" stroke="white" stroke-linecap="round" stroke-linejoin="round"/>
<path d="M150.71 243.859H179.47" stroke="white" stroke-linecap="round" stroke-linejoin="round"/>
<path d="M150.71 251.891H207.56" stroke="white" stroke-linecap="round" stroke-linejoin="round"/>
<path d="M150.71 258.41H207.56" stroke="white" stroke-linecap="round" stroke-linejoin="round"/>
<path d="M150.71 264.93H178.52" stroke="white" stroke-linecap="round" stroke-linejoin="round"/>
<path d="M186.39 269.87C189.052 269.87 191.21 267.712 191.21 265.05C191.21 262.388 189.052 260.23 186.39 260.23C183.728 260.23 181.57 262.388 181.57 265.05C181.57 267.712 183.728 269.87 186.39 269.87Z" fill="#FCD34D" stroke="#263238" stroke-linecap="round" stroke-linejoin="round"/>
<path d="M189.15 265.89C188.79 267.07 187.69 267.93 186.39 267.93C185.09 267.93 183.96 267.05 183.61 265.85" stroke="#263238" stroke-width="0.5" stroke-linecap="round" stroke-linejoin="round"/>
<path d="M183.44 263.971C183.44 263.971 184.37 263.041 185.62 264.051" stroke="#263238" stroke-width="0.5" stroke-linecap="round" stroke-linejoin="round"/>
<path d="M187.17 263.971C187.17 263.971 188.1 263.041 189.35 264.051" stroke="#263238" stroke-width="0.5" stroke-linecap="round" stroke-linejoin="round"/>
<path d="M197.98 269.87C200.642 269.87 202.8 267.712 202.8 265.05C202.8 262.388 200.642 260.23 197.98 260.23C195.318 260.23 193.16 262.388 193.16 265.05C193.16 267.712 195.318 269.87 197.98 269.87Z" fill="#FCD34D" stroke="#263238" stroke-linecap="round" stroke-linejoin="round"/>
<path d="M200.75 265.89C200.39 267.07 199.29 267.93 197.99 267.93C196.69 267.93 195.56 267.05 195.21 265.85" stroke="#263238" stroke-width="0.5" stroke-linecap="round" stroke-linejoin="round"/>
<path d="M195.03 263.971C195.03 263.971 195.96 263.041 197.21 264.051" stroke="#263238" stroke-width="0.5" stroke-linecap="round" stroke-linejoin="round"/>
<path d="M198.76 263.971C198.76 263.971 199.69 263.041 200.94 264.051" stroke="#263238" stroke-width="0.5" stroke-linecap="round" stroke-linejoin="round"/>
</g>
<defs>
<clipPath id="clip0_417_612">
<rect width="481.64" height="457.41" fill="white"/>
</clipPath>
</defs>
</svg>
