<svg width="463" height="455" viewBox="0 0 463 455" fill="none" xmlns="http://www.w3.org/2000/svg">
<g clip-path="url(#clip0_324_958)">
<path d="M454 205.22C438.87 132.04 390.96 69.8401 323.96 36.7501C316.93 33.2801 309.47 29.7801 301.56 26.2601C202.56 -17.7399 145.56 20.2601 116.56 64.2601C87.56 108.26 51.56 184.26 28.56 221.26C5.56002 258.26 -24.44 336.26 33.56 390.26C91.56 444.26 146.56 426.26 184.56 411.26C222.56 396.26 260.56 409.26 330.56 409.26C400.56 409.26 458.56 355.26 462.56 288.26C464.02 263.74 459.86 233.59 454 205.22Z" fill="#92E3A9"/>
<path opacity="0.7" d="M454 205.22C438.87 132.04 390.96 69.8401 323.96 36.7501C316.93 33.2801 309.47 29.7801 301.56 26.2601C202.56 -17.7399 145.56 20.2601 116.56 64.2601C87.56 108.26 51.56 184.26 28.56 221.26C5.56002 258.26 -24.44 336.26 33.56 390.26C91.56 444.26 146.56 426.26 184.56 411.26C222.56 396.26 260.56 409.26 330.56 409.26C400.56 409.26 458.56 355.26 462.56 288.26C464.02 263.74 459.86 233.59 454 205.22Z" fill="white"/>
<path d="M421.21 317C418.09 316.66 414.39 320.93 413.25 323.49C413.15 323.71 412.01 327.34 412.07 327.34C412.07 327.34 412.12 327.34 412.14 327.34C411.55 328.01 410.93 328.73 410.26 329.54C409.05 331.03 407.69 332.72 406.34 334.66C406.32 331.65 405.78 325.39 401.8 325.01C396.55 324.51 395.05 330.51 398.3 333.76C400.58 336.04 403.59 336.35 405.19 336.33C404.18 337.83 403.17 339.45 402.23 341.2C400.93 343.61 399.68 346.21 398.74 349.06C398.73 349.09 398.72 349.13 398.71 349.16C398.73 348.24 398.69 345.67 398.66 345.48C398.3 342.71 395.97 337.56 392.89 336.99C390.67 336.58 388.79 338.32 388.61 340.48C388.43 342.68 390.03 344.89 391.59 346.28C393.35 347.85 398.23 349.37 398.62 349.49C397.75 352.21 397.08 355.07 396.56 358C396.26 359.68 396.01 361.37 395.78 363.08C395.77 362.29 395.75 361.58 395.74 361.48C395.38 358.71 393.05 353.56 389.97 352.99C387.75 352.58 385.87 354.32 385.69 356.48C385.51 358.68 387.11 360.89 388.67 362.28C390.25 363.69 394.39 365.07 395.48 365.42C395.4 366.08 395.31 366.73 395.23 367.38C394.85 370.52 394.49 373.66 394.04 376.73C393.88 377.81 393.69 378.87 393.5 379.93C393.49 379.22 393.47 378.63 393.46 378.54C393.1 375.77 390.77 370.62 387.69 370.05C385.47 369.64 383.59 371.38 383.41 373.54C383.23 375.74 384.83 377.95 386.39 379.34C387.9 380.69 391.7 382 393.01 382.42C392.78 383.5 392.55 384.58 392.28 385.62C392.08 386.32 391.94 387.01 391.69 387.71C391.47 388.4 391.24 389.09 391.03 389.77C390.56 391.06 390.08 392.4 389.59 393.65C389.26 394.52 388.92 395.35 388.58 396.18C388.75 395.11 389.04 392.99 389.04 392.82C389.08 390.96 388.42 387.94 387.11 385.82C387.11 385.55 387.11 385.27 387.06 385C386.72 382.86 384.71 381.27 382.53 381.85C379.5 382.66 377.58 387.97 377.44 390.77C377.44 390.93 377.54 392.73 377.63 393.87C377.48 393.21 377.34 392.57 377.17 391.89C376.85 390.55 376.5 389.22 376.12 387.79C375.91 387.11 375.7 386.42 375.49 385.72C375.3 385.02 375 384.31 374.76 383.6C374.16 381.96 373.47 380.33 372.75 378.71C373.92 378.43 378.07 377.37 379.74 376.09C381.4 374.82 383.16 372.74 383.14 370.52C383.12 368.35 381.38 366.48 379.14 366.72C376.03 367.06 373.32 372.02 372.76 374.76C372.72 374.93 372.54 376.94 372.46 378.05C372.01 377.08 371.58 376.1 371.09 375.13C369.7 372.33 368.2 369.53 366.72 366.74C366.27 365.88 365.82 365.03 365.38 364.17C365.8 364.07 370.76 362.92 372.62 361.49C374.28 360.22 376.04 358.14 376.02 355.92C376 353.75 374.26 351.88 372.02 352.12C368.9 352.46 366.2 357.42 365.64 360.16C365.6 360.37 365.34 363.26 365.31 364C364.33 362.11 363.37 360.22 362.5 358.32C361.29 355.7 360.26 353.05 359.44 350.42C359.63 350.38 364.81 349.2 366.72 347.73C368.38 346.46 370.14 344.38 370.12 342.16C370.1 339.99 368.36 338.12 366.12 338.36C363 338.7 360.3 343.66 359.74 346.4C359.7 346.58 359.5 348.79 359.43 349.84C359.33 349.85 359.35 349.84 359.25 349.86C358.41 347.03 357.95 344.18 357.66 341.49C357.49 339.93 357.41 338.44 357.36 336.98C358.35 336.86 362.85 336.26 364.72 335.13C366.51 334.05 368.48 332.17 368.71 329.97C368.93 327.82 367.4 325.76 365.15 325.76C362.02 325.76 358.78 330.39 357.92 333.05C357.87 333.19 357.56 334.72 357.35 335.83C357.35 335.17 357.32 334.49 357.32 333.86C357.32 331.49 357.47 329.32 357.62 327.4C357.71 326.31 357.82 325.32 357.93 324.4C358.84 323.78 362.46 321.22 363.58 319.39C364.67 317.61 365.56 315.03 364.75 312.97C363.95 310.96 361.65 309.84 359.65 310.87C356.87 312.31 356.13 317.91 356.59 320.67C356.63 320.91 357.68 324.57 357.73 324.53C357.73 324.53 357.77 324.5 357.78 324.49C357.66 325.37 357.54 326.32 357.43 327.36C357.24 329.28 357.04 331.45 356.99 333.83C356.98 334.27 356.97 334.72 356.97 335.17C355.78 333.33 352.01 328.17 347.94 329.26C343.01 330.59 344.15 334.95 348.13 335.9C351.46 336.69 355.67 336.1 356.96 335.88C356.96 337.67 357 339.56 357.17 341.51C357.41 344.24 357.81 347.1 358.59 349.99C358.59 350.02 358.61 350.06 358.62 350.09C358.13 349.32 356.68 347.2 356.55 347.05C354.72 344.93 349.94 341.92 347.05 343.15C344.97 344.03 344.36 346.52 345.41 348.42C346.48 350.36 349.03 351.32 351.09 351.62C353.42 351.96 358.33 350.54 358.72 350.42C359.49 353.17 360.51 355.92 361.7 358.66C362.37 360.22 363.1 361.78 363.85 363.33C363.4 362.67 363 362.09 362.93 362.02C361.1 359.9 356.32 356.89 353.43 358.12C351.35 359 350.74 361.49 351.79 363.39C352.86 365.33 355.41 366.29 357.47 366.59C359.57 366.9 363.78 365.77 364.89 365.45C365.18 366.04 365.47 366.63 365.77 367.22C367.19 370.05 368.62 372.87 369.94 375.68C370.41 376.67 370.83 377.66 371.25 378.65C370.85 378.07 370.51 377.58 370.45 377.51C368.62 375.39 363.84 372.38 360.95 373.61C358.87 374.49 358.26 376.98 359.31 378.88C360.38 380.82 362.93 381.78 364.99 382.08C366.99 382.37 370.89 381.36 372.21 381C372.61 382.03 373.02 383.05 373.37 384.07C373.59 384.77 373.85 385.42 374.03 386.14C374.23 386.84 374.42 387.54 374.61 388.22C374.93 389.56 375.27 390.94 375.55 392.25C375.75 393.16 375.93 394.04 376.11 394.91C375.66 393.92 374.73 392 374.64 391.85C373.15 389.48 368.88 385.78 365.84 386.55C363.65 387.11 362.67 389.47 363.42 391.51C364.18 393.59 366.56 394.92 368.55 395.53C370.75 396.2 375.62 395.59 376.23 395.51C376.52 396.97 376.79 398.38 377.03 399.73C377.85 404.38 378.36 408.29 378.67 411.02C378.73 411.51 378.77 411.94 378.82 412.35H369.39L371.51 453.69H390.23L392.35 412.35H383.56C383.63 412.21 383.69 412.09 383.75 411.95C384.96 409.44 386.63 405.83 388.43 401.41C389 400.02 389.59 398.51 390.18 396.97C390.77 397.09 395.59 398.07 397.84 397.57C399.88 397.11 402.35 395.96 403.26 393.94C404.15 391.97 403.35 389.53 401.21 388.82C398.24 387.82 393.71 391.2 392.04 393.45C391.94 393.58 391.04 395.14 390.49 396.14C390.73 395.51 390.96 394.89 391.2 394.24C391.67 392.95 392.11 391.64 392.58 390.24C392.78 389.56 392.99 388.86 393.2 388.17C393.42 387.48 393.57 386.73 393.76 386C394.16 384.3 394.49 382.57 394.78 380.81C395.91 381.22 399.96 382.63 402.05 382.48C404.13 382.33 406.75 381.57 407.96 379.71C409.14 377.89 408.72 375.37 406.71 374.33C403.93 372.89 398.93 375.54 396.95 377.52C396.83 377.64 395.56 379.22 394.88 380.1C395.05 379.04 395.22 377.99 395.35 376.91C395.74 373.8 396.03 370.65 396.34 367.5C396.43 366.54 396.54 365.58 396.64 364.61C397.04 364.76 401.81 366.54 404.16 366.37C406.24 366.22 408.86 365.46 410.07 363.6C411.25 361.78 410.83 359.26 408.82 358.22C406.04 356.78 401.04 359.43 399.06 361.41C398.91 361.56 397.1 363.83 396.66 364.43C396.88 362.31 397.13 360.21 397.45 358.14C397.89 355.29 398.48 352.51 399.26 349.87C399.45 349.94 404.42 351.82 406.82 351.65C408.9 351.5 411.52 350.74 412.73 348.88C413.91 347.07 413.49 344.54 411.48 343.5C408.7 342.06 403.7 344.71 401.72 346.68C401.59 346.81 400.21 348.54 399.57 349.38C399.48 349.33 399.5 349.34 399.41 349.3C400.27 346.48 401.46 343.85 402.7 341.44C403.41 340.05 404.17 338.75 404.94 337.51C405.83 337.95 409.92 339.94 412.1 340.03C414.19 340.11 416.87 339.64 418.27 337.93C419.64 336.26 419.5 333.7 417.62 332.45C415.01 330.72 409.76 332.8 407.57 334.54C407.49 334.61 406.94 335.15 406.34 335.74C406.34 335.61 406.34 335.46 406.35 335.29C406.44 335.15 406.52 335.02 406.61 334.89C407.92 332.92 409.24 331.19 410.43 329.67C411.11 328.81 411.74 328.05 412.34 327.34C413.44 327.32 417.87 327.19 419.81 326.28C421.7 325.39 423.86 323.73 424.32 321.57C424.77 319.45 423.46 317.25 421.22 317H421.21ZM386.72 400.7C384.84 405.03 383.1 408.57 381.86 411.03C381.61 411.52 381.38 411.96 381.17 412.37H380.96C380.9 411.89 380.83 411.37 380.75 410.78C380.37 408.02 379.77 404.09 378.84 399.41C378.55 397.93 378.21 396.36 377.85 394.74C378.22 394.59 380.29 393.75 382.13 392.73C383.73 394.47 387.84 396.5 388.38 396.76C387.82 398.14 387.26 399.47 386.72 400.72V400.7ZM405.77 336.31C405.69 336.39 405.61 336.47 405.54 336.54C405.59 336.46 405.64 336.39 405.69 336.31C405.72 336.31 405.75 336.31 405.77 336.31Z" fill="#263238"/>
<path opacity="0.3" d="M269.15 277.33C266.17 289.15 273.36 301.18 285.18 304.16C291.96 305.87 298.8 304.22 303.97 300.28L312.52 308.46C312.1 310.22 312.56 312.14 313.96 313.49L332.52 331.75C334.62 333.79 337.96 333.74 340 331.64C340.67 330.95 341.11 330.12 341.33 329.25C341.78 327.48 341.29 325.52 339.89 324.16L321.33 305.9C319.92 304.53 317.95 304.13 316.18 304.63L307.77 296.58C309.72 294.17 311.21 291.32 312.02 288.12C315 276.3 307.81 264.27 295.99 261.29C284.17 258.31 272.14 265.5 269.16 277.32L269.15 277.33ZM308.16 287.16C305.72 296.85 295.84 302.75 286.15 300.31C276.46 297.87 270.56 287.99 273 278.3C275.44 268.61 285.32 262.71 295.01 265.15C304.7 267.59 310.6 277.47 308.16 287.16Z" stroke="black" stroke-miterlimit="10"/>
<g opacity="0.3">
<path d="M188.05 39.7802C193.2 27.9302 205 19.6602 218.74 19.6602C237.21 19.6602 252.19 34.6402 252.19 53.1102C252.19 71.5802 237.21 86.5602 218.74 86.5602C200.27 86.5602 185.29 71.5902 185.29 53.1102C185.29 48.9502 186.05 44.9702 187.44 41.2902" stroke="black" stroke-miterlimit="10"/>
<path d="M187.67 39.6498C192.89 27.6598 204.85 19.2598 218.73 19.2598C237.4 19.2598 252.59 34.4498 252.59 53.1198C252.59 71.7898 237.4 86.9798 218.73 86.9798C200.06 86.9798 184.87 71.7898 184.87 53.1198C184.87 48.9198 185.64 44.8898 187.05 41.1698" stroke="black" stroke-width="0.5" stroke-miterlimit="10"/>
<path d="M196.45 42.9596C200.31 34.5096 208.83 28.6396 218.73 28.6396C232.25 28.6396 243.21 39.5896 243.21 53.1096C243.21 66.6297 232.25 77.5896 218.73 77.5896C205.21 77.5896 194.25 66.6396 194.25 53.1096C194.25 50.0596 194.81 47.1496 195.83 44.4596" stroke="black" stroke-miterlimit="10"/>
<path d="M196.08 42.8195C200.01 34.2195 208.68 28.2295 218.74 28.2295C232.46 28.2295 243.62 39.3895 243.62 53.1095C243.62 66.8295 232.46 77.9895 218.74 77.9895C205.02 77.9895 193.86 66.8295 193.86 53.1095C193.86 50.0095 194.42 47.0495 195.47 44.3195" stroke="black" stroke-width="0.5" stroke-miterlimit="10"/>
<path d="M207.18 47.0405C207.18 47.0405 207.18 47.0205 207.19 47.0105C209.38 42.8805 213.72 40.0605 218.73 40.0605C225.94 40.0605 231.78 45.9105 231.78 53.1105C231.78 60.3105 225.93 66.1605 218.73 66.1605C211.53 66.1605 205.68 60.3205 205.68 53.1105C205.68 51.4805 205.98 49.9305 206.52 48.4905C206.52 48.4705 206.54 48.4505 206.55 48.4205" stroke="black" stroke-miterlimit="10"/>
<path d="M206.66 47.1702C206.71 47.0702 206.76 46.9702 206.81 46.8702C209.06 42.5902 213.56 39.6602 218.73 39.6602C226.15 39.6602 232.19 45.7002 232.19 53.1202C232.19 60.5402 226.16 66.5902 218.73 66.5902C211.3 66.5902 205.27 60.5502 205.27 53.1202C205.27 51.4502 205.57 49.8502 206.14 48.3702" stroke="black" stroke-width="0.5" stroke-miterlimit="10"/>
<path d="M207.39 47.0893C207.39 47.0893 207.32 47.0693 207.28 47.0493L207.19 47.0093L206.81 46.8693L196.46 42.9593L196.08 42.8193L188.05 39.7893L187.67 39.6493L174.73 34.7693L175.37 29.9893C175.39 29.8093 175.3 29.6393 175.13 29.5593L164.9 24.9693C164.75 24.8993 164.57 24.9293 164.46 25.0393C164.34 25.1493 164.29 25.3093 164.34 25.4693L166.42 31.6193L164.89 31.0393C164.46 30.8793 163.99 31.0993 163.83 31.5193C163.67 31.9393 163.89 32.4093 164.31 32.5693L165.9 33.1693L161.12 36.8393C160.99 36.9393 160.93 37.1093 160.98 37.2693C161.02 37.4193 161.15 37.5393 161.31 37.5693L172.78 39.3393C172.78 39.3393 172.82 39.3393 172.84 39.3393C173.01 39.3393 173.16 39.2393 173.22 39.0793L174.3 36.3393L187.05 41.1493L187.43 41.2893L195.45 44.3093L195.83 44.4493L206.14 48.3393L206.52 48.4793L206.82 48.5993" stroke="black" stroke-miterlimit="10"/>
<path d="M207.18 47.0399C207.18 47.0399 207.25 47.0399 207.29 47.0399C207.33 47.0499 207.36 47.0599 207.4 47.0799L214.77 49.8699L215.58 47.4399C215.69 47.1099 216 46.8799 216.35 46.8799H216.36C216.71 46.8799 217.03 47.1199 217.13 47.4599L218.61 52.2499C218.73 52.6299 218.55 53.0399 218.2 53.2199L214.51 55.0599C214.39 55.1199 214.27 55.1499 214.15 55.1499C213.95 55.1499 213.77 55.0799 213.61 54.9499C213.36 54.7299 213.27 54.3899 213.37 54.0699L214.25 51.4099L206.83 48.5999C206.72 48.5599 206.63 48.4999 206.56 48.4199" stroke="black" stroke-miterlimit="10"/>
</g>
<path opacity="0.3" d="M104.72 397.71L113.71 399.76L115.79 390.64L107.16 388.67C107.16 388.41 107.2 388.16 107.2 387.9C107.2 385.04 106.62 382.32 105.57 379.84L112.57 374.26L106.74 366.95L100.04 372.29C97.72 370.28 94.96 368.79 91.91 367.97V359.25H82.56V367.63C79.41 368.24 76.53 369.58 74.07 371.44L67.3 366.04L61.47 373.35L68.08 378.62C66.72 381.31 65.93 384.34 65.88 387.55L57.27 389.52L59.35 398.64L67.85 396.7C69.15 399.45 71.01 401.87 73.32 403.8L69.37 412.01L77.8 416.07L81.69 407.99C83.25 408.37 84.87 408.59 86.54 408.59C87.88 408.59 89.19 408.45 90.46 408.21L94.49 416.58L102.92 412.52L99 404.38C101.35 402.6 103.32 400.34 104.73 397.73L104.72 397.71ZM77.35 387.9C77.35 382.83 81.46 378.72 86.53 378.72C91.6 378.72 95.71 382.83 95.71 387.9C95.71 392.97 91.6 397.08 86.53 397.08C81.46 397.08 77.35 392.97 77.35 387.9Z" stroke="black" stroke-linecap="round" stroke-linejoin="round"/>
<path opacity="0.3" d="M121.95 352.89L129.32 354.57L131.03 347.09L123.95 345.47C123.95 345.26 123.98 345.05 123.98 344.84C123.98 342.49 123.5 340.26 122.64 338.23L128.38 333.65L123.6 327.65L118.11 332.03C116.21 330.38 113.94 329.16 111.44 328.49V321.34H103.77V328.21C101.19 328.71 98.83 329.81 96.81 331.34L91.26 326.91L86.48 332.91L91.9 337.23C90.79 339.44 90.14 341.92 90.09 344.55L83.02 346.16L84.73 353.64L91.7 352.05C92.76 354.31 94.29 356.3 96.19 357.87L92.95 364.6L99.86 367.93L103.05 361.3C104.33 361.61 105.66 361.79 107.03 361.79C108.13 361.79 109.21 361.68 110.25 361.48L113.56 368.35L120.47 365.02L117.26 358.35C119.19 356.89 120.81 355.04 121.96 352.89H121.95ZM99.49 344.85C99.49 340.69 102.86 337.32 107.02 337.32C111.18 337.32 114.55 340.69 114.55 344.85C114.55 349.01 111.18 352.38 107.02 352.38C102.86 352.38 99.49 349.01 99.49 344.85Z" stroke="black" stroke-linecap="round" stroke-linejoin="round"/>
<g opacity="0.3">
<path d="M50.1924 34.5118C54.1975 24.8427 49.6059 13.7575 39.9368 9.75244C30.2676 5.74735 19.1825 10.339 15.1774 20.0081C11.1723 29.6772 15.7639 40.7624 25.4331 44.7675C35.1022 48.7726 46.1873 44.1809 50.1924 34.5118Z" stroke="black" stroke-miterlimit="10"/>
<path d="M38.97 25.9795H26.62C24.21 25.9795 22.25 27.9295 22.25 30.3495V40.7095C25.13 42.9495 28.75 44.2995 32.68 44.2995C36.61 44.2995 40.41 42.8895 43.33 40.5495V30.3495C43.33 27.9395 41.38 25.9795 38.96 25.9795H38.97Z" stroke="black" stroke-miterlimit="10"/>
<path d="M32.5801 24.0698C36.0501 24.0698 38.8601 21.2598 38.8601 17.7898C38.8601 14.3198 36.0501 11.5098 32.5801 11.5098C29.1101 11.5098 26.3 14.3198 26.3 17.7898C26.3 21.2598 29.1101 24.0698 32.5801 24.0698Z" stroke="black" stroke-miterlimit="10"/>
</g>
<g opacity="0.3">
<path d="M167.158 170.746C171.187 161.087 166.623 149.99 156.963 145.962C147.304 141.933 136.208 146.497 132.179 156.157C128.15 165.816 132.715 176.912 142.374 180.941C152.033 184.97 163.13 180.405 167.158 170.746Z" stroke="black" stroke-miterlimit="10"/>
<path d="M155.95 162.169H143.6C141.19 162.169 139.23 164.119 139.23 166.539V176.899C142.11 179.139 145.73 180.489 149.66 180.489C153.59 180.489 157.39 179.079 160.31 176.739V166.539C160.31 164.129 158.36 162.169 155.94 162.169H155.95Z" stroke="black" stroke-miterlimit="10"/>
<path d="M149.56 160.259C153.03 160.259 155.84 157.449 155.84 153.979C155.84 150.509 153.03 147.699 149.56 147.699C146.09 147.699 143.28 150.509 143.28 153.979C143.28 157.449 146.09 160.259 149.56 160.259Z" stroke="black" stroke-miterlimit="10"/>
</g>
<g opacity="0.3">
<path d="M452.17 178.757C456.199 169.097 451.634 158.001 441.975 153.972C432.315 149.944 421.219 154.508 417.19 164.167C413.162 173.827 417.726 184.923 427.385 188.952C437.045 192.981 448.141 188.416 452.17 178.757Z" stroke="black" stroke-miterlimit="10"/>
<path d="M440.95 170.169H428.6C426.19 170.169 424.23 172.119 424.23 174.539V184.899C427.11 187.139 430.73 188.489 434.66 188.489C438.59 188.489 442.39 187.079 445.31 184.739V174.539C445.31 172.129 443.36 170.169 440.94 170.169H440.95Z" stroke="black" stroke-miterlimit="10"/>
<path d="M434.56 168.259C438.03 168.259 440.84 165.449 440.84 161.979C440.84 158.509 438.03 155.699 434.56 155.699C431.09 155.699 428.28 158.509 428.28 161.979C428.28 165.449 431.09 168.259 434.56 168.259Z" stroke="black" stroke-miterlimit="10"/>
</g>
<g opacity="0.3">
<path d="M343.164 26.7469C347.193 17.0876 342.629 5.99129 332.969 1.96259C323.31 -2.06612 312.214 2.49838 308.185 12.1577C304.156 21.817 308.721 32.9134 318.38 36.9421C328.039 40.9708 339.136 36.4062 343.164 26.7469Z" stroke="black" stroke-miterlimit="10"/>
<path d="M331.95 18.1689H319.6C317.19 18.1689 315.23 20.1189 315.23 22.5389V32.8989C318.11 35.1389 321.73 36.4889 325.66 36.4889C329.59 36.4889 333.39 35.0789 336.31 32.7389V22.5389C336.31 20.1289 334.36 18.1689 331.94 18.1689H331.95Z" stroke="black" stroke-miterlimit="10"/>
<path d="M325.56 16.2592C329.03 16.2592 331.84 13.4492 331.84 9.97922C331.84 6.50922 329.03 3.69922 325.56 3.69922C322.09 3.69922 319.28 6.50922 319.28 9.97922C319.28 13.4492 322.09 16.2592 325.56 16.2592Z" stroke="black" stroke-miterlimit="10"/>
</g>
<path d="M369.75 196.83C369.75 196.83 363.35 196.86 356.69 203.82C350.02 210.79 346.31 220.37 347.86 223.21C349.42 226.05 351.17 230.85 351.13 231.96C351.09 233.07 342.17 240.5 344.25 244.2C346.33 247.9 346.8 250.14 344.84 250.34C342.89 250.54 339.45 253.19 339.92 255.15C340.4 257.12 343.66 258.91 342.19 261.08C340.71 263.25 339.62 262.92 339.51 265.7C339.4 268.48 341.96 270.82 340.48 271.17C339 271.52 336.21 271.96 336.96 273.94C337.71 275.92 339.56 278.49 339.56 278.49C339.56 278.49 349.39 290 370.39 293.33C391.39 296.66 412.37 279.14 415.54 276.48C418.7 273.82 419.29 273.01 419.36 271.35C419.43 269.68 418.39 267.7 417.91 265.73C417.43 263.76 418.42 259.91 418.45 259.08C418.48 258.25 416.63 255.95 415.28 254.78C413.94 253.61 413.78 250.55 414.44 247.8C415.1 245.05 412.41 242.99 411.33 242.12C410.25 241.24 409.52 238.71 410.45 236.25C411.38 233.78 408.15 231.16 406.8 229.99C405.46 228.83 405.28 226.32 405.94 223.56C406.6 220.81 403.23 214.83 401.38 212.26C399.53 209.69 397.35 201.54 386.94 197.79C376.53 194.04 369.74 196.83 369.74 196.83H369.75Z" fill="#263238" stroke="#263238" stroke-linecap="round" stroke-linejoin="round"/>
<path d="M346.58 297.22C355.16 302.1 365.08 304.9 375.66 304.9C388.39 304.9 400.17 300.85 409.8 293.98C409.84 288.69 409.85 284.24 409.77 282.33C409.53 276.22 407.85 267.5 405.66 265.72C403.46 263.94 398.88 262.53 392.15 260.66C385.42 258.8 375.28 258.13 375.28 258.13C375.28 258.13 363.3 264.99 355.16 267.71C347.01 270.43 346.66 288.54 346.84 293.06C346.87 293.83 346.76 295.31 346.58 297.22Z" fill="white" stroke="#263238" stroke-linecap="round" stroke-linejoin="round"/>
<path d="M346.58 297.22C355.16 302.1 365.08 304.9 375.66 304.9C388.39 304.9 400.17 300.85 409.8 293.98C409.84 288.69 409.85 284.24 409.77 282.33C409.65 279.24 409.36 280.47 408.62 277.28C404.75 280.91 396.19 286.9 379.34 288.85C363.97 290.63 351.36 284.82 347.43 282.39C346.79 286.91 346.77 291.17 346.84 293.06C346.87 293.83 346.76 295.31 346.58 297.22Z" fill="white" stroke="#263238" stroke-linecap="round" stroke-linejoin="round"/>
<path d="M366.35 274.72C366.35 274.72 366.09 268.08 365.85 261.96C365.61 255.85 364.71 253.22 364.71 253.22C364.71 253.22 369.03 254.65 373.29 254.75C377.55 254.85 383.95 248.21 384.44 247.12C384.93 246.04 385.65 244.14 385.65 244.14C385.65 244.14 386.32 254.5 387.28 258.45C388.23 262.41 388.86 264.78 388.86 264.78" fill="white"/>
<path d="M366.35 274.72C366.35 274.72 366.09 268.08 365.85 261.96C365.61 255.85 364.71 253.22 364.71 253.22C364.71 253.22 369.03 254.65 373.29 254.75C377.55 254.85 383.95 248.21 384.44 247.12C384.93 246.04 385.65 244.14 385.65 244.14C385.65 244.14 386.32 254.5 387.28 258.45C388.23 262.41 388.86 264.78 388.86 264.78" stroke="#263238" stroke-miterlimit="10" stroke-linecap="round"/>
<path d="M370.25 263.8C376.73 260.24 382.31 251.98 382.31 251.98L382.68 249.19C380.38 251.51 376.3 254.82 373.27 254.75C369.01 254.65 364.69 253.22 364.69 253.22C364.69 253.22 365.59 255.85 365.83 261.96C365.88 263.34 365.94 264.73 365.99 266.08C367.04 265.53 368.41 264.8 370.23 263.79L370.25 263.8Z" fill="#263238" stroke="#263238" stroke-linecap="round" stroke-linejoin="round"/>
<path d="M395.04 228.73L390.79 228.43C390.79 228.43 390.8 227.82 390.73 226.8C390.58 226.6 390.42 226.4 390.28 226.21C389.59 225.31 389.3 225.54 388.01 225.1C386.73 224.66 386.48 222.48 386.76 220.37C387.04 218.26 384.47 217.38 381.86 214.89C379.71 212.85 379.22 209.23 379.11 207.98C378.11 207.67 377.12 207.47 376.19 207.36C375.64 208.73 374.45 211.3 372.7 213.13C370.2 215.75 368.39 215.24 367.66 216.75C366.92 218.26 365.36 219.93 364.27 220.06C363.18 220.18 360.54 219.83 360.37 221.15C360.19 222.47 359.12 224.47 358.26 224.89C358.07 224.98 357.84 225.09 357.6 225.21C357.56 228.24 357.75 230.73 357.68 231.25C357.54 232.3 356.63 239.16 359 243.5C361.37 247.84 365.75 257.28 372.61 258.19C379.47 259.1 386.5 250.65 387.87 248.41C389.24 246.18 390.68 239.39 390.68 239.39C390.68 239.39 393.04 237.83 394.74 235.1C396.44 232.38 395.06 228.7 395.06 228.7L395.04 228.73Z" fill="white" stroke="#263238" stroke-linecap="round" stroke-linejoin="round"/>
<path d="M358.44 221.441C358.69 219.591 360.95 216.681 361.74 216.781C362.53 216.891 365.38 215.651 366.08 214.411C366.78 213.171 366.69 211.811 368.08 211.461C369.47 211.111 369.71 209.261 369.71 209.261C369.71 209.261 365.53 212.461 363.28 213.231C361.03 214.001 360.13 214.691 358.94 215.601C358.17 217.621 357.81 220.191 357.67 222.671C358.03 222.491 358.34 222.131 358.43 221.431L358.44 221.441Z" fill="white" stroke="#263238" stroke-linecap="round" stroke-linejoin="round"/>
<path d="M369.71 243.61C369.71 243.61 370.98 246.19 374.39 244.77" stroke="#263238" stroke-linecap="round" stroke-linejoin="round"/>
<path d="M369.19 247.56C369.19 247.56 374.18 250.37 376.82 246.7" stroke="#263238" stroke-linecap="round" stroke-linejoin="round"/>
<path d="M366.03 232.95C365.99 234.05 365.48 234.93 364.9 234.91C364.32 234.89 363.87 233.98 363.91 232.88C363.95 231.78 364.46 230.9 365.04 230.92C365.63 230.94 366.07 231.85 366.03 232.95Z" fill="#263238"/>
<path d="M379.37 233.521C379.33 234.621 378.82 235.501 378.24 235.481C377.66 235.461 377.21 234.551 377.25 233.451C377.29 232.351 377.8 231.471 378.38 231.491C378.97 231.511 379.41 232.421 379.37 233.521Z" fill="#263238"/>
<path d="M361.06 227.96C361.06 227.96 362.69 225.76 366.84 226.85" stroke="#263238" stroke-linecap="round" stroke-linejoin="round"/>
<path d="M376.14 227.56C376.14 227.56 380.6 226.28 383.42 229.33" stroke="#263238" stroke-linecap="round" stroke-linejoin="round"/>
<path d="M367.56 227.49C367.56 227.49 370.5 231.64 370 235.33" stroke="#263238" stroke-linecap="round" stroke-linejoin="round"/>
<path d="M356.25 301.61C356.92 297.04 357.57 292.53 358.12 288.89C359.81 277.64 365.63 263.3 365.63 263.3C363.48 262.85 342.79 271.39 338.41 275.02C336.5 276.6 334.29 280.93 332.25 285.77C338.75 292.87 346.97 298.36 356.25 301.6V301.61Z" fill="#92E3A9" stroke="#263238" stroke-linecap="round" stroke-linejoin="round"/>
<path d="M425.57 277.23C422.34 273.42 418.35 270.53 415.05 269.21C412.12 267.16 408.86 265.67 406.67 264.62C402.06 262.41 389.71 259.7 389.71 259.7C389.71 259.7 388.6 291.44 390.32 303.05C405.12 299.25 417.66 289.85 425.56 277.24L425.57 277.23Z" fill="#92E3A9" stroke="#263238" stroke-linecap="round" stroke-linejoin="round"/>
<path d="M417.289 287.656C440.279 264.666 440.279 227.391 417.289 204.401C394.298 181.411 357.024 181.411 334.034 204.401C311.044 227.391 311.044 264.666 334.034 287.656C357.024 310.646 394.298 310.646 417.289 287.656Z" stroke="#263238" stroke-miterlimit="10"/>
<path d="M388.85 159.831C420.536 152.545 440.316 120.951 433.03 89.2654C425.743 57.5793 394.15 37.7993 362.464 45.0855C330.778 52.3717 310.998 83.965 318.284 115.651C325.57 147.337 357.164 167.117 388.85 159.831Z" fill="#92E3A9"/>
<path d="M375.66 161.319C394.13 161.319 410.61 152.809 421.41 139.489L398.06 121.249L381.06 116.419V115.749L376.81 116.079L372.56 115.749V116.419L355.56 117.749L329.08 138.439C339.85 152.359 356.7 161.319 375.66 161.319Z" fill="white" stroke="#263238" stroke-miterlimit="10"/>
<path d="M360.06 114.26C360.06 114.26 355.56 115.26 354.06 115.26C352.56 115.26 347.06 139.76 347.06 139.76L366.06 133.76L374.06 141.76L380.56 134.26L399.56 142.76C399.56 142.76 398.06 119.76 398.06 116.76C398.06 113.76 380.56 109.76 380.56 109.76L360.06 114.26Z" fill="white" stroke="#263238" stroke-miterlimit="10"/>
<path d="M357.56 104.26L359.56 121.76L373.06 135.26L388.56 119.76L389.56 99.7598L357.56 104.26Z" fill="#D4D4D4" stroke="#263238" stroke-miterlimit="10"/>
<path d="M388.87 113.45L389.56 99.7598L387.79 100.01L367.81 114.36L388.87 113.45Z" fill="#263238" stroke="#263238" stroke-miterlimit="10"/>
<path d="M378.73 53.3593C378.73 53.3593 393.74 57.2093 394.7 63.9693C395.65 70.7293 394.9 84.7993 394.9 84.7993C394.9 84.7993 398.11 78.7293 400.12 84.3193C402.12 89.9093 398.45 93.5793 397.17 93.9793C395.89 94.3793 394.18 94.3393 394.18 94.3393C394.18 94.3393 390.04 103.799 387.77 105.629C385.51 107.449 377.06 114.849 373.71 115.879C370.36 116.909 364.55 117.289 362.88 115.539C361.21 113.789 354.41 101.779 354.21 99.2993C354.01 96.8193 352.48 74.4293 352.72 71.5293C352.96 68.6293 351.55 63.1393 357.74 57.5693C363.93 51.9993 378.74 53.3593 378.74 53.3593H378.73Z" fill="#D4D4D4" stroke="#263238" stroke-miterlimit="10"/>
<path d="M357.73 57.5693C363.92 51.9993 378.73 53.3593 378.73 53.3593C378.73 53.3593 393.74 57.2093 394.7 63.9693C395.65 70.7293 394.9 84.7993 394.9 84.7993C394.9 84.7993 393.29 87.8293 391.61 86.9393C389.92 86.0493 392.74 78.6893 392.74 78.6893C392.74 78.6893 391.77 76.4493 390.97 73.8693C390.18 71.2893 390.59 68.0593 391.6 64.9193C392.61 61.7893 385 55.3793 380.89 55.7993C376.78 56.2193 371.51 59.2493 367.94 58.6593C364.37 58.0693 363.74 55.9993 363.74 55.9993C363.74 55.9993 362.81 55.7193 359.46 56.7493C358.86 56.9293 358.27 57.2393 357.69 57.6093C357.71 57.5993 357.72 57.5793 357.74 57.5693H357.73Z" fill="#263238" stroke="#263238" stroke-miterlimit="10"/>
<path d="M370.43 77.3791L388.18 79.1091C388.18 79.1091 388.72 85.3791 387.76 87.0291C386.8 88.6791 385.25 90.1991 380.61 90.5891C375.97 90.9791 371.11 89.4691 370.56 87.3791C370.01 85.2891 370.43 77.3691 370.43 77.3691V77.3791Z" stroke="#263238" stroke-width="2" stroke-miterlimit="10" stroke-linecap="round"/>
<path d="M365.44 77.2793H347.6C347.6 77.2793 346.45 83.4693 347.25 85.2093C348.05 86.9393 349.44 88.6093 354.02 89.4493C358.6 90.2893 363.59 89.2593 364.34 87.2293C365.09 85.1993 365.44 77.2793 365.44 77.2793Z" stroke="#263238" stroke-width="2" stroke-miterlimit="10" stroke-linecap="round"/>
<path d="M370.43 77.3791C370.43 77.3791 367.55 76.0291 365.44 77.2691" stroke="#263238" stroke-width="2" stroke-miterlimit="10" stroke-linecap="round"/>
<path d="M370.15 80.049C370.15 80.049 367.3 77.949 365.26 79.739" stroke="#263238" stroke-width="2" stroke-miterlimit="10" stroke-linecap="round"/>
<path d="M388.19 79.1191L395.25 84.5091" stroke="#263238" stroke-width="2" stroke-miterlimit="10" stroke-linecap="round"/>
<path d="M347.6 77.2793L352.69 79.3293" stroke="#263238" stroke-width="2" stroke-miterlimit="10" stroke-linecap="round"/>
<path d="M374.9 85.8694C375.09 86.4894 375.75 86.8394 376.37 86.6494C376.99 86.4594 377.34 85.7994 377.15 85.1794C376.96 84.5594 376.3 84.2094 375.68 84.3994C375.06 84.5894 374.71 85.2494 374.9 85.8694Z" fill="#263238"/>
<path d="M356.66 85.1389C356.85 85.7589 357.51 86.1089 358.13 85.9189C358.75 85.7289 359.1 85.0689 358.91 84.4489C358.72 83.8289 358.06 83.4789 357.44 83.6689C356.82 83.8589 356.47 84.5189 356.66 85.1389Z" fill="#263238"/>
<path d="M374.11 73.1295C374.11 73.1295 379.17 69.7595 382.73 75.0195" stroke="#263238" stroke-width="2" stroke-miterlimit="10" stroke-linecap="round"/>
<path d="M362.83 74.7789C362.83 74.7789 360.59 71.7089 355.18 75.1889" stroke="#263238" stroke-width="2" stroke-miterlimit="10" stroke-linecap="round"/>
<path d="M365.47 84.209C365.47 84.209 364.86 88.549 363.62 89.569C362.38 90.599 359.28 92.719 361.45 93.479C363.62 94.239 368 94.959 369.66 94.449C371.32 93.939 371.51 92.459 371.51 92.459" stroke="#263238" stroke-miterlimit="10"/>
<path d="M365.57 100.119C365.57 100.119 369.7 101.309 374.2 99.5389C378.71 97.7589 378.88 95.3789 378.88 95.3789" stroke="#263238" stroke-miterlimit="10"/>
<path d="M377.61 94.5996L380.67 96.1196" stroke="#263238" stroke-miterlimit="10"/>
<path d="M388.85 159.831C420.536 152.545 440.316 120.951 433.03 89.2654C425.743 57.5793 394.15 37.7993 362.464 45.0855C330.778 52.3717 310.998 83.965 318.284 115.651C325.57 147.337 357.164 167.117 388.85 159.831Z" stroke="#263238" stroke-miterlimit="10"/>
<path d="M85.66 161.86C118.173 161.86 144.53 135.503 144.53 102.99C144.53 70.4771 118.173 44.1201 85.66 44.1201C53.147 44.1201 26.79 70.4771 26.79 102.99C26.79 135.503 53.147 161.86 85.66 161.86Z" stroke="#263238" stroke-miterlimit="10"/>
<path d="M96.59 63.0199C96.59 63.0199 100.49 65.2499 104.2 62.8299C107.91 60.4199 105.31 59.3099 104.57 57.8199C103.83 56.3399 105.68 55.9599 106.05 53.9199C106.42 51.8799 105.12 50.2099 104.38 50.0199C103.64 49.8299 103.82 47.7899 103.82 45.7499C103.82 43.7099 101.41 41.8499 100.3 41.8499C99.19 41.8499 98.44 40.3699 97.7 38.5099C96.96 36.6499 95.47 34.9899 92.88 36.0999C90.29 37.2099 88.98 37.2099 87.69 35.3599C86.39 33.4999 83.24 33.1299 82.12 34.0599C81.01 34.9899 80.45 36.8399 78.22 34.9899C75.99 33.1299 73.21 33.5099 71.91 34.7999C70.61 36.0999 70.8 37.5799 68.76 36.8399C66.72 36.0999 63.38 37.2099 62.64 39.4399C61.9 41.6699 57.82 44.0799 56.33 43.5199C54.85 42.9599 52.25 43.5199 53.55 46.2999C54.85 49.0799 53.36 50.9399 52.25 50.9399C51.14 50.9399 48.73 51.6799 50.02 54.0899C51.32 56.4999 52.25 58.3599 50.76 59.0999C49.28 59.8399 46.86 60.0299 48.72 63.1799C50.58 66.3299 52.06 66.1499 51.5 67.9999C50.94 69.8599 49.83 70.4099 51.5 71.7099C53.17 73.0099 55.21 73.5699 55.21 74.6799C55.21 75.7899 52.98 76.3499 55.58 77.2799C58.18 78.2099 60.22 78.3899 60.22 78.3899C60.22 78.3899 63.93 68.3699 74.5 65.0299C85.07 61.6899 91.2 62.0599 93.61 63.3599C96.02 64.6599 96.58 62.9899 96.58 62.9899L96.59 63.0199Z" fill="#263238" stroke="#263238" stroke-linecap="round" stroke-linejoin="round"/>
<path d="M85.66 161.86C81.09 161.86 76.65 161.33 72.38 160.35C70.03 148.13 67.74 135.8 67.74 135.8C67.74 135.8 77.78 133.04 80.8 132.54C83.81 132.04 92.85 131.03 92.85 131.03L106.41 137.31C106.41 137.31 108.03 146.26 109.65 156.76C102.32 160.04 94.2 161.86 85.66 161.86Z" fill="white" stroke="#263238" stroke-miterlimit="10"/>
<path d="M68.6101 140.45L106.18 137.2L106.4 137.3C106.4 137.3 106.72 139.09 107.23 142.01L69.5101 145.27C69.1701 143.46 68.8601 141.83 68.6001 140.45H68.6101Z" fill="#263238"/>
<path d="M70.8801 152.46L108.45 149.21C108.7 150.74 108.96 152.36 109.23 154.05L71.8001 157.29C71.4901 155.66 71.1801 154.04 70.8801 152.47V152.46Z" fill="#263238"/>
<path d="M94.86 124C94.86 124 97.62 134.55 97.87 140.07C98.12 145.59 92.35 150.11 84.06 149.36C75.77 148.61 74.27 139.57 74.27 137.31C74.27 135.05 73.77 115.97 73.77 115.97C73.77 115.97 77.79 119.49 82.56 122.5C87.33 125.51 94.86 124.01 94.86 124.01V124Z" fill="#B5B5B5" stroke="#263238" stroke-miterlimit="10"/>
<path d="M87.33 133.04C79.48 129.28 75.58 121.9 73.8 117.21C73.78 116.43 73.77 115.96 73.77 115.96C73.77 115.96 77.79 119.48 82.56 122.49C87.33 125.5 94.86 124 94.86 124C94.86 124 96.59 130.59 97.43 136.08C94.57 135.75 91.17 134.88 87.32 133.04H87.33Z" fill="#263238" stroke="#263238" stroke-miterlimit="10"/>
<path d="M106.18 91.18C106.18 91.18 110.18 85.98 110.98 93.18C111.78 100.38 104.18 107.58 104.18 107.58V91.18" fill="#B5B5B5"/>
<path d="M106.18 91.18C106.18 91.18 110.18 85.98 110.98 93.18C111.78 100.38 104.18 107.58 104.18 107.58V91.18" stroke="#263238" stroke-linecap="round" stroke-linejoin="round"/>
<path d="M60.4401 83.69C60.4401 83.69 60.7601 72.55 64.8901 66.19C69.0201 59.83 77.7501 55.92 87.4801 57.6C99.5501 59.68 104.98 68.74 106.89 76.37C108.8 84.01 106.57 95.14 106.57 102.78C106.57 110.42 97.6601 124.1 95.1201 126.33C92.5801 128.56 88.6501 129.3 84.1601 127.02C80.0401 124.93 73.2701 117.8 69.1301 113.66C64.9901 109.52 62.5301 97.23 61.8901 94.37C61.2501 91.51 60.4301 83.69 60.4301 83.69H60.4401Z" fill="#B5B5B5" stroke="#263238" stroke-linecap="round" stroke-linejoin="round"/>
<path d="M94.1701 105.32C94.1701 105.32 94.5401 107.73 88.9801 107.36" stroke="#263238" stroke-linecap="round" stroke-linejoin="round"/>
<path d="M95.8401 111.63C95.8401 111.63 89.3501 116.08 82.8501 111.82" stroke="#263238" stroke-linecap="round" stroke-linejoin="round"/>
<path d="M95.8401 95.1102C95.8401 96.4402 96.4601 97.5202 97.2301 97.5202C98.0001 97.5202 98.6201 96.4402 98.6201 95.1102C98.6201 93.7802 98.0001 92.7002 97.2301 92.7002C96.4601 92.7002 95.8401 93.7802 95.8401 95.1102Z" fill="#263238"/>
<path d="M81.3601 96.2997C81.3601 97.6297 81.9801 98.7096 82.7501 98.7096C83.5201 98.7096 84.1401 97.6297 84.1401 96.2997C84.1401 94.9697 83.5201 93.8896 82.7501 93.8896C81.9801 93.8896 81.3601 94.9697 81.3601 96.2997Z" fill="#263238"/>
<path d="M101.78 87.5098C101.78 87.5098 100.11 83.7998 94.54 85.6498" stroke="#263238" stroke-linecap="round" stroke-linejoin="round"/>
<path d="M85.2701 87.1402C85.2701 87.1402 80.0801 84.3602 74.3201 88.6202" stroke="#263238" stroke-linecap="round" stroke-linejoin="round"/>
<path d="M44.7101 145.27C44.8301 143.59 44.6301 140.64 46.6601 139.52C48.0301 138.76 57.6401 136.53 65.0401 134.89C69.8901 133.82 73.7801 132.99 73.7801 132.99C73.7801 132.99 74.7301 147.24 75.7801 161.02C63.8101 159 53.0601 153.36 44.7101 145.26V145.27Z" fill="#92E3A9" stroke="#263238" stroke-miterlimit="10"/>
<path d="M110.71 156.28C109.39 147.79 107.3 139.36 106.11 134.9C113.51 136.55 123.12 138.77 124.49 139.53C126.58 140.68 126.31 143.77 126.45 145.42C121.85 149.84 116.54 153.52 110.7 156.28H110.71Z" fill="#92E3A9" stroke="#263238" stroke-miterlimit="10"/>
<path d="M65.48 158.3C64.79 145.81 65.04 134.89 65.04 134.89C69.89 133.82 73.78 132.99 73.78 132.99C73.78 132.99 74.73 147.24 75.78 161.02C72.23 160.42 68.78 159.5 65.48 158.29V158.3Z" fill="#92E3A9" stroke="#263238" stroke-miterlimit="10"/>
<path d="M87.4801 57.5998C99.5501 59.6798 104.98 68.7398 106.89 76.3698C107.23 77.7198 107.43 79.1898 107.55 80.7298C107.08 79.9898 106.5 79.1998 105.78 78.3798C100.18 71.9798 95.7801 69.1798 95.7801 69.1798C95.7801 69.1798 94.1801 73.1798 84.9801 77.9798C75.7801 82.7798 63.3801 82.3798 63.3801 82.3798C63.3801 82.3798 65.7801 83.1798 63.7801 87.5798C62.9201 89.4798 62.1301 91.0798 61.5101 92.2898C60.9701 88.8198 60.4301 83.6998 60.4301 83.6998C60.4301 83.6998 60.7501 72.5598 64.8801 66.1998C69.0201 59.8398 77.7401 55.9298 87.4701 57.6098L87.4801 57.5998Z" fill="#263238" stroke="#263238" stroke-linecap="round" stroke-linejoin="round"/>
<path d="M64.59 98.7798C64.59 98.7798 62.19 89.5798 58.19 93.9798C54.19 98.3798 58.99 104.78 61.39 107.98C63.79 111.18 67.79 108.78 67.79 108.78" fill="#B5B5B5"/>
<path d="M64.59 98.7798C64.59 98.7798 62.19 89.5798 58.19 93.9798C54.19 98.3798 58.99 104.78 61.39 107.98C63.79 111.18 67.79 108.78 67.79 108.78" stroke="#263238" stroke-linecap="round" stroke-linejoin="round"/>
<path d="M97.36 132.86L101.34 159.68C101.34 159.68 109.74 157.32 112.54 155.26L107.24 134.63C107.24 134.63 103.7 133.01 97.37 132.86H97.36Z" fill="#92E3A9" stroke="#263238" stroke-miterlimit="10"/>
<path d="M98.6467 304.583C130.357 297.402 150.241 265.874 143.06 234.164C135.879 202.454 104.352 182.569 72.6417 189.75C40.9317 196.932 21.047 228.459 28.2281 260.169C35.4091 291.879 66.9366 311.764 98.6467 304.583Z" fill="#92E3A9"/>
<path d="M85.66 306.02C102.92 306.02 118.43 298.58 129.19 286.75L100.63 271.28L97.79 257.1L77.58 252.14L76.87 271.29L43.23 287.95C53.94 299.09 68.98 306.03 85.66 306.03V306.02Z" fill="white" stroke="#263238" stroke-miterlimit="10"/>
<path d="M77.04 266.78L95.31 263.48L90.45 255.3L77.59 252.14L77.04 266.78Z" fill="#263238" stroke="#263238" stroke-miterlimit="10"/>
<path d="M106.01 212.59C106.01 212.59 85.4799 201.27 75.7499 202.06C66.0099 202.85 51.2799 223.11 49.4299 232.85C47.5899 242.59 57.0599 247.85 57.5899 248.64C58.1199 249.43 49.6999 248.9 50.4799 255.22C51.2699 261.54 61.2699 262.59 67.0599 261.54C72.8499 260.49 76.7999 253.12 76.7999 252.07C76.7999 251.02 74.1699 243.91 74.1699 243.91C74.1699 243.91 79.6999 244.44 80.4899 239.7C81.2799 234.96 85.7499 224.44 91.8099 224.17C97.8599 223.91 102.6 224.7 103.13 226.01C103.66 227.33 104.18 232.33 104.18 232.33C104.18 232.33 111.02 233.91 116.55 229.17C122.08 224.43 124.18 211.54 116.81 208.91C109.44 206.28 106.02 212.59 106.02 212.59H106.01Z" fill="#263238" stroke="#263238" stroke-linecap="round" stroke-linejoin="round"/>
<path d="M71.68 239.54L61.1 245.55C61.1 245.55 65.1 250.41 66.82 250.98C68.54 251.55 71.4 250.69 71.4 250.69C71.4 250.69 76.26 256.41 79.98 258.98C83.7 261.55 92.56 266.41 97.42 264.7C102.28 262.98 109.43 250.12 108.86 245.83C108.29 241.54 105.71 234.68 106 231.25C106.29 227.82 106.86 222.39 106.86 222.39C106.86 222.39 95.14 216.67 85.7 222.1C76.26 227.53 76.84 237.54 71.69 239.54H71.68Z" fill="white" stroke="#263238" stroke-linecap="round" stroke-linejoin="round"/>
<path d="M97.4199 234.391L97.7099 237.821C97.7099 237.821 105.14 238.681 102.29 241.251C99.4299 243.821 95.4299 244.401 95.4299 244.401" stroke="#263238" stroke-linecap="round" stroke-linejoin="round"/>
<path d="M83.6899 232.1C83.6899 232.1 86.5499 229.24 89.9799 229.53" stroke="#263238" stroke-linecap="round" stroke-linejoin="round"/>
<path d="M98.5599 228.67C98.5599 228.67 101.42 227.53 104.28 229.81" stroke="#263238" stroke-linecap="round" stroke-linejoin="round"/>
<path d="M88.9299 239.02C89.6148 239.02 90.1699 238.048 90.1699 236.85C90.1699 235.651 89.6148 234.68 88.9299 234.68C88.2451 234.68 87.6899 235.651 87.6899 236.85C87.6899 238.048 88.2451 239.02 88.9299 239.02Z" fill="#263238"/>
<path d="M102.98 235.53C102.98 236.73 102.42 237.7 101.74 237.7C101.06 237.7 100.5 236.73 100.5 235.53C100.5 234.33 101.05 233.36 101.74 233.36C102.43 233.36 102.98 234.33 102.98 235.53Z" fill="#263238"/>
<path d="M102.05 247.88C102.05 247.88 95.31 251.78 89.29 247.53" stroke="#263238" stroke-linecap="round" stroke-linejoin="round"/>
<path d="M85.66 306.02C102.92 306.02 118.43 298.58 129.2 286.74L109.88 275.56L103.12 294.67L79.72 295.02L64.47 277.65L64.09 277.6L43.24 287.92C53.95 299.06 68.99 306 85.67 306L85.66 306.02Z" fill="#263238" stroke="#263238" stroke-miterlimit="10"/>
<path d="M98.6467 304.583C130.357 297.402 150.241 265.874 143.06 234.164C135.879 202.454 104.352 182.569 72.6417 189.75C40.9317 196.932 21.047 228.459 28.2281 260.169C35.4091 291.879 66.9366 311.764 98.6467 304.583Z" stroke="#263238" stroke-miterlimit="10"/>
<path d="M232.09 127.899C232.09 127.899 233.85 131.429 234.86 135.209C235.87 138.989 235.62 141.759 237.88 143.529C240.15 145.289 242.67 145.799 242.16 148.069C241.65 150.339 239.64 150.839 239.64 150.839C239.64 150.839 238.38 162.179 237.88 166.209C237.38 170.239 224.02 166.209 224.02 166.209L221.5 179.059L205.12 180.069L203.36 166.209C203.36 166.209 196.81 158.399 195.04 146.809C193.28 135.219 199.83 121.609 213.69 121.609C227.55 121.609 232.09 127.909 232.09 127.909V127.899Z" fill="white" stroke="#263238" stroke-miterlimit="10"/>
<path d="M238.64 157.129C238.64 157.129 235.62 158.139 233.85 156.119" stroke="#263238" stroke-miterlimit="10"/>
<path d="M234.36 140.249L235.36 143.519" stroke="#263238" stroke-miterlimit="10"/>
<path d="M234.36 138.229C234.36 138.229 232.34 138.229 232.34 140.249" stroke="#263238" stroke-miterlimit="10"/>
<path d="M197.57 186.36C197.57 186.36 203.62 178.3 204.63 178.04C205.64 177.78 216.73 175.27 222.02 176.53C227.31 177.79 228.57 180.31 232.6 181.32C236.63 182.33 241.17 180.82 241.17 180.82C241.17 180.82 239.41 183.59 237.14 184.6C234.87 185.61 232.6 186.36 231.34 186.36C230.08 186.36 228.32 187.37 222.02 186.11C215.72 184.85 204.88 184.6 204.88 184.6L197.57 186.36Z" fill="white" stroke="#263238" stroke-miterlimit="10"/>
<path d="M306.93 181.57C306.93 181.57 309.7 171.99 310.96 169.98C312.22 167.96 315.24 165.19 317.01 164.18C318.77 163.17 325.58 159.14 327.34 159.14C329.1 159.14 330.05 161.12 328.6 161.91C327.69 162.41 323.31 164.18 322.8 164.93C322.3 165.69 320.78 166.95 320.78 166.95L324.81 167.96C324.81 167.96 326.32 170.73 327.08 171.99C327.84 173.25 328.59 174.51 327.58 176.27C326.57 178.03 325.31 180.81 323.8 181.56C322.29 182.32 323.04 178.79 323.04 178.79C323.04 178.79 320.02 181.81 318.5 183.07C316.99 184.33 314.97 185.34 314.97 185.34L314.21 187.36L306.9 181.56L306.93 181.57Z" fill="white" stroke="#263238" stroke-miterlimit="10"/>
<path d="M186.19 259.37C186.19 259.37 191.17 259.33 192.3 259.26C193.43 259.19 195.6 258.28 196.33 258.28C197.06 258.28 197.42 263.35 195.61 267.69C193.8 272.03 189.09 274.39 189.09 274.39L183.3 268.24C183.3 268.24 185.83 262.27 186.2 259.37H186.19Z" fill="white" stroke="#263238" stroke-miterlimit="10"/>
<path d="M190.63 349.92C190.63 349.92 188.3 363.25 189.96 375.59C191.63 387.92 200.96 435.92 200.96 435.92L197.29 449.92C197.29 449.92 193.29 452.25 195.29 453.25C197.29 454.25 206.96 453.25 206.96 453.25C206.96 453.25 208.29 447.25 209.29 444.25C210.29 441.25 213.29 439.25 211.96 435.58C210.63 431.91 209.63 428.25 209.63 428.25L214.3 356.92L190.63 349.92Z" fill="white" stroke="#263238" stroke-miterlimit="10"/>
<path d="M211.12 433.159C209.55 433.049 206.22 433.159 204.96 435.919C203.29 439.589 199.63 448.589 199.63 448.589L195.96 450.919L195.61 451.159C194.83 451.879 194.27 452.739 195.3 453.259C197.3 454.259 206.97 453.259 206.97 453.259C206.97 453.259 208.3 447.259 209.3 444.259C210.3 441.259 213.3 439.259 211.97 435.589C211.67 434.769 211.39 433.939 211.13 433.159H211.12Z" fill="#263238" stroke="#263238" stroke-miterlimit="10"/>
<path d="M206.63 439.26L208.13 453.26H210.46L211.63 438.09C211.63 438.09 207.63 435.26 206.63 439.26Z" fill="#263238" stroke="#263238" stroke-miterlimit="10"/>
<path d="M233.63 354.59L239.63 367.26C239.63 367.26 240.63 385.46 245.29 396.46C249.96 407.46 259.29 425.13 259.29 425.13L262.29 430.46C262.29 430.46 257.96 435.46 259.29 438.46C260.62 441.46 266.29 443.13 268.62 445.13C270.95 447.13 271.45 453.26 274.12 453.26C276.79 453.26 284.12 453.93 284.79 452.26C285.46 450.59 281.12 448.59 281.12 448.59C281.12 448.59 274.7 436.42 274.04 434.76C273.37 433.09 263.29 376.59 262.62 369.93C261.95 363.26 259.95 351.6 259.95 351.6L233.62 354.6L233.63 354.59Z" fill="white" stroke="#263238" stroke-miterlimit="10"/>
<path d="M275.13 448.92C275.13 448.92 269.96 440.79 267.3 437.12C264.96 433.9 261.58 432.73 260.8 432.5C259.7 434.22 258.51 436.68 259.3 438.45C260.63 441.45 265.97 443.11 267.59 445.72C269.85 449.36 271.46 453.25 274.13 453.25C276.8 453.25 284.13 453.92 284.8 452.25C285.47 450.58 281.13 448.58 281.13 448.58C280.13 448.25 275.13 448.91 275.13 448.91V448.92Z" fill="#263238" stroke="#263238" stroke-miterlimit="10"/>
<path d="M259.3 439.71L260.45 453.76H262.58L263.8 443.26C263.8 443.26 264.05 438.66 259.3 439.71Z" fill="#263238" stroke="#263238" stroke-miterlimit="10"/>
<path d="M192.3 259.26C192.3 259.26 184.3 276.26 182.3 288.26C180.3 300.26 183.8 322.26 183.8 322.26L182.3 352.26C182.3 352.26 211.3 359.76 231.3 359.76C251.3 359.76 267.8 354.76 267.8 354.76C267.8 354.76 268.3 322.26 264.3 306.76C260.3 291.26 251.3 265.26 250.8 263.76C250.3 262.26 246.8 257.76 246.8 257.76C246.8 257.76 214.8 264.26 192.3 259.26Z" fill="#263238" stroke="#263238" stroke-miterlimit="10"/>
<path d="M200.16 307.37L231.62 336.09" stroke="#707070" stroke-miterlimit="10"/>
<path d="M210.42 325.83L224.78 337.46" stroke="#707070" stroke-miterlimit="10"/>
<path d="M200.34 185.86C200.34 185.86 180.68 193.92 179.93 196.19C179.17 198.46 173.38 210.81 173.38 210.81C173.38 210.81 149.69 247.1 150.2 248.86C150.7 250.62 177.92 267.26 177.92 267.26C177.92 267.26 177.16 268.02 177.92 268.52C178.68 269.02 184.47 270.54 184.47 270.54C184.47 270.54 188.5 266.76 188.5 263.23C188.5 259.7 187.49 258.19 186.74 257.94C185.98 257.69 182.46 255.67 182.46 255.67L181.45 255.42L170.61 243.83L184.22 224.93C184.22 224.93 196.32 246.6 196.32 249.37C196.32 252.14 190.27 258.69 191.53 261.72C192.79 264.74 197.33 265.5 214.97 267.26C232.61 269.02 247.48 263.23 248.99 261.97C250.5 260.71 246.47 252.9 246.47 247.1C246.47 241.3 246.72 220.14 246.72 220.14C246.72 220.14 272.17 230.72 277.21 227.95C282.25 225.18 312.74 192.17 312.74 192.17L317.28 187.89L307.2 178.57L300.4 184.62L271.17 207.8C271.17 207.8 269.66 206.29 268.9 206.29C268.14 206.29 266.63 206.54 266.63 206.54C266.63 206.54 247.48 193.44 245.21 191.42C242.94 189.4 236.64 189.15 236.64 189.15L224.29 186.88C224.29 186.88 210.68 181.34 200.35 185.87L200.34 185.86Z" fill="white" stroke="#263238" stroke-miterlimit="10"/>
<path d="M246.7 220.129L231.33 217.359" stroke="#263238" stroke-miterlimit="10"/>
<path d="M242.67 219.62L228.56 223.91" stroke="#263238" stroke-miterlimit="10"/>
<path d="M231.11 253.64C231.9 252.77 232.65 251.84 233.35 250.87" stroke="#263238" stroke-miterlimit="10"/>
<path d="M211.68 266.24C211.68 266.24 221.06 263.17 228.73 256.05" stroke="#263238" stroke-miterlimit="10"/>
<path d="M233.6 245.33C233.6 245.33 227.8 248.61 221.76 252.13" stroke="#263238" stroke-miterlimit="10"/>
<path d="M179.78 213.58L184.21 224.92C184.21 224.92 175.64 218.12 174.63 215.09" stroke="#263238" stroke-miterlimit="10"/>
<path d="M177.91 208.79L178.78 211.01" stroke="#263238" stroke-miterlimit="10"/>
<path d="M169.34 222.899C169.34 222.899 173.88 225.169 180.93 223.399" stroke="#263238" stroke-miterlimit="10"/>
<path d="M169.34 243.06C169.34 243.06 164.05 244.07 159.26 242.56" stroke="#263238" stroke-miterlimit="10"/>
<path d="M162.54 239.28C162.54 239.28 166.32 241.04 169.09 241.04" stroke="#263238" stroke-miterlimit="10"/>
<path d="M181.44 255.41C181.44 255.41 183.96 264.99 177.91 267.25Z" fill="white"/>
<path d="M181.44 255.41C181.44 255.41 183.96 264.99 177.91 267.25" stroke="#263238" stroke-miterlimit="10"/>
<path d="M302.14 183.09L312.73 192.16" stroke="#263238" stroke-miterlimit="10"/>
<path d="M265.88 214.609C265.3 215.199 264.69 215.789 264.09 216.349" stroke="#263238" stroke-miterlimit="10"/>
<path d="M271.15 208.79C271.15 208.79 269.75 210.49 267.83 212.57" stroke="#263238" stroke-miterlimit="10"/>
<path d="M267.87 207.78C267.87 207.78 263.84 211.81 260.06 213.83" stroke="#263238" stroke-miterlimit="10"/>
<path d="M232.82 122.91C232.82 122.91 234.61 127.55 231.03 139.34C227.46 151.13 224.24 158.98 226.03 166.49C227.82 174 232.1 175.42 232.82 174.35C233.54 173.28 235.32 171.85 235.32 171.85C235.32 171.85 236.03 174.71 232.82 177.21C229.61 179.71 217.1 182.21 209.25 181.14C201.39 180.07 196.39 183.28 193.53 176.5C190.67 169.71 192.1 159 191.39 154.71C190.68 150.42 183.53 144.71 188.53 131.85C193.53 118.99 213.53 117.56 220.32 117.56C227.11 117.56 231.75 115.42 232.82 122.92V122.91Z" fill="#263238" stroke="#263238" stroke-miterlimit="10"/>
<path d="M316.79 119.56C326.234 119.56 333.89 111.904 333.89 102.46C333.89 93.0163 326.234 85.3604 316.79 85.3604C307.346 85.3604 299.69 93.0163 299.69 102.46C299.69 111.904 307.346 119.56 316.79 119.56Z" fill="white" stroke="#263238" stroke-miterlimit="10"/>
<path d="M309.89 98.2599L317.23 106.26L331.89 84.9199" stroke="#263238" stroke-width="3" stroke-linecap="round" stroke-linejoin="round"/>
<path d="M43.323 259.247C50.001 252.569 50.001 241.742 43.323 235.064C36.6451 228.386 25.818 228.386 19.14 235.064C12.462 241.742 12.462 252.569 19.14 259.247C25.818 265.925 36.6451 265.925 43.323 259.247Z" fill="white" stroke="#263238" stroke-miterlimit="10"/>
<path d="M24.3301 242.96L31.6601 250.96L46.3301 229.62" stroke="#263238" stroke-width="3" stroke-linecap="round" stroke-linejoin="round"/>
<path d="M75.5601 453.7H439.56" stroke="#263238" stroke-miterlimit="10"/>
<path d="M35.5601 453.7H64.5601" stroke="#263238" stroke-miterlimit="10"/>
</g>
<defs>
<clipPath id="clip0_324_958">
<rect width="462.85" height="454.26" fill="white"/>
</clipPath>
</defs>
</svg>
