<svg width="463" height="455" viewBox="0 0 463 455" fill="none" xmlns="http://www.w3.org/2000/svg">
<g clip-path="url(#clip0_417_421)">
<path d="M454 205.219C438.87 132.039 390.96 69.8392 323.96 36.7492C316.93 33.2792 309.47 29.7792 301.56 26.2592C202.56 -17.7408 145.56 20.2592 116.56 64.2592C87.56 108.259 51.56 184.259 28.56 221.259C5.56002 258.259 -24.44 336.259 33.56 390.259C91.56 444.259 146.56 426.259 184.56 411.259C222.56 396.259 260.56 409.259 330.56 409.259C400.56 409.259 458.56 355.259 462.56 288.259C464.02 263.739 459.86 233.589 454 205.219Z" fill="#FCD34D"/>
<path opacity="0.7" d="M454 205.219C438.87 132.039 390.96 69.8392 323.96 36.7492C316.93 33.2792 309.47 29.7792 301.56 26.2592C202.56 -17.7408 145.56 20.2592 116.56 64.2592C87.56 108.259 51.56 184.259 28.56 221.259C5.56002 258.259 -24.44 336.259 33.56 390.259C91.56 444.259 146.56 426.259 184.56 411.259C222.56 396.259 260.56 409.259 330.56 409.259C400.56 409.259 458.56 355.259 462.56 288.259C464.02 263.739 459.86 233.589 454 205.219Z" fill="white"/>
<path d="M421.21 317C418.09 316.66 414.39 320.93 413.25 323.49C413.15 323.71 412.01 327.34 412.07 327.34C412.07 327.34 412.12 327.34 412.14 327.34C411.55 328.01 410.93 328.73 410.26 329.54C409.05 331.03 407.69 332.72 406.34 334.66C406.32 331.65 405.78 325.39 401.8 325.01C396.55 324.51 395.05 330.51 398.3 333.76C400.58 336.04 403.59 336.35 405.19 336.33C404.18 337.83 403.17 339.45 402.23 341.2C400.93 343.61 399.68 346.21 398.74 349.06C398.73 349.09 398.72 349.13 398.71 349.16C398.73 348.24 398.69 345.67 398.66 345.48C398.3 342.71 395.97 337.56 392.89 336.99C390.67 336.58 388.79 338.32 388.61 340.48C388.43 342.68 390.03 344.89 391.59 346.28C393.35 347.85 398.23 349.37 398.62 349.49C397.75 352.21 397.08 355.07 396.56 358C396.26 359.68 396.01 361.37 395.78 363.08C395.77 362.29 395.75 361.58 395.74 361.48C395.38 358.71 393.05 353.56 389.97 352.99C387.75 352.58 385.87 354.32 385.69 356.48C385.51 358.68 387.11 360.89 388.67 362.28C390.25 363.69 394.39 365.07 395.48 365.42C395.4 366.08 395.31 366.73 395.23 367.38C394.85 370.52 394.49 373.66 394.04 376.73C393.88 377.81 393.69 378.87 393.5 379.93C393.49 379.22 393.47 378.63 393.46 378.54C393.1 375.77 390.77 370.62 387.69 370.05C385.47 369.64 383.59 371.38 383.41 373.54C383.23 375.74 384.83 377.95 386.39 379.34C387.9 380.69 391.7 382 393.01 382.42C392.78 383.5 392.55 384.58 392.28 385.62C392.08 386.32 391.94 387.01 391.69 387.71C391.47 388.4 391.24 389.09 391.03 389.77C390.56 391.06 390.08 392.4 389.59 393.65C389.26 394.52 388.92 395.35 388.58 396.18C388.75 395.11 389.04 392.99 389.04 392.82C389.08 390.96 388.42 387.94 387.11 385.82C387.11 385.55 387.11 385.27 387.06 385C386.72 382.86 384.71 381.27 382.53 381.85C379.5 382.66 377.58 387.97 377.44 390.77C377.44 390.93 377.54 392.73 377.63 393.87C377.48 393.21 377.34 392.57 377.17 391.89C376.85 390.55 376.5 389.22 376.12 387.79C375.91 387.11 375.7 386.42 375.49 385.72C375.3 385.02 375 384.31 374.76 383.6C374.16 381.96 373.47 380.33 372.75 378.71C373.92 378.43 378.07 377.37 379.74 376.09C381.4 374.82 383.16 372.74 383.14 370.52C383.12 368.35 381.38 366.48 379.14 366.72C376.03 367.06 373.32 372.02 372.76 374.76C372.72 374.93 372.54 376.94 372.46 378.05C372.01 377.08 371.58 376.1 371.09 375.13C369.7 372.33 368.2 369.53 366.72 366.74C366.27 365.88 365.82 365.03 365.38 364.17C365.8 364.07 370.76 362.92 372.62 361.49C374.28 360.22 376.04 358.14 376.02 355.92C376 353.75 374.26 351.88 372.02 352.12C368.9 352.46 366.2 357.42 365.64 360.16C365.6 360.37 365.34 363.26 365.31 364C364.33 362.11 363.37 360.22 362.5 358.32C361.29 355.7 360.26 353.05 359.44 350.42C359.63 350.38 364.81 349.2 366.72 347.73C368.38 346.46 370.14 344.38 370.12 342.16C370.1 339.99 368.36 338.12 366.12 338.36C363 338.7 360.3 343.66 359.74 346.4C359.7 346.58 359.5 348.79 359.43 349.84C359.33 349.85 359.35 349.84 359.25 349.86C358.41 347.03 357.95 344.18 357.66 341.49C357.49 339.93 357.41 338.44 357.36 336.98C358.35 336.86 362.85 336.26 364.72 335.13C366.51 334.05 368.48 332.17 368.71 329.97C368.93 327.82 367.4 325.76 365.15 325.76C362.02 325.76 358.78 330.39 357.92 333.05C357.87 333.19 357.56 334.72 357.35 335.83C357.35 335.17 357.32 334.49 357.32 333.86C357.32 331.49 357.47 329.32 357.62 327.4C357.71 326.31 357.82 325.32 357.93 324.4C358.84 323.78 362.46 321.22 363.58 319.39C364.67 317.61 365.56 315.03 364.75 312.97C363.95 310.96 361.65 309.84 359.65 310.87C356.87 312.31 356.13 317.91 356.59 320.67C356.63 320.91 357.68 324.57 357.73 324.53C357.73 324.53 357.77 324.5 357.78 324.49C357.66 325.37 357.54 326.32 357.43 327.36C357.24 329.28 357.04 331.45 356.99 333.83C356.98 334.27 356.97 334.72 356.97 335.17C355.78 333.33 352.01 328.17 347.94 329.26C343.01 330.59 344.15 334.95 348.13 335.9C351.46 336.69 355.67 336.1 356.96 335.88C356.96 337.67 357 339.56 357.17 341.51C357.41 344.24 357.81 347.1 358.59 349.99C358.59 350.02 358.61 350.06 358.62 350.09C358.13 349.32 356.68 347.2 356.55 347.05C354.72 344.93 349.94 341.92 347.05 343.15C344.97 344.03 344.36 346.52 345.41 348.42C346.48 350.36 349.03 351.32 351.09 351.62C353.42 351.96 358.33 350.54 358.72 350.42C359.49 353.17 360.51 355.92 361.7 358.66C362.37 360.22 363.1 361.78 363.85 363.33C363.4 362.67 363 362.09 362.93 362.02C361.1 359.9 356.32 356.89 353.43 358.12C351.35 359 350.74 361.49 351.79 363.39C352.86 365.33 355.41 366.29 357.47 366.59C359.57 366.9 363.78 365.77 364.89 365.45C365.18 366.04 365.47 366.63 365.77 367.22C367.19 370.05 368.62 372.87 369.94 375.68C370.41 376.67 370.83 377.66 371.25 378.65C370.85 378.07 370.51 377.58 370.45 377.51C368.62 375.39 363.84 372.38 360.95 373.61C358.87 374.49 358.26 376.98 359.31 378.88C360.38 380.82 362.93 381.78 364.99 382.08C366.99 382.37 370.89 381.36 372.21 381C372.61 382.03 373.02 383.05 373.37 384.07C373.59 384.77 373.85 385.42 374.03 386.14C374.23 386.84 374.42 387.54 374.61 388.22C374.93 389.56 375.27 390.94 375.55 392.25C375.75 393.16 375.93 394.04 376.11 394.91C375.66 393.92 374.73 392 374.64 391.85C373.15 389.48 368.88 385.78 365.84 386.55C363.65 387.11 362.67 389.47 363.42 391.51C364.18 393.59 366.56 394.92 368.55 395.53C370.75 396.2 375.62 395.59 376.23 395.51C376.52 396.97 376.79 398.38 377.03 399.73C377.85 404.38 378.36 408.29 378.67 411.02C378.73 411.51 378.77 411.94 378.82 412.35H369.39L371.51 453.69H390.23L392.35 412.35H383.56C383.63 412.21 383.69 412.09 383.75 411.95C384.96 409.44 386.63 405.83 388.43 401.41C389 400.02 389.59 398.51 390.18 396.97C390.77 397.09 395.59 398.07 397.84 397.57C399.88 397.11 402.35 395.96 403.26 393.94C404.15 391.97 403.35 389.53 401.21 388.82C398.24 387.82 393.71 391.2 392.04 393.45C391.94 393.58 391.04 395.14 390.49 396.14C390.73 395.51 390.96 394.89 391.2 394.24C391.67 392.95 392.11 391.64 392.58 390.24C392.78 389.56 392.99 388.86 393.2 388.17C393.42 387.48 393.57 386.73 393.76 386C394.16 384.3 394.49 382.57 394.78 380.81C395.91 381.22 399.96 382.63 402.05 382.48C404.13 382.33 406.75 381.57 407.96 379.71C409.14 377.89 408.72 375.37 406.71 374.33C403.93 372.89 398.93 375.54 396.95 377.52C396.83 377.64 395.56 379.22 394.88 380.1C395.05 379.04 395.22 377.99 395.35 376.91C395.74 373.8 396.03 370.65 396.34 367.5C396.43 366.54 396.54 365.58 396.64 364.61C397.04 364.76 401.81 366.54 404.16 366.37C406.24 366.22 408.86 365.46 410.07 363.6C411.25 361.78 410.83 359.26 408.82 358.22C406.04 356.78 401.04 359.43 399.06 361.41C398.91 361.56 397.1 363.83 396.66 364.43C396.88 362.31 397.13 360.21 397.45 358.14C397.89 355.29 398.48 352.51 399.26 349.87C399.45 349.94 404.42 351.82 406.82 351.65C408.9 351.5 411.52 350.74 412.73 348.88C413.91 347.07 413.49 344.54 411.48 343.5C408.7 342.06 403.7 344.71 401.72 346.68C401.59 346.81 400.21 348.54 399.57 349.38C399.48 349.33 399.5 349.34 399.41 349.3C400.27 346.48 401.46 343.85 402.7 341.44C403.41 340.05 404.17 338.75 404.94 337.51C405.83 337.95 409.92 339.94 412.1 340.03C414.19 340.11 416.87 339.64 418.27 337.93C419.64 336.26 419.5 333.7 417.62 332.45C415.01 330.72 409.76 332.8 407.57 334.54C407.49 334.61 406.94 335.15 406.34 335.74C406.34 335.61 406.34 335.46 406.35 335.29C406.44 335.15 406.52 335.02 406.61 334.89C407.92 332.92 409.24 331.19 410.43 329.67C411.11 328.81 411.74 328.05 412.34 327.34C413.44 327.32 417.87 327.19 419.81 326.28C421.7 325.39 423.86 323.73 424.32 321.57C424.77 319.45 423.46 317.25 421.22 317H421.21ZM386.72 400.7C384.84 405.03 383.1 408.57 381.86 411.03C381.61 411.52 381.38 411.96 381.17 412.37H380.96C380.9 411.89 380.83 411.37 380.75 410.78C380.37 408.02 379.77 404.09 378.84 399.41C378.55 397.93 378.21 396.36 377.85 394.74C378.22 394.59 380.29 393.75 382.13 392.73C383.73 394.47 387.84 396.5 388.38 396.76C387.82 398.14 387.26 399.47 386.72 400.72V400.7ZM405.77 336.31C405.69 336.39 405.61 336.47 405.54 336.54C405.59 336.46 405.64 336.39 405.69 336.31C405.72 336.31 405.75 336.31 405.77 336.31Z" fill="#263238"/>
<path opacity="0.3" d="M269.15 277.331C266.17 289.151 273.36 301.181 285.18 304.161C291.96 305.871 298.8 304.221 303.97 300.281L312.52 308.461C312.1 310.221 312.56 312.141 313.96 313.491L332.52 331.751C334.62 333.791 337.96 333.741 340 331.641C340.67 330.951 341.11 330.121 341.33 329.251C341.78 327.481 341.29 325.521 339.89 324.161L321.33 305.901C319.92 304.531 317.95 304.131 316.18 304.631L307.77 296.581C309.72 294.171 311.21 291.321 312.02 288.121C315 276.301 307.81 264.271 295.99 261.291C284.17 258.311 272.14 265.501 269.16 277.321L269.15 277.331ZM308.16 287.161C305.72 296.851 295.84 302.751 286.15 300.311C276.46 297.871 270.56 287.991 273 278.301C275.44 268.611 285.32 262.711 295.01 265.151C304.7 267.591 310.6 277.471 308.16 287.161Z" stroke="black" stroke-miterlimit="10"/>
<g opacity="0.3">
<path d="M188.05 39.7802C193.2 27.9302 205 19.6602 218.74 19.6602C237.21 19.6602 252.19 34.6402 252.19 53.1102C252.19 71.5802 237.21 86.5602 218.74 86.5602C200.27 86.5602 185.29 71.5902 185.29 53.1102C185.29 48.9502 186.05 44.9702 187.44 41.2902" stroke="black" stroke-miterlimit="10"/>
<path d="M187.67 39.6498C192.89 27.6598 204.85 19.2598 218.73 19.2598C237.4 19.2598 252.59 34.4498 252.59 53.1198C252.59 71.7898 237.4 86.9798 218.73 86.9798C200.06 86.9798 184.87 71.7898 184.87 53.1198C184.87 48.9198 185.64 44.8898 187.05 41.1698" stroke="black" stroke-width="0.5" stroke-miterlimit="10"/>
<path d="M196.45 42.9606C200.31 34.5106 208.83 28.6406 218.73 28.6406C232.25 28.6406 243.21 39.5906 243.21 53.1106C243.21 66.6306 232.25 77.5906 218.73 77.5906C205.21 77.5906 194.25 66.6406 194.25 53.1106C194.25 50.0606 194.81 47.1506 195.83 44.4606" stroke="black" stroke-miterlimit="10"/>
<path d="M196.08 42.8205C200.01 34.2205 208.68 28.2305 218.74 28.2305C232.46 28.2305 243.62 39.3905 243.62 53.1105C243.62 66.8305 232.46 77.9905 218.74 77.9905C205.02 77.9905 193.86 66.8305 193.86 53.1105C193.86 50.0105 194.42 47.0505 195.47 44.3205" stroke="black" stroke-width="0.5" stroke-miterlimit="10"/>
<path d="M207.18 47.0405C207.18 47.0405 207.18 47.0205 207.19 47.0105C209.38 42.8805 213.72 40.0605 218.73 40.0605C225.94 40.0605 231.78 45.9105 231.78 53.1105C231.78 60.3105 225.93 66.1605 218.73 66.1605C211.53 66.1605 205.68 60.3205 205.68 53.1105C205.68 51.4805 205.98 49.9305 206.52 48.4905C206.52 48.4705 206.54 48.4505 206.55 48.4205" stroke="black" stroke-miterlimit="10"/>
<path d="M206.66 47.1702C206.71 47.0702 206.76 46.9702 206.81 46.8702C209.06 42.5902 213.56 39.6602 218.73 39.6602C226.15 39.6602 232.19 45.7002 232.19 53.1202C232.19 60.5402 226.16 66.5902 218.73 66.5902C211.3 66.5902 205.27 60.5502 205.27 53.1202C205.27 51.4502 205.57 49.8502 206.14 48.3702" stroke="black" stroke-width="0.5" stroke-miterlimit="10"/>
<path d="M207.39 47.0893C207.39 47.0893 207.32 47.0693 207.28 47.0493L207.19 47.0093L206.81 46.8693L196.46 42.9593L196.08 42.8193L188.05 39.7893L187.67 39.6493L174.73 34.7693L175.37 29.9893C175.39 29.8093 175.3 29.6393 175.13 29.5593L164.9 24.9693C164.75 24.8993 164.57 24.9293 164.46 25.0393C164.34 25.1493 164.29 25.3093 164.34 25.4693L166.42 31.6193L164.89 31.0393C164.46 30.8793 163.99 31.0993 163.83 31.5193C163.67 31.9393 163.89 32.4093 164.31 32.5693L165.9 33.1693L161.12 36.8393C160.99 36.9393 160.93 37.1093 160.98 37.2693C161.02 37.4193 161.15 37.5393 161.31 37.5693L172.78 39.3393C172.78 39.3393 172.82 39.3393 172.84 39.3393C173.01 39.3393 173.16 39.2393 173.22 39.0793L174.3 36.3393L187.05 41.1493L187.43 41.2893L195.45 44.3093L195.83 44.4493L206.14 48.3393L206.52 48.4793L206.82 48.5993" stroke="black" stroke-miterlimit="10"/>
<path d="M207.18 47.0389C207.18 47.0389 207.25 47.0389 207.29 47.0389C207.33 47.0489 207.36 47.0589 207.4 47.0789L214.77 49.8689L215.58 47.4389C215.69 47.1089 216 46.8789 216.35 46.8789H216.36C216.71 46.8789 217.03 47.1189 217.13 47.4589L218.61 52.2489C218.73 52.6289 218.55 53.0389 218.2 53.2189L214.51 55.0589C214.39 55.1189 214.27 55.1489 214.15 55.1489C213.95 55.1489 213.77 55.0789 213.61 54.9489C213.36 54.7289 213.27 54.3889 213.37 54.0689L214.25 51.4089L206.83 48.5989C206.72 48.5589 206.63 48.4989 206.56 48.4189" stroke="black" stroke-miterlimit="10"/>
</g>
<path opacity="0.3" d="M104.72 397.71L113.71 399.76L115.79 390.64L107.16 388.67C107.16 388.41 107.2 388.16 107.2 387.9C107.2 385.04 106.62 382.32 105.57 379.84L112.57 374.26L106.74 366.95L100.04 372.29C97.72 370.28 94.96 368.79 91.91 367.97V359.25H82.56V367.63C79.41 368.24 76.53 369.58 74.07 371.44L67.3 366.04L61.47 373.35L68.08 378.62C66.72 381.31 65.93 384.34 65.88 387.55L57.27 389.52L59.35 398.64L67.85 396.7C69.15 399.45 71.01 401.87 73.32 403.8L69.37 412.01L77.8 416.07L81.69 407.99C83.25 408.37 84.87 408.59 86.54 408.59C87.88 408.59 89.19 408.45 90.46 408.21L94.49 416.58L102.92 412.52L99 404.38C101.35 402.6 103.32 400.34 104.73 397.73L104.72 397.71ZM77.35 387.9C77.35 382.83 81.46 378.72 86.53 378.72C91.6 378.72 95.71 382.83 95.71 387.9C95.71 392.97 91.6 397.08 86.53 397.08C81.46 397.08 77.35 392.97 77.35 387.9Z" stroke="black" stroke-linecap="round" stroke-linejoin="round"/>
<path opacity="0.3" d="M121.95 352.89L129.32 354.57L131.03 347.09L123.95 345.47C123.95 345.26 123.98 345.05 123.98 344.84C123.98 342.49 123.5 340.26 122.64 338.23L128.38 333.65L123.6 327.65L118.11 332.03C116.21 330.38 113.94 329.16 111.44 328.49V321.34H103.77V328.21C101.19 328.71 98.83 329.81 96.81 331.34L91.26 326.91L86.48 332.91L91.9 337.23C90.79 339.44 90.14 341.92 90.09 344.55L83.02 346.16L84.73 353.64L91.7 352.05C92.76 354.31 94.29 356.3 96.19 357.87L92.95 364.6L99.86 367.93L103.05 361.3C104.33 361.61 105.66 361.79 107.03 361.79C108.13 361.79 109.21 361.68 110.25 361.48L113.56 368.35L120.47 365.02L117.26 358.35C119.19 356.89 120.81 355.04 121.96 352.89H121.95ZM99.49 344.85C99.49 340.69 102.86 337.32 107.02 337.32C111.18 337.32 114.55 340.69 114.55 344.85C114.55 349.01 111.18 352.38 107.02 352.38C102.86 352.38 99.49 349.01 99.49 344.85Z" stroke="black" stroke-linecap="round" stroke-linejoin="round"/>
<g opacity="0.3">
<path d="M50.1924 34.5118C54.1975 24.8427 49.6059 13.7575 39.9368 9.75244C30.2676 5.74735 19.1825 10.339 15.1774 20.0081C11.1723 29.6772 15.7639 40.7624 25.4331 44.7675C35.1022 48.7726 46.1873 44.1809 50.1924 34.5118Z" stroke="black" stroke-miterlimit="10"/>
<path d="M38.97 25.9805H26.62C24.21 25.9805 22.25 27.9305 22.25 30.3505V40.7105C25.13 42.9505 28.75 44.3005 32.68 44.3005C36.61 44.3005 40.41 42.8905 43.33 40.5505V30.3505C43.33 27.9405 41.38 25.9805 38.96 25.9805H38.97Z" stroke="black" stroke-miterlimit="10"/>
<path d="M32.58 24.0698C36.05 24.0698 38.86 21.2598 38.86 17.7898C38.86 14.3198 36.05 11.5098 32.58 11.5098C29.11 11.5098 26.3 14.3198 26.3 17.7898C26.3 21.2598 29.11 24.0698 32.58 24.0698Z" stroke="black" stroke-miterlimit="10"/>
</g>
<g opacity="0.3">
<path d="M167.158 170.746C171.187 161.087 166.623 149.99 156.963 145.962C147.304 141.933 136.208 146.497 132.179 156.157C128.15 165.816 132.715 176.912 142.374 180.941C152.033 184.97 163.13 180.405 167.158 170.746Z" stroke="black" stroke-miterlimit="10"/>
<path d="M155.95 162.172H143.6C141.19 162.172 139.23 164.122 139.23 166.542V176.902C142.11 179.142 145.73 180.492 149.66 180.492C153.59 180.492 157.39 179.082 160.31 176.742V166.542C160.31 164.132 158.36 162.172 155.94 162.172H155.95Z" stroke="black" stroke-miterlimit="10"/>
<path d="M149.56 160.261C153.03 160.261 155.84 157.451 155.84 153.981C155.84 150.511 153.03 147.701 149.56 147.701C146.09 147.701 143.28 150.511 143.28 153.981C143.28 157.451 146.09 160.261 149.56 160.261Z" stroke="black" stroke-miterlimit="10"/>
</g>
<g opacity="0.3">
<path d="M452.17 178.756C456.199 169.096 451.634 158 441.975 153.971C432.315 149.943 421.219 154.507 417.19 164.166C413.162 173.826 417.726 184.922 427.386 188.951C437.045 192.98 448.141 188.415 452.17 178.756Z" stroke="black" stroke-miterlimit="10"/>
<path d="M440.95 170.17H428.6C426.19 170.17 424.23 172.12 424.23 174.54V184.9C427.11 187.14 430.73 188.49 434.66 188.49C438.59 188.49 442.39 187.08 445.31 184.74V174.54C445.31 172.13 443.36 170.17 440.94 170.17H440.95Z" stroke="black" stroke-miterlimit="10"/>
<path d="M434.56 168.259C438.03 168.259 440.84 165.449 440.84 161.979C440.84 158.509 438.03 155.699 434.56 155.699C431.09 155.699 428.28 158.509 428.28 161.979C428.28 165.449 431.09 168.259 434.56 168.259Z" stroke="black" stroke-miterlimit="10"/>
</g>
<g opacity="0.3">
<path d="M343.164 26.7459C347.193 17.0866 342.629 5.99031 332.969 1.96161C323.31 -2.06709 312.214 2.49741 308.185 12.1567C304.156 21.816 308.721 32.9124 318.38 36.9411C328.039 40.9698 339.136 36.4053 343.164 26.7459Z" stroke="black" stroke-miterlimit="10"/>
<path d="M331.95 18.1699H319.6C317.19 18.1699 315.23 20.1199 315.23 22.5399V32.8999C318.11 35.1399 321.73 36.4899 325.66 36.4899C329.59 36.4899 333.39 35.0799 336.31 32.7399V22.5399C336.31 20.1299 334.36 18.1699 331.94 18.1699H331.95Z" stroke="black" stroke-miterlimit="10"/>
<path d="M325.56 16.2592C329.03 16.2592 331.84 13.4492 331.84 9.97922C331.84 6.50922 329.03 3.69922 325.56 3.69922C322.09 3.69922 319.28 6.50922 319.28 9.97922C319.28 13.4492 322.09 16.2592 325.56 16.2592Z" stroke="black" stroke-miterlimit="10"/>
</g>
<path d="M369.75 196.83C369.75 196.83 363.35 196.86 356.69 203.82C350.02 210.79 346.31 220.37 347.86 223.21C349.42 226.05 351.17 230.85 351.13 231.96C351.09 233.07 342.17 240.5 344.25 244.2C346.33 247.9 346.8 250.14 344.84 250.34C342.89 250.54 339.45 253.19 339.92 255.15C340.4 257.12 343.66 258.91 342.19 261.08C340.71 263.25 339.62 262.92 339.51 265.7C339.4 268.48 341.96 270.82 340.48 271.17C339 271.52 336.21 271.96 336.96 273.94C337.71 275.92 339.56 278.49 339.56 278.49C339.56 278.49 349.39 290 370.39 293.33C391.39 296.66 412.37 279.14 415.54 276.48C418.7 273.82 419.29 273.01 419.36 271.35C419.43 269.68 418.39 267.7 417.91 265.73C417.43 263.76 418.42 259.91 418.45 259.08C418.48 258.25 416.63 255.95 415.28 254.78C413.94 253.61 413.78 250.55 414.44 247.8C415.1 245.05 412.41 242.99 411.33 242.12C410.25 241.24 409.52 238.71 410.45 236.25C411.38 233.78 408.15 231.16 406.8 229.99C405.46 228.83 405.28 226.32 405.94 223.56C406.6 220.81 403.23 214.83 401.38 212.26C399.53 209.69 397.35 201.54 386.94 197.79C376.53 194.04 369.74 196.83 369.74 196.83H369.75Z" fill="#263238" stroke="#263238" stroke-linecap="round" stroke-linejoin="round"/>
<path d="M346.58 297.221C355.16 302.101 365.08 304.901 375.66 304.901C388.39 304.901 400.17 300.851 409.8 293.981C409.84 288.691 409.85 284.241 409.77 282.331C409.53 276.221 407.85 267.501 405.66 265.721C403.46 263.941 398.88 262.531 392.15 260.661C385.42 258.801 375.28 258.131 375.28 258.131C375.28 258.131 363.3 264.991 355.16 267.711C347.01 270.431 346.66 288.541 346.84 293.061C346.87 293.831 346.76 295.311 346.58 297.221Z" fill="white" stroke="#263238" stroke-linecap="round" stroke-linejoin="round"/>
<path d="M346.58 297.221C355.16 302.101 365.08 304.901 375.66 304.901C388.39 304.901 400.17 300.851 409.8 293.981C409.84 288.691 409.85 284.241 409.77 282.331C409.65 279.241 409.36 280.471 408.62 277.281C404.75 280.911 396.19 286.901 379.34 288.851C363.97 290.631 351.36 284.821 347.43 282.391C346.79 286.911 346.77 291.171 346.84 293.061C346.87 293.831 346.76 295.311 346.58 297.221Z" fill="white" stroke="#263238" stroke-linecap="round" stroke-linejoin="round"/>
<path d="M366.35 274.721C366.35 274.721 366.09 268.081 365.85 261.961C365.61 255.851 364.71 253.221 364.71 253.221C364.71 253.221 369.03 254.651 373.29 254.751C377.55 254.851 383.95 248.211 384.44 247.121C384.93 246.041 385.65 244.141 385.65 244.141C385.65 244.141 386.32 254.501 387.28 258.451C388.23 262.411 388.86 264.781 388.86 264.781" fill="white"/>
<path d="M366.35 274.721C366.35 274.721 366.09 268.081 365.85 261.961C365.61 255.851 364.71 253.221 364.71 253.221C364.71 253.221 369.03 254.651 373.29 254.751C377.55 254.851 383.95 248.211 384.44 247.121C384.93 246.041 385.65 244.141 385.65 244.141C385.65 244.141 386.32 254.501 387.28 258.451C388.23 262.411 388.86 264.781 388.86 264.781" stroke="#263238" stroke-miterlimit="10" stroke-linecap="round"/>
<path d="M370.25 263.799C376.73 260.239 382.31 251.979 382.31 251.979L382.68 249.189C380.38 251.509 376.3 254.819 373.27 254.749C369.01 254.649 364.69 253.219 364.69 253.219C364.69 253.219 365.59 255.849 365.83 261.959C365.88 263.339 365.94 264.729 365.99 266.079C367.04 265.529 368.41 264.799 370.23 263.789L370.25 263.799Z" fill="#263238" stroke="#263238" stroke-linecap="round" stroke-linejoin="round"/>
<path d="M395.04 228.729L390.79 228.429C390.79 228.429 390.8 227.819 390.73 226.799C390.58 226.599 390.42 226.399 390.28 226.209C389.59 225.309 389.3 225.539 388.01 225.099C386.73 224.659 386.48 222.479 386.76 220.369C387.04 218.259 384.47 217.379 381.86 214.889C379.71 212.849 379.22 209.229 379.11 207.979C378.11 207.669 377.12 207.469 376.19 207.359C375.64 208.729 374.45 211.299 372.7 213.129C370.2 215.749 368.39 215.239 367.66 216.749C366.92 218.259 365.36 219.929 364.27 220.059C363.18 220.179 360.54 219.829 360.37 221.149C360.19 222.469 359.12 224.469 358.26 224.889C358.07 224.979 357.84 225.089 357.6 225.209C357.56 228.239 357.75 230.729 357.68 231.249C357.54 232.299 356.63 239.159 359 243.499C361.37 247.839 365.75 257.279 372.61 258.189C379.47 259.099 386.5 250.649 387.87 248.409C389.24 246.179 390.68 239.389 390.68 239.389C390.68 239.389 393.04 237.829 394.74 235.099C396.44 232.379 395.06 228.699 395.06 228.699L395.04 228.729Z" fill="white" stroke="#263238" stroke-linecap="round" stroke-linejoin="round"/>
<path d="M358.44 221.44C358.69 219.59 360.95 216.68 361.74 216.78C362.53 216.89 365.38 215.65 366.08 214.41C366.78 213.17 366.69 211.81 368.08 211.46C369.47 211.11 369.71 209.26 369.71 209.26C369.71 209.26 365.53 212.46 363.28 213.23C361.03 214 360.13 214.69 358.94 215.6C358.17 217.62 357.81 220.19 357.67 222.67C358.03 222.49 358.34 222.13 358.43 221.43L358.44 221.44Z" fill="white" stroke="#263238" stroke-linecap="round" stroke-linejoin="round"/>
<path d="M369.71 243.609C369.71 243.609 370.98 246.189 374.39 244.769" stroke="#263238" stroke-linecap="round" stroke-linejoin="round"/>
<path d="M369.19 247.559C369.19 247.559 374.18 250.369 376.82 246.699" stroke="#263238" stroke-linecap="round" stroke-linejoin="round"/>
<path d="M366.03 232.95C365.99 234.05 365.48 234.93 364.9 234.91C364.32 234.89 363.87 233.98 363.91 232.88C363.95 231.78 364.46 230.9 365.04 230.92C365.63 230.94 366.07 231.85 366.03 232.95Z" fill="#263238"/>
<path d="M379.37 233.519C379.33 234.619 378.82 235.499 378.24 235.479C377.66 235.459 377.21 234.549 377.25 233.449C377.29 232.349 377.8 231.469 378.38 231.489C378.97 231.509 379.41 232.419 379.37 233.519Z" fill="#263238"/>
<path d="M361.06 227.96C361.06 227.96 362.69 225.76 366.84 226.85" stroke="#263238" stroke-linecap="round" stroke-linejoin="round"/>
<path d="M376.14 227.56C376.14 227.56 380.6 226.28 383.42 229.33" stroke="#263238" stroke-linecap="round" stroke-linejoin="round"/>
<path d="M367.56 227.49C367.56 227.49 370.5 231.64 370 235.33" stroke="#263238" stroke-linecap="round" stroke-linejoin="round"/>
<path d="M356.25 301.61C356.92 297.04 357.57 292.53 358.12 288.89C359.81 277.64 365.63 263.3 365.63 263.3C363.48 262.85 342.79 271.39 338.41 275.02C336.5 276.6 334.29 280.93 332.25 285.77C338.75 292.87 346.97 298.36 356.25 301.6V301.61Z" fill="#FCD34D" stroke="#263238" stroke-linecap="round" stroke-linejoin="round"/>
<path d="M425.57 277.229C422.34 273.419 418.35 270.529 415.05 269.209C412.12 267.159 408.86 265.669 406.67 264.619C402.06 262.409 389.71 259.699 389.71 259.699C389.71 259.699 388.6 291.439 390.32 303.049C405.12 299.249 417.66 289.849 425.56 277.239L425.57 277.229Z" fill="#FCD34D" stroke="#263238" stroke-linecap="round" stroke-linejoin="round"/>
<path d="M417.289 287.655C440.279 264.665 440.279 227.39 417.289 204.4C394.298 181.41 357.024 181.41 334.034 204.4C311.044 227.39 311.044 264.665 334.034 287.655C357.024 310.645 394.298 310.645 417.289 287.655Z" stroke="#263238" stroke-miterlimit="10"/>
<path d="M388.85 159.83C420.536 152.544 440.316 120.951 433.03 89.2644C425.743 57.5784 394.15 37.7984 362.464 45.0845C330.778 52.3707 310.998 83.964 318.284 115.65C325.57 147.336 357.164 167.116 388.85 159.83Z" fill="#FCD34D"/>
<path d="M375.66 161.32C394.13 161.32 410.61 152.81 421.41 139.49L398.06 121.25L381.06 116.42V115.75L376.81 116.08L372.56 115.75V116.42L355.56 117.75L329.08 138.44C339.85 152.36 356.7 161.32 375.66 161.32Z" fill="white" stroke="#263238" stroke-miterlimit="10"/>
<path d="M360.06 114.26C360.06 114.26 355.56 115.26 354.06 115.26C352.56 115.26 347.06 139.76 347.06 139.76L366.06 133.76L374.06 141.76L380.56 134.26L399.56 142.76C399.56 142.76 398.06 119.76 398.06 116.76C398.06 113.76 380.56 109.76 380.56 109.76L360.06 114.26Z" fill="white" stroke="#263238" stroke-miterlimit="10"/>
<path d="M357.56 104.26L359.56 121.76L373.06 135.26L388.56 119.76L389.56 99.7598L357.56 104.26Z" fill="#D4D4D4" stroke="#263238" stroke-miterlimit="10"/>
<path d="M388.87 113.45L389.56 99.7598L387.79 100.01L367.81 114.36L388.87 113.45Z" fill="#263238" stroke="#263238" stroke-miterlimit="10"/>
<path d="M378.73 53.3593C378.73 53.3593 393.74 57.2093 394.7 63.9693C395.65 70.7293 394.9 84.7993 394.9 84.7993C394.9 84.7993 398.11 78.7293 400.12 84.3193C402.12 89.9093 398.45 93.5793 397.17 93.9793C395.89 94.3793 394.18 94.3393 394.18 94.3393C394.18 94.3393 390.04 103.799 387.77 105.629C385.51 107.449 377.06 114.849 373.71 115.879C370.36 116.909 364.55 117.289 362.88 115.539C361.21 113.789 354.41 101.779 354.21 99.2993C354.01 96.8193 352.48 74.4293 352.72 71.5293C352.96 68.6293 351.55 63.1393 357.74 57.5693C363.93 51.9993 378.74 53.3593 378.74 53.3593H378.73Z" fill="#D4D4D4" stroke="#263238" stroke-miterlimit="10"/>
<path d="M357.73 57.5693C363.92 51.9993 378.73 53.3593 378.73 53.3593C378.73 53.3593 393.74 57.2093 394.7 63.9693C395.65 70.7293 394.9 84.7993 394.9 84.7993C394.9 84.7993 393.29 87.8293 391.61 86.9393C389.92 86.0493 392.74 78.6893 392.74 78.6893C392.74 78.6893 391.77 76.4493 390.97 73.8693C390.18 71.2893 390.59 68.0593 391.6 64.9193C392.61 61.7893 385 55.3793 380.89 55.7993C376.78 56.2193 371.51 59.2493 367.94 58.6593C364.37 58.0693 363.74 55.9993 363.74 55.9993C363.74 55.9993 362.81 55.7193 359.46 56.7493C358.86 56.9293 358.27 57.2393 357.69 57.6093C357.71 57.5993 357.72 57.5793 357.74 57.5693H357.73Z" fill="#263238" stroke="#263238" stroke-miterlimit="10"/>
<path d="M370.43 77.3791L388.18 79.1091C388.18 79.1091 388.72 85.3791 387.76 87.0291C386.8 88.6791 385.25 90.1991 380.61 90.5891C375.97 90.9791 371.11 89.4691 370.56 87.3791C370.01 85.2891 370.43 77.3691 370.43 77.3691V77.3791Z" stroke="#263238" stroke-width="2" stroke-miterlimit="10" stroke-linecap="round"/>
<path d="M365.44 77.2793H347.6C347.6 77.2793 346.45 83.4693 347.25 85.2093C348.05 86.9393 349.44 88.6093 354.02 89.4493C358.6 90.2893 363.59 89.2593 364.34 87.2293C365.09 85.1993 365.44 77.2793 365.44 77.2793Z" stroke="#263238" stroke-width="2" stroke-miterlimit="10" stroke-linecap="round"/>
<path d="M370.43 77.3801C370.43 77.3801 367.55 76.0301 365.44 77.2701" stroke="#263238" stroke-width="2" stroke-miterlimit="10" stroke-linecap="round"/>
<path d="M370.15 80.05C370.15 80.05 367.3 77.95 365.26 79.74" stroke="#263238" stroke-width="2" stroke-miterlimit="10" stroke-linecap="round"/>
<path d="M388.19 79.1191L395.25 84.5091" stroke="#263238" stroke-width="2" stroke-miterlimit="10" stroke-linecap="round"/>
<path d="M347.6 77.2793L352.69 79.3293" stroke="#263238" stroke-width="2" stroke-miterlimit="10" stroke-linecap="round"/>
<path d="M374.9 85.8694C375.09 86.4894 375.75 86.8394 376.37 86.6494C376.99 86.4594 377.34 85.7994 377.15 85.1794C376.96 84.5594 376.3 84.2094 375.68 84.3994C375.06 84.5894 374.71 85.2494 374.9 85.8694Z" fill="#263238"/>
<path d="M356.66 85.1389C356.85 85.7589 357.51 86.1089 358.13 85.9189C358.75 85.7289 359.1 85.0689 358.91 84.4489C358.72 83.8289 358.06 83.4789 357.44 83.6689C356.82 83.8589 356.47 84.5189 356.66 85.1389Z" fill="#263238"/>
<path d="M374.11 73.1295C374.11 73.1295 379.17 69.7595 382.73 75.0195" stroke="#263238" stroke-width="2" stroke-miterlimit="10" stroke-linecap="round"/>
<path d="M362.83 74.7799C362.83 74.7799 360.59 71.7099 355.18 75.1899" stroke="#263238" stroke-width="2" stroke-miterlimit="10" stroke-linecap="round"/>
<path d="M365.47 84.209C365.47 84.209 364.86 88.549 363.62 89.569C362.38 90.599 359.28 92.719 361.45 93.479C363.62 94.239 368 94.959 369.66 94.449C371.32 93.939 371.51 92.459 371.51 92.459" stroke="#263238" stroke-miterlimit="10"/>
<path d="M365.57 100.119C365.57 100.119 369.7 101.309 374.2 99.5389C378.71 97.7589 378.88 95.3789 378.88 95.3789" stroke="#263238" stroke-miterlimit="10"/>
<path d="M377.61 94.5996L380.67 96.1196" stroke="#263238" stroke-miterlimit="10"/>
<path d="M388.85 159.83C420.536 152.544 440.316 120.951 433.03 89.2644C425.743 57.5784 394.15 37.7984 362.464 45.0845C330.778 52.3707 310.998 83.964 318.284 115.65C325.57 147.336 357.164 167.116 388.85 159.83Z" stroke="#263238" stroke-miterlimit="10"/>
<path d="M85.66 161.861C118.173 161.861 144.53 135.504 144.53 102.991C144.53 70.4781 118.173 44.1211 85.66 44.1211C53.147 44.1211 26.79 70.4781 26.79 102.991C26.79 135.504 53.147 161.861 85.66 161.861Z" stroke="#263238" stroke-miterlimit="10"/>
<path d="M96.59 63.0209C96.59 63.0209 100.49 65.2509 104.2 62.8309C107.91 60.4209 105.31 59.3109 104.57 57.8209C103.83 56.3409 105.68 55.9609 106.05 53.9209C106.42 51.8809 105.12 50.2109 104.38 50.0209C103.64 49.8309 103.82 47.7909 103.82 45.7509C103.82 43.7109 101.41 41.8509 100.3 41.8509C99.19 41.8509 98.44 40.3709 97.7 38.5109C96.96 36.6509 95.47 34.9909 92.88 36.1009C90.29 37.2109 88.98 37.2109 87.69 35.3609C86.39 33.5009 83.24 33.1309 82.12 34.0609C81.01 34.9909 80.45 36.8409 78.22 34.9909C75.99 33.1309 73.21 33.5109 71.91 34.8009C70.61 36.1009 70.8 37.5809 68.76 36.8409C66.72 36.1009 63.38 37.2109 62.64 39.4409C61.9 41.6709 57.82 44.0809 56.33 43.5209C54.85 42.9609 52.25 43.5209 53.55 46.3009C54.85 49.0809 53.36 50.9409 52.25 50.9409C51.14 50.9409 48.73 51.6809 50.02 54.0909C51.32 56.5009 52.25 58.3609 50.76 59.1009C49.28 59.8409 46.86 60.0309 48.72 63.1809C50.58 66.3309 52.06 66.1509 51.5 68.0009C50.94 69.8609 49.83 70.4109 51.5 71.7109C53.17 73.0109 55.21 73.5709 55.21 74.6809C55.21 75.7909 52.98 76.3509 55.58 77.2809C58.18 78.2109 60.22 78.3909 60.22 78.3909C60.22 78.3909 63.93 68.3709 74.5 65.0309C85.07 61.6909 91.2 62.0609 93.61 63.3609C96.02 64.6609 96.58 62.9909 96.58 62.9909L96.59 63.0209Z" fill="#263238" stroke="#263238" stroke-linecap="round" stroke-linejoin="round"/>
<path d="M85.66 161.861C81.09 161.861 76.65 161.331 72.38 160.351C70.03 148.131 67.74 135.801 67.74 135.801C67.74 135.801 77.78 133.041 80.8 132.541C83.81 132.041 92.85 131.031 92.85 131.031L106.41 137.311C106.41 137.311 108.03 146.261 109.65 156.761C102.32 160.041 94.2 161.861 85.66 161.861Z" fill="white" stroke="#263238" stroke-miterlimit="10"/>
<path d="M68.61 140.451L106.18 137.201L106.4 137.301C106.4 137.301 106.72 139.091 107.23 142.011L69.51 145.271C69.17 143.461 68.86 141.831 68.6 140.451H68.61Z" fill="#263238"/>
<path d="M70.88 152.461L108.45 149.211C108.7 150.741 108.96 152.361 109.23 154.051L71.8 157.291C71.49 155.661 71.18 154.041 70.88 152.471V152.461Z" fill="#263238"/>
<path d="M94.86 124.001C94.86 124.001 97.62 134.551 97.87 140.071C98.12 145.591 92.35 150.111 84.06 149.361C75.77 148.611 74.27 139.571 74.27 137.311C74.27 135.051 73.77 115.971 73.77 115.971C73.77 115.971 77.79 119.491 82.56 122.501C87.33 125.511 94.86 124.011 94.86 124.011V124.001Z" fill="white" stroke="#263238" stroke-miterlimit="10"/>
<path d="M87.33 133.041C79.48 129.281 75.58 121.901 73.8 117.211C73.78 116.431 73.77 115.961 73.77 115.961C73.77 115.961 77.79 119.481 82.56 122.491C87.33 125.501 94.86 124.001 94.86 124.001C94.86 124.001 96.59 130.591 97.43 136.081C94.57 135.751 91.17 134.881 87.32 133.041H87.33Z" fill="#263238" stroke="#263238" stroke-miterlimit="10"/>
<path d="M106.18 91.1809C106.18 91.1809 110.18 85.9809 110.98 93.1809C111.78 100.381 104.18 107.581 104.18 107.581V91.1809" fill="white"/>
<path d="M106.18 91.1809C106.18 91.1809 110.18 85.9809 110.98 93.1809C111.78 100.381 104.18 107.581 104.18 107.581V91.1809" stroke="#263238" stroke-linecap="round" stroke-linejoin="round"/>
<path d="M60.44 83.691C60.44 83.691 60.76 72.551 64.89 66.191C69.02 59.831 77.75 55.921 87.48 57.601C99.55 59.681 104.98 68.741 106.89 76.371C108.8 84.011 106.57 95.141 106.57 102.781C106.57 110.421 97.66 124.101 95.12 126.331C92.58 128.561 88.65 129.301 84.16 127.021C80.04 124.931 73.27 117.801 69.13 113.661C64.99 109.521 62.53 97.231 61.89 94.371C61.25 91.511 60.43 83.691 60.43 83.691H60.44Z" fill="white" stroke="#263238" stroke-linecap="round" stroke-linejoin="round"/>
<path d="M94.17 105.32C94.17 105.32 94.54 107.73 88.98 107.36" stroke="#263238" stroke-linecap="round" stroke-linejoin="round"/>
<path d="M95.84 111.631C95.84 111.631 89.35 116.081 82.85 111.821" stroke="#263238" stroke-linecap="round" stroke-linejoin="round"/>
<path d="M95.84 95.1112C95.84 96.4412 96.46 97.5212 97.23 97.5212C98 97.5212 98.62 96.4412 98.62 95.1112C98.62 93.7812 98 92.7012 97.23 92.7012C96.46 92.7012 95.84 93.7812 95.84 95.1112Z" fill="#263238"/>
<path d="M81.36 96.3006C81.36 97.6306 81.98 98.7106 82.75 98.7106C83.52 98.7106 84.14 97.6306 84.14 96.3006C84.14 94.9706 83.52 93.8906 82.75 93.8906C81.98 93.8906 81.36 94.9706 81.36 96.3006Z" fill="#263238"/>
<path d="M101.78 87.5117C101.78 87.5117 100.11 83.8017 94.54 85.6517" stroke="#263238" stroke-linecap="round" stroke-linejoin="round"/>
<path d="M85.27 87.1412C85.27 87.1412 80.08 84.3612 74.32 88.6212" stroke="#263238" stroke-linecap="round" stroke-linejoin="round"/>
<path d="M44.71 145.27C44.83 143.59 44.63 140.64 46.66 139.52C48.03 138.76 57.64 136.53 65.04 134.89C69.89 133.82 73.78 132.99 73.78 132.99C73.78 132.99 74.73 147.24 75.78 161.02C63.81 159 53.06 153.36 44.71 145.26V145.27Z" fill="#FCD34D" stroke="#263238" stroke-miterlimit="10"/>
<path d="M110.71 156.28C109.39 147.79 107.3 139.36 106.11 134.9C113.51 136.55 123.12 138.77 124.49 139.53C126.58 140.68 126.31 143.77 126.45 145.42C121.85 149.84 116.54 153.52 110.7 156.28H110.71Z" fill="#FCD34D" stroke="#263238" stroke-miterlimit="10"/>
<path d="M65.48 158.3C64.79 145.81 65.04 134.89 65.04 134.89C69.89 133.82 73.78 132.99 73.78 132.99C73.78 132.99 74.73 147.24 75.78 161.02C72.23 160.42 68.78 159.5 65.48 158.29V158.3Z" fill="#FCD34D" stroke="#263238" stroke-miterlimit="10"/>
<path d="M87.48 57.6008C99.55 59.6808 104.98 68.7408 106.89 76.3708C107.23 77.7208 107.43 79.1908 107.55 80.7308C107.08 79.9908 106.5 79.2008 105.78 78.3808C100.18 71.9808 95.78 69.1808 95.78 69.1808C95.78 69.1808 94.18 73.1808 84.98 77.9808C75.78 82.7808 63.38 82.3808 63.38 82.3808C63.38 82.3808 65.78 83.1808 63.78 87.5808C62.92 89.4808 62.13 91.0808 61.51 92.2908C60.97 88.8208 60.43 83.7008 60.43 83.7008C60.43 83.7008 60.75 72.5608 64.88 66.2008C69.02 59.8408 77.74 55.9308 87.47 57.6108L87.48 57.6008Z" fill="#263238" stroke="#263238" stroke-linecap="round" stroke-linejoin="round"/>
<path d="M64.59 98.7808C64.59 98.7808 62.19 89.5808 58.19 93.9808C54.19 98.3808 58.99 104.781 61.39 107.981C63.79 111.181 67.79 108.781 67.79 108.781" fill="white"/>
<path d="M64.59 98.7808C64.59 98.7808 62.19 89.5808 58.19 93.9808C54.19 98.3808 58.99 104.781 61.39 107.981C63.79 111.181 67.79 108.781 67.79 108.781" stroke="#263238" stroke-linecap="round" stroke-linejoin="round"/>
<path d="M97.36 132.861L101.34 159.681C101.34 159.681 109.74 157.321 112.54 155.261L107.24 134.631C107.24 134.631 103.7 133.011 97.37 132.861H97.36Z" fill="#FCD34D" stroke="#263238" stroke-miterlimit="10"/>
<path d="M98.6467 304.584C130.357 297.403 150.241 265.875 143.06 234.165C135.879 202.455 104.352 182.57 72.6417 189.751C40.9317 196.932 21.047 228.46 28.2281 260.17C35.4091 291.88 66.9366 311.765 98.6467 304.584Z" fill="#FCD34D"/>
<path d="M85.66 306.021C102.92 306.021 118.43 298.581 129.19 286.751L100.63 271.281L97.79 257.101L77.58 252.141L76.87 271.291L43.23 287.951C53.94 299.091 68.98 306.031 85.66 306.031V306.021Z" fill="white" stroke="#263238" stroke-miterlimit="10"/>
<path d="M77.04 266.781L95.31 263.481L90.45 255.301L77.59 252.141L77.04 266.781Z" fill="#263238" stroke="#263238" stroke-miterlimit="10"/>
<path d="M106.01 212.591C106.01 212.591 85.48 201.271 75.75 202.061C66.01 202.851 51.28 223.111 49.43 232.851C47.59 242.591 57.06 247.851 57.59 248.641C58.12 249.431 49.7 248.901 50.48 255.221C51.27 261.541 61.27 262.591 67.06 261.541C72.85 260.491 76.8 253.121 76.8 252.071C76.8 251.021 74.17 243.911 74.17 243.911C74.17 243.911 79.7 244.441 80.49 239.701C81.28 234.961 85.75 224.441 91.81 224.171C97.86 223.911 102.6 224.701 103.13 226.011C103.66 227.331 104.18 232.331 104.18 232.331C104.18 232.331 111.02 233.911 116.55 229.171C122.08 224.431 124.18 211.541 116.81 208.911C109.44 206.281 106.02 212.591 106.02 212.591H106.01Z" fill="#263238" stroke="#263238" stroke-linecap="round" stroke-linejoin="round"/>
<path d="M71.68 239.54L61.1 245.55C61.1 245.55 65.1 250.41 66.82 250.98C68.54 251.55 71.4 250.69 71.4 250.69C71.4 250.69 76.26 256.41 79.98 258.98C83.7 261.55 92.56 266.41 97.42 264.7C102.28 262.98 109.43 250.12 108.86 245.83C108.29 241.54 105.71 234.68 106 231.25C106.29 227.82 106.86 222.39 106.86 222.39C106.86 222.39 95.14 216.67 85.7 222.1C76.26 227.53 76.84 237.54 71.69 239.54H71.68Z" fill="white" stroke="#263238" stroke-linecap="round" stroke-linejoin="round"/>
<path d="M97.4201 234.391L97.7101 237.821C97.7101 237.821 105.14 238.681 102.29 241.251C99.4301 243.821 95.4301 244.401 95.4301 244.401" stroke="#263238" stroke-linecap="round" stroke-linejoin="round"/>
<path d="M83.6901 232.1C83.6901 232.1 86.5501 229.24 89.9801 229.53" stroke="#263238" stroke-linecap="round" stroke-linejoin="round"/>
<path d="M98.5601 228.67C98.5601 228.67 101.42 227.53 104.28 229.81" stroke="#263238" stroke-linecap="round" stroke-linejoin="round"/>
<path d="M88.9301 239.02C89.6149 239.02 90.1701 238.048 90.1701 236.85C90.1701 235.651 89.6149 234.68 88.9301 234.68C88.2452 234.68 87.6901 235.651 87.6901 236.85C87.6901 238.048 88.2452 239.02 88.9301 239.02Z" fill="#263238"/>
<path d="M102.98 235.529C102.98 236.729 102.42 237.699 101.74 237.699C101.06 237.699 100.5 236.729 100.5 235.529C100.5 234.329 101.05 233.359 101.74 233.359C102.43 233.359 102.98 234.329 102.98 235.529Z" fill="#263238"/>
<path d="M102.05 247.879C102.05 247.879 95.31 251.779 89.29 247.529" stroke="#263238" stroke-linecap="round" stroke-linejoin="round"/>
<path d="M85.6601 306.021C102.92 306.021 118.43 298.581 129.2 286.741L109.88 275.561L103.12 294.671L79.7201 295.021L64.4701 277.651L64.09 277.601L43.2401 287.921C53.9501 299.061 68.99 306.001 85.67 306.001L85.6601 306.021Z" fill="#263238" stroke="#263238" stroke-miterlimit="10"/>
<path d="M98.6467 304.584C130.357 297.403 150.241 265.875 143.06 234.165C135.879 202.455 104.352 182.57 72.6417 189.751C40.9317 196.932 21.047 228.46 28.2281 260.17C35.4091 291.88 66.9366 311.765 98.6467 304.584Z" stroke="#263238" stroke-miterlimit="10"/>
<path d="M232.09 127.899C232.09 127.899 233.85 131.429 234.86 135.209C235.87 138.989 235.62 141.759 237.88 143.529C240.15 145.289 242.67 145.799 242.16 148.069C241.65 150.339 239.64 150.839 239.64 150.839C239.64 150.839 238.38 162.179 237.88 166.209C237.38 170.239 224.02 166.209 224.02 166.209L221.5 179.059L205.12 180.069L203.36 166.209C203.36 166.209 196.81 158.399 195.04 146.809C193.28 135.219 199.83 121.609 213.69 121.609C227.55 121.609 232.09 127.909 232.09 127.909V127.899Z" fill="white" stroke="#263238" stroke-miterlimit="10"/>
<path d="M238.64 157.129C238.64 157.129 235.62 158.139 233.85 156.119" stroke="#263238" stroke-miterlimit="10"/>
<path d="M234.36 140.25L235.36 143.52" stroke="#263238" stroke-miterlimit="10"/>
<path d="M234.36 138.229C234.36 138.229 232.34 138.229 232.34 140.249" stroke="#263238" stroke-miterlimit="10"/>
<path d="M197.57 186.36C197.57 186.36 203.62 178.3 204.63 178.04C205.64 177.78 216.73 175.27 222.02 176.53C227.31 177.79 228.57 180.31 232.6 181.32C236.63 182.33 241.17 180.82 241.17 180.82C241.17 180.82 239.41 183.59 237.14 184.6C234.87 185.61 232.6 186.36 231.34 186.36C230.08 186.36 228.32 187.37 222.02 186.11C215.72 184.85 204.88 184.6 204.88 184.6L197.57 186.36Z" fill="white" stroke="#263238" stroke-miterlimit="10"/>
<path d="M306.93 181.571C306.93 181.571 309.7 171.991 310.96 169.981C312.22 167.961 315.24 165.191 317.01 164.181C318.77 163.171 325.58 159.141 327.34 159.141C329.1 159.141 330.05 161.121 328.6 161.911C327.69 162.411 323.31 164.181 322.8 164.931C322.3 165.691 320.78 166.951 320.78 166.951L324.81 167.961C324.81 167.961 326.32 170.731 327.08 171.991C327.84 173.251 328.59 174.511 327.58 176.271C326.57 178.031 325.31 180.811 323.8 181.561C322.29 182.321 323.04 178.791 323.04 178.791C323.04 178.791 320.02 181.811 318.5 183.071C316.99 184.331 314.97 185.341 314.97 185.341L314.21 187.361L306.9 181.561L306.93 181.571Z" fill="white" stroke="#263238" stroke-miterlimit="10"/>
<path d="M186.19 259.369C186.19 259.369 191.17 259.329 192.3 259.259C193.43 259.189 195.6 258.279 196.33 258.279C197.06 258.279 197.42 263.349 195.61 267.689C193.8 272.029 189.09 274.389 189.09 274.389L183.3 268.239C183.3 268.239 185.83 262.269 186.2 259.369H186.19Z" fill="white" stroke="#263238" stroke-miterlimit="10"/>
<path d="M190.63 349.92C190.63 349.92 188.3 363.25 189.96 375.59C191.63 387.92 200.96 435.92 200.96 435.92L197.29 449.92C197.29 449.92 193.29 452.25 195.29 453.25C197.29 454.25 206.96 453.25 206.96 453.25C206.96 453.25 208.29 447.25 209.29 444.25C210.29 441.25 213.29 439.25 211.96 435.58C210.63 431.91 209.63 428.25 209.63 428.25L214.3 356.92L190.63 349.92Z" fill="white" stroke="#263238" stroke-miterlimit="10"/>
<path d="M211.12 433.159C209.55 433.049 206.22 433.159 204.96 435.919C203.29 439.589 199.63 448.589 199.63 448.589L195.96 450.919L195.61 451.159C194.83 451.879 194.27 452.739 195.3 453.259C197.3 454.259 206.97 453.259 206.97 453.259C206.97 453.259 208.3 447.259 209.3 444.259C210.3 441.259 213.3 439.259 211.97 435.589C211.67 434.769 211.39 433.939 211.13 433.159H211.12Z" fill="#263238" stroke="#263238" stroke-miterlimit="10"/>
<path d="M206.63 439.261L208.13 453.261H210.46L211.63 438.091C211.63 438.091 207.63 435.261 206.63 439.261Z" fill="#263238" stroke="#263238" stroke-miterlimit="10"/>
<path d="M233.63 354.59L239.63 367.26C239.63 367.26 240.63 385.46 245.29 396.46C249.96 407.46 259.29 425.13 259.29 425.13L262.29 430.46C262.29 430.46 257.96 435.46 259.29 438.46C260.62 441.46 266.29 443.13 268.62 445.13C270.95 447.13 271.45 453.26 274.12 453.26C276.79 453.26 284.12 453.93 284.79 452.26C285.46 450.59 281.12 448.59 281.12 448.59C281.12 448.59 274.7 436.42 274.04 434.76C273.37 433.09 263.29 376.59 262.62 369.93C261.95 363.26 259.95 351.6 259.95 351.6L233.62 354.6L233.63 354.59Z" fill="white" stroke="#263238" stroke-miterlimit="10"/>
<path d="M275.13 448.92C275.13 448.92 269.96 440.79 267.3 437.12C264.96 433.9 261.58 432.73 260.8 432.5C259.7 434.22 258.51 436.68 259.3 438.45C260.63 441.45 265.97 443.11 267.59 445.72C269.85 449.36 271.46 453.25 274.13 453.25C276.8 453.25 284.13 453.92 284.8 452.25C285.47 450.58 281.13 448.58 281.13 448.58C280.13 448.25 275.13 448.91 275.13 448.91V448.92Z" fill="#263238" stroke="#263238" stroke-miterlimit="10"/>
<path d="M259.3 439.711L260.45 453.761H262.58L263.8 443.261C263.8 443.261 264.05 438.661 259.3 439.711Z" fill="#263238" stroke="#263238" stroke-miterlimit="10"/>
<path d="M192.3 259.26C192.3 259.26 184.3 276.26 182.3 288.26C180.3 300.26 183.8 322.26 183.8 322.26L182.3 352.26C182.3 352.26 211.3 359.76 231.3 359.76C251.3 359.76 267.8 354.76 267.8 354.76C267.8 354.76 268.3 322.26 264.3 306.76C260.3 291.26 251.3 265.26 250.8 263.76C250.3 262.26 246.8 257.76 246.8 257.76C246.8 257.76 214.8 264.26 192.3 259.26Z" fill="#263238" stroke="#263238" stroke-miterlimit="10"/>
<path d="M200.16 307.369L231.62 336.089" stroke="#707070" stroke-miterlimit="10"/>
<path d="M210.42 325.83L224.78 337.46" stroke="#707070" stroke-miterlimit="10"/>
<path d="M200.34 185.86C200.34 185.86 180.68 193.92 179.93 196.19C179.17 198.46 173.38 210.81 173.38 210.81C173.38 210.81 149.69 247.1 150.2 248.86C150.7 250.62 177.92 267.26 177.92 267.26C177.92 267.26 177.16 268.02 177.92 268.52C178.68 269.02 184.47 270.54 184.47 270.54C184.47 270.54 188.5 266.76 188.5 263.23C188.5 259.7 187.49 258.19 186.74 257.94C185.98 257.69 182.46 255.67 182.46 255.67L181.45 255.42L170.61 243.83L184.22 224.93C184.22 224.93 196.32 246.6 196.32 249.37C196.32 252.14 190.27 258.69 191.53 261.72C192.79 264.74 197.33 265.5 214.97 267.26C232.61 269.02 247.48 263.23 248.99 261.97C250.5 260.71 246.47 252.9 246.47 247.1C246.47 241.3 246.72 220.14 246.72 220.14C246.72 220.14 272.17 230.72 277.21 227.95C282.25 225.18 312.74 192.17 312.74 192.17L317.28 187.89L307.2 178.57L300.4 184.62L271.17 207.8C271.17 207.8 269.66 206.29 268.9 206.29C268.14 206.29 266.63 206.54 266.63 206.54C266.63 206.54 247.48 193.44 245.21 191.42C242.94 189.4 236.64 189.15 236.64 189.15L224.29 186.88C224.29 186.88 210.68 181.34 200.35 185.87L200.34 185.86Z" fill="white" stroke="#263238" stroke-miterlimit="10"/>
<path d="M246.7 220.129L231.33 217.359" stroke="#263238" stroke-miterlimit="10"/>
<path d="M242.67 219.619L228.56 223.909" stroke="#263238" stroke-miterlimit="10"/>
<path d="M231.11 253.639C231.9 252.769 232.65 251.839 233.35 250.869" stroke="#263238" stroke-miterlimit="10"/>
<path d="M211.68 266.241C211.68 266.241 221.06 263.171 228.73 256.051" stroke="#263238" stroke-miterlimit="10"/>
<path d="M233.6 245.33C233.6 245.33 227.8 248.61 221.76 252.13" stroke="#263238" stroke-miterlimit="10"/>
<path d="M179.78 213.58L184.21 224.92C184.21 224.92 175.64 218.12 174.63 215.09" stroke="#263238" stroke-miterlimit="10"/>
<path d="M177.91 208.789L178.78 211.009" stroke="#263238" stroke-miterlimit="10"/>
<path d="M169.34 222.9C169.34 222.9 173.88 225.17 180.93 223.4" stroke="#263238" stroke-miterlimit="10"/>
<path d="M169.34 243.061C169.34 243.061 164.05 244.071 159.26 242.561" stroke="#263238" stroke-miterlimit="10"/>
<path d="M162.54 239.279C162.54 239.279 166.32 241.039 169.09 241.039" stroke="#263238" stroke-miterlimit="10"/>
<path d="M181.44 255.41C181.44 255.41 183.96 264.99 177.91 267.25Z" fill="white"/>
<path d="M181.44 255.41C181.44 255.41 183.96 264.99 177.91 267.25" stroke="#263238" stroke-miterlimit="10"/>
<path d="M302.14 183.09L312.73 192.16" stroke="#263238" stroke-miterlimit="10"/>
<path d="M265.88 214.609C265.3 215.199 264.69 215.789 264.09 216.349" stroke="#263238" stroke-miterlimit="10"/>
<path d="M271.15 208.789C271.15 208.789 269.75 210.489 267.83 212.569" stroke="#263238" stroke-miterlimit="10"/>
<path d="M267.87 207.779C267.87 207.779 263.84 211.809 260.06 213.829" stroke="#263238" stroke-miterlimit="10"/>
<path d="M232.82 122.91C232.82 122.91 234.61 127.55 231.03 139.34C227.46 151.13 224.24 158.98 226.03 166.49C227.82 174 232.1 175.42 232.82 174.35C233.54 173.28 235.32 171.85 235.32 171.85C235.32 171.85 236.03 174.71 232.82 177.21C229.61 179.71 217.1 182.21 209.25 181.14C201.39 180.07 196.39 183.28 193.53 176.5C190.67 169.71 192.1 159 191.39 154.71C190.68 150.42 183.53 144.71 188.53 131.85C193.53 118.99 213.53 117.56 220.32 117.56C227.11 117.56 231.75 115.42 232.82 122.92V122.91Z" fill="#263238" stroke="#263238" stroke-miterlimit="10"/>
<path d="M316.79 119.559C326.234 119.559 333.89 111.903 333.89 102.459C333.89 93.0153 326.234 85.3594 316.79 85.3594C307.346 85.3594 299.69 93.0153 299.69 102.459C299.69 111.903 307.346 119.559 316.79 119.559Z" fill="white" stroke="#263238" stroke-miterlimit="10"/>
<path d="M309.89 98.2599L317.23 106.26L331.89 84.9199" stroke="#263238" stroke-width="3" stroke-linecap="round" stroke-linejoin="round"/>
<path d="M43.323 259.248C50.001 252.57 50.0009 241.743 43.323 235.065C36.645 228.387 25.8179 228.387 19.1399 235.065C12.462 241.743 12.462 252.57 19.1399 259.248C25.8179 265.926 36.645 265.926 43.323 259.248Z" fill="white" stroke="#263238" stroke-miterlimit="10"/>
<path d="M24.33 242.961L31.66 250.961L46.33 229.621" stroke="#263238" stroke-width="3" stroke-linecap="round" stroke-linejoin="round"/>
<path d="M75.56 453.699H439.56" stroke="#263238" stroke-miterlimit="10"/>
<path d="M35.56 453.699H64.56" stroke="#263238" stroke-miterlimit="10"/>
</g>
<defs>
<clipPath id="clip0_417_421">
<rect width="462.85" height="454.26" fill="white"/>
</clipPath>
</defs>
</svg>
