<svg width="664" height="412" viewBox="0 0 664 412" fill="none" xmlns="http://www.w3.org/2000/svg">
<g clip-path="url(#clip0_385_380)">
<path d="M112.55 408.22C140.4 389.63 147.2 354.46 146.6 322.75C146.5 317.45 147.17 311.88 144.7 307.21C142.22 302.53 136.32 299.27 131.49 301.43C127.48 303.22 125.67 307.76 123.39 311.51C120.35 316.49 115.87 320.59 110.63 323.18C107.19 324.88 102.95 325.88 99.61 324C95.02 321.41 94.58 315.1 94.69 309.84C94.9 300.03 95.12 290.23 95.33 280.42C95.45 275.16 95.55 269.79 93.96 264.77C92.38 259.75 88.79 255.06 83.74 253.58C78.69 252.1 72.37 254.9 71.22 260.03C70.74 262.17 71.15 264.4 70.97 266.58C70.79 268.76 69.72 271.16 67.61 271.74C65.47 272.32 63.36 270.8 61.79 269.24C56.37 263.84 52.74 256.94 49.36 250.08C45.97 243.22 42.7 236.2 37.79 230.33C32.89 224.46 26.05 219.76 18.42 219.22C10.79 218.68 2.58002 223.21 0.54002 230.58C-1.50998 237.97 2.76002 245.56 7.44002 251.64C14.38 260.66 22.63 268.66 31.86 275.32C33.52 276.52 35.32 277.82 35.94 279.78C37.04 283.3 33.62 286.74 30.09 287.84C26.09 289.09 21.79 288.61 17.62 289.04C13.45 289.46 8.92002 291.2 7.29002 295.06C5.02002 300.41 9.49002 306.11 13.92 309.87C22.79 317.4 32.95 323.39 43.83 327.51C47.73 328.99 51.84 330.29 54.96 333.06C58.08 335.83 59.92 340.59 57.95 344.26C55.98 347.94 51.06 349.06 46.96 348.24C42.86 347.43 39.22 345.17 35.33 343.65C28.04 340.81 18.57 341.17 13.78 347.35C10.63 351.41 10.27 357.13 11.76 362.05C13.24 366.97 16.34 371.24 19.64 375.18C31.17 388.96 46.04 400.13 62.95 406.2C79.86 412.27 95.58 414.08 112.57 408.24" fill="#EBEBEB"/>
<path d="M104.48 388.251C100 372.191 93.6101 354.981 86.3001 337.211C84.4601 332.771 82.6301 328.391 80.8401 324.071C79.0401 319.761 77.2501 315.491 75.2401 311.421C71.2601 303.261 66.8001 295.711 62.3401 288.681C57.8801 281.641 53.3901 275.121 49.1501 269.051C44.8901 262.991 40.8201 257.411 36.8901 252.491C29.0501 242.611 21.7901 235.391 16.6001 230.631C14.0101 228.241 11.9401 226.451 10.5201 225.261C9.83008 224.681 9.29008 224.241 8.90008 223.911C8.53008 223.611 8.33008 223.471 8.33008 223.471C8.33008 223.471 8.50008 223.651 8.85008 223.971C9.23008 224.311 9.75008 224.781 10.4201 225.381C11.8001 226.621 13.8401 228.441 16.3901 230.861C21.5101 235.681 28.6801 242.941 36.4501 252.841C40.3501 257.781 44.3901 263.361 48.6201 269.431C52.8401 275.511 57.3001 282.041 61.7301 289.071C66.1601 296.101 70.5901 303.631 74.5501 311.761C76.5401 315.821 78.3101 320.061 80.1201 324.381C81.9101 328.701 83.7301 333.081 85.5801 337.511C92.8801 355.271 99.2801 372.441 103.79 388.451" fill="#E0E0E0"/>
<path d="M75.0501 311.341C75.1001 311.341 75.2901 310.551 75.5701 309.101C75.8601 307.651 76.2201 305.541 76.6301 302.921C77.4501 297.691 78.3401 290.431 79.3101 282.421C80.2801 274.411 81.2901 267.181 82.2201 261.981C82.6801 259.381 83.0701 257.281 83.3701 255.831C83.6601 254.381 83.7901 253.571 83.7401 253.561C83.6901 253.551 83.4501 254.331 83.0701 255.761C82.6801 257.191 82.2001 259.281 81.6701 261.881C80.5901 267.071 79.4801 274.311 78.5201 282.331C77.5701 290.271 76.7201 297.451 76.0801 302.851C75.7501 305.361 75.4801 307.451 75.2701 309.061C75.0801 310.531 75.0001 311.341 75.0601 311.351L75.0501 311.341Z" fill="#E0E0E0"/>
<path d="M6.68994 297.67C6.68994 297.67 6.92994 297.74 7.38994 297.79C7.94994 297.85 8.60994 297.91 9.41994 297.99C11.1799 298.16 13.7199 298.4 16.8599 298.8C23.1299 299.54 31.7599 300.89 41.2099 302.79C50.6599 304.71 59.1299 306.82 65.2099 308.53C68.2599 309.36 70.6999 310.11 72.3999 310.61C73.1699 310.84 73.8199 311.03 74.3499 311.18C74.7999 311.3 75.0399 311.35 75.0499 311.33C75.0499 311.3 74.8399 311.2 74.3999 311.03C73.8799 310.83 73.2499 310.6 72.4899 310.32C70.8199 309.72 68.3999 308.9 65.3599 307.99C59.2999 306.14 50.8299 303.94 41.3599 302.01C31.8899 300.1 23.2199 298.84 16.9199 298.24C13.7699 297.91 11.2099 297.76 9.43994 297.68C8.62994 297.66 7.95994 297.64 7.39994 297.62C6.92994 297.62 6.68994 297.62 6.68994 297.66V297.67Z" fill="#E0E0E0"/>
<path d="M103.74 386.971C103.74 386.971 103.92 386.701 104.2 386.141C104.51 385.511 104.91 384.701 105.4 383.701C106.43 381.581 107.85 378.481 109.55 374.621C112.96 366.911 117.35 356.121 122.04 344.161C126.73 332.191 131.03 321.381 134.31 313.631C135.93 309.831 137.26 306.721 138.23 304.461C138.66 303.441 139.01 302.611 139.29 301.961C139.52 301.391 139.64 301.081 139.61 301.071C139.59 301.061 139.43 301.341 139.14 301.901C138.83 302.531 138.43 303.341 137.94 304.341C136.91 306.461 135.49 309.561 133.79 313.421C130.38 321.131 125.99 331.921 121.3 343.891C116.61 355.861 112.31 366.661 109.04 374.421C107.42 378.221 106.09 381.331 105.12 383.591C104.69 384.611 104.34 385.441 104.06 386.091C103.83 386.661 103.71 386.971 103.74 386.981V386.971Z" fill="#E0E0E0"/>
<path d="M13.0898 356.63C13.0898 356.63 13.3898 356.78 13.9898 356.99C14.6698 357.22 15.5498 357.52 16.6298 357.89C19.0198 358.69 22.3198 359.79 26.3498 361.13C34.5498 363.87 45.8298 367.8 58.2798 372.17C70.7398 376.54 82.0498 380.39 90.3098 383C94.4398 384.31 97.7798 385.33 100.11 386C101.21 386.31 102.1 386.56 102.79 386.76C103.41 386.92 103.73 387 103.74 386.97C103.74 386.94 103.44 386.82 102.84 386.61C102.16 386.38 101.29 386.08 100.2 385.71C97.8098 384.91 94.5198 383.82 90.4798 382.47C82.2798 379.73 70.9998 375.8 58.5398 371.42C46.0898 367.05 34.7698 363.2 26.5198 360.59C22.3898 359.28 19.0498 358.26 16.7198 357.59C15.6198 357.28 14.7298 357.03 14.0398 356.83C13.4198 356.67 13.0998 356.59 13.0898 356.62V356.63Z" fill="#E0E0E0"/>
<path d="M541.011 204.445L508.597 286.859L630.86 334.946L663.274 252.532L541.011 204.445Z" fill="#EBEBEB"/>
<path d="M663.24 253.64C663.24 253.64 662.71 253.9 661.67 254.29C660.52 254.7 658.99 255.25 657.09 255.93C652.97 257.35 647.23 259.34 640.17 261.77C625.73 266.64 605.97 273.29 584.07 280.67L583.61 280.83L583.37 280.41C583.18 280.09 582.98 279.74 582.78 279.39C571.18 259.1 560.68 240.74 553 227.31C549.29 220.7 546.26 215.32 544.09 211.46C543.11 209.66 542.32 208.21 541.72 207.12C541.19 206.12 540.93 205.59 540.96 205.57C540.99 205.55 541.33 206.04 541.92 207C542.57 208.06 543.42 209.47 544.48 211.23C546.73 215.04 549.87 220.36 553.72 226.89C561.48 240.27 572.08 258.57 583.8 278.8C584 279.15 584.2 279.5 584.39 279.82L583.68 279.55C605.62 272.31 625.42 265.76 639.89 260.99C647 258.7 652.78 256.84 656.93 255.5C658.86 254.9 660.41 254.43 661.58 254.07C662.65 253.75 663.21 253.61 663.23 253.65L663.24 253.64Z" fill="#E0E0E0"/>
<path d="M508.56 287.98C508.4 287.69 522.04 280.01 539.01 270.82C555.99 261.63 569.88 254.42 570.04 254.71C570.2 255 556.56 262.68 539.58 271.87C522.61 281.05 508.71 288.27 508.56 287.98Z" fill="#E0E0E0"/>
<path d="M611.09 269.66C611.41 269.57 616.08 284.35 621.53 302.68C626.98 321.02 631.15 335.95 630.83 336.05C630.51 336.14 625.84 321.36 620.39 303.02C614.94 284.69 610.78 269.75 611.09 269.66Z" fill="#E0E0E0"/>
<path d="M631.913 97.8443L559.857 129.22L581.005 177.785L653.06 146.41L631.913 97.8443Z" fill="#EBEBEB"/>
<path d="M632.39 98.2795C632.39 98.2795 632.28 98.6095 632 99.2195C631.69 99.8795 631.27 100.759 630.76 101.849C629.62 104.189 628.03 107.459 626.08 111.479C622.03 119.649 616.49 130.819 610.35 143.199L610.22 143.459L609.94 143.379C609.72 143.319 609.49 143.259 609.26 143.199C595.77 139.529 583.56 136.199 574.63 133.769C570.26 132.549 566.71 131.549 564.16 130.829C562.98 130.479 562.04 130.209 561.32 129.999C560.67 129.799 560.34 129.689 560.34 129.659C560.34 129.639 560.7 129.709 561.35 129.859C562.07 130.039 563.03 130.269 564.22 130.559C566.78 131.219 570.36 132.139 574.75 133.279C583.69 135.659 595.92 138.909 609.43 142.509C609.66 142.569 609.9 142.639 610.11 142.689L609.7 142.869C615.91 130.529 621.52 119.379 625.62 111.239C627.66 107.269 629.32 104.029 630.51 101.709C631.07 100.639 631.53 99.7895 631.87 99.1395C632.19 98.5595 632.36 98.2495 632.39 98.2695V98.2795Z" fill="#E0E0E0"/>
<path d="M581.48 178.23C581.29 178.17 583.81 169.16 587.11 158.09C590.41 147.02 593.23 138.1 593.42 138.15C593.61 138.21 591.09 147.22 587.79 158.29C584.49 169.35 581.67 178.28 581.48 178.22V178.23Z" fill="#E0E0E0"/>
<path d="M617.11 127.109C617.2 126.939 625.44 131.209 635.49 136.659C645.55 142.109 653.63 146.669 653.54 146.839C653.45 147.009 645.22 142.739 635.15 137.289C625.09 131.839 617.01 127.279 617.1 127.109H617.11Z" fill="#E0E0E0"/>
<path d="M650.78 408.67C650.78 408.81 506.21 408.93 327.91 408.93C149.61 408.93 5.00977 408.81 5.00977 408.67C5.00977 408.53 149.55 408.41 327.91 408.41C506.27 408.41 650.78 408.53 650.78 408.67Z" fill="#263238"/>
<path d="M534.67 112.03H121.22C113.173 112.03 106.65 118.553 106.65 126.6V390.14C106.65 398.187 113.173 404.71 121.22 404.71H534.67C542.717 404.71 549.24 398.187 549.24 390.14V126.6C549.24 118.553 542.717 112.03 534.67 112.03Z" fill="#263238"/>
<path d="M88.1401 383.061H567.65V390.871C567.65 400.691 559.68 408.671 549.85 408.671H105.94C96.1201 408.671 88.1401 400.701 88.1401 390.871V383.061Z" fill="#263238"/>
<path d="M536.12 123.66H118.53V370.82H536.12V123.66Z" fill="#455A64"/>
<path d="M284.31 383.061L290.26 392.521H373.99L379.52 383.061H284.31Z" fill="#455A64"/>
<path d="M130.4 132.021H525.1C526.91 132.021 528.37 133.49 528.37 135.29V366.751C528.37 368.561 526.9 370.02 525.1 370.02H130.4C128.59 370.02 127.13 368.551 127.13 366.751V135.29C127.13 133.48 128.6 132.021 130.4 132.021Z" fill="#EBEBEB"/>
<path d="M528.38 149.461H127.13V370.031H528.38V149.461Z" fill="#EBEBEB"/>
<path d="M160.04 141.211C160.04 142.981 158.61 144.411 156.84 144.411C155.07 144.411 153.64 142.981 153.64 141.211C153.64 139.441 155.07 138.011 156.84 138.011C158.61 138.011 160.04 139.441 160.04 141.211Z" fill="#455A64"/>
<path d="M140.62 141.211C140.62 142.981 139.19 144.411 137.42 144.411C135.65 144.411 134.22 142.981 134.22 141.211C134.22 139.441 135.66 138.011 137.42 138.011C139.18 138.011 140.62 139.441 140.62 141.211Z" fill="#455A64"/>
<path d="M149.941 141.211C149.941 142.981 148.511 144.411 146.741 144.411C144.971 144.411 143.541 142.981 143.541 141.211C143.541 139.441 144.971 138.011 146.741 138.011C148.511 138.011 149.941 139.441 149.941 141.211Z" fill="#455A64"/>
<path d="M545.43 383.061C545.43 383.221 447.2 383.351 326.05 383.351C204.9 383.351 106.65 383.221 106.65 383.061C106.65 382.901 204.86 382.771 326.05 382.771C447.24 382.771 545.43 382.901 545.43 383.061Z" fill="#455A64"/>
<path d="M106.56 386.281C106.56 386.281 106.44 386.221 106.22 386.081C105.99 385.931 105.67 385.711 105.24 385.431C104.81 385.141 104.27 384.771 103.64 384.341C103.01 383.901 102.25 383.421 101.47 382.771C100.67 382.141 99.7801 381.441 98.8001 380.661C97.8301 379.871 96.8501 378.921 95.7401 377.931C93.5601 375.921 91.2101 373.421 88.7701 370.431C83.9401 364.441 79.0101 356.211 75.6001 345.771C72.2601 335.351 70.4101 322.771 71.4501 309.001C71.9801 302.131 73.0901 294.951 75.1801 287.711C77.2401 280.471 80.1601 273.111 84.4201 266.171C85.4701 264.431 86.6501 262.751 87.8801 261.081C89.1801 259.471 90.4801 257.851 91.8001 256.221C93.1901 254.651 94.6401 253.121 96.0801 251.541C97.5501 250.001 99.1401 248.561 100.68 247.041C107.02 241.171 114.16 235.811 121.81 230.871C137.13 220.961 154.44 212.761 172.26 204.221C190.03 195.521 208.75 187.171 227.95 178.731C304.84 145.051 375.22 116.371 426.48 96.4505C452.1 86.4505 473 78.8205 487.47 73.5905C494.71 71.0105 500.37 69.0905 504.19 67.7705C506.1 67.1205 507.56 66.6206 508.55 66.2906C509.04 66.1306 509.41 66.0105 509.67 65.9205C509.92 65.8405 510.05 65.8105 510.05 65.8105C510.05 65.8105 509.93 65.8706 509.69 65.9706C509.44 66.0706 509.07 66.2005 508.59 66.3905C507.61 66.7505 506.16 67.2806 504.26 67.9706C500.45 69.3506 494.83 71.3706 487.61 73.9806C473.19 79.3206 452.33 87.0505 426.75 97.1405C375.57 117.231 305.25 146.021 228.37 179.691C209.17 188.131 190.47 196.461 172.7 205.151C154.87 213.681 137.58 221.841 122.33 231.681C114.71 236.591 107.61 241.901 101.3 247.721C99.7701 249.221 98.1801 250.651 96.7201 252.171C95.2901 253.731 93.8501 255.251 92.4701 256.801C91.1601 258.421 89.8601 260.021 88.5801 261.611C87.3701 263.251 86.2001 264.901 85.1601 266.621C80.9401 273.461 78.0301 280.751 75.9601 287.921C73.8601 295.101 72.7401 302.231 72.1901 309.051C71.1101 322.721 72.8901 335.221 76.1601 345.591C79.4901 355.971 84.3401 364.181 89.0901 370.171C91.4901 373.161 93.8101 375.671 95.9501 377.691C97.0401 378.681 98.0101 379.651 98.9701 380.441C99.9401 381.231 100.81 381.941 101.6 382.581C102.37 383.241 103.11 383.741 103.73 384.181C104.35 384.631 104.88 385.001 105.3 385.311C105.71 385.611 106.03 385.841 106.25 386.001C106.46 386.161 106.56 386.241 106.56 386.251V386.281Z" fill="#263238"/>
<path d="M493.25 32.9002L511.76 48.2502L510.05 65.8402L525.22 57.4002L541.38 68.8802L601.61 30.2002L493.25 32.9002Z" fill="#0071E3"/>
<g opacity="0.5">
<path d="M511.76 48.2502L599.98 30.2402L520.75 54.2202L510.05 65.8402L511.76 48.2502Z" fill="black"/>
</g>
<g opacity="0.8">
<path d="M520.75 54.2197L525.22 57.3997L510.05 65.8397L520.75 54.2197Z" fill="black"/>
</g>
<path d="M243.326 264.047L147.128 273.174L153.28 338.013L249.478 328.885L243.326 264.047Z" fill="white"/>
<path d="M249.48 328.9C249.48 328.9 249.41 328.48 249.33 327.7C249.24 326.88 249.12 325.74 248.96 324.26C248.65 321.22 248.2 316.82 247.63 311.2C246.51 299.92 244.92 283.76 242.97 264.09L243.36 264.41C216.8 266.95 183.39 270.16 147.18 273.62C147.08 273.72 147.94 272.7 147.58 273.14V273.16V273.19V273.26L147.6 273.4L147.63 273.67L147.68 274.21L147.78 275.29L147.98 277.45C148.12 278.89 148.25 280.32 148.39 281.74C148.66 284.59 148.93 287.42 149.19 290.23C149.72 295.85 150.24 301.38 150.76 306.81C151.78 317.66 152.76 328.1 153.69 337.98L153.24 337.61C181.52 335.01 205.52 332.8 222.49 331.24C230.96 330.48 237.68 329.88 242.32 329.47C244.6 329.28 246.37 329.12 247.61 329.02C248.19 328.98 248.64 328.94 248.99 328.91C249.3 328.89 249.46 328.88 249.47 328.89C249.47 328.89 249.33 328.92 249.04 328.96C248.71 329 248.27 329.05 247.71 329.11C246.49 329.24 244.75 329.42 242.51 329.65C237.89 330.11 231.21 330.79 222.79 331.63C205.76 333.3 181.68 335.65 153.31 338.42L152.9 338.46L152.86 338.05C151.91 328.17 150.91 317.74 149.88 306.89C149.36 301.46 148.84 295.93 148.3 290.31C148.03 287.5 147.76 284.67 147.49 281.82C147.35 280.39 147.22 278.96 147.08 277.53L146.88 275.37L146.78 274.29L146.73 273.75L146.7 273.48V273.34L146.68 273.27V273.24V273.22C146.32 273.65 147.17 272.61 147.09 272.72C183.31 269.32 216.73 266.18 243.29 263.68L243.65 263.65L243.68 264.01C245.48 283.79 246.95 300.04 247.98 311.38C248.47 316.97 248.86 321.35 249.12 324.38C249.24 325.83 249.33 326.96 249.4 327.76C249.46 328.52 249.47 328.89 249.47 328.89L249.48 328.9Z" fill="#455A64"/>
<path d="M243.32 264.061C243.32 264.061 243.09 264.411 242.58 265.021C242.01 265.691 241.25 266.571 240.31 267.661C238.25 270.001 235.37 273.271 231.83 277.291C224.53 285.451 214.52 296.641 203.37 309.121L203.12 309.401L202.8 309.201C201.99 308.681 201.12 308.131 200.24 307.571C185.57 298.161 172.29 289.641 162.58 283.421C157.85 280.331 153.99 277.821 151.22 276.011C149.95 275.161 148.93 274.481 148.16 273.961C147.47 273.481 147.11 273.221 147.12 273.191C147.14 273.161 147.53 273.381 148.25 273.801C149.05 274.281 150.09 274.921 151.4 275.711C154.2 277.451 158.11 279.891 162.91 282.881C172.65 289.051 185.98 297.491 200.71 306.811C201.59 307.371 202.46 307.931 203.27 308.441L202.7 308.521C213.93 296.121 224.01 284.991 231.37 276.881C235 272.941 237.95 269.731 240.06 267.431C241.05 266.381 241.84 265.541 242.45 264.901C243 264.331 243.3 264.041 243.33 264.061H243.32Z" fill="#455A64"/>
<path d="M446.677 170.388L433.681 216.377L501.919 235.661L514.915 189.672L446.677 170.388Z" fill="white"/>
<path d="M501.93 235.67C501.93 235.67 502 235.37 502.14 234.81C502.3 234.23 502.52 233.41 502.8 232.36C503.39 230.2 504.26 227.07 505.36 223.07C507.59 215.06 510.78 203.58 514.67 189.61L514.85 189.93C496.01 184.62 472.3 177.95 446.61 170.71C446.52 170.76 447.37 170.28 447.01 170.49V170.53V170.58L446.97 170.68L446.92 170.87L446.81 171.25L446.59 172.02L446.16 173.55C445.87 174.57 445.59 175.58 445.3 176.59C444.73 178.61 444.16 180.62 443.6 182.61C442.47 186.6 441.36 190.52 440.27 194.37C438.09 202.07 435.99 209.46 434 216.47L433.79 216.1C453.83 221.83 470.83 226.69 482.85 230.12C488.85 231.85 493.6 233.22 496.89 234.17C498.5 234.64 499.75 235.01 500.63 235.27C501.04 235.39 501.36 235.49 501.6 235.56C501.82 235.63 501.93 235.67 501.94 235.67C501.94 235.67 501.84 235.65 501.63 235.6C501.39 235.54 501.08 235.46 500.68 235.35C499.81 235.11 498.57 234.78 496.98 234.34C493.7 233.43 488.95 232.12 482.96 230.46C470.87 227.08 453.77 222.3 433.63 216.67L433.34 216.59L433.42 216.3C435.39 209.29 437.48 201.89 439.65 194.19C440.74 190.34 441.84 186.42 442.97 182.43C443.53 180.44 444.1 178.43 444.67 176.41C444.96 175.4 445.24 174.38 445.53 173.37L445.96 171.84L446.18 171.07L446.29 170.69L446.34 170.5L446.37 170.4V170.35L446.39 170.33C446.03 170.52 446.89 170.03 446.8 170.09C472.48 177.37 496.18 184.1 515.01 189.44L515.26 189.51L515.19 189.76C511.17 203.77 507.87 215.27 505.56 223.31C504.41 227.26 503.51 230.36 502.89 232.5C502.59 233.53 502.35 234.32 502.18 234.89C502.02 235.42 501.93 235.68 501.93 235.68V235.67Z" fill="#455A64"/>
<path d="M514.931 189.68C514.931 189.68 514.681 189.86 514.171 190.14C513.601 190.45 512.851 190.85 511.921 191.35C509.891 192.41 507.051 193.88 503.561 195.69C496.401 199.34 486.581 204.34 475.651 209.91L475.401 210.04L475.231 209.81C474.811 209.24 474.361 208.63 473.911 208.01C466.371 197.68 459.551 188.33 454.561 181.49C452.141 178.12 450.171 175.38 448.761 173.41C448.121 172.49 447.601 171.75 447.211 171.19C446.861 170.68 446.691 170.4 446.711 170.39C446.731 170.38 446.941 170.63 447.321 171.11C447.741 171.65 448.281 172.36 448.971 173.25C450.421 175.19 452.451 177.89 454.941 181.21C459.971 188.02 466.851 197.33 474.451 207.61C474.901 208.23 475.351 208.84 475.771 209.41L475.361 209.31C486.341 203.81 496.181 198.87 503.371 195.27C506.901 193.54 509.771 192.12 511.821 191.11C512.781 190.65 513.541 190.29 514.131 190.01C514.661 189.77 514.941 189.65 514.951 189.67L514.931 189.68Z" fill="#455A64"/>
<path d="M155.06 159.42C155.06 159.42 159.76 155.61 167.06 167.04C174.35 178.47 177.34 185.18 177.34 185.18C177.34 185.18 179.2 187.54 180.77 185.73C182.34 183.92 184.26 179.02 187.28 179.57C190.41 180.15 191.75 183.45 191.65 188.51C191.55 193.57 191.75 204.66 191.77 205.66C191.79 206.64 192.49 208.03 193.76 206.97C195.03 205.91 202 196.45 206.29 200.02C210.58 203.6 207.99 217.65 207.74 219.19C207.49 220.73 207.84 221.34 208.59 221.65C209.34 221.95 211.38 218.55 213.48 215.94C215.57 213.33 218.46 210.67 220.76 212.94C223.06 215.21 224.72 225.4 216.57 243.01L212.26 250.92L203.22 251.29C183.82 250.91 175.38 244.96 174.35 241.89C173.32 238.83 176.97 237.4 180.23 236.66C183.49 235.92 187.45 235.57 187.5 234.77C187.56 233.96 187.16 233.37 185.66 232.93C184.16 232.48 170.4 228.66 169.06 223.23C167.72 217.81 179.28 215.68 180.79 215.01C182.3 214.34 181.36 213.1 180.49 212.65C179.6 212.19 169.71 207.16 165.12 205.03C160.53 202.9 158.14 200.25 158.99 197.18C159.81 194.22 165.06 194.64 167.38 194.02C169.7 193.4 168.39 190.69 168.39 190.69C168.39 190.69 163.67 185.06 156.59 173.5C149.51 161.94 155.14 159.34 155.14 159.34" fill="#0071E3"/>
<path d="M161.61 169.641C161.61 169.641 161.65 169.731 161.75 169.891C161.85 170.061 161.99 170.301 162.17 170.611C162.55 171.251 163.11 172.171 163.82 173.361C165.26 175.741 167.36 179.181 169.98 183.411C175.21 191.881 182.54 203.521 190.68 216.351C198.82 229.181 206.18 240.811 211.45 249.251C214.08 253.461 216.21 256.881 217.69 259.251C218.42 260.421 218.99 261.331 219.39 261.971C219.58 262.271 219.73 262.501 219.84 262.671C219.94 262.831 220 262.901 220 262.901C220 262.901 219.96 262.811 219.86 262.651C219.76 262.481 219.62 262.241 219.44 261.931C219.06 261.291 218.5 260.371 217.79 259.181C216.35 256.801 214.25 253.361 211.63 249.131C206.4 240.661 199.07 229.021 190.93 216.181C182.79 203.351 175.44 191.731 170.16 183.291C167.53 179.081 165.4 175.661 163.92 173.291C163.19 172.121 162.62 171.211 162.22 170.571C162.03 170.271 161.88 170.041 161.77 169.871C161.67 169.711 161.61 169.641 161.61 169.641Z" fill="#263238"/>
<path d="M184.88 186.53C184.88 186.53 184.8 186.75 184.71 187.16C184.62 187.57 184.5 188.16 184.36 188.9C184.09 190.37 183.77 192.42 183.46 194.68C183.17 196.91 182.9 198.92 182.69 200.47C182.6 201.16 182.52 201.74 182.45 202.22C182.39 202.63 182.37 202.86 182.39 202.87C182.41 202.87 182.47 202.65 182.57 202.24C182.66 201.83 182.78 201.24 182.91 200.5C183.17 199.02 183.46 196.98 183.77 194.72C184.08 192.5 184.36 190.49 184.58 188.94C184.68 188.25 184.76 187.67 184.83 187.19C184.89 186.78 184.91 186.54 184.89 186.54L184.88 186.53Z" fill="#263238"/>
<path d="M181.59 203.11C181.61 203.03 177.42 202.18 172.25 201.22C167.07 200.26 162.87 199.55 162.85 199.63C162.83 199.71 167.02 200.56 172.19 201.52C177.36 202.48 181.57 203.19 181.59 203.11Z" fill="#263238"/>
<path d="M194.97 222.25C194.97 222.25 194.73 222.25 194.3 222.28C193.81 222.33 193.21 222.39 192.5 222.46C190.98 222.61 188.88 222.8 186.56 222.94C184.24 223.08 182.13 223.13 180.6 223.16C179.89 223.17 179.28 223.19 178.79 223.2C178.36 223.21 178.13 223.23 178.13 223.25C178.13 223.27 178.37 223.29 178.79 223.32C179.22 223.34 179.84 223.37 180.6 223.38C182.13 223.41 184.24 223.38 186.57 223.25C188.9 223.12 191 222.88 192.52 222.68C193.28 222.58 193.89 222.48 194.31 222.41C194.73 222.34 194.96 222.28 194.96 222.26L194.97 222.25Z" fill="#263238"/>
<path d="M201.25 207.91C201.25 207.91 201.12 208.09 200.94 208.44C200.76 208.79 200.51 209.31 200.21 209.94C199.6 211.21 198.78 212.98 197.89 214.94C197 216.9 196.21 218.68 195.65 219.98C195.37 220.63 195.15 221.16 195 221.52C194.85 221.89 194.78 222.09 194.8 222.1C194.82 222.1 194.93 221.92 195.11 221.57C195.29 221.22 195.54 220.71 195.84 220.07C196.45 218.8 197.27 217.03 198.16 215.07C199.05 213.11 199.84 211.33 200.39 210.03C200.67 209.38 200.89 208.85 201.04 208.49C201.19 208.12 201.26 207.92 201.24 207.91H201.25Z" fill="#263238"/>
<path d="M215.21 223.311C215.21 223.311 215.05 223.551 214.83 224.001C214.58 224.511 214.26 225.151 213.88 225.921C213.09 227.551 212.02 229.811 210.86 232.311C209.7 234.811 208.66 237.091 207.92 238.741C207.58 239.531 207.29 240.181 207.06 240.701C206.86 241.171 206.76 241.431 206.78 241.441C206.8 241.441 206.94 241.201 207.16 240.751C207.41 240.241 207.73 239.601 208.11 238.831C208.9 237.201 209.97 234.941 211.13 232.441C212.29 229.941 213.33 227.661 214.07 226.011C214.41 225.221 214.7 224.571 214.93 224.051C215.13 223.581 215.23 223.321 215.21 223.311Z" fill="#263238"/>
<path d="M206.87 240.94C206.87 240.94 206.57 240.93 206.03 240.96C205.43 241 204.66 241.04 203.74 241.1C201.81 241.22 199.14 241.38 196.19 241.47C193.24 241.57 190.56 241.58 188.63 241.58C187.71 241.58 186.94 241.58 186.34 241.58C185.8 241.58 185.5 241.6 185.5 241.62C185.5 241.64 185.8 241.67 186.34 241.7C186.88 241.73 187.66 241.77 188.63 241.79C190.57 241.85 193.25 241.86 196.21 241.77C199.17 241.68 201.84 241.49 203.77 241.31C204.74 241.22 205.52 241.14 206.05 241.07C206.59 241 206.88 240.96 206.88 240.94H206.87Z" fill="#263238"/>
<path d="M504.77 249.62C501.41 248.07 497.41 248.31 493.98 249.7C490.55 251.09 487.64 253.54 485.18 256.31C480.42 261.66 477.77 269.46 476.44 276.49C484.33 277.46 492.04 272.4 495.79 269.59C501.72 265.15 509.73 253.51 504.77 249.62Z" fill="#0071E3"/>
<path d="M462.17 279.25C465.94 277.55 468.4 273.53 468.69 269.4C468.98 265.28 467.26 261.15 464.49 258.09C463.21 256.67 461.51 255.38 459.6 255.48C457.82 255.57 456.27 256.91 455.52 258.54C454.77 260.16 454.71 262.02 454.89 263.8C455.49 269.9 457.19 275.69 462.17 279.25Z" fill="#0071E3"/>
<path d="M451.81 299.151C451.81 299.151 452.21 298.781 452.8 298.021C453.4 297.261 454.24 296.151 455.24 294.741C457.21 291.921 459.91 287.901 461.72 282.881C463.53 277.851 463.69 272.851 462.92 269.441C462.56 267.731 462.05 266.401 461.62 265.531C461.19 264.661 460.88 264.221 460.84 264.241C460.69 264.311 461.81 266.181 462.37 269.541C462.97 272.881 462.73 277.701 460.97 282.601C459.2 287.501 456.62 291.521 454.77 294.411C452.89 297.291 451.71 299.071 451.81 299.141V299.151Z" fill="#263238"/>
<path d="M497.65 257.79C497.65 257.79 496.91 258.27 495.65 259.26C494.4 260.25 492.61 261.7 490.41 263.53C486.03 267.18 480.05 272.32 473.59 278.15C467.13 283.99 461.42 289.42 457.35 293.41C455.31 295.41 453.68 297.04 452.58 298.19C451.47 299.34 450.88 299.99 450.92 300.03C450.96 300.07 451.63 299.49 452.8 298.42C454.07 297.24 455.74 295.69 457.75 293.83C461.92 289.94 467.69 284.59 474.14 278.75C480.59 272.92 486.5 267.72 490.79 263.97C492.85 262.16 494.56 260.66 495.86 259.51C497.05 258.45 497.69 257.84 497.66 257.8L497.65 257.79Z" fill="#263238"/>
<path d="M466.71 290.041C473.93 285.161 483.57 284.081 491.69 287.251C493.76 288.061 496 289.541 496.04 291.761C496.08 293.981 493.87 295.541 491.81 296.371C483.22 299.811 472.63 297.381 466.39 290.551" fill="#0071E3"/>
<path d="M486.33 291.281C486.35 291.231 485.89 291.001 485.04 290.641C484.62 290.451 484.09 290.241 483.45 290.061C482.82 289.871 482.11 289.611 481.29 289.461C479.67 289.061 477.7 288.811 475.5 288.731C473.3 288.701 470.87 288.881 468.37 289.391C465.88 289.931 463.59 290.751 461.58 291.671C459.6 292.631 457.89 293.661 456.57 294.681C455.88 295.151 455.34 295.671 454.83 296.101C454.32 296.521 453.93 296.931 453.61 297.271C452.98 297.951 452.65 298.341 452.69 298.381C452.8 298.491 454.21 297.001 456.89 295.141C458.22 294.201 459.92 293.241 461.87 292.341C463.84 291.481 466.09 290.701 468.51 290.171C470.94 289.671 473.31 289.481 475.46 289.471C477.61 289.501 479.55 289.691 481.15 290.011C484.36 290.621 486.25 291.421 486.3 291.271L486.33 291.281Z" fill="#263238"/>
<path d="M460.07 72.2998H207.33V349.43H460.07V72.2998Z" fill="#FAFAFA"/>
<path d="M460.06 349.42C460.06 347.45 459.97 237.9 459.83 72.2903L460.06 72.5203C385.95 72.5203 299.39 72.5403 207.35 72.5503H207.32L207.58 72.2903C207.57 174.26 207.55 269.5 207.54 349.42L207.32 349.2C359.3 349.33 458.18 349.42 460.06 349.42C458.19 349.42 359.31 349.51 207.32 349.64H207.1V349.42C207.09 269.5 207.08 174.27 207.06 72.2903V72.0303H207.35C299.39 72.0403 385.95 72.0503 460.06 72.0603H460.29V72.2903C460.15 237.9 460.06 347.45 460.06 349.42Z" fill="#263238"/>
<path d="M391.71 292.101H295.13C287.116 292.101 280.62 298.597 280.62 306.611V309.551C280.62 317.564 287.116 324.061 295.13 324.061H391.71C399.724 324.061 406.22 317.564 406.22 309.551V306.611C406.22 298.597 399.724 292.101 391.71 292.101Z" fill="#0071E3"/>
<g opacity="0.5">
<path d="M391.71 292.101H295.13C287.116 292.101 280.62 298.597 280.62 306.611V309.551C280.62 317.564 287.116 324.061 295.13 324.061H391.71C399.724 324.061 406.22 317.564 406.22 309.551V306.611C406.22 298.597 399.724 292.101 391.71 292.101Z" fill="black"/>
</g>
<path d="M381.17 292.101H284.59C276.576 292.101 270.08 298.597 270.08 306.611V309.551C270.08 317.564 276.576 324.061 284.59 324.061H381.17C389.184 324.061 395.68 317.564 395.68 309.551V306.611C395.68 298.597 389.184 292.101 381.17 292.101Z" fill="#0071E3"/>
<path d="M304.74 310.151L305.17 309.201C305.7 309.631 306.54 309.931 307.36 309.931C308.39 309.931 308.83 309.561 308.83 309.071C308.83 307.641 304.89 308.581 304.89 306.121C304.89 305.051 305.74 304.141 307.56 304.141C308.35 304.141 309.19 304.351 309.76 304.731L309.37 305.691C308.77 305.341 308.12 305.171 307.54 305.171C306.52 305.171 306.1 305.571 306.1 306.071C306.1 307.481 310.03 306.561 310.03 308.991C310.03 310.051 309.17 310.961 307.35 310.961C306.32 310.961 305.29 310.641 304.74 310.161V310.151Z" fill="#FAFAFA"/>
<path d="M311.19 307.97V304.23H312.42V307.92C312.42 309.28 313.03 309.87 314.1 309.87C315.17 309.87 315.77 309.28 315.77 307.92V304.23H316.98V307.97C316.98 309.9 315.89 310.95 314.09 310.95C312.29 310.95 311.19 309.9 311.19 307.97Z" fill="#FAFAFA"/>
<path d="M324.6 309.061C324.6 310.201 323.71 310.861 322.01 310.861H318.72V304.241H321.82C323.41 304.241 324.26 304.911 324.26 305.961C324.26 306.641 323.92 307.141 323.41 307.421C324.12 307.651 324.6 308.211 324.6 309.071V309.061ZM319.95 305.201V307.031H321.69C322.54 307.031 323.02 306.731 323.02 306.121C323.02 305.511 322.54 305.201 321.69 305.201H319.95ZM323.36 308.931C323.36 308.271 322.86 307.981 321.93 307.981H319.94V309.891H321.93C322.86 309.891 323.36 309.601 323.36 308.931Z" fill="#FAFAFA"/>
<path d="M325.36 310.151L325.79 309.201C326.32 309.631 327.16 309.931 327.98 309.931C329.01 309.931 329.45 309.561 329.45 309.071C329.45 307.641 325.51 308.581 325.51 306.121C325.51 305.051 326.36 304.141 328.18 304.141C328.97 304.141 329.81 304.351 330.38 304.731L329.99 305.691C329.39 305.341 328.74 305.171 328.16 305.171C327.14 305.171 326.72 305.571 326.72 306.071C326.72 307.481 330.65 306.561 330.65 308.991C330.65 310.051 329.79 310.961 327.97 310.961C326.94 310.961 325.91 310.641 325.36 310.161V310.151Z" fill="#FAFAFA"/>
<path d="M331.4 307.541C331.4 305.561 332.91 304.131 334.95 304.131C336.03 304.131 336.96 304.521 337.57 305.241L336.78 305.991C336.3 305.471 335.7 305.211 335.01 305.211C333.64 305.211 332.65 306.171 332.65 307.541C332.65 308.911 333.64 309.871 335.01 309.871C335.7 309.871 336.3 309.621 336.78 309.081L337.57 309.841C336.95 310.561 336.03 310.951 334.94 310.951C332.91 310.951 331.4 309.521 331.4 307.541Z" fill="#FAFAFA"/>
<path d="M343.09 310.85L341.74 308.91C341.66 308.91 341.57 308.91 341.49 308.91H339.99V310.84H338.76V304.22H341.48C343.22 304.22 344.3 305.11 344.3 306.58C344.3 307.58 343.79 308.32 342.89 308.67L344.41 310.85H343.09ZM341.43 305.27H339.99V307.91H341.43C342.51 307.91 343.07 307.42 343.07 306.59C343.07 305.76 342.51 305.27 341.43 305.27Z" fill="#FAFAFA"/>
<path d="M345.68 304.23H346.91V310.85H345.68V304.23Z" fill="#FAFAFA"/>
<path d="M354.58 309.061C354.58 310.201 353.69 310.861 351.99 310.861H348.7V304.241H351.8C353.39 304.241 354.24 304.911 354.24 305.961C354.24 306.641 353.9 307.141 353.39 307.421C354.1 307.651 354.58 308.211 354.58 309.071V309.061ZM349.93 305.201V307.031H351.67C352.52 307.031 353 306.731 353 306.121C353 305.511 352.52 305.201 351.67 305.201H349.93ZM353.34 308.931C353.34 308.271 352.84 307.981 351.91 307.981H349.92V309.891H351.91C352.84 309.891 353.34 309.601 353.34 308.931Z" fill="#FAFAFA"/>
<path d="M360.87 309.82V310.85H355.9V304.23H360.73V305.26H357.13V306.98H360.33V307.99H357.13V309.82H360.87Z" fill="#FAFAFA"/>
<path d="M407.24 270.79C407.24 270.93 375.1 271.05 335.46 271.05C295.82 271.05 263.67 270.93 263.67 270.79C263.67 270.65 295.8 270.53 335.46 270.53C375.12 270.53 407.24 270.65 407.24 270.79Z" fill="#263238"/>
<path d="M429.7 279.47C429.7 279.61 387.5 279.73 335.46 279.73C283.42 279.73 241.21 279.61 241.21 279.47C241.21 279.33 283.4 279.21 335.46 279.21C387.52 279.21 429.7 279.33 429.7 279.47Z" fill="#263238"/>
<path d="M219.21 83.0804C219.21 84.2604 218.25 85.2204 217.07 85.2204C215.89 85.2204 214.93 84.2604 214.93 83.0804C214.93 81.9004 215.89 80.9404 217.07 80.9404C218.25 80.9404 219.21 81.9004 219.21 83.0804Z" fill="#E0E0E0"/>
<path d="M224.2 85.2204C225.382 85.2204 226.34 84.2623 226.34 83.0804C226.34 81.8985 225.382 80.9404 224.2 80.9404C223.018 80.9404 222.06 81.8985 222.06 83.0804C222.06 84.2623 223.018 85.2204 224.2 85.2204Z" fill="#E0E0E0"/>
<path d="M233.48 83.0804C233.48 84.2604 232.52 85.2204 231.34 85.2204C230.16 85.2204 229.2 84.2604 229.2 83.0804C229.2 81.9004 230.16 80.9404 231.34 80.9404C232.52 80.9404 233.48 81.9004 233.48 83.0804Z" fill="#E0E0E0"/>
<path d="M441.26 127.89L445.42 112.9C445.42 112.9 446.92 106.81 447.28 105.39C447.75 103.51 446.43 102.92 445.65 104.2C445.35 104.69 442.07 110.89 442.07 110.89C442.07 110.89 444.69 100.74 444.79 100.37C445.64 97.0597 443.59 97.3997 442.99 98.5797C442.37 99.7997 438.66 109.79 438.66 109.79C442.15 96.7397 441.06 95.5897 440.08 95.3797C439.1 95.1697 436.03 107.11 436.03 107.11C436.03 107.11 434.92 105.07 432.88 103.66C429.73 101.49 424.47 103.66 424.22 105.14C423.97 106.62 425.84 107.04 425.84 107.04C429.79 104.49 433.84 107.58 433.42 111.35C433.01 115.12 428.23 114.6 427.64 111.91C426.34 106.02 424.31 107.94 424.31 107.94L426.34 120.92L424.19 127.45" fill="#FFBE9D"/>
<path d="M291.56 188.98L381.41 188.38L383.88 249.47L290.84 248.55L291.56 188.98Z" fill="#455A64"/>
<path d="M291.56 188.98L337.2 152.1L381.41 188.38" fill="#263238"/>
<path d="M290.84 248.549C290.73 248.439 297.93 240.599 306.91 231.019C315.9 221.439 323.28 213.759 323.39 213.869C323.5 213.979 316.31 221.819 307.31 231.399C298.32 240.979 290.94 248.649 290.83 248.549H290.84Z" fill="#263238"/>
<path d="M383.88 249.47C383.77 249.57 376.76 241.87 368.25 232.28C359.73 222.68 352.92 214.82 353.03 214.71C353.14 214.61 360.14 222.31 368.67 231.91C377.19 241.51 384 249.37 383.89 249.47H383.88Z" fill="#263238"/>
<path d="M381.41 188.38L336.27 224.4L291.56 188.98" fill="#263238"/>
<path d="M231.52 120.14H231.82L230.62 116.11L226.77 100.75C226.4 99.3597 227.18 97.9197 228.58 97.3997L231.35 97.3097L240.84 92.8697C242.63 92.2097 244.61 93.3297 244.84 95.1597C245.19 97.9797 247.11 105.57 249.15 102.91C249.2 102.85 249.25 102.8 249.3 102.74C252.17 98.7897 255.75 96.6497 257.22 96.7097C258.66 96.7697 259.19 98.5097 258.22 99.5497C258.08 99.7297 257.91 99.8897 257.68 100.02C257.58 100.07 257.47 100.16 257.37 100.23C256.26 101.13 254.93 102.72 253.96 103.98C253.03 105.18 252.32 106.55 251.87 107.98C251.36 109.57 250.99 110.97 250.7 112.15L251.44 119.99" fill="#FFBE9D"/>
<path d="M256.83 50.5496C256.83 50.5496 245.74 48.4296 229.81 33.9496C213.89 19.4896 206.04 -0.110401 204.15 0.0395987C202.25 0.189599 193.86 -3.4204 179.07 31.3096C164.28 66.0396 170.72 73.8296 173.85 73.6796C176.98 73.5296 198.11 66.9896 211.46 68.1196C224.8 69.2596 242.1 75.6996 242.1 75.6996L256.84 50.5496H256.83Z" fill="#455A64"/>
<path d="M280.77 68.58L277.21 75.83L275.62 79.08C273.44 83.54 268.14 85.5 263.58 83.56L239.73 76L252.59 44.21L276.54 56.12C281.14 58.41 283.03 63.97 280.77 68.59V68.58Z" fill="#263238"/>
<path d="M267.48 80.4094L260.37 95.3694L256.58 94.4294L232.57 115.119L225.32 101.869C225.32 101.869 239.67 95.1994 242.21 89.9494C244.75 84.6894 241.61 83.6094 241.61 83.6094L248.23 75.6494L267.49 80.4194L267.48 80.4094Z" fill="#263238"/>
<path d="M180.36 31.8992C172.5 50.7092 169.48 67.3592 173.61 69.0892C177.74 70.8192 187.47 56.9692 195.33 38.1592C203.19 19.3492 206.21 2.69919 202.08 0.969187C197.95 -0.760813 188.22 13.0892 180.36 31.8992Z" fill="#263238"/>
<path d="M283.09 78.8499L276.63 77.0199L280.38 69.3799L285.27 72.2199L283.09 78.8499Z" fill="#455A64"/>
<path d="M245.95 78.3691L263.47 88.8491L265.49 84.5891L245.95 78.3691Z" fill="#455A64"/>
<path d="M280.38 69.3799L276.63 77.0199L277.96 77.3999L280.97 69.7199L280.38 69.3799Z" fill="#455A64"/>
<path d="M276.02 71.2392C275.93 71.4492 272.7 70.2992 268.81 68.6692C264.91 67.0392 261.82 65.5492 261.91 65.3392C262 65.1292 265.23 66.2792 269.12 67.9092C273.02 69.5392 276.1 71.0292 276.02 71.2392Z" fill="#455A64"/>
<path d="M277.86 66.6997C277.76 66.9097 274.84 65.7697 271.33 64.1597C267.81 62.5497 265.04 61.0797 265.14 60.8697C265.23 60.6597 268.16 61.7997 271.67 63.4097C275.18 65.0197 277.96 66.4897 277.86 66.6997Z" fill="#455A64"/>
<path d="M273.67 76.0097C273.64 76.1197 272.87 75.9697 271.65 75.6297C271.04 75.4597 270.31 75.2397 269.51 74.9897C268.71 74.7297 267.88 74.3397 266.99 73.9597C263.44 72.4297 260.72 70.9197 260.8 70.7297C260.9 70.4997 263.79 71.6897 267.31 73.2097C268.19 73.5797 269.01 73.9897 269.78 74.2897C270.55 74.5797 271.25 74.8497 271.83 75.0797C272.99 75.5597 273.7 75.9097 273.67 76.0197V76.0097Z" fill="#455A64"/>
<path d="M197.34 27.2901C197.34 27.2901 187.59 21.6201 182.72 34.7101C177.85 47.8001 187.98 49.6401 187.98 49.6401C191.92 43.1301 195.06 35.7101 197.33 27.2901H197.34Z" fill="#455A64"/>
<path d="M207.09 11.5797C207.15 11.5797 207.04 12.4697 206.78 14.0597C206.52 15.6497 206.16 17.9597 205.62 20.7897C205.25 22.1897 204.85 23.7197 204.43 25.3597C204.21 26.1797 203.99 27.0297 203.76 27.8997C203.64 28.3397 203.53 28.7797 203.41 29.2297C203.28 29.6797 203.11 30.1097 202.95 30.5697C202.31 32.3697 201.64 34.2597 200.95 36.2097C200.78 36.6997 200.6 37.1897 200.42 37.6897C200.25 38.1897 200 38.6597 199.79 39.1597C199.35 40.1397 198.9 41.1297 198.45 42.1397C198 43.1397 197.55 44.1397 197.11 45.1097C196.88 45.5897 196.69 46.0897 196.43 46.5497C196.17 47.0097 195.92 47.4697 195.67 47.9297C194.66 49.7497 193.69 51.4997 192.76 53.1697C192.52 53.5797 192.31 54.0097 192.06 54.3997C191.8 54.7897 191.55 55.1697 191.3 55.5497C190.8 56.2997 190.31 57.0297 189.84 57.7397C188.89 59.1497 188.01 60.4597 187.2 61.6597C185.43 63.9297 183.95 65.7197 182.93 66.9697C181.9 68.2097 181.31 68.8797 181.27 68.8397C181.23 68.8097 181.73 68.0697 182.68 66.7697C183.67 65.4497 185.05 63.5897 186.75 61.2997C187.53 60.0897 188.37 58.7697 189.28 57.3497C189.74 56.6397 190.21 55.9097 190.7 55.1597C190.94 54.7797 191.19 54.3997 191.44 54.0097C191.68 53.6197 191.89 53.1997 192.12 52.7797C193.03 51.1097 193.98 49.3597 194.96 47.5497C195.21 47.0997 195.46 46.6397 195.71 46.1797C195.97 45.7197 196.15 45.2197 196.38 44.7397C196.82 43.7697 197.26 42.7797 197.71 41.7797C198.16 40.7797 198.61 39.7997 199.04 38.8297C199.25 38.3397 199.5 37.8697 199.67 37.3797C199.85 36.8897 200.03 36.3997 200.2 35.9097C200.91 33.9697 201.59 32.0997 202.24 30.3197C202.4 29.8697 202.58 29.4397 202.71 28.9997C202.83 28.5597 202.96 28.1197 203.08 27.6797C203.32 26.8197 203.56 25.9797 203.79 25.1597C204.25 23.5397 204.68 22.0297 205.07 20.6397C205.66 17.8597 206.14 15.5997 206.48 13.9897C206.83 12.4197 207.04 11.5497 207.1 11.5597L207.09 11.5797Z" fill="#263238"/>
<path d="M264.67 154.509L254.76 116.839L229.98 117.499L237.69 170.069C238.68 181.509 245.41 188.999 256.74 190.819C263.54 191.909 270.9 185.429 276.36 181.239C279.92 178.499 280.56 179.039 284.23 175.699L300.19 164.159L300.58 166.049H300.48L303.19 198.179L336.25 224.139L375.68 192.549L374.78 178.889C374.88 178.879 374.97 178.689 374.77 178.689L373.75 163.199L393.95 186.369C398.6 193.159 406.51 196.959 414.72 196.329C423.59 195.659 431.28 189.939 434.49 181.639L444.9 128.679L422.06 123.769L411.36 161.929L385.84 132.599C371.13 113.429 353.94 115.049 353.94 115.049L322.26 114.489C322.26 114.489 322.21 114.489 322.19 114.489C321.25 114.539 303.55 115.079 291.55 127.899L264.66 154.519L264.67 154.509Z" fill="#0071E3"/>
<path d="M387.13 134.689C387.13 134.689 386.79 134.53 386.11 134.32C385.44 134.1 384.4 133.899 383.05 133.999C381.71 134.109 380.1 134.539 378.36 135.339C376.61 136.119 374.8 137.36 372.69 138.57C370.6 139.75 368.08 141.039 365.12 140.969C363.66 140.919 362.19 140.52 360.76 139.96C359.33 139.4 357.93 138.709 356.45 138.119C353.52 136.919 350.09 136.519 346.71 137.199C343.31 137.849 340.19 139.759 337 141.609C335.39 142.529 333.77 143.419 332.07 144.079C330.37 144.739 328.6 145.17 326.85 145.35C323.34 145.73 319.86 145.21 316.87 143.96C313.86 142.73 311.33 140.949 309.02 139.279C306.71 137.609 304.58 136.009 302.5 134.809C300.41 133.609 298.37 132.799 296.51 132.339C294.65 131.899 292.99 131.799 291.65 131.939C288.95 132.229 287.67 133.169 287.64 133.079C287.64 133.079 287.72 133.019 287.88 132.929C288.04 132.839 288.28 132.709 288.6 132.549C289.26 132.279 290.26 131.889 291.63 131.729C292.99 131.559 294.68 131.629 296.58 132.049C298.47 132.489 300.55 133.279 302.68 134.479C304.81 135.679 306.96 137.269 309.27 138.919C311.59 140.559 314.1 142.319 317.05 143.499C319.98 144.699 323.37 145.2 326.8 144.82C328.51 144.64 330.23 144.22 331.89 143.57C333.55 142.93 335.15 142.05 336.75 141.13C339.93 139.29 343.1 137.339 346.62 136.669C350.1 135.979 353.63 136.409 356.63 137.649C359.6 138.859 362.3 140.43 365.13 140.52C367.95 140.61 370.42 139.379 372.5 138.229C374.6 137.049 376.45 135.819 378.24 135.059C380.01 134.269 381.66 133.859 383.03 133.779C384.4 133.699 385.46 133.949 386.13 134.199C386.81 134.449 387.12 134.669 387.12 134.669L387.13 134.689Z" fill="#FAFAFA"/>
<path d="M405.5 153.46C405.5 153.46 405.41 153.97 404.96 154.85C404.51 155.72 403.64 156.94 402.09 158.02C400.57 159.1 398.38 160.02 395.72 160.28C393.07 160.58 390.04 160.26 386.75 159.89C383.48 159.56 379.76 159.15 376.07 160.37C374.24 160.99 372.51 162.03 370.78 163.15C369.04 164.27 367.26 165.51 365.21 166.39C361.15 168.18 356.34 168.85 351.58 167.98C349.2 167.58 346.85 166.73 344.66 165.55C342.46 164.37 340.42 162.91 338.3 161.54C336.18 160.18 334.02 158.9 331.68 158.22C329.35 157.52 326.91 157.44 324.57 157.78C319.87 158.46 315.61 160.35 311.35 161.5C309.23 162.1 307.09 162.52 304.98 162.57C302.88 162.61 300.8 162.31 298.97 161.55C295.28 160.03 292.56 157.44 290.15 155.19C287.74 152.91 285.52 150.87 283.27 149.52C281.04 148.14 278.81 147.52 276.98 147.37C275.14 147.22 273.71 147.55 272.8 147.87C271.89 148.21 271.46 148.5 271.44 148.47C271.44 148.47 271.85 148.15 272.76 147.77C273.67 147.41 275.12 147.04 276.99 147.16C278.85 147.28 281.14 147.88 283.42 149.26C285.72 150.61 287.98 152.64 290.4 154.91C292.83 157.14 295.54 159.68 299.13 161.14C300.92 161.87 302.92 162.14 304.97 162.1C307.02 162.05 309.12 161.63 311.22 161.03C313.32 160.44 315.45 159.69 317.64 158.99C319.83 158.29 322.1 157.6 324.5 157.27C326.89 156.92 329.42 157 331.83 157.72C334.25 158.43 336.45 159.74 338.58 161.1C340.71 162.48 342.75 163.93 344.91 165.09C347.06 166.25 349.35 167.07 351.68 167.47C356.34 168.32 361.05 167.67 365.03 165.94C369.01 164.2 372.13 161.19 375.95 159.95C377.84 159.32 379.76 159.14 381.59 159.14C383.42 159.14 385.16 159.32 386.81 159.51C390.1 159.91 393.1 160.25 395.71 159.98C398.33 159.76 400.48 158.89 401.99 157.85C403.53 156.82 404.41 155.64 404.88 154.8C405.35 153.95 405.48 153.44 405.51 153.46H405.5Z" fill="#FAFAFA"/>
<path d="M434.39 178.91C434.39 178.91 434 178.37 433.01 177.78C432.04 177.19 430.34 176.72 428.31 177.08C426.28 177.43 424.13 178.75 421.98 180.46C420.89 181.3 419.76 182.23 418.49 183.06C417.22 183.88 415.77 184.63 414.15 184.93C412.53 185.25 410.91 185.1 409.43 184.8C407.94 184.49 406.55 184.03 405.24 183.58C403.93 183.13 402.7 182.69 401.52 182.38C400.34 182.07 399.22 181.89 398.19 181.82C396.13 181.67 394.45 182.06 393.43 182.58C392.39 183.09 391.93 183.57 391.9 183.52C391.89 183.51 392 183.39 392.23 183.18C392.34 183.07 392.49 182.95 392.68 182.82C392.86 182.68 393.08 182.54 393.35 182.4C394.38 181.8 396.1 181.35 398.22 181.45C399.28 181.5 400.43 181.67 401.63 181.96C402.84 182.26 404.09 182.69 405.39 183.13C407.98 183.97 410.96 185 414.05 184.42C415.58 184.14 416.96 183.43 418.21 182.63C419.46 181.83 420.59 180.92 421.69 180.08C423.87 178.39 426.11 177.04 428.25 176.72C430.38 176.39 432.14 176.95 433.12 177.61C433.62 177.93 433.93 178.29 434.14 178.52C434.32 178.77 434.41 178.91 434.4 178.92L434.39 178.91Z" fill="#FAFAFA"/>
<path d="M439.41 150.169C439.41 150.169 439.14 150.429 438.55 150.709C437.96 150.989 437.04 151.289 435.86 151.389C434.69 151.489 433.28 151.389 431.77 151.019C430.26 150.669 428.68 150.059 427.03 149.439C425.38 148.829 423.8 148.279 422.32 148.029C420.84 147.779 419.47 147.799 418.36 148.019C416.1 148.439 415.06 149.569 415.01 149.469C414.99 149.449 415.22 149.159 415.75 148.769C416.28 148.379 417.14 147.929 418.29 147.659C419.44 147.389 420.86 147.329 422.4 147.559C423.94 147.789 425.56 148.329 427.21 148.949C428.86 149.569 430.42 150.179 431.88 150.549C433.34 150.919 434.7 151.069 435.83 151.019C438.12 150.929 439.36 150.069 439.4 150.169H439.41Z" fill="#FAFAFA"/>
<path d="M373.11 187.969C373.08 188.029 372.23 187.409 370.49 186.769C368.76 186.149 366.07 185.619 362.77 185.969C359.47 186.259 355.69 187.559 351.74 189.469C347.77 191.339 343.57 193.839 338.68 195.419C336.24 196.199 333.75 196.689 331.32 196.689C328.89 196.689 326.57 196.189 324.46 195.509C322.35 194.829 320.42 193.979 318.63 193.189C316.84 192.399 315.18 191.639 313.64 191.029C310.57 189.769 307.92 189.199 306.08 189.059C305.62 189.029 305.21 188.989 304.85 188.989C304.51 188.999 304.21 189.009 303.95 189.019C303.46 189.029 303.2 189.029 303.2 189.019C303.2 188.999 303.45 188.969 303.94 188.919C304.2 188.899 304.5 188.869 304.85 188.839C305.21 188.839 305.63 188.859 306.09 188.869C307.96 188.949 310.66 189.479 313.77 190.699C315.34 191.289 317 192.029 318.8 192.809C320.6 193.589 322.52 194.409 324.6 195.069C326.68 195.729 328.94 196.199 331.31 196.199C333.68 196.199 336.12 195.719 338.51 194.939C343.32 193.379 347.52 190.909 351.52 189.049C355.5 187.149 359.35 185.859 362.72 185.619C366.08 185.309 368.81 185.909 370.55 186.589C372.29 187.299 373.1 187.979 373.1 187.979L373.11 187.969Z" fill="#FAFAFA"/>
<path d="M236.53 162.409C236.53 162.409 236.67 162.279 237.01 162.179C237.34 162.079 237.88 162.039 238.52 162.239C239.15 162.439 239.88 162.869 240.49 163.609C241.1 164.339 241.56 165.309 242.08 166.329C242.58 167.359 243.29 168.389 244.29 169.269C245.28 170.159 246.57 170.829 247.99 171.309C250.86 172.269 254.26 172.329 257.73 171.779C261.21 171.269 264.54 170.559 267.64 170.589C270.75 170.539 273.52 171.479 275.48 172.759C277.48 174.029 278.6 175.689 279.05 176.909C279.51 178.139 279.47 178.889 279.47 178.889C279.4 178.899 279.37 178.169 278.86 176.989C278.36 175.829 277.23 174.259 275.27 173.069C273.34 171.859 270.66 170.989 267.63 171.059C264.59 171.059 261.3 171.769 257.79 172.289C254.3 172.849 250.78 172.779 247.83 171.759C246.36 171.249 245.03 170.529 244 169.579C242.96 168.649 242.23 167.529 241.74 166.479C241.24 165.429 240.81 164.479 240.26 163.769C239.71 163.069 239.04 162.629 238.45 162.409C237.23 161.969 236.53 162.459 236.53 162.379V162.409Z" fill="#FAFAFA"/>
<path d="M258.22 131.859C258.16 131.959 257.11 130.699 254.73 130.049C253.56 129.729 252.09 129.589 250.49 129.769C248.89 129.949 247.18 130.489 245.46 131.219C243.74 131.959 242.15 132.799 240.67 133.529C239.2 134.259 237.84 134.859 236.66 135.269C235.48 135.679 234.49 135.899 233.8 135.999C233.11 136.099 232.72 136.099 232.72 136.069C232.71 135.979 234.25 135.829 236.54 134.919C237.69 134.469 239.01 133.839 240.47 133.089C241.92 132.339 243.52 131.479 245.27 130.729C247.02 129.979 248.79 129.439 250.46 129.279C252.12 129.109 253.65 129.299 254.85 129.679C256.06 130.059 256.94 130.609 257.48 131.059C258.02 131.509 258.25 131.829 258.23 131.849L258.22 131.859Z" fill="#FAFAFA"/>
<g opacity="0.3">
<path d="M330.63 219.719C343.47 212.279 358.33 203.549 365.74 190.689C370.48 182.469 372.83 172.639 373.75 163.189L375.68 192.539L336.25 224.129L330.63 219.719Z" fill="black"/>
</g>
<g opacity="0.2">
<path d="M297.36 122.63C294.33 133.89 288.53 143.59 279.73 151.25C277.61 153.1 275.3 154.82 272.64 155.73C269.98 156.64 266.89 156.65 264.48 155.19L264.67 154.52L284.65 134.73L297.35 122.63H297.36Z" fill="black"/>
</g>
<path d="M267.22 170.25C267.14 170.22 267.46 169.34 267.73 167.88C268 166.42 268.14 164.35 267.78 162.11C267.41 159.87 266.61 157.96 265.88 156.66C265.15 155.36 264.56 154.63 264.63 154.58C264.67 154.54 265.37 155.19 266.19 156.48C267.02 157.76 267.9 159.72 268.29 162.03C268.67 164.34 268.46 166.49 268.09 167.96C267.72 169.44 267.27 170.28 267.22 170.26V170.25Z" fill="#263238"/>
<path d="M261.49 165.209C261.36 165.109 263.1 163.289 263.87 160.389C264.69 157.509 264.14 155.049 264.3 155.029C264.36 155.019 264.58 155.599 264.7 156.609C264.82 157.609 264.78 159.029 264.37 160.529C263.95 162.019 263.26 163.259 262.64 164.059C262.02 164.859 261.53 165.249 261.49 165.209Z" fill="#263238"/>
<path d="M298.69 144.539C298.83 144.529 299.65 152.499 300.52 162.339C301.39 172.189 301.98 180.179 301.83 180.189C301.69 180.199 300.87 172.229 300 162.389C299.13 152.549 298.54 144.549 298.69 144.539Z" fill="#263238"/>
<path d="M352.08 113.899C352.08 113.899 352.17 114.079 352.29 114.439C352.43 114.799 352.57 115.339 352.73 116.049C353.02 117.459 353.17 119.599 352.63 122.159C352.07 124.679 350.77 127.649 348.27 130.069C345.81 132.509 342.07 134.079 338.08 134.179C334.09 134.259 330.28 132.849 327.71 130.519C325.11 128.209 323.68 125.309 323.01 122.809C322.36 120.279 322.42 118.139 322.65 116.709C322.77 115.999 322.89 115.449 323.01 115.089C323.12 114.729 323.18 114.539 323.2 114.539C323.26 114.559 323.01 115.319 322.85 116.739C322.69 118.149 322.69 120.259 323.37 122.709C324.07 125.139 325.5 127.949 328.03 130.149C330.52 132.379 334.2 133.719 338.07 133.649C341.93 133.549 345.55 132.049 347.94 129.709C350.37 127.389 351.68 124.519 352.27 122.069C352.84 119.579 352.75 117.479 352.52 116.079C352.3 114.669 352.01 113.919 352.07 113.899H352.08Z" fill="#263238"/>
<path d="M410.17 174.15C410.03 174.15 409.8 171.34 410.01 167.87C410.2 164.4 410.75 161.63 410.88 161.65C411.03 161.67 410.72 164.45 410.53 167.9C410.33 171.34 410.33 174.14 410.17 174.15Z" fill="#263238"/>
<path d="M414.19 175.959C414.13 175.979 413.78 175.209 413.34 173.919C412.9 172.629 412.37 170.809 411.95 168.769C411.53 166.729 411.29 164.849 411.19 163.489C411.08 162.129 411.1 161.279 411.17 161.279C411.33 161.269 411.62 164.619 412.47 168.669C413.3 172.719 414.35 175.909 414.21 175.969L414.19 175.959Z" fill="#263238"/>
<path d="M373.75 176.539C373.61 176.539 373.28 170.909 373.02 163.959C372.76 156.999 372.66 151.359 372.81 151.359C372.95 151.359 373.28 156.989 373.54 163.939C373.8 170.889 373.9 176.539 373.75 176.539Z" fill="#263238"/>
<path d="M337.91 132.599C330.41 132.459 324.32 126.509 324.01 119.009C323.78 113.529 323.59 108.499 323.59 108.499C323.59 108.499 312.12 107.279 311.43 95.9088C310.74 84.5288 311.44 58.2988 311.44 58.2988C324.34 51.9988 339.64 53.1688 351.43 61.3688L353.18 62.5888L352.35 118.639C352.23 126.489 345.76 132.749 337.91 132.599Z" fill="#FFBE9D"/>
<path d="M323.56 108.338C323.56 108.338 330.78 108.578 338.19 103.398C338.19 103.398 335.08 111.758 323.67 111.288L323.55 108.338H323.56Z" fill="#EB996E"/>
<path d="M352.35 74.4485C352.54 74.3585 360.06 71.7585 360.19 79.5485C360.32 87.3385 352.47 85.8685 352.45 85.6385C352.43 85.4085 352.35 74.4485 352.35 74.4485Z" fill="#FFBE9D"/>
<path d="M354.78 82.6484C354.78 82.6484 354.92 82.7384 355.15 82.8384C355.38 82.9384 355.76 82.9984 356.17 82.8384C356.99 82.5184 357.66 81.2084 357.67 79.7984C357.67 79.0884 357.52 78.4184 357.26 77.8584C357.01 77.2884 356.64 76.8984 356.22 76.8284C355.81 76.7384 355.52 76.9884 355.42 77.2184C355.32 77.4384 355.37 77.5884 355.33 77.6084C355.31 77.6284 355.16 77.4784 355.22 77.1584C355.25 76.9984 355.34 76.8184 355.52 76.6684C355.7 76.5084 355.98 76.4284 356.27 76.4584C356.87 76.4884 357.42 77.0384 357.71 77.6384C358.03 78.2484 358.23 79.0084 358.22 79.7984C358.2 81.3684 357.42 82.8484 356.3 83.1984C355.75 83.3484 355.29 83.1984 355.05 83.0084C354.81 82.8184 354.76 82.6484 354.79 82.6284L354.78 82.6484Z" fill="#EB996E"/>
<path d="M316.88 75.5088C316.85 76.3688 317.55 77.0988 318.45 77.1488C319.35 77.1988 320.1 76.5388 320.13 75.6788C320.16 74.8188 319.46 74.0888 318.56 74.0388C317.66 73.9888 316.91 74.6488 316.88 75.5088Z" fill="#263238"/>
<path d="M314.9 73.8889C315.1 74.0989 316.33 73.1889 318.09 73.1889C319.84 73.1689 321.12 74.0689 321.31 73.8589C321.4 73.7689 321.2 73.3789 320.64 72.9689C320.09 72.5589 319.15 72.1689 318.06 72.1689C316.97 72.1689 316.05 72.5789 315.52 72.9889C314.98 73.3989 314.8 73.7889 314.9 73.8789V73.8889Z" fill="#263238"/>
<path d="M333.7 75.709C333.67 76.569 334.37 77.299 335.27 77.349C336.17 77.399 336.92 76.739 336.95 75.879C336.98 75.019 336.28 74.289 335.38 74.239C334.48 74.189 333.73 74.849 333.7 75.709Z" fill="#263238"/>
<path d="M332.12 74.2093C332.32 74.4193 333.56 73.5093 335.31 73.5093C337.06 73.4893 338.34 74.3893 338.53 74.1793C338.62 74.0893 338.42 73.6993 337.86 73.2893C337.31 72.8793 336.37 72.4893 335.28 72.4893C334.19 72.4893 333.27 72.8993 332.74 73.3093C332.2 73.7193 332.02 74.1093 332.12 74.1993V74.2093Z" fill="#263238"/>
<path d="M325.76 87.1986C325.76 87.0986 324.68 86.9086 322.92 86.6886C322.47 86.6386 322.05 86.5486 321.97 86.2486C321.86 85.9286 322.05 85.4386 322.27 84.9186C322.69 83.8386 323.13 82.6986 323.59 81.5086C325.43 76.6586 326.76 72.6786 326.56 72.5986C326.36 72.5286 324.72 76.3986 322.88 81.2486C322.44 82.4486 322.02 83.5886 321.61 84.6786C321.44 85.1886 321.15 85.7586 321.38 86.4286C321.5 86.7586 321.83 87.0086 322.12 87.0786C322.41 87.1686 322.66 87.1686 322.88 87.1886C324.66 87.2886 325.76 87.2886 325.76 87.1886V87.1986Z" fill="#263238"/>
<path d="M330.92 88.4088C330.64 88.3888 330.63 90.2888 329 91.6388C327.38 92.9888 325.35 92.7788 325.33 93.0488C325.3 93.1688 325.78 93.4188 326.64 93.4388C327.48 93.4688 328.7 93.1988 329.7 92.3688C330.69 91.5388 331.12 90.4388 331.18 89.6588C331.25 88.8688 331.04 88.3888 330.91 88.4088H330.92Z" fill="#263238"/>
<path d="M331.66 67.3486C331.83 67.8286 333.58 67.5986 335.64 67.8486C337.7 68.0586 339.36 68.6586 339.63 68.2286C339.75 68.0286 339.46 67.5786 338.79 67.1186C338.13 66.6586 337.07 66.2186 335.83 66.0786C334.6 65.9486 333.47 66.1386 332.72 66.4486C331.97 66.7486 331.59 67.1286 331.66 67.3486Z" fill="#263238"/>
<path d="M315.55 68.8189C315.86 69.2189 317.06 68.7989 318.52 68.7889C319.97 68.7189 321.2 69.0589 321.48 68.6389C321.6 68.4389 321.41 68.0389 320.87 67.6589C320.34 67.2789 319.46 66.9789 318.46 67.0089C317.46 67.0389 316.6 67.3989 316.09 67.8089C315.58 68.2189 315.41 68.6289 315.55 68.8189Z" fill="#263238"/>
<path d="M305.63 50.7792C305.51 49.3692 306.03 47.8492 307.18 47.0192C308.33 46.1892 310.11 46.2392 311.05 47.3092C310.51 45.4092 312.07 43.2092 314.04 43.0892C315.9 42.9692 317.48 44.3792 319.28 44.8692C321.03 45.3492 322.91 44.9292 324.6 44.2592C326.29 43.5792 327.86 42.6392 329.57 42.0192C333.13 40.7192 337.2 40.8792 340.65 42.4592C344.1 44.0392 346.87 47.0192 348.21 50.5692C350.7 49.7892 353.53 51.0592 355.07 53.1692C356.61 55.2792 357 58.0492 356.7 60.6492C356.49 62.3992 355.99 64.0992 355.4 65.7592C355.4 65.9092 355.41 66.0492 355.41 66.1992C355.29 72.4692 354.58 79.8192 351.91 79.8692C347.25 79.9392 348.36 71.1592 348.36 71.1592C342.64 68.9492 344.77 60.3792 343.34 59.0792C341.91 57.7792 338.92 54.7592 326.95 60.8792C322.3 63.2592 316.12 63.1792 312.75 62.4192C312.65 62.3992 312.55 62.3792 312.45 62.3592C312.43 62.3592 312.4 62.3592 312.38 62.3492C312.34 62.3492 312.32 62.3192 312.28 62.3092C311.2 62.0292 310.17 61.6092 309.21 61.0092C308.13 60.3192 307.14 59.3992 306.68 58.1992C306.22 56.9992 306.39 55.5092 307.33 54.6292C306.45 53.5192 305.75 52.2092 305.63 50.7992V50.7792Z" fill="#263238"/>
</g>
<defs>
<clipPath id="clip0_385_380">
<rect width="663.24" height="411.79" fill="white"/>
</clipPath>
</defs>
</svg>
