<svg width="664" height="412" viewBox="0 0 664 412" fill="none" xmlns="http://www.w3.org/2000/svg">
<g clip-path="url(#clip0_418_990)">
<mask id="mask0_418_990" style="mask-type:luminance" maskUnits="userSpaceOnUse" x="0" y="0" width="664" height="412">
<path d="M663.24 0H0V411.79H663.24V0Z" fill="white"/>
</mask>
<g mask="url(#mask0_418_990)">
<path d="M112.55 408.221C140.4 389.631 147.2 354.461 146.6 322.751C146.5 317.451 147.17 311.881 144.7 307.211C142.22 302.531 136.32 299.271 131.49 301.431C127.48 303.221 125.67 307.761 123.39 311.511C120.35 316.491 115.87 320.591 110.63 323.181C107.19 324.881 102.95 325.881 99.61 324.001C95.02 321.411 94.58 315.101 94.69 309.841C94.9 300.031 95.12 290.231 95.33 280.421C95.45 275.161 95.55 269.791 93.96 264.771C92.38 259.751 88.79 255.061 83.74 253.581C78.69 252.101 72.37 254.901 71.22 260.031C70.74 262.171 71.15 264.401 70.97 266.581C70.79 268.761 69.72 271.161 67.61 271.741C65.47 272.321 63.36 270.801 61.79 269.241C56.37 263.841 52.74 256.941 49.36 250.081C45.97 243.221 42.7 236.201 37.79 230.331C32.89 224.461 26.05 219.761 18.42 219.221C10.79 218.681 2.58002 223.211 0.54002 230.581C-1.50998 237.971 2.76002 245.561 7.44002 251.641C14.38 260.661 22.63 268.661 31.86 275.321C33.52 276.521 35.32 277.821 35.94 279.781C37.04 283.301 33.62 286.741 30.09 287.841C26.09 289.091 21.79 288.611 17.62 289.041C13.45 289.461 8.92002 291.201 7.29002 295.061C5.02002 300.411 9.49002 306.111 13.92 309.871C22.79 317.401 32.95 323.391 43.83 327.511C47.73 328.991 51.84 330.291 54.96 333.061C58.08 335.831 59.92 340.591 57.95 344.261C55.98 347.941 51.06 349.061 46.96 348.241C42.86 347.431 39.22 345.171 35.33 343.651C28.04 340.811 18.57 341.171 13.78 347.351C10.63 351.411 10.27 357.131 11.76 362.051C13.24 366.971 16.34 371.241 19.64 375.181C31.17 388.961 46.04 400.131 62.95 406.201C79.86 412.271 95.58 414.081 112.57 408.241" fill="#EBEBEB"/>
<path d="M104.48 388.253C100 372.193 93.6101 354.983 86.3001 337.213C84.4601 332.773 82.6301 328.393 80.8401 324.073C79.0401 319.763 77.2501 315.493 75.2401 311.423C71.2601 303.263 66.8001 295.713 62.3401 288.683C57.8801 281.643 53.3901 275.123 49.1501 269.053C44.8901 262.993 40.8201 257.413 36.8901 252.493C29.0501 242.613 21.7901 235.393 16.6001 230.633C14.0101 228.243 11.9401 226.453 10.5201 225.263C9.83008 224.683 9.29008 224.243 8.90008 223.913C8.53008 223.613 8.33008 223.473 8.33008 223.473C8.33008 223.473 8.50008 223.653 8.85008 223.973C9.23008 224.313 9.75008 224.783 10.4201 225.383C11.8001 226.623 13.8401 228.443 16.3901 230.863C21.5101 235.683 28.6801 242.943 36.4501 252.843C40.3501 257.783 44.3901 263.363 48.6201 269.433C52.8401 275.513 57.3001 282.043 61.7301 289.073C66.1601 296.103 70.5901 303.633 74.5501 311.763C76.5401 315.823 78.3101 320.063 80.1201 324.383C81.9101 328.703 83.7301 333.083 85.5801 337.513C92.8801 355.273 99.2801 372.443 103.79 388.453" fill="black"/>
<path d="M75.0501 311.343C75.1001 311.343 75.2901 310.553 75.5701 309.103C75.8601 307.653 76.2201 305.543 76.6301 302.923C77.4501 297.693 78.3401 290.433 79.3101 282.423C80.2801 274.413 81.2901 267.183 82.2201 261.983C82.6801 259.383 83.0701 257.283 83.3701 255.833C83.6601 254.383 83.7901 253.573 83.7401 253.563C83.6901 253.553 83.4501 254.333 83.0701 255.763C82.6801 257.193 82.2001 259.283 81.6701 261.883C80.5901 267.073 79.4801 274.313 78.5201 282.333C77.5701 290.273 76.7201 297.453 76.0801 302.853C75.7501 305.363 75.4801 307.453 75.2701 309.063C75.0801 310.533 75.0001 311.343 75.0601 311.353L75.0501 311.343Z" fill="black"/>
<path d="M6.68994 297.671C6.68994 297.671 6.92994 297.741 7.38994 297.791C7.94994 297.851 8.60994 297.911 9.41994 297.991C11.1799 298.161 13.7199 298.401 16.8599 298.801C23.1299 299.541 31.7599 300.891 41.2099 302.791C50.6599 304.711 59.1299 306.821 65.2099 308.531C68.2599 309.361 70.6999 310.111 72.3999 310.611C73.1699 310.841 73.8199 311.031 74.3499 311.181C74.7999 311.301 75.0399 311.351 75.0499 311.331C75.0499 311.301 74.8399 311.201 74.3999 311.031C73.8799 310.831 73.2499 310.601 72.4899 310.321C70.8199 309.721 68.3999 308.901 65.3599 307.991C59.2999 306.141 50.8299 303.941 41.3599 302.011C31.8899 300.101 23.2199 298.841 16.9199 298.241C13.7699 297.911 11.2099 297.761 9.43994 297.681C8.62994 297.661 7.95994 297.641 7.39994 297.621C6.92994 297.621 6.68994 297.621 6.68994 297.661V297.671Z" fill="black"/>
<path d="M103.74 386.973C103.74 386.973 103.92 386.703 104.2 386.143C104.51 385.513 104.91 384.702 105.4 383.702C106.43 381.582 107.85 378.483 109.55 374.623C112.96 366.913 117.35 356.123 122.04 344.163C126.73 332.193 131.03 321.383 134.31 313.633C135.93 309.833 137.26 306.723 138.23 304.463C138.66 303.443 139.01 302.613 139.29 301.963C139.52 301.393 139.64 301.083 139.61 301.073C139.59 301.063 139.43 301.343 139.14 301.903C138.83 302.533 138.43 303.343 137.94 304.343C136.91 306.463 135.49 309.562 133.79 313.422C130.38 321.132 125.99 331.923 121.3 343.893C116.61 355.863 112.31 366.663 109.04 374.423C107.42 378.223 106.09 381.333 105.12 383.593C104.69 384.613 104.34 385.443 104.06 386.093C103.83 386.663 103.71 386.972 103.74 386.982V386.973Z" fill="black"/>
<path d="M13.0898 356.631C13.0898 356.631 13.3898 356.781 13.9898 356.991C14.6698 357.221 15.5498 357.521 16.6298 357.891C19.0198 358.691 22.3198 359.791 26.3498 361.131C34.5498 363.871 45.8298 367.801 58.2798 372.171C70.7398 376.541 82.0498 380.391 90.3098 383.001C94.4398 384.311 97.7798 385.331 100.11 386.001C101.21 386.311 102.1 386.561 102.79 386.761C103.41 386.921 103.73 387.001 103.74 386.971C103.74 386.941 103.44 386.821 102.84 386.611C102.16 386.381 101.29 386.081 100.2 385.711C97.8098 384.911 94.5198 383.821 90.4798 382.471C82.2798 379.731 70.9998 375.801 58.5398 371.421C46.0898 367.051 34.7698 363.201 26.5198 360.591C22.3898 359.281 19.0498 358.261 16.7198 357.591C15.6198 357.281 14.7298 357.031 14.0398 356.831C13.4198 356.671 13.0998 356.591 13.0898 356.621V356.631Z" fill="black"/>
<path d="M541.011 204.445L508.597 286.859L630.86 334.946L663.274 252.532L541.011 204.445Z" fill="#EBEBEB"/>
<path d="M663.24 253.641C663.24 253.641 662.71 253.901 661.67 254.291C660.52 254.701 658.99 255.251 657.09 255.931C652.97 257.351 647.23 259.341 640.17 261.771C625.73 266.641 605.97 273.291 584.07 280.671L583.61 280.831L583.37 280.411C583.18 280.091 582.98 279.741 582.78 279.391C571.18 259.101 560.68 240.741 553 227.311C549.29 220.701 546.26 215.321 544.09 211.461C543.11 209.661 542.32 208.211 541.72 207.121C541.19 206.121 540.93 205.591 540.96 205.571C540.99 205.551 541.33 206.041 541.92 207.001C542.57 208.061 543.42 209.471 544.48 211.231C546.73 215.041 549.87 220.361 553.72 226.891C561.48 240.271 572.08 258.571 583.8 278.801C584 279.151 584.2 279.501 584.39 279.821L583.68 279.551C605.62 272.311 625.42 265.761 639.89 260.991C647 258.701 652.78 256.841 656.93 255.501C658.86 254.901 660.41 254.431 661.58 254.071C662.65 253.751 663.21 253.611 663.23 253.651L663.24 253.641Z" fill="black"/>
<path d="M508.56 287.982C508.4 287.692 522.04 280.012 539.01 270.822C555.99 261.632 569.88 254.422 570.04 254.712C570.2 255.002 556.56 262.682 539.58 271.872C522.61 281.052 508.71 288.272 508.56 287.982Z" fill="black"/>
<path d="M611.09 269.661C611.41 269.571 616.08 284.351 621.53 302.681C626.98 321.021 631.15 335.951 630.83 336.051C630.51 336.141 625.84 321.361 620.39 303.021C614.94 284.691 610.78 269.751 611.09 269.661Z" fill="black"/>
<path d="M631.913 97.8457L559.857 129.221L581.005 177.786L653.06 146.411L631.913 97.8457Z" fill="#EBEBEB"/>
<path d="M632.39 98.2804C632.39 98.2804 632.28 98.6104 632 99.2204C631.69 99.8804 631.27 100.76 630.76 101.85C629.62 104.19 628.03 107.46 626.08 111.48C622.03 119.65 616.49 130.82 610.35 143.2L610.22 143.46L609.94 143.38C609.72 143.32 609.49 143.26 609.26 143.2C595.77 139.53 583.56 136.2 574.63 133.77C570.26 132.55 566.71 131.55 564.16 130.83C562.98 130.48 562.04 130.21 561.32 130C560.67 129.8 560.34 129.69 560.34 129.66C560.34 129.64 560.7 129.71 561.35 129.86C562.07 130.04 563.03 130.27 564.22 130.56C566.78 131.22 570.36 132.14 574.75 133.28C583.69 135.66 595.92 138.91 609.43 142.51C609.66 142.57 609.9 142.64 610.11 142.69L609.7 142.87C615.91 130.53 621.52 119.38 625.62 111.24C627.66 107.27 629.32 104.03 630.51 101.71C631.07 100.64 631.53 99.7904 631.87 99.1404C632.19 98.5604 632.36 98.2504 632.39 98.2704V98.2804Z" fill="black"/>
<path d="M581.48 178.231C581.29 178.171 583.81 169.161 587.11 158.091C590.41 147.021 593.23 138.101 593.42 138.151C593.61 138.211 591.09 147.221 587.79 158.291C584.49 169.351 581.67 178.281 581.48 178.221V178.231Z" fill="black"/>
<path d="M617.11 127.11C617.2 126.94 625.44 131.21 635.49 136.66C645.55 142.11 653.63 146.67 653.54 146.84C653.45 147.01 645.22 142.74 635.15 137.29C625.09 131.84 617.01 127.28 617.1 127.11H617.11Z" fill="black"/>
<path d="M650.78 408.67C650.78 408.81 506.21 408.93 327.91 408.93C149.61 408.93 5.00977 408.81 5.00977 408.67C5.00977 408.53 149.55 408.41 327.91 408.41C506.27 408.41 650.78 408.53 650.78 408.67Z" fill="#263238"/>
<path d="M534.67 112.031H121.22C113.173 112.031 106.65 118.554 106.65 126.601V390.141C106.65 398.188 113.173 404.711 121.22 404.711H534.67C542.717 404.711 549.24 398.188 549.24 390.141V126.601C549.24 118.554 542.717 112.031 534.67 112.031Z" fill="#263238"/>
<path d="M88.1401 383.062H567.65V390.872C567.65 400.692 559.68 408.672 549.85 408.672H105.94C96.1201 408.672 88.1401 400.702 88.1401 390.872V383.062Z" fill="#263238"/>
<path d="M536.12 123.66H118.53V370.82H536.12V123.66Z" fill="#455A64"/>
<path d="M284.31 383.062L290.26 392.522H373.99L379.52 383.062H284.31Z" fill="#455A64"/>
<path d="M130.4 132.021H525.1C526.91 132.021 528.37 133.49 528.37 135.29V366.751C528.37 368.561 526.9 370.02 525.1 370.02H130.4C128.59 370.02 127.13 368.551 127.13 366.751V135.29C127.13 133.48 128.6 132.021 130.4 132.021Z" fill="#EBEBEB"/>
<path d="M528.38 149.463H127.13V370.033H528.38V149.463Z" fill="#EBEBEB"/>
<path d="M160.04 141.212C160.04 142.982 158.61 144.412 156.84 144.412C155.07 144.412 153.64 142.982 153.64 141.212C153.64 139.442 155.07 138.012 156.84 138.012C158.61 138.012 160.04 139.442 160.04 141.212Z" fill="#455A64"/>
<path d="M140.62 141.212C140.62 142.982 139.19 144.412 137.42 144.412C135.65 144.412 134.22 142.982 134.22 141.212C134.22 139.442 135.66 138.012 137.42 138.012C139.18 138.012 140.62 139.442 140.62 141.212Z" fill="#455A64"/>
<path d="M149.941 141.212C149.941 142.982 148.511 144.412 146.741 144.412C144.971 144.412 143.541 142.982 143.541 141.212C143.541 139.442 144.971 138.012 146.741 138.012C148.511 138.012 149.941 139.442 149.941 141.212Z" fill="#455A64"/>
<path d="M545.43 383.061C545.43 383.221 447.2 383.352 326.05 383.352C204.9 383.352 106.65 383.221 106.65 383.061C106.65 382.901 204.86 382.771 326.05 382.771C447.24 382.771 545.43 382.901 545.43 383.061Z" fill="#455A64"/>
<path d="M106.56 386.281C106.56 386.281 106.44 386.221 106.22 386.081C105.99 385.931 105.67 385.711 105.24 385.431C104.81 385.141 104.27 384.771 103.64 384.341C103.01 383.901 102.25 383.421 101.47 382.771C100.67 382.141 99.7801 381.441 98.8001 380.661C97.8301 379.871 96.8501 378.921 95.7401 377.931C93.5601 375.921 91.2101 373.421 88.7701 370.431C83.9401 364.441 79.0101 356.211 75.6001 345.771C72.2601 335.351 70.4101 322.771 71.4501 309.001C71.9801 302.131 73.0901 294.951 75.1801 287.711C77.2401 280.471 80.1601 273.111 84.4201 266.171C85.4701 264.431 86.6501 262.751 87.8801 261.081C89.1801 259.471 90.4801 257.851 91.8001 256.221C93.1901 254.651 94.6401 253.121 96.0801 251.541C97.5501 250.001 99.1401 248.561 100.68 247.041C107.02 241.171 114.16 235.811 121.81 230.871C137.13 220.961 154.44 212.761 172.26 204.221C190.03 195.521 208.75 187.171 227.95 178.731C304.84 145.051 375.22 116.371 426.48 96.4505C452.1 86.4505 473 78.8205 487.47 73.5905C494.71 71.0105 500.37 69.0905 504.19 67.7705C506.1 67.1205 507.56 66.6206 508.55 66.2906C509.04 66.1306 509.41 66.0105 509.67 65.9205C509.92 65.8405 510.05 65.8105 510.05 65.8105C510.05 65.8105 509.93 65.8706 509.69 65.9706C509.44 66.0706 509.07 66.2005 508.59 66.3905C507.61 66.7505 506.16 67.2806 504.26 67.9706C500.45 69.3506 494.83 71.3706 487.61 73.9806C473.19 79.3206 452.33 87.0505 426.75 97.1405C375.57 117.231 305.25 146.021 228.37 179.691C209.17 188.131 190.47 196.461 172.7 205.151C154.87 213.681 137.58 221.841 122.33 231.681C114.71 236.591 107.61 241.901 101.3 247.721C99.7701 249.221 98.1801 250.651 96.7201 252.171C95.2901 253.731 93.8501 255.251 92.4701 256.801C91.1601 258.421 89.8601 260.021 88.5801 261.611C87.3701 263.251 86.2001 264.901 85.1601 266.621C80.9401 273.461 78.0301 280.751 75.9601 287.921C73.8601 295.101 72.7401 302.231 72.1901 309.051C71.1101 322.721 72.8901 335.221 76.1601 345.591C79.4901 355.971 84.3401 364.181 89.0901 370.171C91.4901 373.161 93.8101 375.671 95.9501 377.691C97.0401 378.681 98.0101 379.651 98.9701 380.441C99.9401 381.231 100.81 381.941 101.6 382.581C102.37 383.241 103.11 383.741 103.73 384.181C104.35 384.631 104.88 385.001 105.3 385.311C105.71 385.611 106.03 385.841 106.25 386.001C106.46 386.161 106.56 386.241 106.56 386.251V386.281Z" fill="#263238"/>
<path d="M493.25 32.9012L511.76 48.2512L510.05 65.8412L525.22 57.4012L541.38 68.8812L601.61 30.2012L493.25 32.9012Z" fill="#FCD34D"/>
<g opacity="0.5">
<path d="M511.76 48.2502L599.98 30.2402L520.75 54.2202L510.05 65.8402L511.76 48.2502Z" fill="black"/>
</g>
<g opacity="0.8">
<path d="M520.75 54.2207L525.22 57.4007L510.05 65.8407L520.75 54.2207Z" fill="black"/>
</g>
<path d="M243.326 264.049L147.128 273.176L153.28 338.015L249.478 328.887L243.326 264.049Z" fill="white"/>
<path d="M249.48 328.9C249.48 328.9 249.41 328.48 249.33 327.7C249.24 326.88 249.12 325.74 248.96 324.26C248.65 321.22 248.2 316.82 247.63 311.2C246.51 299.92 244.92 283.76 242.97 264.09L243.36 264.41C216.8 266.95 183.39 270.16 147.18 273.62C147.08 273.72 147.94 272.7 147.58 273.14V273.16V273.19V273.26L147.6 273.4L147.63 273.67L147.68 274.21L147.78 275.29L147.98 277.45C148.12 278.89 148.25 280.32 148.39 281.74C148.66 284.59 148.93 287.42 149.19 290.23C149.72 295.85 150.24 301.38 150.76 306.81C151.78 317.66 152.76 328.1 153.69 337.98L153.24 337.61C181.52 335.01 205.52 332.8 222.49 331.24C230.96 330.48 237.68 329.88 242.32 329.47C244.6 329.28 246.37 329.12 247.61 329.02C248.19 328.98 248.64 328.94 248.99 328.91C249.3 328.89 249.46 328.88 249.47 328.89C249.47 328.89 249.33 328.92 249.04 328.96C248.71 329 248.27 329.05 247.71 329.11C246.49 329.24 244.75 329.42 242.51 329.65C237.89 330.11 231.21 330.79 222.79 331.63C205.76 333.3 181.68 335.65 153.31 338.42L152.9 338.46L152.86 338.05C151.91 328.17 150.91 317.74 149.88 306.89C149.36 301.46 148.84 295.93 148.3 290.31C148.03 287.5 147.76 284.67 147.49 281.82C147.35 280.39 147.22 278.96 147.08 277.53L146.88 275.37L146.78 274.29L146.73 273.75L146.7 273.48V273.34L146.68 273.27V273.24V273.22C146.32 273.65 147.17 272.61 147.09 272.72C183.31 269.32 216.73 266.18 243.29 263.68L243.65 263.65L243.68 264.01C245.48 283.79 246.95 300.04 247.98 311.38C248.47 316.97 248.86 321.35 249.12 324.38C249.24 325.83 249.33 326.96 249.4 327.76C249.46 328.52 249.47 328.89 249.47 328.89L249.48 328.9Z" fill="#455A64"/>
<path d="M243.32 264.062C243.32 264.062 243.09 264.412 242.58 265.022C242.01 265.692 241.25 266.572 240.31 267.662C238.25 270.002 235.37 273.271 231.83 277.291C224.53 285.451 214.52 296.642 203.37 309.122L203.12 309.402L202.8 309.201C201.99 308.681 201.12 308.132 200.24 307.572C185.57 298.162 172.29 289.642 162.58 283.422C157.85 280.332 153.99 277.821 151.22 276.011C149.95 275.161 148.93 274.482 148.16 273.962C147.47 273.482 147.11 273.222 147.12 273.192C147.14 273.162 147.53 273.382 148.25 273.802C149.05 274.282 150.09 274.922 151.4 275.712C154.2 277.452 158.11 279.892 162.91 282.882C172.65 289.052 185.98 297.492 200.71 306.812C201.59 307.372 202.46 307.932 203.27 308.442L202.7 308.522C213.93 296.122 224.01 284.992 231.37 276.882C235 272.942 237.95 269.732 240.06 267.432C241.05 266.382 241.84 265.542 242.45 264.902C243 264.332 243.3 264.042 243.33 264.062H243.32Z" fill="#455A64"/>
<path d="M446.677 170.389L433.681 216.378L501.919 235.662L514.915 189.673L446.677 170.389Z" fill="white"/>
<path d="M501.93 235.671C501.93 235.671 502 235.371 502.14 234.811C502.3 234.231 502.52 233.411 502.8 232.361C503.39 230.201 504.26 227.071 505.36 223.071C507.59 215.061 510.78 203.581 514.67 189.611L514.85 189.931C496.01 184.621 472.3 177.951 446.61 170.711C446.52 170.761 447.37 170.281 447.01 170.491V170.531V170.581L446.97 170.681L446.92 170.871L446.81 171.251L446.59 172.021L446.16 173.551C445.87 174.571 445.59 175.581 445.3 176.591C444.73 178.611 444.16 180.621 443.6 182.611C442.47 186.601 441.36 190.521 440.27 194.371C438.09 202.071 435.99 209.461 434 216.471L433.79 216.101C453.83 221.831 470.83 226.691 482.85 230.121C488.85 231.851 493.6 233.221 496.89 234.171C498.5 234.641 499.75 235.011 500.63 235.271C501.04 235.391 501.36 235.491 501.6 235.561C501.82 235.631 501.93 235.671 501.94 235.671C501.94 235.671 501.84 235.651 501.63 235.601C501.39 235.541 501.08 235.461 500.68 235.351C499.81 235.111 498.57 234.781 496.98 234.341C493.7 233.431 488.95 232.121 482.96 230.461C470.87 227.081 453.77 222.301 433.63 216.671L433.34 216.591L433.42 216.301C435.39 209.291 437.48 201.891 439.65 194.191C440.74 190.341 441.84 186.421 442.97 182.431C443.53 180.441 444.1 178.431 444.67 176.411C444.96 175.401 445.24 174.381 445.53 173.371L445.96 171.841L446.18 171.071L446.29 170.691L446.34 170.501L446.37 170.401V170.351L446.39 170.331C446.03 170.521 446.89 170.031 446.8 170.091C472.48 177.371 496.18 184.101 515.01 189.441L515.26 189.511L515.19 189.761C511.17 203.771 507.87 215.271 505.56 223.311C504.41 227.261 503.51 230.361 502.89 232.501C502.59 233.531 502.35 234.321 502.18 234.891C502.02 235.421 501.93 235.681 501.93 235.681V235.671Z" fill="#455A64"/>
<path d="M514.931 189.681C514.931 189.681 514.681 189.861 514.171 190.141C513.601 190.451 512.851 190.851 511.921 191.351C509.891 192.411 507.051 193.881 503.561 195.691C496.401 199.341 486.581 204.341 475.651 209.911L475.401 210.041L475.231 209.811C474.811 209.241 474.361 208.631 473.911 208.011C466.371 197.681 459.551 188.331 454.561 181.491C452.141 178.121 450.171 175.381 448.761 173.411C448.121 172.491 447.601 171.751 447.211 171.191C446.861 170.681 446.691 170.401 446.711 170.391C446.731 170.381 446.941 170.631 447.321 171.111C447.741 171.651 448.281 172.361 448.971 173.251C450.421 175.191 452.451 177.891 454.941 181.211C459.971 188.021 466.851 197.331 474.451 207.611C474.901 208.231 475.351 208.841 475.771 209.411L475.361 209.311C486.341 203.811 496.181 198.871 503.371 195.271C506.901 193.541 509.771 192.121 511.821 191.111C512.781 190.651 513.541 190.291 514.131 190.011C514.661 189.771 514.941 189.651 514.951 189.671L514.931 189.681Z" fill="#455A64"/>
<path d="M155.06 159.42C155.06 159.42 159.76 155.61 167.06 167.04C174.35 178.47 177.34 185.18 177.34 185.18C177.34 185.18 179.2 187.54 180.77 185.73C182.34 183.92 184.26 179.02 187.28 179.57C190.41 180.15 191.75 183.45 191.65 188.51C191.55 193.57 191.75 204.66 191.77 205.66C191.79 206.64 192.49 208.03 193.76 206.97C195.03 205.91 202 196.45 206.29 200.02C210.58 203.6 207.99 217.65 207.74 219.19C207.49 220.73 207.84 221.34 208.59 221.65C209.34 221.95 211.38 218.55 213.48 215.94C215.57 213.33 218.46 210.67 220.76 212.94C223.06 215.21 224.72 225.4 216.57 243.01L212.26 250.92L203.22 251.29C183.82 250.91 175.38 244.96 174.35 241.89C173.32 238.83 176.97 237.4 180.23 236.66C183.49 235.92 187.45 235.57 187.5 234.77C187.56 233.96 187.16 233.37 185.66 232.93C184.16 232.48 170.4 228.66 169.06 223.23C167.72 217.81 179.28 215.68 180.79 215.01C182.3 214.34 181.36 213.1 180.49 212.65C179.6 212.19 169.71 207.16 165.12 205.03C160.53 202.9 158.14 200.25 158.99 197.18C159.81 194.22 165.06 194.64 167.38 194.02C169.7 193.4 168.39 190.69 168.39 190.69C168.39 190.69 163.67 185.06 156.59 173.5C149.51 161.94 155.14 159.34 155.14 159.34" fill="#FCD34D"/>
<path d="M161.61 169.643C161.61 169.643 161.65 169.733 161.75 169.893C161.85 170.063 161.99 170.303 162.17 170.613C162.55 171.253 163.11 172.173 163.82 173.363C165.26 175.743 167.36 179.183 169.98 183.413C175.21 191.883 182.54 203.523 190.68 216.353C198.82 229.183 206.18 240.813 211.45 249.253C214.08 253.463 216.21 256.883 217.69 259.253C218.42 260.423 218.99 261.333 219.39 261.973C219.58 262.273 219.73 262.503 219.84 262.673C219.94 262.833 220 262.903 220 262.903C220 262.903 219.96 262.813 219.86 262.653C219.76 262.483 219.62 262.243 219.44 261.933C219.06 261.293 218.5 260.373 217.79 259.183C216.35 256.803 214.25 253.363 211.63 249.133C206.4 240.663 199.07 229.023 190.93 216.183C182.79 203.353 175.44 191.733 170.16 183.293C167.53 179.083 165.4 175.663 163.92 173.293C163.19 172.123 162.62 171.213 162.22 170.573C162.03 170.273 161.88 170.043 161.77 169.873C161.67 169.713 161.61 169.643 161.61 169.643Z" fill="#263238"/>
<path d="M184.88 186.531C184.88 186.531 184.8 186.751 184.71 187.161C184.62 187.571 184.5 188.161 184.36 188.901C184.09 190.371 183.77 192.421 183.46 194.681C183.17 196.911 182.9 198.921 182.69 200.471C182.6 201.161 182.52 201.741 182.45 202.221C182.39 202.631 182.37 202.861 182.39 202.871C182.41 202.871 182.47 202.651 182.57 202.241C182.66 201.831 182.78 201.241 182.91 200.501C183.17 199.021 183.46 196.981 183.77 194.721C184.08 192.501 184.36 190.491 184.58 188.941C184.68 188.251 184.76 187.671 184.83 187.191C184.89 186.781 184.91 186.541 184.89 186.541L184.88 186.531Z" fill="#263238"/>
<path d="M181.59 203.111C181.61 203.031 177.42 202.181 172.25 201.221C167.07 200.261 162.87 199.551 162.85 199.631C162.83 199.711 167.02 200.561 172.19 201.521C177.36 202.481 181.57 203.191 181.59 203.111Z" fill="#263238"/>
<path d="M194.97 222.25C194.97 222.25 194.73 222.25 194.3 222.28C193.81 222.33 193.21 222.39 192.5 222.46C190.98 222.61 188.88 222.8 186.56 222.94C184.24 223.08 182.13 223.13 180.6 223.16C179.89 223.17 179.28 223.19 178.79 223.2C178.36 223.21 178.13 223.23 178.13 223.25C178.13 223.27 178.37 223.29 178.79 223.32C179.22 223.34 179.84 223.37 180.6 223.38C182.13 223.41 184.24 223.38 186.57 223.25C188.9 223.12 191 222.88 192.52 222.68C193.28 222.58 193.89 222.48 194.31 222.41C194.73 222.34 194.96 222.28 194.96 222.26L194.97 222.25Z" fill="#263238"/>
<path d="M201.25 207.91C201.25 207.91 201.12 208.09 200.94 208.44C200.76 208.79 200.51 209.31 200.21 209.94C199.6 211.21 198.78 212.98 197.89 214.94C197 216.9 196.21 218.68 195.65 219.98C195.37 220.63 195.15 221.16 195 221.52C194.85 221.89 194.78 222.09 194.8 222.1C194.82 222.1 194.93 221.92 195.11 221.57C195.29 221.22 195.54 220.71 195.84 220.07C196.45 218.8 197.27 217.03 198.16 215.07C199.05 213.11 199.84 211.33 200.39 210.03C200.67 209.38 200.89 208.85 201.04 208.49C201.19 208.12 201.26 207.92 201.24 207.91H201.25Z" fill="#263238"/>
<path d="M215.21 223.312C215.21 223.312 215.05 223.553 214.83 224.003C214.58 224.513 214.26 225.153 213.88 225.923C213.09 227.553 212.02 229.812 210.86 232.312C209.7 234.812 208.66 237.092 207.92 238.742C207.58 239.532 207.29 240.182 207.06 240.702C206.86 241.172 206.76 241.432 206.78 241.442C206.8 241.442 206.94 241.203 207.16 240.753C207.41 240.243 207.73 239.602 208.11 238.832C208.9 237.202 209.97 234.942 211.13 232.442C212.29 229.942 213.33 227.662 214.07 226.012C214.41 225.222 214.7 224.572 214.93 224.052C215.13 223.582 215.23 223.322 215.21 223.312Z" fill="#263238"/>
<path d="M206.87 240.941C206.87 240.941 206.57 240.931 206.03 240.961C205.43 241.001 204.66 241.041 203.74 241.101C201.81 241.221 199.14 241.381 196.19 241.471C193.24 241.571 190.56 241.581 188.63 241.581C187.71 241.581 186.94 241.581 186.34 241.581C185.8 241.581 185.5 241.601 185.5 241.621C185.5 241.641 185.8 241.671 186.34 241.701C186.88 241.731 187.66 241.771 188.63 241.791C190.57 241.851 193.25 241.861 196.21 241.771C199.17 241.681 201.84 241.491 203.77 241.311C204.74 241.221 205.52 241.141 206.05 241.071C206.59 241.001 206.88 240.961 206.88 240.941H206.87Z" fill="#263238"/>
<path d="M504.77 249.62C501.41 248.07 497.41 248.31 493.98 249.7C490.55 251.09 487.64 253.54 485.18 256.31C480.42 261.66 477.77 269.46 476.44 276.49C484.33 277.46 492.04 272.4 495.79 269.59C501.72 265.15 509.73 253.51 504.77 249.62Z" fill="#FCD34D"/>
<path d="M462.17 279.25C465.94 277.55 468.4 273.53 468.69 269.4C468.98 265.28 467.26 261.15 464.49 258.09C463.21 256.67 461.51 255.38 459.6 255.48C457.82 255.57 456.27 256.91 455.52 258.54C454.77 260.16 454.71 262.02 454.89 263.8C455.49 269.9 457.19 275.69 462.17 279.25Z" fill="#FCD34D"/>
<path d="M451.81 299.153C451.81 299.153 452.21 298.783 452.8 298.023C453.4 297.263 454.24 296.153 455.24 294.743C457.21 291.923 459.91 287.903 461.72 282.883C463.53 277.853 463.69 272.853 462.92 269.443C462.56 267.733 462.05 266.403 461.62 265.533C461.19 264.663 460.88 264.223 460.84 264.243C460.69 264.313 461.81 266.183 462.37 269.543C462.97 272.883 462.73 277.703 460.97 282.603C459.2 287.503 456.62 291.523 454.77 294.413C452.89 297.293 451.71 299.073 451.81 299.143V299.153Z" fill="#263238"/>
<path d="M497.65 257.791C497.65 257.791 496.91 258.271 495.65 259.261C494.4 260.251 492.61 261.701 490.41 263.531C486.03 267.181 480.05 272.321 473.59 278.151C467.13 283.991 461.42 289.421 457.35 293.411C455.31 295.411 453.68 297.041 452.58 298.191C451.47 299.341 450.88 299.991 450.92 300.031C450.96 300.071 451.63 299.491 452.8 298.421C454.07 297.241 455.74 295.691 457.75 293.831C461.92 289.941 467.69 284.591 474.14 278.751C480.59 272.921 486.5 267.721 490.79 263.971C492.85 262.161 494.56 260.661 495.86 259.511C497.05 258.451 497.69 257.841 497.66 257.801L497.65 257.791Z" fill="#263238"/>
<path d="M466.71 290.042C473.93 285.162 483.57 284.082 491.69 287.252C493.76 288.062 496 289.542 496.04 291.762C496.08 293.982 493.87 295.542 491.81 296.372C483.22 299.812 472.63 297.382 466.39 290.552" fill="#FCD34D"/>
<path d="M486.33 291.282C486.35 291.232 485.89 291.002 485.04 290.642C484.62 290.452 484.09 290.242 483.45 290.062C482.82 289.872 482.11 289.612 481.29 289.462C479.67 289.062 477.7 288.812 475.5 288.732C473.3 288.702 470.87 288.882 468.37 289.392C465.88 289.932 463.59 290.752 461.58 291.672C459.6 292.632 457.89 293.662 456.57 294.682C455.88 295.152 455.34 295.672 454.83 296.102C454.32 296.522 453.93 296.932 453.61 297.272C452.98 297.952 452.65 298.342 452.69 298.382C452.8 298.492 454.21 297.002 456.89 295.142C458.22 294.202 459.92 293.242 461.87 292.342C463.84 291.482 466.09 290.702 468.51 290.172C470.94 289.672 473.31 289.482 475.46 289.472C477.61 289.502 479.55 289.692 481.15 290.012C484.36 290.622 486.25 291.422 486.3 291.272L486.33 291.282Z" fill="#263238"/>
<path d="M460.07 72.3008H207.33V349.431H460.07V72.3008Z" fill="#FAFAFA"/>
<path d="M460.06 349.421C460.06 347.451 459.97 237.901 459.83 72.2913L460.06 72.5213C385.95 72.5213 299.39 72.5413 207.35 72.5513H207.32L207.58 72.2913C207.57 174.261 207.55 269.501 207.54 349.421L207.32 349.201C359.3 349.331 458.18 349.421 460.06 349.421C458.19 349.421 359.31 349.511 207.32 349.641H207.1V349.421C207.09 269.501 207.08 174.271 207.06 72.2913V72.0312H207.35C299.39 72.0412 385.95 72.0513 460.06 72.0613H460.29V72.2913C460.15 237.901 460.06 347.451 460.06 349.421Z" fill="#263238"/>
<path d="M391.71 292.102H295.13C287.116 292.102 280.62 298.598 280.62 306.612V309.552C280.62 317.565 287.116 324.062 295.13 324.062H391.71C399.724 324.062 406.22 317.565 406.22 309.552V306.612C406.22 298.598 399.724 292.102 391.71 292.102Z" fill="#FCD34D"/>
<g opacity="0.5">
<path d="M391.71 292.102H295.13C287.116 292.102 280.62 298.598 280.62 306.612V309.552C280.62 317.565 287.116 324.062 295.13 324.062H391.71C399.724 324.062 406.22 317.565 406.22 309.552V306.612C406.22 298.598 399.724 292.102 391.71 292.102Z" fill="black"/>
</g>
<path d="M381.17 292.102H284.59C276.576 292.102 270.08 298.598 270.08 306.612V309.552C270.08 317.565 276.576 324.062 284.59 324.062H381.17C389.184 324.062 395.68 317.565 395.68 309.552V306.612C395.68 298.598 389.184 292.102 381.17 292.102Z" fill="#FCD34D"/>
<path d="M304.74 310.153L305.17 309.203C305.7 309.633 306.54 309.933 307.36 309.933C308.39 309.933 308.83 309.563 308.83 309.073C308.83 307.643 304.89 308.583 304.89 306.123C304.89 305.053 305.74 304.143 307.56 304.143C308.35 304.143 309.19 304.353 309.76 304.733L309.37 305.693C308.77 305.343 308.12 305.173 307.54 305.173C306.52 305.173 306.1 305.573 306.1 306.073C306.1 307.483 310.03 306.563 310.03 308.993C310.03 310.053 309.17 310.963 307.35 310.963C306.32 310.963 305.29 310.643 304.74 310.163V310.153Z" fill="black"/>
<path d="M311.19 307.97V304.23H312.42V307.92C312.42 309.28 313.03 309.87 314.1 309.87C315.17 309.87 315.77 309.28 315.77 307.92V304.23H316.98V307.97C316.98 309.9 315.89 310.95 314.09 310.95C312.29 310.95 311.19 309.9 311.19 307.97Z" fill="black"/>
<path d="M324.6 309.062C324.6 310.202 323.71 310.862 322.01 310.862H318.72V304.242H321.82C323.41 304.242 324.26 304.912 324.26 305.962C324.26 306.642 323.92 307.142 323.41 307.422C324.12 307.652 324.6 308.212 324.6 309.072V309.062ZM319.95 305.202V307.032H321.69C322.54 307.032 323.02 306.732 323.02 306.122C323.02 305.512 322.54 305.202 321.69 305.202H319.95ZM323.36 308.932C323.36 308.272 322.86 307.982 321.93 307.982H319.94V309.892H321.93C322.86 309.892 323.36 309.602 323.36 308.932Z" fill="black"/>
<path d="M325.36 310.153L325.79 309.203C326.32 309.633 327.16 309.933 327.98 309.933C329.01 309.933 329.45 309.563 329.45 309.073C329.45 307.643 325.51 308.583 325.51 306.123C325.51 305.053 326.36 304.143 328.18 304.143C328.97 304.143 329.81 304.353 330.38 304.733L329.99 305.693C329.39 305.343 328.74 305.173 328.16 305.173C327.14 305.173 326.72 305.573 326.72 306.073C326.72 307.483 330.65 306.563 330.65 308.993C330.65 310.053 329.79 310.963 327.97 310.963C326.94 310.963 325.91 310.643 325.36 310.163V310.153Z" fill="black"/>
<path d="M331.4 307.543C331.4 305.563 332.91 304.133 334.95 304.133C336.03 304.133 336.96 304.523 337.57 305.243L336.78 305.993C336.3 305.473 335.7 305.213 335.01 305.213C333.64 305.213 332.65 306.173 332.65 307.543C332.65 308.913 333.64 309.873 335.01 309.873C335.7 309.873 336.3 309.623 336.78 309.083L337.57 309.843C336.95 310.563 336.03 310.953 334.94 310.953C332.91 310.953 331.4 309.523 331.4 307.543Z" fill="black"/>
<path d="M343.09 310.851L341.74 308.911C341.66 308.911 341.57 308.911 341.49 308.911H339.99V310.841H338.76V304.221H341.48C343.22 304.221 344.3 305.111 344.3 306.581C344.3 307.581 343.79 308.321 342.89 308.671L344.41 310.851H343.09ZM341.43 305.271H339.99V307.911H341.43C342.51 307.911 343.07 307.421 343.07 306.591C343.07 305.761 342.51 305.271 341.43 305.271Z" fill="black"/>
<path d="M345.68 304.23H346.91V310.85H345.68V304.23Z" fill="black"/>
<path d="M354.58 309.062C354.58 310.202 353.69 310.862 351.99 310.862H348.7V304.242H351.8C353.39 304.242 354.24 304.912 354.24 305.962C354.24 306.642 353.9 307.142 353.39 307.422C354.1 307.652 354.58 308.212 354.58 309.072V309.062ZM349.93 305.202V307.032H351.67C352.52 307.032 353 306.732 353 306.122C353 305.512 352.52 305.202 351.67 305.202H349.93ZM353.34 308.932C353.34 308.272 352.84 307.982 351.91 307.982H349.92V309.892H351.91C352.84 309.892 353.34 309.602 353.34 308.932Z" fill="black"/>
<path d="M360.87 309.82V310.85H355.9V304.23H360.73V305.26H357.13V306.98H360.33V307.99H357.13V309.82H360.87Z" fill="black"/>
<path d="M407.24 270.791C407.24 270.931 375.1 271.051 335.46 271.051C295.82 271.051 263.67 270.931 263.67 270.791C263.67 270.651 295.8 270.531 335.46 270.531C375.12 270.531 407.24 270.651 407.24 270.791Z" fill="#263238"/>
<path d="M429.7 279.471C429.7 279.611 387.5 279.731 335.46 279.731C283.42 279.731 241.21 279.611 241.21 279.471C241.21 279.331 283.4 279.211 335.46 279.211C387.52 279.211 429.7 279.331 429.7 279.471Z" fill="#263238"/>
<path d="M219.21 83.0814C219.21 84.2614 218.25 85.2214 217.07 85.2214C215.89 85.2214 214.93 84.2614 214.93 83.0814C214.93 81.9014 215.89 80.9414 217.07 80.9414C218.25 80.9414 219.21 81.9014 219.21 83.0814Z" fill="black"/>
<path d="M224.2 85.2214C225.382 85.2214 226.34 84.2633 226.34 83.0814C226.34 81.8995 225.382 80.9414 224.2 80.9414C223.018 80.9414 222.06 81.8995 222.06 83.0814C222.06 84.2633 223.018 85.2214 224.2 85.2214Z" fill="black"/>
<path d="M233.48 83.0814C233.48 84.2614 232.52 85.2214 231.34 85.2214C230.16 85.2214 229.2 84.2614 229.2 83.0814C229.2 81.9014 230.16 80.9414 231.34 80.9414C232.52 80.9414 233.48 81.9014 233.48 83.0814Z" fill="black"/>
<path d="M441.26 127.892L445.42 112.902C445.42 112.902 446.92 106.812 447.28 105.392C447.75 103.512 446.43 102.922 445.65 104.202C445.35 104.692 442.07 110.892 442.07 110.892C442.07 110.892 444.69 100.742 444.79 100.372C445.64 97.0616 443.59 97.4016 442.99 98.5816C442.37 99.8016 438.66 109.792 438.66 109.792C442.15 96.7416 441.06 95.5916 440.08 95.3816C439.1 95.1716 436.03 107.112 436.03 107.112C436.03 107.112 434.92 105.072 432.88 103.662C429.73 101.492 424.47 103.662 424.22 105.142C423.97 106.622 425.84 107.042 425.84 107.042C429.79 104.492 433.84 107.582 433.42 111.352C433.01 115.122 428.23 114.602 427.64 111.912C426.34 106.022 424.31 107.942 424.31 107.942L426.34 120.922L424.19 127.452" fill="#FFBE9D"/>
<path d="M291.56 188.981L381.41 188.381L383.88 249.471L290.84 248.551L291.56 188.981Z" fill="#455A64"/>
<path d="M291.56 188.982L337.2 152.102L381.41 188.382" fill="#263238"/>
<path d="M290.84 248.55C290.73 248.44 297.93 240.6 306.91 231.02C315.9 221.44 323.28 213.76 323.39 213.87C323.5 213.98 316.31 221.82 307.31 231.4C298.32 240.98 290.94 248.65 290.83 248.55H290.84Z" fill="#263238"/>
<path d="M383.88 249.472C383.77 249.572 376.76 241.872 368.25 232.282C359.73 222.682 352.92 214.822 353.03 214.712C353.14 214.612 360.14 222.312 368.67 231.912C377.19 241.512 384 249.372 383.89 249.472H383.88Z" fill="#263238"/>
<path d="M381.41 188.381L336.27 224.401L291.56 188.981" fill="#263238"/>
<path d="M231.52 120.141H231.82L230.62 116.111L226.77 100.751C226.4 99.3607 227.18 97.9207 228.58 97.4007L231.35 97.3107L240.84 92.8707C242.63 92.2107 244.61 93.3307 244.84 95.1607C245.19 97.9807 247.11 105.571 249.15 102.911C249.2 102.851 249.25 102.801 249.3 102.741C252.17 98.7907 255.75 96.6507 257.22 96.7107C258.66 96.7707 259.19 98.5107 258.22 99.5507C258.08 99.7307 257.91 99.8907 257.68 100.021C257.58 100.071 257.47 100.161 257.37 100.231C256.26 101.131 254.93 102.721 253.96 103.981C253.03 105.181 252.32 106.551 251.87 107.981C251.36 109.571 250.99 110.971 250.7 112.151L251.44 119.991" fill="#FFBE9D"/>
<path d="M256.83 50.5506C256.83 50.5506 245.74 48.4306 229.81 33.9506C213.89 19.4906 206.04 -0.109425 204.15 0.040575C202.25 0.190575 193.86 -3.41942 179.07 31.3106C164.28 66.0406 170.72 73.8306 173.85 73.6806C176.98 73.5306 198.11 66.9906 211.46 68.1206C224.8 69.2606 242.1 75.7006 242.1 75.7006L256.84 50.5506H256.83Z" fill="#455A64"/>
<path d="M280.77 68.5809L277.21 75.8309L275.62 79.0809C273.44 83.5409 268.14 85.5009 263.58 83.5609L239.73 76.0009L252.59 44.2109L276.54 56.1209C281.14 58.4109 283.03 63.9709 280.77 68.5909V68.5809Z" fill="#263238"/>
<path d="M267.48 80.4104L260.37 95.3704L256.58 94.4304L232.57 115.12L225.32 101.87C225.32 101.87 239.67 95.2004 242.21 89.9504C244.75 84.6904 241.61 83.6104 241.61 83.6104L248.23 75.6504L267.49 80.4204L267.48 80.4104Z" fill="#263238"/>
<path d="M180.36 31.9002C172.5 50.7102 169.48 67.3602 173.61 69.0902C177.74 70.8202 187.47 56.9702 195.33 38.1602C203.19 19.3502 206.21 2.70017 202.08 0.970164C197.95 -0.759836 188.22 13.0902 180.36 31.9002Z" fill="#263238"/>
<path d="M283.09 78.8509L276.63 77.0209L280.38 69.3809L285.27 72.2209L283.09 78.8509Z" fill="#455A64"/>
<path d="M245.95 78.3691L263.47 88.8491L265.49 84.5891L245.95 78.3691Z" fill="#455A64"/>
<path d="M280.38 69.3809L276.63 77.0209L277.96 77.4009L280.97 69.7209L280.38 69.3809Z" fill="#455A64"/>
<path d="M276.02 71.2411C275.93 71.4511 272.7 70.3011 268.81 68.6711C264.91 67.0411 261.82 65.5511 261.91 65.3411C262 65.1311 265.23 66.2811 269.12 67.9111C273.02 69.5411 276.1 71.0311 276.02 71.2411Z" fill="#455A64"/>
<path d="M277.86 66.7006C277.76 66.9106 274.84 65.7706 271.33 64.1606C267.81 62.5506 265.04 61.0806 265.14 60.8706C265.23 60.6606 268.16 61.8006 271.67 63.4106C275.18 65.0206 277.96 66.4906 277.86 66.7006Z" fill="#455A64"/>
<path d="M273.67 76.0097C273.64 76.1197 272.87 75.9697 271.65 75.6297C271.04 75.4597 270.31 75.2397 269.51 74.9897C268.71 74.7297 267.88 74.3397 266.99 73.9597C263.44 72.4297 260.72 70.9197 260.8 70.7297C260.9 70.4997 263.79 71.6897 267.31 73.2097C268.19 73.5797 269.01 73.9897 269.78 74.2897C270.55 74.5797 271.25 74.8497 271.83 75.0797C272.99 75.5597 273.7 75.9097 273.67 76.0197V76.0097Z" fill="#455A64"/>
<path d="M197.34 27.292C197.34 27.292 187.59 21.622 182.72 34.712C177.85 47.802 187.98 49.642 187.98 49.642C191.92 43.132 195.06 35.712 197.33 27.292H197.34Z" fill="#455A64"/>
<path d="M207.09 11.5806C207.15 11.5806 207.04 12.4706 206.78 14.0606C206.52 15.6506 206.16 17.9606 205.62 20.7906C205.25 22.1906 204.85 23.7206 204.43 25.3606C204.21 26.1806 203.99 27.0306 203.76 27.9006C203.64 28.3406 203.53 28.7806 203.41 29.2306C203.28 29.6806 203.11 30.1106 202.95 30.5706C202.31 32.3706 201.64 34.2606 200.95 36.2106C200.78 36.7006 200.6 37.1906 200.42 37.6906C200.25 38.1906 200 38.6606 199.79 39.1606C199.35 40.1406 198.9 41.1306 198.45 42.1406C198 43.1406 197.55 44.1406 197.11 45.1106C196.88 45.5906 196.69 46.0906 196.43 46.5506C196.17 47.0106 195.92 47.4706 195.67 47.9306C194.66 49.7506 193.69 51.5006 192.76 53.1706C192.52 53.5806 192.31 54.0106 192.06 54.4006C191.8 54.7906 191.55 55.1706 191.3 55.5506C190.8 56.3006 190.31 57.0306 189.84 57.7406C188.89 59.1506 188.01 60.4606 187.2 61.6606C185.43 63.9306 183.95 65.7206 182.93 66.9706C181.9 68.2106 181.31 68.8806 181.27 68.8406C181.23 68.8106 181.73 68.0706 182.68 66.7706C183.67 65.4506 185.05 63.5906 186.75 61.3006C187.53 60.0906 188.37 58.7706 189.28 57.3506C189.74 56.6406 190.21 55.9106 190.7 55.1606C190.94 54.7806 191.19 54.4006 191.44 54.0106C191.68 53.6206 191.89 53.2006 192.12 52.7806C193.03 51.1106 193.98 49.3606 194.96 47.5506C195.21 47.1006 195.46 46.6406 195.71 46.1806C195.97 45.7206 196.15 45.2206 196.38 44.7406C196.82 43.7706 197.26 42.7806 197.71 41.7806C198.16 40.7806 198.61 39.8006 199.04 38.8306C199.25 38.3406 199.5 37.8706 199.67 37.3806C199.85 36.8906 200.03 36.4006 200.2 35.9106C200.91 33.9706 201.59 32.1006 202.24 30.3206C202.4 29.8706 202.58 29.4406 202.71 29.0006C202.83 28.5606 202.96 28.1206 203.08 27.6806C203.32 26.8206 203.56 25.9806 203.79 25.1606C204.25 23.5406 204.68 22.0306 205.07 20.6406C205.66 17.8606 206.14 15.6006 206.48 13.9906C206.83 12.4206 207.04 11.5506 207.1 11.5606L207.09 11.5806Z" fill="#263238"/>
<path d="M264.67 154.51L254.76 116.84L229.98 117.5L237.69 170.07C238.68 181.51 245.41 189 256.74 190.82C263.54 191.91 270.9 185.43 276.36 181.24C279.92 178.5 280.56 179.04 284.23 175.7L300.19 164.16L300.58 166.05H300.48L303.19 198.18L336.25 224.14L375.68 192.55L374.78 178.89C374.88 178.88 374.97 178.69 374.77 178.69L373.75 163.2L393.95 186.37C398.6 193.16 406.51 196.96 414.72 196.33C423.59 195.66 431.28 189.94 434.49 181.64L444.9 128.68L422.06 123.77L411.36 161.93L385.84 132.6C371.13 113.43 353.94 115.05 353.94 115.05L322.26 114.49C322.26 114.49 322.21 114.49 322.19 114.49C321.25 114.54 303.55 115.08 291.55 127.9L264.66 154.52L264.67 154.51Z" fill="#FCD34D"/>
<path d="M387.13 134.69C387.13 134.69 386.79 134.531 386.11 134.321C385.44 134.101 384.4 133.9 383.05 134C381.71 134.11 380.1 134.54 378.36 135.34C376.61 136.12 374.8 137.361 372.69 138.571C370.6 139.751 368.08 141.04 365.12 140.97C363.66 140.92 362.19 140.521 360.76 139.961C359.33 139.401 357.93 138.71 356.45 138.12C353.52 136.92 350.09 136.52 346.71 137.2C343.31 137.85 340.19 139.76 337 141.61C335.39 142.53 333.77 143.42 332.07 144.08C330.37 144.74 328.6 145.171 326.85 145.351C323.34 145.731 319.86 145.211 316.87 143.961C313.86 142.731 311.33 140.95 309.02 139.28C306.71 137.61 304.58 136.01 302.5 134.81C300.41 133.61 298.37 132.8 296.51 132.34C294.65 131.9 292.99 131.8 291.65 131.94C288.95 132.23 287.67 133.17 287.64 133.08C287.64 133.08 287.72 133.02 287.88 132.93C288.04 132.84 288.28 132.71 288.6 132.55C289.26 132.28 290.26 131.89 291.63 131.73C292.99 131.56 294.68 131.63 296.58 132.05C298.47 132.49 300.55 133.28 302.68 134.48C304.81 135.68 306.96 137.27 309.27 138.92C311.59 140.56 314.1 142.32 317.05 143.5C319.98 144.7 323.37 145.201 326.8 144.821C328.51 144.641 330.23 144.221 331.89 143.571C333.55 142.931 335.15 142.051 336.75 141.131C339.93 139.291 343.1 137.34 346.62 136.67C350.1 135.98 353.63 136.41 356.63 137.65C359.6 138.86 362.3 140.431 365.13 140.521C367.95 140.611 370.42 139.38 372.5 138.23C374.6 137.05 376.45 135.82 378.24 135.06C380.01 134.27 381.66 133.86 383.03 133.78C384.4 133.7 385.46 133.95 386.13 134.2C386.81 134.45 387.12 134.67 387.12 134.67L387.13 134.69Z" fill="black"/>
<path d="M405.5 153.462C405.5 153.462 405.41 153.972 404.96 154.852C404.51 155.722 403.64 156.942 402.09 158.022C400.57 159.102 398.38 160.022 395.72 160.282C393.07 160.582 390.04 160.262 386.75 159.892C383.48 159.562 379.76 159.152 376.07 160.372C374.24 160.992 372.51 162.032 370.78 163.152C369.04 164.272 367.26 165.512 365.21 166.392C361.15 168.182 356.34 168.852 351.58 167.982C349.2 167.582 346.85 166.732 344.66 165.552C342.46 164.372 340.42 162.912 338.3 161.542C336.18 160.182 334.02 158.902 331.68 158.222C329.35 157.522 326.91 157.442 324.57 157.782C319.87 158.462 315.61 160.352 311.35 161.502C309.23 162.102 307.09 162.522 304.98 162.572C302.88 162.612 300.8 162.312 298.97 161.552C295.28 160.032 292.56 157.442 290.15 155.192C287.74 152.912 285.52 150.872 283.27 149.522C281.04 148.142 278.81 147.522 276.98 147.372C275.14 147.222 273.71 147.552 272.8 147.872C271.89 148.212 271.46 148.502 271.44 148.472C271.44 148.472 271.85 148.152 272.76 147.772C273.67 147.412 275.12 147.042 276.99 147.162C278.85 147.282 281.14 147.882 283.42 149.262C285.72 150.612 287.98 152.642 290.4 154.912C292.83 157.142 295.54 159.682 299.13 161.142C300.92 161.872 302.92 162.142 304.97 162.102C307.02 162.052 309.12 161.632 311.22 161.032C313.32 160.442 315.45 159.692 317.64 158.992C319.83 158.292 322.1 157.602 324.5 157.272C326.89 156.922 329.42 157.002 331.83 157.722C334.25 158.432 336.45 159.742 338.58 161.102C340.71 162.482 342.75 163.932 344.91 165.092C347.06 166.252 349.35 167.072 351.68 167.472C356.34 168.322 361.05 167.672 365.03 165.942C369.01 164.202 372.13 161.192 375.95 159.952C377.84 159.322 379.76 159.142 381.59 159.142C383.42 159.142 385.16 159.322 386.81 159.512C390.1 159.912 393.1 160.252 395.71 159.982C398.33 159.762 400.48 158.892 401.99 157.852C403.53 156.822 404.41 155.642 404.88 154.802C405.35 153.952 405.48 153.442 405.51 153.462H405.5Z" fill="black"/>
<path d="M434.39 178.911C434.39 178.911 434 178.371 433.01 177.781C432.04 177.191 430.34 176.721 428.31 177.081C426.28 177.431 424.13 178.751 421.98 180.461C420.89 181.301 419.76 182.231 418.49 183.061C417.22 183.881 415.77 184.631 414.15 184.931C412.53 185.251 410.91 185.101 409.43 184.801C407.94 184.491 406.55 184.031 405.24 183.581C403.93 183.131 402.7 182.691 401.52 182.381C400.34 182.071 399.22 181.891 398.19 181.821C396.13 181.671 394.45 182.061 393.43 182.581C392.39 183.091 391.93 183.571 391.9 183.521C391.89 183.511 392 183.391 392.23 183.181C392.34 183.071 392.49 182.951 392.68 182.821C392.86 182.681 393.08 182.541 393.35 182.401C394.38 181.801 396.1 181.351 398.22 181.451C399.28 181.501 400.43 181.671 401.63 181.961C402.84 182.261 404.09 182.691 405.39 183.131C407.98 183.971 410.96 185.001 414.05 184.421C415.58 184.141 416.96 183.431 418.21 182.631C419.46 181.831 420.59 180.921 421.69 180.081C423.87 178.391 426.11 177.041 428.25 176.721C430.38 176.391 432.14 176.951 433.12 177.611C433.62 177.931 433.93 178.291 434.14 178.521C434.32 178.771 434.41 178.911 434.4 178.921L434.39 178.911Z" fill="black"/>
<path d="M439.41 150.17C439.41 150.17 439.14 150.43 438.55 150.71C437.96 150.99 437.04 151.29 435.86 151.39C434.69 151.49 433.28 151.39 431.77 151.02C430.26 150.67 428.68 150.06 427.03 149.44C425.38 148.83 423.8 148.28 422.32 148.03C420.84 147.78 419.47 147.8 418.36 148.02C416.1 148.44 415.06 149.57 415.01 149.47C414.99 149.45 415.22 149.16 415.75 148.77C416.28 148.38 417.14 147.93 418.29 147.66C419.44 147.39 420.86 147.33 422.4 147.56C423.94 147.79 425.56 148.33 427.21 148.95C428.86 149.57 430.42 150.18 431.88 150.55C433.34 150.92 434.7 151.07 435.83 151.02C438.12 150.93 439.36 150.07 439.4 150.17H439.41Z" fill="black"/>
<path d="M373.11 187.969C373.08 188.029 372.23 187.409 370.49 186.769C368.76 186.149 366.07 185.619 362.77 185.969C359.47 186.259 355.69 187.559 351.74 189.469C347.77 191.339 343.57 193.839 338.68 195.419C336.24 196.199 333.75 196.689 331.32 196.689C328.89 196.689 326.57 196.189 324.46 195.509C322.35 194.829 320.42 193.979 318.63 193.189C316.84 192.399 315.18 191.639 313.64 191.029C310.57 189.769 307.92 189.199 306.08 189.059C305.62 189.029 305.21 188.989 304.85 188.989C304.51 188.999 304.21 189.009 303.95 189.019C303.46 189.029 303.2 189.029 303.2 189.019C303.2 188.999 303.45 188.969 303.94 188.919C304.2 188.899 304.5 188.869 304.85 188.839C305.21 188.839 305.63 188.859 306.09 188.869C307.96 188.949 310.66 189.479 313.77 190.699C315.34 191.289 317 192.029 318.8 192.809C320.6 193.589 322.52 194.409 324.6 195.069C326.68 195.729 328.94 196.199 331.31 196.199C333.68 196.199 336.12 195.719 338.51 194.939C343.32 193.379 347.52 190.909 351.52 189.049C355.5 187.149 359.35 185.859 362.72 185.619C366.08 185.309 368.81 185.909 370.55 186.589C372.29 187.299 373.1 187.979 373.1 187.979L373.11 187.969Z" fill="black"/>
<path d="M236.53 162.41C236.53 162.41 236.67 162.28 237.01 162.18C237.34 162.08 237.88 162.04 238.52 162.24C239.15 162.44 239.88 162.87 240.49 163.61C241.1 164.34 241.56 165.31 242.08 166.33C242.58 167.36 243.29 168.39 244.29 169.27C245.28 170.16 246.57 170.83 247.99 171.31C250.86 172.27 254.26 172.33 257.73 171.78C261.21 171.27 264.54 170.56 267.64 170.59C270.75 170.54 273.52 171.48 275.48 172.76C277.48 174.03 278.6 175.69 279.05 176.91C279.51 178.14 279.47 178.89 279.47 178.89C279.4 178.9 279.37 178.17 278.86 176.99C278.36 175.83 277.23 174.26 275.27 173.07C273.34 171.86 270.66 170.99 267.63 171.06C264.59 171.06 261.3 171.77 257.79 172.29C254.3 172.85 250.78 172.78 247.83 171.76C246.36 171.25 245.03 170.53 244 169.58C242.96 168.65 242.23 167.53 241.74 166.48C241.24 165.43 240.81 164.48 240.26 163.77C239.71 163.07 239.04 162.63 238.45 162.41C237.23 161.97 236.53 162.46 236.53 162.38V162.41Z" fill="black"/>
<path d="M258.22 131.859C258.16 131.959 257.11 130.699 254.73 130.049C253.56 129.729 252.09 129.589 250.49 129.769C248.89 129.949 247.18 130.489 245.46 131.219C243.74 131.959 242.15 132.799 240.67 133.529C239.2 134.259 237.84 134.859 236.66 135.269C235.48 135.679 234.49 135.899 233.8 135.999C233.11 136.099 232.72 136.099 232.72 136.069C232.71 135.979 234.25 135.829 236.54 134.919C237.69 134.469 239.01 133.839 240.47 133.089C241.92 132.339 243.52 131.479 245.27 130.729C247.02 129.979 248.79 129.439 250.46 129.279C252.12 129.109 253.65 129.299 254.85 129.679C256.06 130.059 256.94 130.609 257.48 131.059C258.02 131.509 258.25 131.829 258.23 131.849L258.22 131.859Z" fill="black"/>
<g opacity="0.3">
<path d="M330.63 219.719C343.47 212.279 358.33 203.549 365.74 190.689C370.48 182.469 372.83 172.639 373.75 163.189L375.68 192.539L336.25 224.129L330.63 219.719Z" fill="black"/>
</g>
<g opacity="0.2">
<path d="M297.36 122.631C294.33 133.891 288.53 143.591 279.73 151.251C277.61 153.101 275.3 154.821 272.64 155.731C269.98 156.641 266.89 156.651 264.48 155.191L264.67 154.521L284.65 134.731L297.35 122.631H297.36Z" fill="black"/>
</g>
<path d="M267.22 170.252C267.14 170.222 267.46 169.342 267.73 167.882C268 166.422 268.14 164.352 267.78 162.112C267.41 159.872 266.61 157.962 265.88 156.662C265.15 155.362 264.56 154.632 264.63 154.582C264.67 154.542 265.37 155.192 266.19 156.482C267.02 157.762 267.9 159.722 268.29 162.032C268.67 164.342 268.46 166.492 268.09 167.962C267.72 169.442 267.27 170.282 267.22 170.262V170.252Z" fill="#263238"/>
<path d="M261.49 165.209C261.36 165.109 263.1 163.289 263.87 160.389C264.69 157.509 264.14 155.049 264.3 155.029C264.36 155.019 264.58 155.599 264.7 156.609C264.82 157.609 264.78 159.029 264.37 160.529C263.95 162.019 263.26 163.259 262.64 164.059C262.02 164.859 261.53 165.249 261.49 165.209Z" fill="#263238"/>
<path d="M298.69 144.539C298.83 144.529 299.65 152.499 300.52 162.339C301.39 172.189 301.98 180.179 301.83 180.189C301.69 180.199 300.87 172.229 300 162.389C299.13 152.549 298.54 144.549 298.69 144.539Z" fill="#263238"/>
<path d="M352.08 113.9C352.08 113.9 352.17 114.08 352.29 114.44C352.43 114.8 352.57 115.34 352.73 116.05C353.02 117.46 353.17 119.6 352.63 122.16C352.07 124.68 350.77 127.65 348.27 130.07C345.81 132.51 342.07 134.08 338.08 134.18C334.09 134.26 330.28 132.85 327.71 130.52C325.11 128.21 323.68 125.31 323.01 122.81C322.36 120.28 322.42 118.14 322.65 116.71C322.77 116 322.89 115.45 323.01 115.09C323.12 114.73 323.18 114.54 323.2 114.54C323.26 114.56 323.01 115.32 322.85 116.74C322.69 118.15 322.69 120.26 323.37 122.71C324.07 125.14 325.5 127.95 328.03 130.15C330.52 132.38 334.2 133.72 338.07 133.65C341.93 133.55 345.55 132.05 347.94 129.71C350.37 127.39 351.68 124.52 352.27 122.07C352.84 119.58 352.75 117.48 352.52 116.08C352.3 114.67 352.01 113.92 352.07 113.9H352.08Z" fill="#263238"/>
<path d="M410.17 174.15C410.03 174.15 409.8 171.34 410.01 167.87C410.2 164.4 410.75 161.63 410.88 161.65C411.03 161.67 410.72 164.45 410.53 167.9C410.33 171.34 410.33 174.14 410.17 174.15Z" fill="#263238"/>
<path d="M414.19 175.959C414.13 175.979 413.78 175.209 413.34 173.919C412.9 172.629 412.37 170.809 411.95 168.769C411.53 166.729 411.29 164.849 411.19 163.489C411.08 162.129 411.1 161.279 411.17 161.279C411.33 161.269 411.62 164.619 412.47 168.669C413.3 172.719 414.35 175.909 414.21 175.969L414.19 175.959Z" fill="#263238"/>
<path d="M373.75 176.539C373.61 176.539 373.28 170.909 373.02 163.959C372.76 156.999 372.66 151.359 372.81 151.359C372.95 151.359 373.28 156.989 373.54 163.939C373.8 170.889 373.9 176.539 373.75 176.539Z" fill="#263238"/>
<path d="M337.91 132.6C330.41 132.46 324.32 126.51 324.01 119.01C323.78 113.53 323.59 108.5 323.59 108.5C323.59 108.5 312.12 107.28 311.43 95.9098C310.74 84.5298 311.44 58.2998 311.44 58.2998C324.34 51.9998 339.64 53.1698 351.43 61.3698L353.18 62.5898L352.35 118.64C352.23 126.49 345.76 132.75 337.91 132.6Z" fill="#FFBE9D"/>
<path d="M323.56 108.338C323.56 108.338 330.78 108.578 338.19 103.398C338.19 103.398 335.08 111.758 323.67 111.288L323.55 108.338H323.56Z" fill="#EB996E"/>
<path d="M352.35 74.4504C352.54 74.3604 360.06 71.7604 360.19 79.5504C360.32 87.3404 352.47 85.8704 352.45 85.6404C352.43 85.4104 352.35 74.4504 352.35 74.4504Z" fill="#FFBE9D"/>
<path d="M354.78 82.6493C354.78 82.6493 354.92 82.7393 355.15 82.8393C355.38 82.9393 355.76 82.9993 356.17 82.8393C356.99 82.5193 357.66 81.2093 357.67 79.7993C357.67 79.0893 357.52 78.4193 357.26 77.8593C357.01 77.2893 356.64 76.8993 356.22 76.8293C355.81 76.7393 355.52 76.9893 355.42 77.2193C355.32 77.4393 355.37 77.5893 355.33 77.6093C355.31 77.6293 355.16 77.4793 355.22 77.1593C355.25 76.9993 355.34 76.8193 355.52 76.6693C355.7 76.5093 355.98 76.4293 356.27 76.4593C356.87 76.4893 357.42 77.0393 357.71 77.6393C358.03 78.2493 358.23 79.0093 358.22 79.7993C358.2 81.3693 357.42 82.8493 356.3 83.1993C355.75 83.3493 355.29 83.1993 355.05 83.0093C354.81 82.8193 354.76 82.6493 354.79 82.6293L354.78 82.6493Z" fill="#EB996E"/>
<path d="M316.88 75.5098C316.85 76.3698 317.55 77.0998 318.45 77.1498C319.35 77.1998 320.1 76.5398 320.13 75.6798C320.16 74.8198 319.46 74.0898 318.56 74.0398C317.66 73.9898 316.91 74.6498 316.88 75.5098Z" fill="#263238"/>
<path d="M314.9 73.8899C315.1 74.0999 316.33 73.1899 318.09 73.1899C319.84 73.1699 321.12 74.0699 321.31 73.8599C321.4 73.7699 321.2 73.3799 320.64 72.9699C320.09 72.5599 319.15 72.1699 318.06 72.1699C316.97 72.1699 316.05 72.5799 315.52 72.9899C314.98 73.3999 314.8 73.7899 314.9 73.8799V73.8899Z" fill="#263238"/>
<path d="M333.7 75.7109C333.67 76.5709 334.37 77.3009 335.27 77.3509C336.17 77.4009 336.92 76.7409 336.95 75.8809C336.98 75.0209 336.28 74.2909 335.38 74.2409C334.48 74.1909 333.73 74.8509 333.7 75.7109Z" fill="#263238"/>
<path d="M332.12 74.2102C332.32 74.4202 333.56 73.5102 335.31 73.5102C337.06 73.4902 338.34 74.3902 338.53 74.1802C338.62 74.0902 338.42 73.7002 337.86 73.2902C337.31 72.8802 336.37 72.4902 335.28 72.4902C334.19 72.4902 333.27 72.9002 332.74 73.3102C332.2 73.7202 332.02 74.1102 332.12 74.2002V74.2102Z" fill="#263238"/>
<path d="M325.76 87.2005C325.76 87.1005 324.68 86.9105 322.92 86.6905C322.47 86.6405 322.05 86.5505 321.97 86.2505C321.86 85.9305 322.05 85.4405 322.27 84.9205C322.69 83.8405 323.13 82.7005 323.59 81.5105C325.43 76.6605 326.76 72.6805 326.56 72.6005C326.36 72.5305 324.72 76.4005 322.88 81.2505C322.44 82.4505 322.02 83.5905 321.61 84.6805C321.44 85.1905 321.15 85.7605 321.38 86.4305C321.5 86.7605 321.83 87.0105 322.12 87.0805C322.41 87.1705 322.66 87.1705 322.88 87.1905C324.66 87.2905 325.76 87.2905 325.76 87.1905V87.2005Z" fill="#263238"/>
<path d="M330.92 88.4088C330.64 88.3888 330.63 90.2888 329 91.6388C327.38 92.9888 325.35 92.7788 325.33 93.0488C325.3 93.1688 325.78 93.4188 326.64 93.4388C327.48 93.4688 328.7 93.1988 329.7 92.3688C330.69 91.5388 331.12 90.4388 331.18 89.6588C331.25 88.8688 331.04 88.3888 330.91 88.4088H330.92Z" fill="#263238"/>
<path d="M331.66 67.3505C331.83 67.8305 333.58 67.6005 335.64 67.8505C337.7 68.0605 339.36 68.6605 339.63 68.2305C339.75 68.0305 339.46 67.5805 338.79 67.1205C338.13 66.6605 337.07 66.2205 335.83 66.0805C334.6 65.9505 333.47 66.1405 332.72 66.4505C331.97 66.7505 331.59 67.1305 331.66 67.3505Z" fill="#263238"/>
<path d="M315.55 68.8199C315.86 69.2199 317.06 68.7999 318.52 68.7899C319.97 68.7199 321.2 69.0599 321.48 68.6399C321.6 68.4399 321.41 68.0399 320.87 67.6599C320.34 67.2799 319.46 66.9799 318.46 67.0099C317.46 67.0399 316.6 67.3999 316.09 67.8099C315.58 68.2199 315.41 68.6299 315.55 68.8199Z" fill="#263238"/>
<path d="M305.63 50.7802C305.51 49.3702 306.03 47.8501 307.18 47.0201C308.33 46.1901 310.11 46.2402 311.05 47.3102C310.51 45.4102 312.07 43.2101 314.04 43.0901C315.9 42.9701 317.48 44.3802 319.28 44.8702C321.03 45.3502 322.91 44.9302 324.6 44.2602C326.29 43.5802 327.86 42.6401 329.57 42.0201C333.13 40.7201 337.2 40.8802 340.65 42.4602C344.1 44.0402 346.87 47.0201 348.21 50.5701C350.7 49.7901 353.53 51.0602 355.07 53.1702C356.61 55.2802 357 58.0502 356.7 60.6502C356.49 62.4002 355.99 64.1002 355.4 65.7602C355.4 65.9102 355.41 66.0502 355.41 66.2002C355.29 72.4702 354.58 79.8202 351.91 79.8702C347.25 79.9402 348.36 71.1602 348.36 71.1602C342.64 68.9502 344.77 60.3802 343.34 59.0802C341.91 57.7802 338.92 54.7601 326.95 60.8801C322.3 63.2601 316.12 63.1802 312.75 62.4202C312.65 62.4002 312.55 62.3801 312.45 62.3601C312.43 62.3601 312.4 62.3602 312.38 62.3502C312.34 62.3502 312.32 62.3202 312.28 62.3102C311.2 62.0302 310.17 61.6102 309.21 61.0102C308.13 60.3202 307.14 59.4001 306.68 58.2001C306.22 57.0001 306.39 55.5101 307.33 54.6301C306.45 53.5201 305.75 52.2101 305.63 50.8001V50.7802Z" fill="#263238"/>
</g>
</g>
<defs>
<clipPath id="clip0_418_990">
<rect width="664" height="412" fill="white"/>
</clipPath>
</defs>
</svg>
