<svg width="475" height="445" viewBox="0 0 475 445" fill="none" xmlns="http://www.w3.org/2000/svg">
<g clip-path="url(#clip0_417_859)">
<path d="M313.47 10.7103C313.47 10.7103 234.13 -20.4597 158.25 23.5303C82.37 67.5303 45.92 158.04 14.48 230.48C-16.96 302.92 4.27001 378.09 64.06 413.76C123.84 449.43 162.53 400.38 245.05 400.24C327.57 400.1 350.11 412.97 417.34 366.48C484.57 319.99 493.89 206.03 437.56 119.95C381.23 33.8703 313.49 10.7303 313.49 10.7303L313.47 10.7103Z" fill="#FCD34D"/>
<path opacity="0.7" d="M313.47 10.7103C313.47 10.7103 234.13 -20.4597 158.25 23.5303C82.37 67.5303 45.92 158.04 14.48 230.48C-16.96 302.92 4.27001 378.09 64.06 413.76C123.84 449.43 162.53 400.38 245.05 400.24C327.57 400.1 350.11 412.97 417.34 366.48C484.57 319.99 493.89 206.03 437.56 119.95C381.23 33.8703 313.49 10.7303 313.49 10.7303L313.47 10.7103Z" fill="white"/>
<path d="M384.09 386.101C386.07 386.961 390.91 386.861 390.92 386.861C390.97 386.861 389.88 383.691 389.79 383.501C388.73 381.281 385.37 377.611 382.63 377.981C380.66 378.251 379.57 380.221 380.01 382.071C380.46 383.961 382.41 385.371 384.09 386.111V386.101Z" fill="#263238"/>
<path d="M385.76 400.12C387.81 400.42 392.13 399.17 392.48 399.06C393.16 401.48 394.06 403.91 395.1 406.31C395.69 407.69 396.34 409.05 397 410.42C396.61 409.84 396.25 409.33 396.19 409.26C394.58 407.4 390.37 404.75 387.83 405.82C386 406.6 385.46 408.79 386.38 410.46C387.32 412.17 389.56 413.01 391.38 413.28C393.23 413.55 396.93 412.55 397.91 412.28C398.17 412.8 398.42 413.32 398.68 413.84C399.93 416.33 401.19 418.81 402.35 421.28C402.76 422.15 403.13 423.02 403.51 423.9C403.16 423.39 402.86 422.96 402.81 422.9C401.2 421.04 396.99 418.38 394.45 419.46C392.62 420.24 392.08 422.43 393 424.1C393.94 425.81 396.18 426.65 398 426.92C399.76 427.18 403.19 426.29 404.35 425.97C404.71 426.87 405.07 427.78 405.37 428.67C405.56 429.28 405.79 429.86 405.96 430.49C406.13 431.11 406.3 431.72 406.47 432.33C406.75 433.51 407.05 434.72 407.3 435.88C407.48 436.68 407.63 437.45 407.79 438.23C407.39 437.36 406.58 435.67 406.49 435.53C405.18 433.44 401.42 430.19 398.75 430.87C396.82 431.36 395.96 433.44 396.62 435.24C397.29 437.07 399.38 438.24 401.14 438.78C403.08 439.37 407.37 438.83 407.9 438.76C408.16 440.04 408.4 441.29 408.6 442.47C408.71 443.1 408.81 443.68 408.9 444.27H410.61C410.48 443.59 410.35 442.89 410.21 442.17C409.95 440.87 409.66 439.48 409.33 438.06C409.65 437.93 411.48 437.19 413.1 436.29C414.51 437.82 418.13 439.61 418.6 439.84C418.11 441.05 417.62 442.22 417.14 443.32C417 443.65 416.86 443.96 416.71 444.28H418.51C418.56 444.17 418.6 444.07 418.64 443.96C419.15 442.73 419.66 441.41 420.18 440.05C420.7 440.16 424.94 441.02 426.92 440.57C428.71 440.16 430.89 439.15 431.69 437.37C432.48 435.63 431.77 433.49 429.89 432.86C427.28 431.98 423.28 434.95 421.82 436.93C421.73 437.05 420.94 438.42 420.45 439.29C420.66 438.73 420.87 438.19 421.07 437.62C421.49 436.48 421.87 435.34 422.29 434.1C422.47 433.5 422.65 432.89 422.84 432.27C423.03 431.66 423.16 431 423.33 430.36C423.69 428.87 423.97 427.34 424.23 425.79C425.23 426.15 428.79 427.39 430.63 427.26C432.47 427.13 434.77 426.46 435.83 424.83C436.87 423.23 436.5 421.01 434.73 420.1C432.28 418.84 427.88 421.17 426.14 422.9C426.03 423.01 424.92 424.4 424.32 425.17C424.47 424.24 424.62 423.31 424.73 422.36C425.07 419.62 425.33 416.85 425.6 414.07C425.68 413.22 425.77 412.38 425.86 411.53C426.21 411.66 430.41 413.23 432.48 413.08C434.32 412.95 436.62 412.28 437.68 410.64C438.72 409.04 438.35 406.82 436.58 405.91C434.13 404.65 429.73 406.98 427.99 408.71C427.86 408.84 426.26 410.84 425.88 411.37C426.08 409.51 426.29 407.65 426.58 405.83C426.97 403.32 427.49 400.87 428.17 398.54C428.33 398.6 432.71 400.25 434.82 400.1C436.66 399.97 438.96 399.3 440.02 397.66C441.06 396.06 440.69 393.84 438.92 392.93C436.47 391.67 432.07 394 430.33 395.73C430.19 395.87 428.48 398.02 428.19 398.43C428.23 398.29 428.26 398.14 428.3 398.01C429.06 395.53 430.1 393.23 431.19 391.12C431.82 389.89 432.49 388.75 433.16 387.66C433.94 388.05 437.54 389.8 439.46 389.88C441.3 389.95 443.66 389.54 444.9 388.03C446.11 386.56 445.99 384.3 444.33 383.21C442.03 381.68 437.41 383.52 435.48 385.05C435.38 385.13 434.4 386.1 433.71 386.81C434.02 386.32 434.33 385.81 434.64 385.35C435.79 383.61 436.96 382.09 438 380.75C438.6 379.99 439.15 379.32 439.68 378.7C440.65 378.68 444.55 378.56 446.26 377.76C447.92 376.98 449.83 375.52 450.23 373.61C450.62 371.74 449.48 369.8 447.5 369.59C444.76 369.29 441.5 373.05 440.5 375.3C440.41 375.49 439.41 378.69 439.46 378.69C439.46 378.69 439.51 378.69 439.52 378.69C439 379.28 438.45 379.92 437.86 380.63C436.79 381.95 435.59 383.45 434.39 385.17C433.19 386.89 431.93 388.78 430.79 390.9C429.64 393.02 428.54 395.31 427.72 397.82C427.72 397.85 427.7 397.88 427.69 397.91C427.7 397.1 427.67 394.84 427.65 394.67C427.33 392.23 425.29 387.69 422.57 387.19C420.62 386.83 418.96 388.36 418.8 390.26C418.64 392.2 420.05 394.14 421.42 395.37C422.97 396.75 427.26 398.09 427.61 398.2C426.84 400.59 426.25 403.11 425.8 405.69C425.54 407.17 425.32 408.66 425.12 410.16C425.11 409.46 425.1 408.84 425.08 408.75C424.76 406.31 422.72 401.77 420 401.27C418.05 400.91 416.39 402.44 416.24 404.34C416.08 406.28 417.49 408.22 418.86 409.45C420.25 410.69 423.89 411.91 424.86 412.22C424.79 412.8 424.71 413.37 424.64 413.95C424.31 416.72 423.99 419.48 423.6 422.18C423.46 423.13 423.29 424.06 423.12 425C423.12 424.38 423.1 423.86 423.09 423.78C422.77 421.34 420.73 416.8 418.01 416.3C416.05 415.94 414.4 417.47 414.24 419.37C414.08 421.31 415.49 423.25 416.86 424.48C418.19 425.67 421.54 426.82 422.69 427.19C422.49 428.14 422.29 429.09 422.05 430.01C421.87 430.63 421.75 431.24 421.53 431.85C421.33 432.46 421.14 433.07 420.94 433.66C420.53 434.8 420.1 435.98 419.67 437.08C419.38 437.85 419.08 438.57 418.79 439.31C418.94 438.36 419.19 436.51 419.2 436.35C419.24 434.71 418.66 432.05 417.5 430.18C417.5 429.94 417.5 429.7 417.45 429.46C417.15 427.58 415.38 426.18 413.46 426.69C410.79 427.4 409.1 432.08 408.98 434.54C408.98 434.69 409.07 436.27 409.14 437.27C409.01 436.69 408.88 436.13 408.74 435.53C408.46 434.35 408.15 433.18 407.81 431.92C407.63 431.32 407.44 430.71 407.26 430.1C407.09 429.49 406.83 428.86 406.62 428.24C406.09 426.8 405.49 425.36 404.85 423.93C405.88 423.68 409.53 422.75 411 421.63C412.46 420.51 414.01 418.68 413.99 416.73C413.98 414.82 412.44 413.17 410.46 413.39C407.72 413.69 405.34 418.06 404.84 420.47C404.81 420.62 404.65 422.39 404.58 423.37C404.19 422.51 403.8 421.65 403.38 420.8C402.15 418.33 400.84 415.87 399.53 413.41C399.13 412.66 398.74 411.9 398.35 411.15C398.72 411.07 403.08 410.05 404.73 408.79C406.19 407.67 407.74 405.84 407.72 403.89C407.71 401.98 406.17 400.33 404.19 400.55C401.45 400.85 399.07 405.22 398.57 407.63C398.53 407.81 398.3 410.36 398.28 411.01C397.42 409.35 396.57 407.68 395.8 406.01C394.74 403.7 393.83 401.37 393.11 399.06C393.28 399.02 397.84 397.98 399.52 396.69C400.98 395.57 402.53 393.74 402.51 391.79C402.5 389.88 400.96 388.23 398.98 388.45C396.24 388.75 393.86 393.12 393.36 395.53C393.32 395.72 393.07 398.46 393.07 398.96C393.03 398.82 392.97 398.68 392.93 398.55C392.2 396.06 391.79 393.57 391.53 391.21C391.38 389.84 391.31 388.52 391.27 387.24C392.14 387.13 396.11 386.61 397.75 385.61C399.32 384.66 401.06 383.01 401.26 381.07C401.46 379.17 400.11 377.36 398.12 377.36C395.36 377.36 392.52 381.44 391.76 383.78C391.72 383.91 391.44 385.25 391.25 386.23C391.25 385.65 391.22 385.05 391.22 384.5C391.22 382.41 391.36 380.5 391.49 378.81C391.57 377.85 391.67 376.98 391.76 376.17C392.56 375.62 395.75 373.37 396.73 371.76C397.69 370.19 398.47 367.92 397.76 366.11C397.06 364.34 395.03 363.35 393.27 364.26C390.82 365.53 390.17 370.46 390.58 372.89C390.62 373.1 391.54 376.32 391.58 376.29C391.58 376.29 391.62 376.26 391.63 376.26C391.52 377.04 391.42 377.87 391.32 378.79C391.15 380.48 390.98 382.39 390.93 384.49C390.88 386.58 390.88 388.86 391.09 391.25C391.3 393.65 391.65 396.17 392.34 398.71C392.34 398.74 392.36 398.77 392.37 398.8C391.94 398.12 390.66 396.25 390.54 396.12C388.93 394.26 384.72 391.6 382.18 392.68C380.35 393.46 379.81 395.65 380.73 397.32C381.67 399.03 383.91 399.87 385.73 400.14L385.76 400.12Z" fill="#263238"/>
<path d="M433.07 387.16C433.07 387.16 433.95 383.94 433.98 383.73C434.32 381.29 433.54 376.38 431.06 375.18C429.27 374.32 427.27 375.36 426.62 377.15C425.95 378.98 426.8 381.22 427.8 382.77C428.97 384.58 433.07 387.16 433.08 387.17L433.07 387.16Z" fill="#263238"/>
<path d="M375.43 444.271C373.89 431.321 363.86 405.671 349.45 398.471C334.18 390.841 322.73 408.281 295.47 420.821C268.21 433.361 275.3 411.551 246.95 394.651C218.6 377.751 214.78 401.191 203.33 406.641C191.49 412.281 184.5 391.551 181.71 383.861C176.25 368.821 169.9 355.921 155.76 347.001C133.92 333.211 96.58 334.301 85.04 361.011C81.57 369.031 82.82 383.761 74.11 388.111C61.02 394.651 27.22 387.021 25.04 408.831C24.28 416.381 26.55 423.101 29.84 428.671C30.79 431.561 31.53 434.611 31.04 436.101C29.95 439.371 22.86 431.741 16.86 435.551C12.97 438.031 10.23 441.871 8.78 444.271H375.42H375.43Z" fill="#FCD34D"/>
<path d="M118.62 368.932C118.62 368.932 117.68 373.292 119.64 376.912C121.6 380.532 124.27 382.932 124.27 382.932C124.27 382.932 126.21 376.052 118.62 368.932Z" fill="white"/>
<path d="M82.06 407.461C82.06 407.461 85.42 410.391 89.54 410.431C93.65 410.461 97.05 409.281 97.05 409.281C97.05 409.281 91.96 404.251 82.06 407.461Z" fill="white"/>
<path d="M46.35 402.532C46.35 402.532 49.71 405.462 53.83 405.502C57.94 405.532 61.34 404.352 61.34 404.352C61.34 404.352 56.25 399.322 46.35 402.532Z" fill="white"/>
<path d="M76.94 425.532C76.94 425.532 81.02 427.332 84.96 426.142C88.9 424.952 91.79 422.822 91.79 422.822C91.79 422.822 85.44 419.532 76.94 425.532Z" fill="white"/>
<path d="M40.68 420.93C40.68 420.93 44.76 422.73 48.7 421.54C52.64 420.35 55.53 418.22 55.53 418.22C55.53 418.22 49.18 414.93 40.68 420.93Z" fill="white"/>
<path d="M101.31 427.412C101.31 427.412 105.77 427.352 108.86 424.632C111.95 421.912 113.69 418.762 113.69 418.762C113.69 418.762 106.55 418.412 101.31 427.402V427.412Z" fill="white"/>
<path d="M50.59 440.332C50.59 440.332 55.05 440.272 58.14 437.552C61.23 434.832 62.97 431.682 62.97 431.682C62.97 431.682 55.83 431.332 50.59 440.322V440.332Z" fill="white"/>
<path d="M91.03 373.442C91.03 373.442 92.04 377.792 95.36 380.222C98.68 382.652 102.12 383.682 102.12 383.682C102.12 383.682 100.94 376.632 91.03 373.432V373.442Z" fill="white"/>
<path d="M163.77 370.221C163.77 370.221 159.35 370.851 156.64 373.941C153.92 377.031 152.59 380.371 152.59 380.371C152.59 380.371 159.72 379.811 163.77 370.221Z" fill="white"/>
<path d="M179.08 393.18C179.08 393.18 174.72 392.24 171.1 394.2C167.48 396.16 165.08 398.84 165.08 398.84C165.08 398.84 171.97 400.78 179.08 393.18Z" fill="white"/>
<path d="M177.58 419.261C177.58 419.261 174.43 416.101 170.33 415.771C166.23 415.441 162.76 416.381 162.76 416.381C162.76 416.381 167.48 421.761 177.58 419.271V419.261Z" fill="white"/>
<path d="M160.5 433.251C160.5 433.251 158.69 429.171 154.97 427.401C151.25 425.631 147.68 425.271 147.68 425.271C147.68 425.271 150.17 431.981 160.5 433.251Z" fill="white"/>
<path d="M151.5 390.942C151.5 390.942 147.08 391.572 144.37 394.652C141.65 397.742 140.32 401.082 140.32 401.082C140.32 401.082 147.45 400.522 151.5 390.932V390.942Z" fill="white"/>
<path d="M79.12 385.182C79.12 385.182 81.09 389.192 84.87 390.812C88.65 392.432 92.24 392.662 92.24 392.662C92.24 392.662 89.49 386.052 79.12 385.182Z" fill="white"/>
<path d="M142.12 364.08C142.12 364.08 138.54 366.75 137.64 370.76C136.74 374.77 137.17 378.34 137.17 378.34C137.17 378.34 143.16 374.43 142.12 364.07V364.08Z" fill="white"/>
<path d="M128.63 351.451C128.63 351.451 126.6 355.421 127.56 359.421C128.52 363.421 130.49 366.431 130.49 366.431C130.49 366.431 134.14 360.281 128.63 351.451Z" fill="white"/>
<path d="M99.43 355.701C99.43 355.701 99.43 360.161 102.11 363.291C104.79 366.411 107.91 368.201 107.91 368.201C107.91 368.201 108.36 361.061 99.43 355.711V355.701Z" fill="white"/>
<path d="M227.04 402.92C227.04 402.92 226.49 405.45 227.63 407.55C228.77 409.65 230.32 411.05 230.32 411.05C230.32 411.05 231.45 407.05 227.04 402.92Z" fill="white"/>
<path d="M205.81 425.28C205.81 425.28 207.76 426.98 210.15 427C212.54 427.02 214.51 426.33 214.51 426.33C214.51 426.33 211.56 423.41 205.81 425.27V425.28Z" fill="white"/>
<path d="M202.84 435.781C202.84 435.781 205.21 436.831 207.5 436.141C209.79 435.451 211.47 434.211 211.47 434.211C211.47 434.211 207.78 432.301 202.85 435.781H202.84Z" fill="white"/>
<path d="M216.99 436.871C216.99 436.871 219.58 436.841 221.37 435.261C223.16 433.681 224.17 431.851 224.17 431.851C224.17 431.851 220.02 431.651 216.98 436.871H216.99Z" fill="white"/>
<path d="M211.02 405.529C211.02 405.529 211.61 408.049 213.53 409.469C215.46 410.879 217.46 411.479 217.46 411.479C217.46 411.479 216.77 407.379 211.02 405.529Z" fill="white"/>
<path d="M253.26 403.66C253.26 403.66 250.69 404.02 249.12 405.82C247.54 407.61 246.77 409.55 246.77 409.55C246.77 409.55 250.91 409.23 253.26 403.66Z" fill="white"/>
<path d="M262.15 416.99C262.15 416.99 259.62 416.45 257.52 417.58C255.42 418.72 254.03 420.27 254.03 420.27C254.03 420.27 258.03 421.4 262.16 416.98L262.15 416.99Z" fill="white"/>
<path d="M261.28 432.139C261.28 432.139 259.45 430.299 257.07 430.109C254.69 429.919 252.67 430.459 252.67 430.459C252.67 430.459 255.41 433.579 261.28 432.139Z" fill="white"/>
<path d="M251.36 440.259C251.36 440.259 250.31 437.889 248.15 436.869C245.99 435.839 243.91 435.629 243.91 435.629C243.91 435.629 245.36 439.519 251.35 440.259H251.36Z" fill="white"/>
<path d="M246.14 415.689C246.14 415.689 243.57 416.049 242 417.849C240.42 419.639 239.65 421.579 239.65 421.579C239.65 421.579 243.79 421.259 246.14 415.689Z" fill="white"/>
<path d="M204.11 412.35C204.11 412.35 205.25 414.68 207.45 415.62C209.65 416.56 211.73 416.69 211.73 416.69C211.73 416.69 210.14 412.85 204.11 412.35Z" fill="white"/>
<path d="M240.69 400.09C240.69 400.09 238.61 401.64 238.09 403.97C237.57 406.3 237.82 408.37 237.82 408.37C237.82 408.37 241.3 406.1 240.69 400.09Z" fill="white"/>
<path d="M232.85 392.76C232.85 392.76 231.67 395.07 232.23 397.39C232.79 399.71 233.93 401.46 233.93 401.46C233.93 401.46 236.05 397.89 232.85 392.76Z" fill="white"/>
<path d="M215.9 395.23C215.9 395.23 215.9 397.82 217.45 399.63C219 401.44 220.82 402.48 220.82 402.48C220.82 402.48 221.08 398.33 215.9 395.23Z" fill="white"/>
<path d="M332.51 412.771C332.51 412.771 331.96 415.301 333.1 417.401C334.24 419.501 335.79 420.901 335.79 420.901C335.79 420.901 336.92 416.901 332.51 412.771Z" fill="white"/>
<path d="M311.28 435.132C311.28 435.132 313.23 436.832 315.62 436.852C318.01 436.872 319.98 436.182 319.98 436.182C319.98 436.182 317.03 433.262 311.28 435.122V435.132Z" fill="white"/>
<path d="M316.49 415.381C316.49 415.381 317.08 417.901 319 419.321C320.93 420.731 322.93 421.331 322.93 421.331C322.93 421.331 322.24 417.231 316.49 415.381Z" fill="white"/>
<path d="M358.73 413.512C358.73 413.512 356.16 413.872 354.59 415.672C353.01 417.462 352.24 419.402 352.24 419.402C352.24 419.402 356.38 419.082 358.73 413.512Z" fill="white"/>
<path d="M367.62 426.842C367.62 426.842 365.09 426.302 362.99 427.432C360.89 428.572 359.5 430.122 359.5 430.122C359.5 430.122 363.5 431.252 367.63 426.832L367.62 426.842Z" fill="white"/>
<path d="M366.75 441.99C366.75 441.99 364.92 440.15 362.54 439.96C360.16 439.77 358.14 440.31 358.14 440.31C358.14 440.31 360.88 443.43 366.75 441.99Z" fill="white"/>
<path d="M351.61 425.541C351.61 425.541 349.04 425.901 347.47 427.701C345.89 429.491 345.12 431.431 345.12 431.431C345.12 431.431 349.26 431.111 351.61 425.541Z" fill="white"/>
<path d="M309.58 422.201C309.58 422.201 310.72 424.531 312.92 425.471C315.11 426.411 317.2 426.541 317.2 426.541C317.2 426.541 315.61 422.701 309.58 422.201Z" fill="white"/>
<path d="M346.16 409.941C346.16 409.941 344.08 411.491 343.56 413.821C343.04 416.151 343.29 418.221 343.29 418.221C343.29 418.221 346.77 415.951 346.16 409.941Z" fill="white"/>
<path d="M338.32 402.611C338.32 402.611 337.14 404.921 337.7 407.241C338.26 409.561 339.4 411.311 339.4 411.311C339.4 411.311 341.52 407.741 338.32 402.611Z" fill="white"/>
<path d="M321.37 405.082C321.37 405.082 321.37 407.672 322.92 409.482C324.47 411.292 326.29 412.332 326.29 412.332C326.29 412.332 326.55 408.182 321.37 405.082Z" fill="white"/>
<path d="M109.54 444.271H119.25L115 422.461L135.17 406.641L112.27 417.551L105.73 386.471L111.18 443.171L97 437.721L70.29 427.361L99.73 443.721L109.54 444.271Z" fill="#A1A1A1"/>
<path d="M230.04 414.82L216.95 443.17L222.41 443.72L225.68 435.54L240.26 432.92L226.77 430.09L230.04 414.82Z" fill="#A1A1A1"/>
<path d="M326.54 428.451L334.18 443.721L335.51 435.471L326.54 428.451Z" fill="#A1A1A1"/>
<path d="M340.77 444.271L341.87 433.161L351.62 425.731L342.44 427.351L343.99 411.551L334.18 443.721L337.45 444.271H340.77Z" fill="#A1A1A1"/>
<path d="M178.65 80.5804C178.65 80.5804 177 71.2204 172.04 70.1204C168.65 69.3704 165.26 70.4204 163.46 71.1504C161.99 67.8904 159.82 64.6604 156.62 62.4004C147.26 55.7904 141.75 67.9104 141.75 67.9104C141.75 67.9104 135.69 53.0404 122.47 45.8804C109.25 38.7204 96.58 44.2304 91.63 48.6304C86.67 53.0404 82.82 61.3004 82.27 64.0504C81.72 66.8004 79.52 60.1904 71.8 61.8504C64.09 63.5004 59.68 73.9704 59.68 73.9704C59.68 73.9704 55.82 69.0104 50.87 71.2204C45.91 73.4204 44.26 78.9304 44.26 78.9304L23.33 83.8904H190.77L178.65 80.5904V80.5804Z" stroke="#263238" stroke-miterlimit="10"/>
<path d="M417.45 289.61C417.45 289.61 416.08 281.82 411.95 280.91C409.13 280.28 406.31 281.16 404.81 281.77C403.59 279.05 401.78 276.37 399.12 274.5C391.33 269 386.75 279.08 386.75 279.08C386.75 279.08 381.71 266.71 370.72 260.75C359.72 254.79 349.19 259.38 345.06 263.04C340.93 266.7 337.73 273.58 337.27 275.87C336.81 278.16 334.98 272.66 328.57 274.04C322.16 275.41 318.49 284.12 318.49 284.12C318.49 284.12 315.28 280 311.16 281.83C307.04 283.66 305.66 288.24 305.66 288.24L288.25 292.36H427.52L417.44 289.61H417.45Z" stroke="#263238" stroke-miterlimit="10"/>
<path d="M176.84 264.741C176.84 264.741 176.25 261.391 174.47 260.991C173.26 260.721 172.04 261.101 171.4 261.361C170.87 260.191 170.1 259.041 168.95 258.231C165.6 255.861 163.62 260.201 163.62 260.201C163.62 260.201 161.45 254.871 156.71 252.311C151.97 249.741 147.44 251.721 145.66 253.301C143.88 254.881 142.5 257.841 142.31 258.821C142.11 259.811 141.32 257.441 138.56 258.031C135.8 258.621 134.22 262.371 134.22 262.371C134.22 262.371 132.84 260.591 131.06 261.381C129.28 262.171 128.69 264.141 128.69 264.141L121.19 265.921H181.17L176.83 264.741H176.84Z" stroke="#263238" stroke-miterlimit="10"/>
<path d="M425.06 205.689C424.43 205.689 423.87 205.669 423.38 205.639C422.89 205.599 422.43 205.559 421.99 205.509C421.55 205.459 421.11 205.379 420.66 205.269C420.21 205.169 419.72 205.039 419.19 204.899C418.49 204.689 417.74 204.449 416.94 204.169C416.14 203.889 415.44 203.749 414.85 203.749C414.33 203.749 413.97 203.849 413.78 204.059C413.59 204.269 413.42 204.569 413.28 204.949H412.5V193.689H413.08C413.64 196.339 414.4 198.419 415.36 199.919C416.32 201.419 417.36 202.539 418.47 203.269C419.59 203.999 420.72 204.469 421.87 204.659C423.02 204.849 424.09 204.949 425.06 204.949V187.939L422.02 187.049C419.16 186.209 417.01 185.059 415.58 183.589C414.15 182.119 413.43 180.209 413.43 177.829C413.43 176.259 413.71 174.799 414.27 173.459C414.83 172.119 415.61 170.969 416.63 170.009C417.64 169.049 418.86 168.289 420.27 167.729C421.68 167.169 423.23 166.889 424.9 166.889H425.06V163.699H425.79V166.889C426.84 166.959 427.72 167.099 428.43 167.309C429.14 167.519 429.77 167.749 430.31 167.989C430.85 168.229 431.34 168.449 431.78 168.639C432.22 168.829 432.66 168.929 433.11 168.929C433.56 168.929 433.87 168.869 434.03 168.749C434.19 168.629 434.4 168.319 434.68 167.829H435.41V177.249H434.78C434.57 176.059 434.24 174.909 433.79 173.799C433.34 172.679 432.74 171.689 432.01 170.819C431.28 169.949 430.4 169.219 429.37 168.649C428.34 168.069 427.15 167.729 425.78 167.629V182.439L430.12 183.699C430.61 183.839 431.35 184.089 432.35 184.459C433.34 184.829 434.34 185.379 435.33 186.109C436.32 186.839 437.2 187.789 437.95 188.959C438.7 190.129 439.08 191.599 439.08 193.379C439.08 194.989 438.77 196.529 438.16 198.009C437.55 199.489 436.68 200.799 435.54 201.939C434.41 203.069 433.02 203.979 431.38 204.659C429.74 205.339 427.87 205.679 425.78 205.679V209.339H425.05V205.679L425.06 205.689ZM425.06 167.629H424.9C424.06 167.629 423.14 167.739 422.13 167.969C421.12 168.199 420.17 168.579 419.3 169.119C418.43 169.659 417.7 170.389 417.13 171.319C416.55 172.239 416.27 173.389 416.27 174.749C416.27 175.869 416.49 176.819 416.92 177.599C417.36 178.389 417.93 179.059 418.65 179.619C419.36 180.179 420.18 180.629 421.08 180.979C421.99 181.329 422.89 181.629 423.8 181.869L425.06 182.239V167.629ZM425.79 204.949C427.64 204.949 429.16 204.669 430.34 204.109C431.53 203.549 432.47 202.849 433.17 202.019C433.87 201.179 434.36 200.269 434.64 199.269C434.92 198.279 435.06 197.359 435.06 196.519C435.06 195.259 434.85 194.199 434.43 193.329C434.01 192.459 433.48 191.729 432.83 191.159C432.18 190.579 431.48 190.119 430.71 189.769C429.94 189.419 429.21 189.139 428.51 188.929L425.79 188.139V204.939V204.949Z" fill="#263238"/>
<path d="M448.92 198.014C454.481 184.835 448.306 169.643 435.127 164.082C421.949 158.52 406.757 164.695 401.195 177.874C395.634 191.053 401.809 206.245 414.987 211.806C428.166 217.368 443.358 211.193 448.92 198.014Z" stroke="#263238" stroke-miterlimit="10"/>
<path d="M214.1 43.1885C213.68 43.1885 213.3 43.1785 212.98 43.1485C212.65 43.1285 212.34 43.0985 212.05 43.0585C211.76 43.0285 211.46 42.9685 211.15 42.8985C210.85 42.8285 210.52 42.7485 210.17 42.6485C209.7 42.5085 209.2 42.3485 208.66 42.1585C208.12 41.9685 207.65 41.8785 207.25 41.8785C206.9 41.8785 206.66 41.9485 206.53 42.0885C206.4 42.2285 206.29 42.4285 206.2 42.6885H205.67V35.1285H206.06C206.43 36.9085 206.94 38.3085 207.59 39.3085C208.23 40.3185 208.93 41.0685 209.68 41.5585C210.43 42.0485 211.19 42.3585 211.96 42.4885C212.73 42.6185 213.45 42.6785 214.1 42.6785V31.2585L212.06 30.6585C210.14 30.0985 208.7 29.3185 207.74 28.3385C206.78 27.3585 206.3 26.0685 206.3 24.4685C206.3 23.4185 206.49 22.4385 206.86 21.5285C207.23 20.6285 207.76 19.8485 208.44 19.2085C209.12 18.5685 209.93 18.0585 210.88 17.6785C211.83 17.3085 212.87 17.1185 213.99 17.1185H214.1V14.9785H214.59V17.1185C215.29 17.1685 215.88 17.2585 216.36 17.3985C216.84 17.5385 217.26 17.6885 217.63 17.8585C217.99 18.0185 218.32 18.1685 218.61 18.2985C218.9 18.4285 219.2 18.4885 219.51 18.4885C219.82 18.4885 220.02 18.4485 220.13 18.3685C220.24 18.2885 220.38 18.0785 220.57 17.7485H221.06V24.0785H220.64C220.5 23.2785 220.28 22.5085 219.97 21.7585C219.67 21.0085 219.27 20.3385 218.77 19.7585C218.28 19.1685 217.69 18.6885 216.99 18.2985C216.3 17.9085 215.5 17.6785 214.58 17.6085V27.5585L217.5 28.3985C217.83 28.4885 218.33 28.6585 218.99 28.9085C219.66 29.1585 220.33 29.5285 220.99 30.0185C221.66 30.5085 222.24 31.1485 222.75 31.9385C223.25 32.7285 223.51 33.7185 223.51 34.9085C223.51 35.9885 223.3 37.0185 222.89 38.0185C222.48 39.0185 221.89 39.8985 221.13 40.6585C220.37 41.4185 219.44 42.0285 218.34 42.4885C217.24 42.9485 215.99 43.1785 214.58 43.1785V45.6385H214.09V43.1785L214.1 43.1885ZM214.1 17.6285H213.99C213.43 17.6285 212.81 17.7085 212.13 17.8585C211.45 18.0085 210.82 18.2685 210.23 18.6285C209.64 18.9885 209.16 19.4885 208.77 20.1085C208.38 20.7285 208.19 21.4985 208.19 22.4085C208.19 23.1585 208.34 23.7985 208.63 24.3285C208.92 24.8585 209.31 25.3085 209.79 25.6785C210.27 26.0585 210.81 26.3585 211.42 26.5885C212.03 26.8185 212.64 27.0185 213.25 27.1885L214.09 27.4385V17.6285H214.1ZM214.59 42.6985C215.83 42.6985 216.85 42.5085 217.65 42.1385C218.45 41.7685 219.08 41.2985 219.55 40.7285C220.02 40.1685 220.35 39.5485 220.53 38.8785C220.72 38.2085 220.81 37.5985 220.81 37.0285C220.81 36.1885 220.67 35.4685 220.39 34.8885C220.11 34.2985 219.75 33.8185 219.32 33.4285C218.89 33.0385 218.41 32.7285 217.9 32.4985C217.38 32.2685 216.89 32.0785 216.42 31.9385L214.59 31.4085V42.6885V42.6985Z" fill="#263238"/>
<path d="M226.389 43.5661C233.181 36.7749 233.181 25.7642 226.389 18.9729C219.598 12.1817 208.587 12.1817 201.796 18.9729C195.005 25.7642 195.005 36.7749 201.796 43.5661C208.587 50.3573 219.598 50.3573 226.389 43.5661Z" stroke="#263238" stroke-miterlimit="10"/>
<path d="M234.78 321.108C234.36 321.108 233.98 321.098 233.66 321.068C233.33 321.048 233.02 321.018 232.73 320.978C232.44 320.948 232.14 320.888 231.83 320.818C231.53 320.748 231.2 320.668 230.85 320.568C230.38 320.428 229.88 320.268 229.34 320.078C228.8 319.888 228.33 319.798 227.93 319.798C227.58 319.798 227.34 319.868 227.21 320.008C227.08 320.148 226.97 320.348 226.88 320.608H226.35V313.048H226.74C227.11 314.828 227.62 316.228 228.27 317.228C228.91 318.238 229.61 318.988 230.36 319.478C231.11 319.968 231.87 320.278 232.64 320.408C233.41 320.538 234.13 320.598 234.78 320.598V309.178L232.74 308.578C230.82 308.018 229.38 307.238 228.42 306.258C227.46 305.278 226.98 303.988 226.98 302.388C226.98 301.338 227.17 300.358 227.54 299.458C227.91 298.558 228.44 297.778 229.12 297.138C229.8 296.498 230.61 295.988 231.56 295.608C232.51 295.238 233.55 295.048 234.67 295.048H234.78V292.908H235.27V295.048C235.97 295.098 236.56 295.188 237.04 295.328C237.52 295.468 237.94 295.618 238.31 295.788C238.67 295.948 239 296.098 239.29 296.228C239.58 296.358 239.88 296.418 240.19 296.418C240.5 296.418 240.7 296.378 240.81 296.298C240.92 296.218 241.06 296.008 241.25 295.678H241.74V302.008H241.32C241.18 301.208 240.96 300.438 240.65 299.688C240.35 298.938 239.95 298.268 239.45 297.688C238.96 297.098 238.37 296.618 237.67 296.228C236.98 295.838 236.18 295.608 235.26 295.538V305.488L238.18 306.328C238.51 306.418 239.01 306.588 239.67 306.838C240.34 307.088 241.01 307.458 241.67 307.948C242.34 308.438 242.92 309.078 243.43 309.868C243.93 310.658 244.19 311.638 244.19 312.838C244.19 313.918 243.98 314.958 243.57 315.948C243.16 316.948 242.57 317.828 241.81 318.588C241.05 319.348 240.12 319.958 239.02 320.418C237.92 320.878 236.67 321.108 235.26 321.108V323.568H234.77V321.108H234.78ZM234.78 295.558H234.67C234.11 295.558 233.49 295.638 232.81 295.788C232.13 295.938 231.5 296.198 230.91 296.558C230.32 296.918 229.84 297.418 229.45 298.038C229.06 298.658 228.87 299.428 228.87 300.338C228.87 301.088 229.02 301.728 229.31 302.258C229.6 302.788 229.99 303.238 230.47 303.608C230.95 303.988 231.49 304.288 232.1 304.518C232.71 304.748 233.32 304.948 233.93 305.118L234.77 305.368V295.558H234.78ZM235.27 320.618C236.51 320.618 237.53 320.428 238.33 320.058C239.13 319.688 239.76 319.218 240.23 318.648C240.7 318.088 241.03 317.468 241.21 316.798C241.4 316.128 241.49 315.518 241.49 314.948C241.49 314.108 241.35 313.388 241.07 312.808C240.79 312.218 240.43 311.738 240 311.348C239.57 310.958 239.09 310.648 238.58 310.418C238.06 310.188 237.57 309.998 237.1 309.858L235.27 309.328V320.608V320.618Z" fill="#263238"/>
<path d="M238.783 326.134C248.126 323.912 253.899 314.535 251.677 305.192C249.454 295.848 240.078 290.076 230.735 292.298C221.391 294.521 215.618 303.897 217.841 313.24C220.063 322.584 229.439 328.357 238.783 326.134Z" stroke="#263238" stroke-miterlimit="10"/>
<path d="M53.37 206.789C52.82 206.789 52.34 206.769 51.91 206.739C51.48 206.709 51.08 206.669 50.7 206.629C50.32 206.579 49.93 206.519 49.54 206.429C49.15 206.339 48.72 206.229 48.27 206.109C47.66 205.929 47.01 205.719 46.31 205.469C45.61 205.229 45.01 205.109 44.49 205.109C44.04 205.109 43.72 205.199 43.56 205.379C43.39 205.559 43.25 205.819 43.13 206.149H42.45V196.359H42.95C43.43 198.669 44.09 200.469 44.93 201.779C45.76 203.079 46.67 204.059 47.64 204.689C48.61 205.329 49.6 205.729 50.6 205.899C51.6 206.069 52.53 206.149 53.38 206.149V191.359L50.74 190.589C48.25 189.859 46.39 188.859 45.14 187.589C43.9 186.319 43.27 184.649 43.27 182.579C43.27 181.209 43.51 179.949 44 178.779C44.48 177.609 45.17 176.609 46.05 175.779C46.93 174.949 47.98 174.289 49.21 173.799C50.44 173.319 51.78 173.069 53.24 173.069H53.38V170.289H54.02V173.069C54.93 173.129 55.7 173.249 56.32 173.429C56.94 173.609 57.49 173.809 57.96 174.019C58.43 174.229 58.85 174.419 59.23 174.589C59.61 174.759 60 174.839 60.39 174.839C60.78 174.839 61.05 174.789 61.19 174.679C61.33 174.569 61.52 174.309 61.76 173.879H62.4V182.069H61.85C61.67 181.039 61.38 180.039 60.99 179.069C60.6 178.099 60.08 177.229 59.44 176.479C58.8 175.719 58.04 175.089 57.14 174.589C56.25 174.089 55.21 173.789 54.02 173.699V186.579L57.8 187.669C58.22 187.789 58.87 188.009 59.73 188.329C60.59 188.649 61.46 189.129 62.32 189.759C63.18 190.399 63.94 191.219 64.6 192.239C65.25 193.259 65.58 194.539 65.58 196.089C65.58 197.489 65.31 198.829 64.78 200.119C64.25 201.409 63.49 202.549 62.5 203.529C61.51 204.519 60.31 205.309 58.88 205.899C57.45 206.489 55.83 206.789 54.01 206.789V209.979H53.37V206.789ZM53.37 173.699H53.23C52.5 173.699 51.7 173.799 50.82 173.999C49.94 174.199 49.12 174.529 48.36 174.999C47.6 175.469 46.97 176.109 46.47 176.909C45.97 177.709 45.72 178.709 45.72 179.889C45.72 180.859 45.91 181.689 46.29 182.369C46.67 183.049 47.17 183.639 47.79 184.119C48.41 184.609 49.12 184.999 49.91 185.299C50.7 185.599 51.49 185.859 52.28 186.069L53.37 186.389V173.689V173.699ZM54 206.149C55.61 206.149 56.93 205.909 57.96 205.419C58.99 204.929 59.81 204.329 60.42 203.599C61.03 202.869 61.45 202.079 61.69 201.209C61.93 200.349 62.05 199.549 62.05 198.819C62.05 197.729 61.87 196.799 61.5 196.039C61.14 195.279 60.67 194.649 60.11 194.149C59.55 193.649 58.93 193.249 58.27 192.939C57.6 192.639 56.97 192.389 56.36 192.209L53.99 191.529V206.139L54 206.149Z" fill="#263238"/>
<path d="M53.37 213.88C65.8075 213.88 75.89 203.797 75.89 191.36C75.89 178.922 65.8075 168.84 53.37 168.84C40.9326 168.84 30.85 178.922 30.85 191.36C30.85 203.797 40.9326 213.88 53.37 213.88Z" stroke="#263238" stroke-miterlimit="10"/>
<path d="M363.34 95.8987C363.03 95.8987 362.75 95.8987 362.5 95.8687C362.26 95.8487 362.02 95.8287 361.81 95.7987C361.59 95.7687 361.37 95.7287 361.14 95.6787C360.91 95.6287 360.67 95.5687 360.41 95.4987C360.06 95.3987 359.69 95.2687 359.29 95.1287C358.89 94.9887 358.54 94.9187 358.24 94.9187C357.98 94.9187 357.8 94.9687 357.7 95.0787C357.6 95.1787 357.52 95.3287 357.45 95.5187H357.06V89.8987H357.35C357.63 91.2287 358.01 92.2587 358.49 93.0087C358.97 93.7587 359.49 94.3187 360.05 94.6787C360.61 95.0387 361.17 95.2787 361.75 95.3687C362.33 95.4687 362.86 95.5087 363.35 95.5087V87.0087L361.83 86.5687C360.4 86.1487 359.33 85.5787 358.61 84.8387C357.89 84.1087 357.54 83.1487 357.54 81.9587C357.54 81.1787 357.68 80.4487 357.96 79.7787C358.24 79.1087 358.63 78.5287 359.14 78.0487C359.65 77.5687 360.25 77.1887 360.96 76.9087C361.67 76.6287 362.44 76.4887 363.27 76.4887H363.35V74.8887H363.72V76.4887C364.24 76.5287 364.68 76.5887 365.04 76.6987C365.4 76.7987 365.71 76.9187 365.98 77.0387C366.25 77.1587 366.49 77.2687 366.71 77.3687C366.93 77.4687 367.15 77.5087 367.38 77.5087C367.61 77.5087 367.76 77.4787 367.84 77.4187C367.92 77.3587 368.03 77.2087 368.17 76.9587H368.54V81.6687H368.23C368.13 81.0787 367.96 80.4987 367.73 79.9387C367.5 79.3787 367.21 78.8887 366.84 78.4487C366.47 78.0087 366.03 77.6487 365.52 77.3587C365.01 77.0687 364.41 76.8987 363.73 76.8487V84.2487L365.9 84.8787C366.14 84.9487 366.51 85.0787 367.01 85.2587C367.51 85.4387 368 85.7187 368.5 86.0787C369 86.4487 369.43 86.9187 369.81 87.5087C370.18 88.0887 370.37 88.8287 370.37 89.7187C370.37 90.5187 370.22 91.2887 369.91 92.0287C369.61 92.7687 369.17 93.4287 368.6 93.9887C368.03 94.5587 367.34 95.0087 366.52 95.3487C365.7 95.6887 364.77 95.8587 363.72 95.8587V97.6887H363.35V95.8587L363.34 95.8987ZM363.34 76.8887H363.26C362.84 76.8887 362.38 76.9487 361.87 77.0587C361.36 77.1687 360.89 77.3687 360.46 77.6387C360.02 77.9087 359.66 78.2787 359.37 78.7387C359.08 79.1987 358.94 79.7687 358.94 80.4487C358.94 81.0087 359.05 81.4787 359.27 81.8787C359.49 82.2687 359.78 82.6087 360.13 82.8887C360.49 83.1687 360.89 83.3987 361.35 83.5687C361.8 83.7387 362.26 83.8887 362.71 84.0087L363.34 84.1887V76.8887ZM363.71 95.5387C364.63 95.5387 365.39 95.3987 365.99 95.1187C366.58 94.8387 367.05 94.4887 367.4 94.0687C367.75 93.6487 367.99 93.1887 368.13 92.6987C368.27 92.1987 368.34 91.7487 368.34 91.3287C368.34 90.6987 368.24 90.1687 368.03 89.7287C367.82 89.2887 367.55 88.9287 367.23 88.6387C366.91 88.3487 366.55 88.1187 366.17 87.9487C365.79 87.7787 365.42 87.6387 365.07 87.5287L363.71 87.1387V95.5387Z" fill="#263238"/>
<path d="M363.34 99.9796C370.487 99.9796 376.28 94.1862 376.28 87.0396C376.28 79.893 370.487 74.0996 363.34 74.0996C356.193 74.0996 350.4 79.893 350.4 87.0396C350.4 94.1862 356.193 99.9796 363.34 99.9796Z" stroke="#263238" stroke-miterlimit="10"/>
<path d="M427.6 335.151C427.29 335.151 427.01 335.151 426.76 335.121C426.52 335.101 426.28 335.081 426.07 335.051C425.85 335.021 425.63 334.981 425.4 334.931C425.17 334.881 424.93 334.821 424.67 334.751C424.32 334.651 423.95 334.521 423.55 334.381C423.15 334.241 422.8 334.171 422.5 334.171C422.24 334.171 422.06 334.221 421.96 334.331C421.86 334.431 421.78 334.581 421.71 334.771H421.32V329.151H421.61C421.89 330.481 422.27 331.511 422.75 332.261C423.23 333.011 423.75 333.571 424.31 333.931C424.87 334.301 425.43 334.531 426.01 334.621C426.59 334.721 427.12 334.761 427.61 334.761V326.261L426.09 325.821C424.66 325.401 423.59 324.831 422.87 324.091C422.15 323.361 421.8 322.401 421.8 321.211C421.8 320.431 421.94 319.701 422.22 319.031C422.5 318.361 422.89 317.781 423.4 317.301C423.91 316.821 424.51 316.441 425.22 316.161C425.93 315.881 426.7 315.741 427.53 315.741H427.61V314.141H427.98V315.741C428.5 315.781 428.94 315.841 429.3 315.951C429.66 316.051 429.97 316.171 430.24 316.291C430.51 316.411 430.75 316.521 430.97 316.621C431.19 316.721 431.41 316.761 431.64 316.761C431.87 316.761 432.02 316.731 432.1 316.671C432.18 316.611 432.29 316.461 432.43 316.211H432.8V320.921H432.49C432.39 320.331 432.22 319.751 431.99 319.191C431.76 318.631 431.47 318.141 431.1 317.701C430.73 317.261 430.29 316.901 429.78 316.611C429.27 316.321 428.67 316.151 427.99 316.101V323.501L430.16 324.131C430.4 324.201 430.77 324.331 431.27 324.511C431.77 324.691 432.26 324.971 432.76 325.331C433.26 325.701 433.69 326.171 434.07 326.761C434.44 327.341 434.63 328.081 434.63 328.971C434.63 329.771 434.48 330.541 434.17 331.281C433.87 332.021 433.43 332.681 432.86 333.241C432.29 333.811 431.6 334.261 430.78 334.601C429.96 334.941 429.03 335.111 427.98 335.111V336.941H427.61V335.111L427.6 335.151ZM427.6 316.131H427.52C427.1 316.131 426.64 316.191 426.13 316.301C425.62 316.411 425.15 316.611 424.72 316.881C424.28 317.151 423.92 317.521 423.63 317.981C423.34 318.441 423.2 319.011 423.2 319.691C423.2 320.251 423.31 320.721 423.53 321.121C423.75 321.511 424.04 321.851 424.39 322.131C424.75 322.411 425.15 322.641 425.61 322.811C426.06 322.981 426.52 323.131 426.97 323.251L427.6 323.431V316.131ZM427.97 334.781C428.89 334.781 429.65 334.641 430.25 334.361C430.84 334.081 431.31 333.731 431.66 333.311C432.01 332.891 432.25 332.431 432.39 331.941C432.53 331.441 432.6 330.991 432.6 330.571C432.6 329.941 432.5 329.411 432.29 328.971C432.08 328.531 431.81 328.171 431.49 327.881C431.17 327.591 430.81 327.361 430.43 327.191C430.05 327.021 429.68 326.881 429.33 326.771L427.97 326.381V334.781Z" fill="#263238"/>
<path d="M427.6 339.22C434.747 339.22 440.54 333.426 440.54 326.28C440.54 319.133 434.747 313.34 427.6 313.34C420.453 313.34 414.66 319.133 414.66 326.28C414.66 333.426 420.453 339.22 427.6 339.22Z" stroke="#263238" stroke-miterlimit="10"/>
<path d="M219.76 225.56L250.02 210.07V214.92H298.34V236.2H250.02V241.05L219.76 225.56Z" fill="#FCD34D" stroke="#263238" stroke-miterlimit="10"/>
<path d="M379.16 225.56L348.9 210.07V214.92H300.58V236.2H348.9V241.05L379.16 225.56Z" fill="#FCD34D" stroke="#263238" stroke-miterlimit="10"/>
<path d="M300.58 223.51L306.41 236.2H325.65L315.61 214.92H300.58V223.51Z" fill="#263238" stroke="#263238" stroke-miterlimit="10"/>
<path d="M219.76 166L250.02 160.27V165.12L298.34 180.7V201.97L250.02 186.39V191.24L219.76 166Z" fill="#263238" stroke="#263238" stroke-miterlimit="10"/>
<path d="M219.76 80.3296L250.02 74.5996V79.4496L298.34 95.0296V116.3L250.02 100.72V105.57L219.76 80.3296Z" fill="#263238" stroke="#263238" stroke-miterlimit="10"/>
<path d="M379.16 141.25L348.9 136.52V141.37L300.58 158.55V179.83L348.9 162.65V167.5L379.16 141.25Z" fill="#FCD34D" stroke="#263238" stroke-miterlimit="10"/>
<path d="M379.16 41.9605L348.9 37.2305V42.0805L300.58 59.2605V80.5405L348.9 63.3605V68.2105L379.16 41.9605Z" fill="#FCD34D" stroke="#263238" stroke-miterlimit="10"/>
<path d="M340.43 45.0996L300.58 59.2596V80.5396L340.43 66.3696V45.0996Z" fill="#263238" stroke="#263238" stroke-miterlimit="10"/>
<path d="M305.86 75.9609H295.39V418.541H305.86V75.9609Z" fill="#263238" stroke="#263238" stroke-miterlimit="10"/>
<path d="M322.36 386.74H283.57V444.26H322.36V386.74Z" fill="#263238" stroke="#263238" stroke-miterlimit="10"/>
<path d="M314.62 386.74H275.83V444.26H314.62V386.74Z" fill="#BFBFBF" stroke="#263238" stroke-miterlimit="10"/>
<path d="M327.02 12.8008H274.86C270.939 12.8008 267.76 15.9796 267.76 19.9008V127.691C267.76 131.612 270.939 134.791 274.86 134.791H327.02C330.941 134.791 334.12 131.612 334.12 127.691V19.9008C334.12 15.9796 330.941 12.8008 327.02 12.8008Z" fill="#FCD34D" stroke="#263238" stroke-miterlimit="10"/>
<path d="M323.01 18.291H278.88C274.959 18.291 271.78 21.4698 271.78 25.391V122.191C271.78 126.112 274.959 129.291 278.88 129.291H323.01C326.931 129.291 330.11 126.112 330.11 122.191V25.391C330.11 21.4698 326.931 18.291 323.01 18.291Z" stroke="white" stroke-miterlimit="10"/>
<path d="M288.1 96.5605V82.0806C291.47 79.4606 294.5 76.5405 297.2 73.3205C299.89 70.1005 302.03 66.6805 303.6 63.0505C305.17 59.4205 305.96 55.6605 305.96 51.7705C305.96 49.0005 305.45 47.0005 304.44 45.7605C303.43 44.5205 301.95 43.9105 300 43.9105C298.2 43.9105 296.8 44.4305 295.79 45.4805C294.78 46.5305 294.27 47.9905 294.27 49.8605C294.27 51.0605 294.4 52.1305 294.66 53.0605C294.92 54.0005 295.24 54.9905 295.61 56.0405L279.1 59.8605C278.5 58.0605 278.03 56.3205 277.7 54.6405C277.36 52.9605 277.19 51.1805 277.19 49.3105C277.19 42.7205 279.19 37.5805 283.2 33.8705C287.2 30.1605 292.95 28.3105 300.44 28.3105C307.93 28.3105 313.82 30.2905 317.9 34.2605C321.98 38.2305 324.02 43.8805 324.02 51.2105C324.02 55.7005 323.27 59.9706 321.77 64.0106C320.27 68.0506 318.08 71.8705 315.2 75.4605C312.32 79.0505 308.82 82.4205 304.7 85.5705V96.5705H288.08L288.1 96.5605ZM287.54 120.481V103.081H305.39V120.481H287.54Z" fill="#263238" stroke="#263238" stroke-miterlimit="10"/>
<path d="M130.4 191.631L134.92 193.071L135.32 200.561L131.92 197.651V200.561C131.92 200.561 137.02 213.181 141.87 231.871C146.72 250.561 147.45 262.461 146.97 273.861C146.48 285.271 145.51 293.041 145.51 293.041L139.93 274.351L127.06 200.311L126.33 194.481L130.4 191.621V191.631Z" fill="#FCD34D" stroke="#263238" stroke-miterlimit="10"/>
<path d="M129.35 147.481C129.35 147.481 133.78 152.141 134.01 154.241C134.24 156.341 133.19 158.431 133.78 159.371C134.37 160.311 139.84 165.661 139.6 166.361C139.36 167.061 136.57 169.041 136.57 169.041L127.72 191.521L106.98 184.061L109.31 177.071L99.99 167.871C99.99 167.871 99.41 157.851 106.51 150.861C113.61 143.871 129.34 147.481 129.34 147.481H129.35Z" fill="white" stroke="#263238" stroke-miterlimit="10"/>
<path d="M118.86 152.371C118.86 152.371 131.33 148.411 131.91 144.101C132.49 139.791 122.36 137.341 113.5 139.211C104.65 141.071 94.39 150.861 94.04 159.021C93.69 167.171 105.46 175.331 106.16 175.681C106.86 176.031 106.74 177.781 108.14 178.241C109.54 178.711 110 179.061 111.87 177.541C113.74 176.021 113.27 171.711 113.27 171.711C113.27 171.711 108.03 170.891 107.33 167.281C106.63 163.671 109.78 161.801 111.87 162.971C113.96 164.141 115.71 168.451 116.18 169.731C116.65 171.011 116.65 179.521 119.67 181.611C122.7 183.711 132.95 185.451 136.1 185.341C139.25 185.221 139.59 184.061 138.9 181.501C138.21 178.941 137.04 173.931 136.92 172.761C136.8 171.591 137.85 169.501 136.57 169.031C135.29 168.561 132.26 171.241 129.11 173.811C125.96 176.371 125.15 176.841 125.15 176.841C125.15 176.841 125.15 176.491 121.31 170.201C117.47 163.911 115.83 161.001 115.83 160.651C115.83 160.301 122.7 159.491 122 156.571C121.3 153.651 118.85 152.381 118.85 152.381L118.86 152.371Z" fill="#263238" stroke="#263238" stroke-miterlimit="10"/>
<path d="M132.11 157.521C130.86 157.771 129.97 157.611 128.99 157.921" stroke="#263238" stroke-width="2" stroke-miterlimit="10" stroke-linecap="round"/>
<path d="M131.44 173.811C131.44 173.811 133.42 174.971 135.87 174.511" stroke="white" stroke-miterlimit="10"/>
<path d="M131.89 162.181C132.11 163.151 131.97 164.011 131.6 164.091C131.22 164.171 130.74 163.451 130.53 162.481C130.31 161.511 130.45 160.651 130.82 160.571C131.2 160.491 131.68 161.211 131.89 162.181Z" fill="#263238"/>
<path d="M106.75 181.611L130.4 191.631L128.65 198.861L104.65 186.271L106.75 181.611Z" fill="white" stroke="#263238" stroke-miterlimit="10"/>
<path d="M142.35 272.9C142.35 272.9 144.35 302.67 144.35 308.03C144.35 313.39 140.94 380.16 140.94 387.47C140.94 394.78 142.4 421.1 142.4 421.1L147.27 425L147.76 430.36C147.76 430.36 152.63 435.23 155.56 435.72C158.48 436.21 164.33 436.69 164.33 438.64C164.33 440.59 161.41 443.03 161.41 443.03H123.88V431.82C123.88 428.41 124.37 425.48 124.37 425.48C124.37 425.48 119.01 398.19 119.01 391.37V367C119.01 364.56 115.6 300.23 115.6 300.23L116.57 270.5L142.35 272.9Z" fill="#263238" stroke="#263238" stroke-miterlimit="10"/>
<path d="M97.56 290.971C97.56 290.971 100.48 313.391 100.97 314.851C101.46 316.311 102.43 343.121 101.94 349.941C101.45 356.761 98.04 371.381 97.55 385.031C97.06 398.681 98.95 442.971 98.95 442.971H135.03C135.03 442.971 137.04 437.661 135.1 436.691C133.16 435.721 121.03 431.721 121.03 431.721L121.4 423.611L119.56 417.531C119.56 417.531 119.56 381.411 123.39 372.851C128.21 362.091 136.55 309.981 136.06 294.391" fill="#263238"/>
<path d="M97.56 290.971C97.56 290.971 100.48 313.391 100.97 314.851C101.46 316.311 102.43 343.121 101.94 349.941C101.45 356.761 98.04 371.381 97.55 385.031C97.06 398.681 98.95 442.971 98.95 442.971H135.03C135.03 442.971 137.04 437.661 135.1 436.691C133.16 435.721 121.03 431.721 121.03 431.721L121.4 423.611L119.56 417.531C119.56 417.531 119.56 381.411 123.39 372.851C128.21 362.091 136.55 309.981 136.06 294.391" stroke="#263238" stroke-miterlimit="10"/>
<path d="M128.65 198.861C128.65 198.861 137.01 212.461 138.95 235.761C140.89 259.061 142.35 272.901 142.35 272.901L132.15 274.111L128.64 198.861H128.65Z" fill="white" stroke="#263238" stroke-miterlimit="10"/>
<path d="M104.65 186.272L101.97 192.212C101.97 192.212 94.03 210.212 94.25 214.192C94.47 218.172 98.68 258.472 98.68 258.472L89.38 301.692C89.38 301.692 102.66 310.632 115.28 311.732C127.9 312.842 135.87 310.182 135.87 310.182C135.87 310.182 137.2 282.382 135.87 264.672C134.54 246.962 132.77 215.292 131.22 208.872C129.67 202.452 128.64 198.842 128.64 198.842L104.64 186.262L104.65 186.272Z" fill="#FCD34D" stroke="#263238" stroke-miterlimit="10"/>
<path d="M101.97 192.211L121.85 200.931L132.18 249.801" stroke="#263238" stroke-miterlimit="10"/>
<path d="M121.41 204.061C121.41 204.061 112.27 196.221 109.66 195.791C107.05 195.351 98.78 205.801 97.91 208.411C97.91 208.411 94.43 228.441 94.86 241.931C95.3 255.431 106.61 304.621 106.61 304.621L121.41 302.881L118.36 255.431L120.1 221.911" fill="#FCD34D"/>
<path d="M121.41 204.061C121.41 204.061 112.27 196.221 109.66 195.791C107.05 195.351 98.78 205.801 97.91 208.411C97.91 208.411 94.43 228.441 94.86 241.931C95.3 255.431 106.61 304.621 106.61 304.621L121.41 302.881L118.36 255.431L120.1 221.911" stroke="#263238" stroke-miterlimit="10"/>
<path d="M108.52 304.27L109.72 308.45L120.64 306.86L120.05 303.08L108.52 304.27Z" fill="white" stroke="#263238" stroke-miterlimit="10"/>
<path d="M106.72 317.98V324.2H108.56V320.17H129.29V324.2H131.14V317.98H106.72Z" fill="white" stroke="#263238" stroke-miterlimit="10"/>
<path d="M150.95 323.371H85.85C84.5742 323.371 83.54 324.405 83.54 325.681V369.731C83.54 371.007 84.5742 372.041 85.85 372.041H150.95C152.226 372.041 153.26 371.007 153.26 369.731V325.681C153.26 324.405 152.226 323.371 150.95 323.371Z" fill="#BFBFBF" stroke="#263238" stroke-miterlimit="10"/>
<path d="M120.64 306.861L122.03 310.241L125.01 313.421L126.2 321.571L121.83 322.761L119.64 321.571C119.64 321.571 113.88 321.971 112.88 321.371C111.89 320.771 109.7 308.461 109.7 308.461L120.63 306.871L120.64 306.861Z" fill="white" stroke="#263238" stroke-miterlimit="10"/>
<path d="M0.73999 444.27H473.12" stroke="#263238" stroke-miterlimit="10"/>
</g>
<defs>
<clipPath id="clip0_417_859">
<rect width="474.43" height="444.77" fill="white"/>
</clipPath>
</defs>
</svg>
