<svg width="475" height="445" viewBox="0 0 475 445" fill="none" xmlns="http://www.w3.org/2000/svg">
<g clip-path="url(#clip0_332_193)">
<path d="M313.47 10.7103C313.47 10.7103 234.13 -20.4597 158.25 23.5303C82.37 67.5303 45.92 158.04 14.48 230.48C-16.96 302.92 4.26998 378.09 64.06 413.76C123.84 449.43 162.53 400.38 245.05 400.24C327.57 400.1 350.11 412.97 417.34 366.48C484.57 319.99 493.89 206.03 437.56 119.95C381.23 33.8703 313.49 10.7303 313.49 10.7303L313.47 10.7103Z" fill="#92E3A9"/>
<path opacity="0.7" d="M313.47 10.7103C313.47 10.7103 234.13 -20.4597 158.25 23.5303C82.37 67.5303 45.92 158.04 14.48 230.48C-16.96 302.92 4.26998 378.09 64.06 413.76C123.84 449.43 162.53 400.38 245.05 400.24C327.57 400.1 350.11 412.97 417.34 366.48C484.57 319.99 493.89 206.03 437.56 119.95C381.23 33.8703 313.49 10.7303 313.49 10.7303L313.47 10.7103Z" fill="white"/>
<path d="M384.09 386.1C386.07 386.96 390.91 386.86 390.92 386.86C390.97 386.86 389.88 383.69 389.79 383.5C388.73 381.28 385.37 377.61 382.63 377.98C380.66 378.25 379.57 380.22 380.01 382.07C380.46 383.96 382.41 385.37 384.09 386.11V386.1Z" fill="#263238"/>
<path d="M385.76 400.12C387.81 400.42 392.13 399.17 392.48 399.06C393.16 401.48 394.06 403.91 395.1 406.31C395.69 407.69 396.34 409.05 397 410.42C396.61 409.84 396.25 409.33 396.19 409.26C394.58 407.4 390.37 404.75 387.83 405.82C386 406.6 385.46 408.79 386.38 410.46C387.32 412.17 389.56 413.01 391.38 413.28C393.23 413.55 396.93 412.55 397.91 412.28C398.17 412.8 398.42 413.32 398.68 413.84C399.93 416.33 401.19 418.81 402.35 421.28C402.76 422.15 403.13 423.02 403.51 423.9C403.16 423.39 402.86 422.96 402.81 422.9C401.2 421.04 396.99 418.38 394.45 419.46C392.62 420.24 392.08 422.43 393 424.1C393.94 425.81 396.18 426.65 398 426.92C399.76 427.18 403.19 426.29 404.35 425.97C404.71 426.87 405.07 427.78 405.37 428.67C405.56 429.28 405.79 429.86 405.96 430.49C406.13 431.11 406.3 431.72 406.47 432.33C406.75 433.51 407.05 434.72 407.3 435.88C407.48 436.68 407.63 437.45 407.79 438.23C407.39 437.36 406.58 435.67 406.49 435.53C405.18 433.44 401.42 430.19 398.75 430.87C396.82 431.36 395.96 433.44 396.62 435.24C397.29 437.07 399.38 438.24 401.14 438.78C403.08 439.37 407.37 438.83 407.9 438.76C408.16 440.04 408.4 441.29 408.6 442.47C408.71 443.1 408.81 443.68 408.9 444.27H410.61C410.48 443.59 410.35 442.89 410.21 442.17C409.95 440.87 409.66 439.48 409.33 438.06C409.65 437.93 411.48 437.19 413.1 436.29C414.51 437.82 418.13 439.61 418.6 439.84C418.11 441.05 417.62 442.22 417.14 443.32C417 443.65 416.86 443.96 416.71 444.28H418.51C418.56 444.17 418.6 444.07 418.64 443.96C419.15 442.73 419.66 441.41 420.18 440.05C420.7 440.16 424.94 441.02 426.92 440.57C428.71 440.16 430.89 439.15 431.69 437.37C432.48 435.63 431.77 433.49 429.89 432.86C427.28 431.98 423.28 434.95 421.82 436.93C421.73 437.05 420.94 438.42 420.45 439.29C420.66 438.73 420.87 438.19 421.07 437.62C421.49 436.48 421.87 435.34 422.29 434.1C422.47 433.5 422.65 432.89 422.84 432.27C423.03 431.66 423.16 431 423.33 430.36C423.69 428.87 423.97 427.34 424.23 425.79C425.23 426.15 428.79 427.39 430.63 427.26C432.47 427.13 434.77 426.46 435.83 424.83C436.87 423.23 436.5 421.01 434.73 420.1C432.28 418.84 427.88 421.17 426.14 422.9C426.03 423.01 424.92 424.4 424.32 425.17C424.47 424.24 424.62 423.31 424.73 422.36C425.07 419.62 425.33 416.85 425.6 414.07C425.68 413.22 425.77 412.38 425.86 411.53C426.21 411.66 430.41 413.23 432.48 413.08C434.32 412.95 436.62 412.28 437.68 410.64C438.72 409.04 438.35 406.82 436.58 405.91C434.13 404.65 429.73 406.98 427.99 408.71C427.86 408.84 426.26 410.84 425.88 411.37C426.08 409.51 426.29 407.65 426.58 405.83C426.97 403.32 427.49 400.87 428.17 398.54C428.33 398.6 432.71 400.25 434.82 400.1C436.66 399.97 438.96 399.3 440.02 397.66C441.06 396.06 440.69 393.84 438.92 392.93C436.47 391.67 432.07 394 430.33 395.73C430.19 395.87 428.48 398.02 428.19 398.43C428.23 398.29 428.26 398.14 428.3 398.01C429.06 395.53 430.1 393.23 431.19 391.12C431.82 389.89 432.49 388.75 433.16 387.66C433.94 388.05 437.54 389.8 439.46 389.88C441.3 389.95 443.66 389.54 444.9 388.03C446.11 386.56 445.99 384.3 444.33 383.21C442.03 381.68 437.41 383.52 435.48 385.05C435.38 385.13 434.4 386.1 433.71 386.81C434.02 386.32 434.33 385.81 434.64 385.35C435.79 383.61 436.96 382.09 438 380.75C438.6 379.99 439.15 379.32 439.68 378.7C440.65 378.68 444.55 378.56 446.26 377.76C447.92 376.98 449.83 375.52 450.23 373.61C450.62 371.74 449.48 369.8 447.5 369.59C444.76 369.29 441.5 373.05 440.5 375.3C440.41 375.49 439.41 378.69 439.46 378.69C439.46 378.69 439.51 378.69 439.52 378.69C439 379.28 438.45 379.92 437.86 380.63C436.79 381.95 435.59 383.45 434.39 385.17C433.19 386.89 431.93 388.78 430.79 390.9C429.64 393.02 428.54 395.31 427.72 397.82C427.72 397.85 427.7 397.88 427.69 397.91C427.7 397.1 427.67 394.84 427.65 394.67C427.33 392.23 425.29 387.69 422.57 387.19C420.62 386.83 418.96 388.36 418.8 390.26C418.64 392.2 420.05 394.14 421.42 395.37C422.97 396.75 427.26 398.09 427.61 398.2C426.84 400.59 426.25 403.11 425.8 405.69C425.54 407.17 425.32 408.66 425.12 410.16C425.11 409.46 425.1 408.84 425.08 408.75C424.76 406.31 422.72 401.77 420 401.27C418.05 400.91 416.39 402.44 416.24 404.34C416.08 406.28 417.49 408.22 418.86 409.45C420.25 410.69 423.89 411.91 424.86 412.22C424.79 412.8 424.71 413.37 424.64 413.95C424.31 416.72 423.99 419.48 423.6 422.18C423.46 423.13 423.29 424.06 423.12 425C423.12 424.38 423.1 423.86 423.09 423.78C422.77 421.34 420.73 416.8 418.01 416.3C416.05 415.94 414.4 417.47 414.24 419.37C414.08 421.31 415.49 423.25 416.86 424.48C418.19 425.67 421.54 426.82 422.69 427.19C422.49 428.14 422.29 429.09 422.05 430.01C421.87 430.63 421.75 431.24 421.53 431.85C421.33 432.46 421.14 433.07 420.94 433.66C420.53 434.8 420.1 435.98 419.67 437.08C419.38 437.85 419.08 438.57 418.79 439.31C418.94 438.36 419.19 436.51 419.2 436.35C419.24 434.71 418.66 432.05 417.5 430.18C417.5 429.94 417.5 429.7 417.45 429.46C417.15 427.58 415.38 426.18 413.46 426.69C410.79 427.4 409.1 432.08 408.98 434.54C408.98 434.69 409.07 436.27 409.14 437.27C409.01 436.69 408.88 436.13 408.74 435.53C408.46 434.35 408.15 433.18 407.81 431.92C407.63 431.32 407.44 430.71 407.26 430.1C407.09 429.49 406.83 428.86 406.62 428.24C406.09 426.8 405.49 425.36 404.85 423.93C405.88 423.68 409.53 422.75 411 421.63C412.46 420.51 414.01 418.68 413.99 416.73C413.98 414.82 412.44 413.17 410.46 413.39C407.72 413.69 405.34 418.06 404.84 420.47C404.81 420.62 404.65 422.39 404.58 423.37C404.19 422.51 403.8 421.65 403.38 420.8C402.15 418.33 400.84 415.87 399.53 413.41C399.13 412.66 398.74 411.9 398.35 411.15C398.72 411.07 403.08 410.05 404.73 408.79C406.19 407.67 407.74 405.84 407.72 403.89C407.71 401.98 406.17 400.33 404.19 400.55C401.45 400.85 399.07 405.22 398.57 407.63C398.53 407.81 398.3 410.36 398.28 411.01C397.42 409.35 396.57 407.68 395.8 406.01C394.74 403.7 393.83 401.37 393.11 399.06C393.28 399.02 397.84 397.98 399.52 396.69C400.98 395.57 402.53 393.74 402.51 391.79C402.5 389.88 400.96 388.23 398.98 388.45C396.24 388.75 393.86 393.12 393.36 395.53C393.32 395.72 393.07 398.46 393.07 398.96C393.03 398.82 392.97 398.68 392.93 398.55C392.2 396.06 391.79 393.57 391.53 391.21C391.38 389.84 391.31 388.52 391.27 387.24C392.14 387.13 396.11 386.61 397.75 385.61C399.32 384.66 401.06 383.01 401.26 381.07C401.46 379.17 400.11 377.36 398.12 377.36C395.36 377.36 392.52 381.44 391.76 383.78C391.72 383.91 391.44 385.25 391.25 386.23C391.25 385.65 391.22 385.05 391.22 384.5C391.22 382.41 391.36 380.5 391.49 378.81C391.57 377.85 391.67 376.98 391.76 376.17C392.56 375.62 395.75 373.37 396.73 371.76C397.69 370.19 398.47 367.92 397.76 366.11C397.06 364.34 395.03 363.35 393.27 364.26C390.82 365.53 390.17 370.46 390.58 372.89C390.62 373.1 391.54 376.32 391.58 376.29C391.58 376.29 391.62 376.26 391.63 376.26C391.52 377.04 391.42 377.87 391.32 378.79C391.15 380.48 390.98 382.39 390.93 384.49C390.88 386.58 390.88 388.86 391.09 391.25C391.3 393.65 391.65 396.17 392.34 398.71C392.34 398.74 392.36 398.77 392.37 398.8C391.94 398.12 390.66 396.25 390.54 396.12C388.93 394.26 384.72 391.6 382.18 392.68C380.35 393.46 379.81 395.65 380.73 397.32C381.67 399.03 383.91 399.87 385.73 400.14L385.76 400.12Z" fill="#263238"/>
<path d="M433.07 387.16C433.07 387.16 433.95 383.94 433.98 383.73C434.32 381.29 433.54 376.38 431.06 375.18C429.27 374.32 427.27 375.36 426.62 377.15C425.95 378.98 426.8 381.22 427.8 382.77C428.97 384.58 433.07 387.16 433.08 387.17L433.07 387.16Z" fill="#263238"/>
<path d="M375.43 444.27C373.89 431.32 363.86 405.67 349.45 398.47C334.18 390.84 322.73 408.28 295.47 420.82C268.21 433.36 275.3 411.55 246.95 394.65C218.6 377.75 214.78 401.19 203.33 406.64C191.49 412.28 184.5 391.55 181.71 383.86C176.25 368.82 169.9 355.92 155.76 347C133.92 333.21 96.58 334.3 85.04 361.01C81.57 369.03 82.82 383.76 74.11 388.11C61.02 394.65 27.22 387.02 25.04 408.83C24.28 416.38 26.55 423.1 29.84 428.67C30.79 431.56 31.53 434.61 31.04 436.1C29.95 439.37 22.86 431.74 16.86 435.55C12.97 438.03 10.23 441.87 8.78003 444.27H375.42H375.43Z" fill="#92E3A9"/>
<path d="M118.62 368.93C118.62 368.93 117.68 373.29 119.64 376.91C121.6 380.53 124.27 382.93 124.27 382.93C124.27 382.93 126.21 376.05 118.62 368.93Z" fill="white"/>
<path d="M82.0601 407.459C82.0601 407.459 85.4201 410.389 89.5401 410.429C93.6501 410.459 97.0501 409.28 97.0501 409.28C97.0501 409.28 91.9601 404.249 82.0601 407.459Z" fill="white"/>
<path d="M46.3501 402.529C46.3501 402.529 49.7101 405.459 53.8301 405.499C57.9401 405.529 61.3401 404.349 61.3401 404.349C61.3401 404.349 56.2501 399.319 46.3501 402.529Z" fill="white"/>
<path d="M76.9401 425.529C76.9401 425.529 81.0201 427.329 84.9601 426.139C88.9001 424.949 91.7901 422.819 91.7901 422.819C91.7901 422.819 85.4401 419.529 76.9401 425.529Z" fill="white"/>
<path d="M40.6801 420.929C40.6801 420.929 44.7601 422.729 48.7001 421.539C52.6401 420.349 55.5301 418.219 55.5301 418.219C55.5301 418.219 49.1801 414.929 40.6801 420.929Z" fill="white"/>
<path d="M101.31 427.41C101.31 427.41 105.77 427.35 108.86 424.63C111.95 421.91 113.69 418.76 113.69 418.76C113.69 418.76 106.55 418.41 101.31 427.4V427.41Z" fill="white"/>
<path d="M50.5901 440.33C50.5901 440.33 55.0501 440.27 58.1401 437.55C61.2301 434.83 62.9701 431.68 62.9701 431.68C62.9701 431.68 55.8301 431.33 50.5901 440.32V440.33Z" fill="white"/>
<path d="M91.03 373.44C91.03 373.44 92.04 377.79 95.36 380.22C98.68 382.65 102.12 383.68 102.12 383.68C102.12 383.68 100.94 376.63 91.03 373.43V373.44Z" fill="white"/>
<path d="M163.77 370.219C163.77 370.219 159.35 370.849 156.64 373.939C153.92 377.029 152.59 380.369 152.59 380.369C152.59 380.369 159.72 379.809 163.77 370.219Z" fill="white"/>
<path d="M179.08 393.179C179.08 393.179 174.72 392.239 171.1 394.199C167.48 396.159 165.08 398.839 165.08 398.839C165.08 398.839 171.97 400.779 179.08 393.179Z" fill="white"/>
<path d="M177.58 419.259C177.58 419.259 174.43 416.099 170.33 415.769C166.23 415.439 162.76 416.379 162.76 416.379C162.76 416.379 167.48 421.759 177.58 419.269V419.259Z" fill="white"/>
<path d="M160.5 433.25C160.5 433.25 158.69 429.17 154.97 427.4C151.25 425.63 147.68 425.27 147.68 425.27C147.68 425.27 150.17 431.98 160.5 433.25Z" fill="white"/>
<path d="M151.5 390.94C151.5 390.94 147.08 391.57 144.37 394.65C141.65 397.74 140.32 401.08 140.32 401.08C140.32 401.08 147.45 400.52 151.5 390.93V390.94Z" fill="white"/>
<path d="M79.1201 385.18C79.1201 385.18 81.0901 389.19 84.8701 390.81C88.6501 392.43 92.2401 392.66 92.2401 392.66C92.2401 392.66 89.4901 386.05 79.1201 385.18Z" fill="white"/>
<path d="M142.12 364.079C142.12 364.079 138.54 366.749 137.64 370.759C136.74 374.769 137.17 378.339 137.17 378.339C137.17 378.339 143.16 374.429 142.12 364.069V364.079Z" fill="white"/>
<path d="M128.63 351.449C128.63 351.449 126.6 355.419 127.56 359.419C128.52 363.419 130.49 366.429 130.49 366.429C130.49 366.429 134.14 360.279 128.63 351.449Z" fill="white"/>
<path d="M99.4301 355.699C99.4301 355.699 99.4301 360.159 102.11 363.289C104.79 366.409 107.91 368.199 107.91 368.199C107.91 368.199 108.36 361.059 99.4301 355.709V355.699Z" fill="white"/>
<path d="M227.04 402.92C227.04 402.92 226.49 405.45 227.63 407.55C228.77 409.65 230.32 411.05 230.32 411.05C230.32 411.05 231.45 407.05 227.04 402.92Z" fill="white"/>
<path d="M205.81 425.28C205.81 425.28 207.76 426.98 210.15 427C212.54 427.02 214.51 426.33 214.51 426.33C214.51 426.33 211.56 423.41 205.81 425.27V425.28Z" fill="white"/>
<path d="M202.84 435.78C202.84 435.78 205.21 436.83 207.5 436.14C209.79 435.45 211.47 434.21 211.47 434.21C211.47 434.21 207.78 432.3 202.85 435.78H202.84Z" fill="white"/>
<path d="M216.99 436.87C216.99 436.87 219.58 436.84 221.37 435.26C223.16 433.68 224.17 431.85 224.17 431.85C224.17 431.85 220.02 431.65 216.98 436.87H216.99Z" fill="white"/>
<path d="M211.02 405.529C211.02 405.529 211.61 408.049 213.53 409.469C215.46 410.879 217.46 411.479 217.46 411.479C217.46 411.479 216.77 407.379 211.02 405.529Z" fill="white"/>
<path d="M253.26 403.66C253.26 403.66 250.69 404.02 249.12 405.82C247.54 407.61 246.77 409.55 246.77 409.55C246.77 409.55 250.91 409.23 253.26 403.66Z" fill="white"/>
<path d="M262.15 416.989C262.15 416.989 259.62 416.449 257.52 417.579C255.42 418.719 254.03 420.269 254.03 420.269C254.03 420.269 258.03 421.399 262.16 416.979L262.15 416.989Z" fill="white"/>
<path d="M261.28 432.14C261.28 432.14 259.45 430.3 257.07 430.11C254.69 429.92 252.67 430.46 252.67 430.46C252.67 430.46 255.41 433.58 261.28 432.14Z" fill="white"/>
<path d="M251.36 440.26C251.36 440.26 250.31 437.89 248.15 436.87C245.99 435.84 243.91 435.63 243.91 435.63C243.91 435.63 245.36 439.52 251.35 440.26H251.36Z" fill="white"/>
<path d="M246.14 415.689C246.14 415.689 243.57 416.049 242 417.849C240.42 419.639 239.65 421.579 239.65 421.579C239.65 421.579 243.79 421.259 246.14 415.689Z" fill="white"/>
<path d="M204.11 412.35C204.11 412.35 205.25 414.68 207.45 415.62C209.65 416.56 211.73 416.69 211.73 416.69C211.73 416.69 210.14 412.85 204.11 412.35Z" fill="white"/>
<path d="M240.69 400.09C240.69 400.09 238.61 401.64 238.09 403.97C237.57 406.3 237.82 408.37 237.82 408.37C237.82 408.37 241.3 406.1 240.69 400.09Z" fill="white"/>
<path d="M232.85 392.76C232.85 392.76 231.67 395.07 232.23 397.39C232.79 399.71 233.93 401.46 233.93 401.46C233.93 401.46 236.05 397.89 232.85 392.76Z" fill="white"/>
<path d="M215.9 395.229C215.9 395.229 215.9 397.819 217.45 399.629C219 401.439 220.82 402.479 220.82 402.479C220.82 402.479 221.08 398.329 215.9 395.229Z" fill="white"/>
<path d="M332.51 412.77C332.51 412.77 331.96 415.3 333.1 417.4C334.24 419.5 335.79 420.9 335.79 420.9C335.79 420.9 336.92 416.9 332.51 412.77Z" fill="white"/>
<path d="M311.28 435.13C311.28 435.13 313.23 436.83 315.62 436.85C318.01 436.87 319.98 436.18 319.98 436.18C319.98 436.18 317.03 433.26 311.28 435.12V435.13Z" fill="white"/>
<path d="M316.49 415.379C316.49 415.379 317.08 417.899 319 419.319C320.93 420.729 322.93 421.329 322.93 421.329C322.93 421.329 322.24 417.229 316.49 415.379Z" fill="white"/>
<path d="M358.73 413.51C358.73 413.51 356.16 413.87 354.59 415.67C353.01 417.46 352.24 419.4 352.24 419.4C352.24 419.4 356.38 419.08 358.73 413.51Z" fill="white"/>
<path d="M367.62 426.839C367.62 426.839 365.09 426.299 362.99 427.429C360.89 428.569 359.5 430.119 359.5 430.119C359.5 430.119 363.5 431.249 367.63 426.829L367.62 426.839Z" fill="white"/>
<path d="M366.75 441.989C366.75 441.989 364.92 440.149 362.54 439.959C360.16 439.769 358.14 440.309 358.14 440.309C358.14 440.309 360.88 443.429 366.75 441.989Z" fill="white"/>
<path d="M351.61 425.539C351.61 425.539 349.04 425.899 347.47 427.699C345.89 429.489 345.12 431.429 345.12 431.429C345.12 431.429 349.26 431.109 351.61 425.539Z" fill="white"/>
<path d="M309.58 422.199C309.58 422.199 310.72 424.529 312.92 425.469C315.11 426.409 317.2 426.539 317.2 426.539C317.2 426.539 315.61 422.699 309.58 422.199Z" fill="white"/>
<path d="M346.16 409.939C346.16 409.939 344.08 411.489 343.56 413.819C343.04 416.149 343.29 418.219 343.29 418.219C343.29 418.219 346.77 415.949 346.16 409.939Z" fill="white"/>
<path d="M338.32 402.609C338.32 402.609 337.14 404.919 337.7 407.239C338.26 409.559 339.4 411.309 339.4 411.309C339.4 411.309 341.52 407.739 338.32 402.609Z" fill="white"/>
<path d="M321.37 405.079C321.37 405.079 321.37 407.669 322.92 409.479C324.47 411.289 326.29 412.329 326.29 412.329C326.29 412.329 326.55 408.179 321.37 405.079Z" fill="white"/>
<path d="M109.54 444.27H119.25L115 422.46L135.17 406.64L112.27 417.55L105.73 386.47L111.18 443.17L97 437.72L70.29 427.36L99.73 443.72L109.54 444.27Z" fill="#A1A1A1"/>
<path d="M230.04 414.819L216.95 443.169L222.41 443.719L225.68 435.539L240.26 432.919L226.77 430.089L230.04 414.819Z" fill="#A1A1A1"/>
<path d="M326.54 428.45L334.18 443.72L335.51 435.47L326.54 428.45Z" fill="#A1A1A1"/>
<path d="M340.77 444.27L341.87 433.16L351.62 425.73L342.44 427.35L343.99 411.55L334.18 443.72L337.45 444.27H340.77Z" fill="#A1A1A1"/>
<path d="M178.65 80.5804C178.65 80.5804 177 71.2204 172.04 70.1204C168.65 69.3704 165.26 70.4204 163.46 71.1504C161.99 67.8904 159.82 64.6604 156.62 62.4004C147.26 55.7904 141.75 67.9104 141.75 67.9104C141.75 67.9104 135.69 53.0404 122.47 45.8804C109.25 38.7204 96.58 44.2304 91.63 48.6304C86.67 53.0404 82.82 61.3004 82.27 64.0504C81.72 66.8004 79.52 60.1904 71.8 61.8504C64.09 63.5004 59.68 73.9704 59.68 73.9704C59.68 73.9704 55.82 69.0104 50.87 71.2204C45.91 73.4204 44.26 78.9304 44.26 78.9304L23.33 83.8904H190.77L178.65 80.5904V80.5804Z" stroke="#263238" stroke-miterlimit="10"/>
<path d="M417.45 289.61C417.45 289.61 416.08 281.82 411.95 280.91C409.13 280.28 406.31 281.16 404.81 281.77C403.59 279.05 401.78 276.37 399.12 274.5C391.33 269 386.75 279.08 386.75 279.08C386.75 279.08 381.71 266.71 370.72 260.75C359.72 254.79 349.19 259.38 345.06 263.04C340.93 266.7 337.73 273.58 337.27 275.87C336.81 278.16 334.98 272.66 328.57 274.04C322.16 275.41 318.49 284.12 318.49 284.12C318.49 284.12 315.28 280 311.16 281.83C307.04 283.66 305.66 288.24 305.66 288.24L288.25 292.36H427.52L417.44 289.61H417.45Z" stroke="#263238" stroke-miterlimit="10"/>
<path d="M176.84 264.74C176.84 264.74 176.25 261.39 174.47 260.99C173.26 260.72 172.04 261.1 171.4 261.36C170.87 260.19 170.1 259.04 168.95 258.23C165.6 255.86 163.62 260.2 163.62 260.2C163.62 260.2 161.45 254.87 156.71 252.31C151.97 249.74 147.44 251.72 145.66 253.3C143.88 254.88 142.5 257.84 142.31 258.82C142.11 259.81 141.32 257.44 138.56 258.03C135.8 258.62 134.22 262.37 134.22 262.37C134.22 262.37 132.84 260.59 131.06 261.38C129.28 262.17 128.69 264.14 128.69 264.14L121.19 265.92H181.17L176.83 264.74H176.84Z" stroke="#263238" stroke-miterlimit="10"/>
<path d="M425.06 205.69C424.43 205.69 423.87 205.67 423.38 205.64C422.89 205.6 422.43 205.56 421.99 205.51C421.55 205.46 421.11 205.38 420.66 205.27C420.21 205.17 419.72 205.04 419.19 204.9C418.49 204.69 417.74 204.45 416.94 204.17C416.14 203.89 415.44 203.75 414.85 203.75C414.33 203.75 413.97 203.85 413.78 204.06C413.59 204.27 413.42 204.57 413.28 204.95H412.5V193.69H413.08C413.64 196.34 414.4 198.42 415.36 199.92C416.32 201.42 417.36 202.54 418.47 203.27C419.59 204 420.72 204.47 421.87 204.66C423.02 204.85 424.09 204.95 425.06 204.95V187.94L422.02 187.05C419.16 186.21 417.01 185.06 415.58 183.59C414.15 182.12 413.43 180.21 413.43 177.83C413.43 176.26 413.71 174.8 414.27 173.46C414.83 172.12 415.61 170.97 416.63 170.01C417.64 169.05 418.86 168.29 420.27 167.73C421.68 167.17 423.23 166.89 424.9 166.89H425.06V163.7H425.79V166.89C426.84 166.96 427.72 167.1 428.43 167.31C429.14 167.52 429.77 167.75 430.31 167.99C430.85 168.23 431.34 168.45 431.78 168.64C432.22 168.83 432.66 168.93 433.11 168.93C433.56 168.93 433.87 168.87 434.03 168.75C434.19 168.63 434.4 168.32 434.68 167.83H435.41V177.25H434.78C434.57 176.06 434.24 174.91 433.79 173.8C433.34 172.68 432.74 171.69 432.01 170.82C431.28 169.95 430.4 169.22 429.37 168.65C428.34 168.07 427.15 167.73 425.78 167.63V182.44L430.12 183.7C430.61 183.84 431.35 184.09 432.35 184.46C433.34 184.83 434.34 185.38 435.33 186.11C436.32 186.84 437.2 187.79 437.95 188.96C438.7 190.13 439.08 191.6 439.08 193.38C439.08 194.99 438.77 196.53 438.16 198.01C437.55 199.49 436.68 200.8 435.54 201.94C434.41 203.07 433.02 203.98 431.38 204.66C429.74 205.34 427.87 205.68 425.78 205.68V209.34H425.05V205.68L425.06 205.69ZM425.06 167.63H424.9C424.06 167.63 423.14 167.74 422.13 167.97C421.12 168.2 420.17 168.58 419.3 169.12C418.43 169.66 417.7 170.39 417.13 171.32C416.55 172.24 416.27 173.39 416.27 174.75C416.27 175.87 416.49 176.82 416.92 177.6C417.36 178.39 417.93 179.06 418.65 179.62C419.36 180.18 420.18 180.63 421.08 180.98C421.99 181.33 422.89 181.63 423.8 181.87L425.06 182.24V167.63ZM425.79 204.95C427.64 204.95 429.16 204.67 430.34 204.11C431.53 203.55 432.47 202.85 433.17 202.02C433.87 201.18 434.36 200.27 434.64 199.27C434.92 198.28 435.06 197.36 435.06 196.52C435.06 195.26 434.85 194.2 434.43 193.33C434.01 192.46 433.48 191.73 432.83 191.16C432.18 190.58 431.48 190.12 430.71 189.77C429.94 189.42 429.21 189.14 428.51 188.93L425.79 188.14V204.94V204.95Z" fill="#263238"/>
<path d="M448.92 198.015C454.481 184.836 448.306 169.644 435.127 164.083C421.949 158.521 406.757 164.696 401.195 177.875C395.634 191.054 401.809 206.246 414.987 211.807C428.166 217.369 443.358 211.194 448.92 198.015Z" stroke="#263238" stroke-miterlimit="10"/>
<path d="M214.1 43.1905C213.68 43.1905 213.3 43.1805 212.98 43.1505C212.65 43.1305 212.34 43.1005 212.05 43.0605C211.76 43.0305 211.46 42.9705 211.15 42.9005C210.85 42.8305 210.52 42.7505 210.17 42.6505C209.7 42.5105 209.2 42.3505 208.66 42.1605C208.12 41.9705 207.65 41.8805 207.25 41.8805C206.9 41.8805 206.66 41.9505 206.53 42.0905C206.4 42.2305 206.29 42.4305 206.2 42.6905H205.67V35.1305H206.06C206.43 36.9105 206.94 38.3105 207.59 39.3105C208.23 40.3205 208.93 41.0705 209.68 41.5605C210.43 42.0505 211.19 42.3605 211.96 42.4905C212.73 42.6205 213.45 42.6805 214.1 42.6805V31.2605L212.06 30.6605C210.14 30.1005 208.7 29.3205 207.74 28.3405C206.78 27.3605 206.3 26.0705 206.3 24.4705C206.3 23.4205 206.49 22.4405 206.86 21.5305C207.23 20.6305 207.76 19.8505 208.44 19.2105C209.12 18.5705 209.93 18.0605 210.88 17.6805C211.83 17.3105 212.87 17.1205 213.99 17.1205H214.1V14.9805H214.59V17.1205C215.29 17.1705 215.88 17.2605 216.36 17.4005C216.84 17.5405 217.26 17.6905 217.63 17.8605C217.99 18.0205 218.32 18.1705 218.61 18.3005C218.9 18.4305 219.2 18.4905 219.51 18.4905C219.82 18.4905 220.02 18.4505 220.13 18.3705C220.24 18.2905 220.38 18.0805 220.57 17.7505H221.06V24.0805H220.64C220.5 23.2805 220.28 22.5105 219.97 21.7605C219.67 21.0105 219.27 20.3405 218.77 19.7605C218.28 19.1705 217.69 18.6905 216.99 18.3005C216.3 17.9105 215.5 17.6805 214.58 17.6105V27.5605L217.5 28.4005C217.83 28.4905 218.33 28.6605 218.99 28.9105C219.66 29.1605 220.33 29.5305 220.99 30.0205C221.66 30.5105 222.24 31.1505 222.75 31.9405C223.25 32.7305 223.51 33.7205 223.51 34.9105C223.51 35.9905 223.3 37.0205 222.89 38.0205C222.48 39.0205 221.89 39.9005 221.13 40.6605C220.37 41.4205 219.44 42.0305 218.34 42.4905C217.24 42.9505 215.99 43.1805 214.58 43.1805V45.6405H214.09V43.1805L214.1 43.1905ZM214.1 17.6305H213.99C213.43 17.6305 212.81 17.7105 212.13 17.8605C211.45 18.0105 210.82 18.2705 210.23 18.6305C209.64 18.9905 209.16 19.4905 208.77 20.1105C208.38 20.7305 208.19 21.5005 208.19 22.4105C208.19 23.1605 208.34 23.8005 208.63 24.3305C208.92 24.8605 209.31 25.3105 209.79 25.6805C210.27 26.0605 210.81 26.3605 211.42 26.5905C212.03 26.8205 212.64 27.0205 213.25 27.1905L214.09 27.4405V17.6305H214.1ZM214.59 42.7005C215.83 42.7005 216.85 42.5105 217.65 42.1405C218.45 41.7705 219.08 41.3005 219.55 40.7305C220.02 40.1705 220.35 39.5505 220.53 38.8805C220.72 38.2105 220.81 37.6005 220.81 37.0305C220.81 36.1905 220.67 35.4705 220.39 34.8905C220.11 34.3005 219.75 33.8205 219.32 33.4305C218.89 33.0405 218.41 32.7305 217.9 32.5005C217.38 32.2705 216.89 32.0805 216.42 31.9405L214.59 31.4105V42.6905V42.7005Z" fill="#263238"/>
<path d="M226.389 43.5661C233.181 36.7749 233.181 25.7642 226.389 18.9729C219.598 12.1817 208.587 12.1817 201.796 18.9729C195.005 25.7642 195.005 36.7749 201.796 43.5661C208.587 50.3573 219.598 50.3573 226.389 43.5661Z" stroke="#263238" stroke-miterlimit="10"/>
<path d="M234.78 321.11C234.36 321.11 233.98 321.1 233.66 321.07C233.33 321.05 233.02 321.02 232.73 320.98C232.44 320.95 232.14 320.89 231.83 320.82C231.53 320.75 231.2 320.67 230.85 320.57C230.38 320.43 229.88 320.27 229.34 320.08C228.8 319.89 228.33 319.8 227.93 319.8C227.58 319.8 227.34 319.87 227.21 320.01C227.08 320.15 226.97 320.35 226.88 320.61H226.35V313.05H226.74C227.11 314.83 227.62 316.23 228.27 317.23C228.91 318.24 229.61 318.99 230.36 319.48C231.11 319.97 231.87 320.28 232.64 320.41C233.41 320.54 234.13 320.6 234.78 320.6V309.18L232.74 308.58C230.82 308.02 229.38 307.24 228.42 306.26C227.46 305.28 226.98 303.99 226.98 302.39C226.98 301.34 227.17 300.36 227.54 299.46C227.91 298.56 228.44 297.78 229.12 297.14C229.8 296.5 230.61 295.99 231.56 295.61C232.51 295.24 233.55 295.05 234.67 295.05H234.78V292.91H235.27V295.05C235.97 295.1 236.56 295.19 237.04 295.33C237.52 295.47 237.94 295.62 238.31 295.79C238.67 295.95 239 296.1 239.29 296.23C239.58 296.36 239.88 296.42 240.19 296.42C240.5 296.42 240.7 296.38 240.81 296.3C240.92 296.22 241.06 296.01 241.25 295.68H241.74V302.01H241.32C241.18 301.21 240.96 300.44 240.65 299.69C240.35 298.94 239.95 298.27 239.45 297.69C238.96 297.1 238.37 296.62 237.67 296.23C236.98 295.84 236.18 295.61 235.26 295.54V305.49L238.18 306.33C238.51 306.42 239.01 306.59 239.67 306.84C240.34 307.09 241.01 307.46 241.67 307.95C242.34 308.44 242.92 309.08 243.43 309.87C243.93 310.66 244.19 311.64 244.19 312.84C244.19 313.92 243.98 314.96 243.57 315.95C243.16 316.95 242.57 317.83 241.81 318.59C241.05 319.35 240.12 319.96 239.02 320.42C237.92 320.88 236.67 321.11 235.26 321.11V323.57H234.77V321.11H234.78ZM234.78 295.56H234.67C234.11 295.56 233.49 295.64 232.81 295.79C232.13 295.94 231.5 296.2 230.91 296.56C230.32 296.92 229.84 297.42 229.45 298.04C229.06 298.66 228.87 299.43 228.87 300.34C228.87 301.09 229.02 301.73 229.31 302.26C229.6 302.79 229.99 303.24 230.47 303.61C230.95 303.99 231.49 304.29 232.1 304.52C232.71 304.75 233.32 304.95 233.93 305.12L234.77 305.37V295.56H234.78ZM235.27 320.62C236.51 320.62 237.53 320.43 238.33 320.06C239.13 319.69 239.76 319.22 240.23 318.65C240.7 318.09 241.03 317.47 241.21 316.8C241.4 316.13 241.49 315.52 241.49 314.95C241.49 314.11 241.35 313.39 241.07 312.81C240.79 312.22 240.43 311.74 240 311.35C239.57 310.96 239.09 310.65 238.58 310.42C238.06 310.19 237.57 310 237.1 309.86L235.27 309.33V320.61V320.62Z" fill="#263238"/>
<path d="M238.783 326.136C248.126 323.913 253.899 314.537 251.677 305.194C249.454 295.85 240.078 290.078 230.735 292.3C221.391 294.523 215.618 303.899 217.841 313.242C220.063 322.586 229.439 328.358 238.783 326.136Z" stroke="#263238" stroke-miterlimit="10"/>
<path d="M53.3699 206.79C52.8199 206.79 52.34 206.77 51.91 206.74C51.48 206.71 51.08 206.67 50.7 206.63C50.32 206.58 49.93 206.52 49.54 206.43C49.15 206.34 48.72 206.23 48.27 206.11C47.66 205.93 47.01 205.72 46.31 205.47C45.61 205.23 45.01 205.11 44.49 205.11C44.04 205.11 43.72 205.2 43.56 205.38C43.39 205.56 43.25 205.82 43.13 206.15H42.45V196.36H42.95C43.43 198.67 44.09 200.47 44.93 201.78C45.76 203.08 46.6699 204.06 47.6399 204.69C48.6099 205.33 49.5999 205.73 50.5999 205.9C51.5999 206.07 52.53 206.15 53.38 206.15V191.36L50.74 190.59C48.25 189.86 46.3899 188.86 45.1399 187.59C43.8999 186.32 43.27 184.65 43.27 182.58C43.27 181.21 43.51 179.95 44 178.78C44.48 177.61 45.1699 176.61 46.0499 175.78C46.9299 174.95 47.9799 174.29 49.2099 173.8C50.4399 173.32 51.78 173.07 53.24 173.07H53.38V170.29H54.02V173.07C54.93 173.13 55.7 173.25 56.32 173.43C56.94 173.61 57.4899 173.81 57.9599 174.02C58.4299 174.23 58.8499 174.42 59.2299 174.59C59.6099 174.76 59.9999 174.84 60.3899 174.84C60.7799 174.84 61.0499 174.79 61.1899 174.68C61.3299 174.57 61.5199 174.31 61.7599 173.88H62.4V182.07H61.8499C61.6699 181.04 61.38 180.04 60.99 179.07C60.6 178.1 60.0799 177.23 59.4399 176.48C58.7999 175.72 58.0399 175.09 57.1399 174.59C56.2499 174.09 55.21 173.79 54.02 173.7V186.58L57.7999 187.67C58.2199 187.79 58.8699 188.01 59.7299 188.33C60.5899 188.65 61.46 189.13 62.32 189.76C63.18 190.4 63.9399 191.22 64.5999 192.24C65.2499 193.26 65.58 194.54 65.58 196.09C65.58 197.49 65.3099 198.83 64.7799 200.12C64.2499 201.41 63.49 202.55 62.5 203.53C61.51 204.52 60.31 205.31 58.88 205.9C57.45 206.49 55.8299 206.79 54.0099 206.79V209.98H53.3699V206.79ZM53.3699 173.7H53.2299C52.4999 173.7 51.7 173.8 50.82 174C49.94 174.2 49.12 174.53 48.36 175C47.6 175.47 46.97 176.11 46.47 176.91C45.97 177.71 45.72 178.71 45.72 179.89C45.72 180.86 45.91 181.69 46.29 182.37C46.67 183.05 47.17 183.64 47.79 184.12C48.41 184.61 49.12 185 49.91 185.3C50.7 185.6 51.4899 185.86 52.2799 186.07L53.3699 186.39V173.69V173.7ZM54 206.15C55.61 206.15 56.9299 205.91 57.9599 205.42C58.9899 204.93 59.8099 204.33 60.4199 203.6C61.0299 202.87 61.4499 202.08 61.6899 201.21C61.9299 200.35 62.0499 199.55 62.0499 198.82C62.0499 197.73 61.87 196.8 61.5 196.04C61.14 195.28 60.67 194.65 60.11 194.15C59.55 193.65 58.93 193.25 58.27 192.94C57.6 192.64 56.97 192.39 56.36 192.21L53.99 191.53V206.14L54 206.15Z" fill="#263238"/>
<path d="M53.37 213.88C65.8074 213.88 75.89 203.797 75.89 191.36C75.89 178.922 65.8074 168.84 53.37 168.84C40.9325 168.84 30.85 178.922 30.85 191.36C30.85 203.797 40.9325 213.88 53.37 213.88Z" stroke="#263238" stroke-miterlimit="10"/>
<path d="M363.34 95.9006C363.03 95.9006 362.75 95.9006 362.5 95.8706C362.26 95.8506 362.02 95.8306 361.81 95.8006C361.59 95.7706 361.37 95.7306 361.14 95.6806C360.91 95.6306 360.67 95.5706 360.41 95.5006C360.06 95.4006 359.69 95.2706 359.29 95.1306C358.89 94.9906 358.54 94.9206 358.24 94.9206C357.98 94.9206 357.8 94.9706 357.7 95.0806C357.6 95.1806 357.52 95.3306 357.45 95.5206H357.06V89.9006H357.35C357.63 91.2306 358.01 92.2606 358.49 93.0106C358.97 93.7606 359.49 94.3206 360.05 94.6806C360.61 95.0406 361.17 95.2806 361.75 95.3706C362.33 95.4706 362.86 95.5106 363.35 95.5106V87.0106L361.83 86.5706C360.4 86.1506 359.33 85.5806 358.61 84.8406C357.89 84.1106 357.54 83.1506 357.54 81.9606C357.54 81.1806 357.68 80.4506 357.96 79.7806C358.24 79.1106 358.63 78.5306 359.14 78.0506C359.65 77.5706 360.25 77.1906 360.96 76.9106C361.67 76.6306 362.44 76.4906 363.27 76.4906H363.35V74.8906H363.72V76.4906C364.24 76.5306 364.68 76.5906 365.04 76.7006C365.4 76.8006 365.71 76.9206 365.98 77.0406C366.25 77.1606 366.49 77.2706 366.71 77.3706C366.93 77.4706 367.15 77.5106 367.38 77.5106C367.61 77.5106 367.76 77.4806 367.84 77.4206C367.92 77.3606 368.03 77.2106 368.17 76.9606H368.54V81.6706H368.23C368.13 81.0806 367.96 80.5006 367.73 79.9406C367.5 79.3806 367.21 78.8906 366.84 78.4506C366.47 78.0106 366.03 77.6506 365.52 77.3606C365.01 77.0706 364.41 76.9006 363.73 76.8506V84.2506L365.9 84.8806C366.14 84.9506 366.51 85.0806 367.01 85.2606C367.51 85.4406 368 85.7206 368.5 86.0806C369 86.4506 369.43 86.9206 369.81 87.5106C370.18 88.0906 370.37 88.8306 370.37 89.7206C370.37 90.5206 370.22 91.2906 369.91 92.0306C369.61 92.7706 369.17 93.4306 368.6 93.9906C368.03 94.5606 367.34 95.0106 366.52 95.3506C365.7 95.6906 364.77 95.8606 363.72 95.8606V97.6906H363.35V95.8606L363.34 95.9006ZM363.34 76.8906H363.26C362.84 76.8906 362.38 76.9506 361.87 77.0606C361.36 77.1706 360.89 77.3706 360.46 77.6406C360.02 77.9106 359.66 78.2806 359.37 78.7406C359.08 79.2006 358.94 79.7706 358.94 80.4506C358.94 81.0106 359.05 81.4806 359.27 81.8806C359.49 82.2706 359.78 82.6106 360.13 82.8906C360.49 83.1706 360.89 83.4006 361.35 83.5706C361.8 83.7406 362.26 83.8906 362.71 84.0106L363.34 84.1906V76.8906ZM363.71 95.5406C364.63 95.5406 365.39 95.4006 365.99 95.1206C366.58 94.8406 367.05 94.4906 367.4 94.0706C367.75 93.6506 367.99 93.1906 368.13 92.7006C368.27 92.2006 368.34 91.7506 368.34 91.3306C368.34 90.7006 368.24 90.1706 368.03 89.7306C367.82 89.2906 367.55 88.9306 367.23 88.6406C366.91 88.3506 366.55 88.1206 366.17 87.9506C365.79 87.7806 365.42 87.6406 365.07 87.5306L363.71 87.1406V95.5406Z" fill="#263238"/>
<path d="M363.34 99.9806C370.486 99.9806 376.28 94.1872 376.28 87.0406C376.28 79.894 370.486 74.1006 363.34 74.1006C356.193 74.1006 350.4 79.894 350.4 87.0406C350.4 94.1872 356.193 99.9806 363.34 99.9806Z" stroke="#263238" stroke-miterlimit="10"/>
<path d="M427.6 335.15C427.29 335.15 427.01 335.15 426.76 335.12C426.52 335.1 426.28 335.08 426.07 335.05C425.85 335.02 425.63 334.98 425.4 334.93C425.17 334.88 424.93 334.82 424.67 334.75C424.32 334.65 423.95 334.52 423.55 334.38C423.15 334.24 422.8 334.17 422.5 334.17C422.24 334.17 422.06 334.22 421.96 334.33C421.86 334.43 421.78 334.58 421.71 334.77H421.32V329.15H421.61C421.89 330.48 422.27 331.51 422.75 332.26C423.23 333.01 423.75 333.57 424.31 333.93C424.87 334.3 425.43 334.53 426.01 334.62C426.59 334.72 427.12 334.76 427.61 334.76V326.26L426.09 325.82C424.66 325.4 423.59 324.83 422.87 324.09C422.15 323.36 421.8 322.4 421.8 321.21C421.8 320.43 421.94 319.7 422.22 319.03C422.5 318.36 422.89 317.78 423.4 317.3C423.91 316.82 424.51 316.44 425.22 316.16C425.93 315.88 426.7 315.74 427.53 315.74H427.61V314.14H427.98V315.74C428.5 315.78 428.94 315.84 429.3 315.95C429.66 316.05 429.97 316.17 430.24 316.29C430.51 316.41 430.75 316.52 430.97 316.62C431.19 316.72 431.41 316.76 431.64 316.76C431.87 316.76 432.02 316.73 432.1 316.67C432.18 316.61 432.29 316.46 432.43 316.21H432.8V320.92H432.49C432.39 320.33 432.22 319.75 431.99 319.19C431.76 318.63 431.47 318.14 431.1 317.7C430.73 317.26 430.29 316.9 429.78 316.61C429.27 316.32 428.67 316.15 427.99 316.1V323.5L430.16 324.13C430.4 324.2 430.77 324.33 431.27 324.51C431.77 324.69 432.26 324.97 432.76 325.33C433.26 325.7 433.69 326.17 434.07 326.76C434.44 327.34 434.63 328.08 434.63 328.97C434.63 329.77 434.48 330.54 434.17 331.28C433.87 332.02 433.43 332.68 432.86 333.24C432.29 333.81 431.6 334.26 430.78 334.6C429.96 334.94 429.03 335.11 427.98 335.11V336.94H427.61V335.11L427.6 335.15ZM427.6 316.13H427.52C427.1 316.13 426.64 316.19 426.13 316.3C425.62 316.41 425.15 316.61 424.72 316.88C424.28 317.15 423.92 317.52 423.63 317.98C423.34 318.44 423.2 319.01 423.2 319.69C423.2 320.25 423.31 320.72 423.53 321.12C423.75 321.51 424.04 321.85 424.39 322.13C424.75 322.41 425.15 322.64 425.61 322.81C426.06 322.98 426.52 323.13 426.97 323.25L427.6 323.43V316.13ZM427.97 334.78C428.89 334.78 429.65 334.64 430.25 334.36C430.84 334.08 431.31 333.73 431.66 333.31C432.01 332.89 432.25 332.43 432.39 331.94C432.53 331.44 432.6 330.99 432.6 330.57C432.6 329.94 432.5 329.41 432.29 328.97C432.08 328.53 431.81 328.17 431.49 327.88C431.17 327.59 430.81 327.36 430.43 327.19C430.05 327.02 429.68 326.88 429.33 326.77L427.97 326.38V334.78Z" fill="#263238"/>
<path d="M427.6 339.22C434.746 339.22 440.54 333.426 440.54 326.28C440.54 319.133 434.746 313.34 427.6 313.34C420.453 313.34 414.66 319.133 414.66 326.28C414.66 333.426 420.453 339.22 427.6 339.22Z" stroke="#263238" stroke-miterlimit="10"/>
<path d="M219.76 225.559L250.02 210.069V214.919H298.34V236.199H250.02V241.049L219.76 225.559Z" fill="#92E3A9" stroke="#263238" stroke-miterlimit="10"/>
<path d="M379.16 225.559L348.9 210.069V214.919H300.58V236.199H348.9V241.049L379.16 225.559Z" fill="#92E3A9" stroke="#263238" stroke-miterlimit="10"/>
<path d="M300.58 223.509L306.41 236.199H325.65L315.61 214.919H300.58V223.509Z" fill="#263238" stroke="#263238" stroke-miterlimit="10"/>
<path d="M219.76 166L250.02 160.27V165.12L298.34 180.7V201.97L250.02 186.39V191.24L219.76 166Z" fill="#263238" stroke="#263238" stroke-miterlimit="10"/>
<path d="M219.76 80.3296L250.02 74.5996V79.4496L298.34 95.0296V116.3L250.02 100.72V105.57L219.76 80.3296Z" fill="#263238" stroke="#263238" stroke-miterlimit="10"/>
<path d="M379.16 141.25L348.9 136.52V141.37L300.58 158.55V179.83L348.9 162.65V167.5L379.16 141.25Z" fill="#92E3A9" stroke="#263238" stroke-miterlimit="10"/>
<path d="M379.16 41.9595L348.9 37.2295V42.0795L300.58 59.2595V80.5395L348.9 63.3595V68.2095L379.16 41.9595Z" fill="#92E3A9" stroke="#263238" stroke-miterlimit="10"/>
<path d="M340.43 45.0996L300.58 59.2596V80.5396L340.43 66.3696V45.0996Z" fill="#263238" stroke="#263238" stroke-miterlimit="10"/>
<path d="M305.86 75.96H295.39V418.54H305.86V75.96Z" fill="#263238" stroke="#263238" stroke-miterlimit="10"/>
<path d="M322.36 386.74H283.57V444.26H322.36V386.74Z" fill="#263238" stroke="#263238" stroke-miterlimit="10"/>
<path d="M314.62 386.74H275.83V444.26H314.62V386.74Z" fill="#BFBFBF" stroke="#263238" stroke-miterlimit="10"/>
<path d="M327.02 12.7998H274.86C270.939 12.7998 267.76 15.9786 267.76 19.8998V127.69C267.76 131.611 270.939 134.79 274.86 134.79H327.02C330.941 134.79 334.12 131.611 334.12 127.69V19.8998C334.12 15.9786 330.941 12.7998 327.02 12.7998Z" fill="#92E3A9" stroke="#263238" stroke-miterlimit="10"/>
<path d="M323.01 18.29H278.88C274.959 18.29 271.78 21.4688 271.78 25.39V122.19C271.78 126.111 274.959 129.29 278.88 129.29H323.01C326.931 129.29 330.11 126.111 330.11 122.19V25.39C330.11 21.4688 326.931 18.29 323.01 18.29Z" stroke="white" stroke-miterlimit="10"/>
<path d="M288.1 96.5596V82.0796C291.47 79.4596 294.5 76.5396 297.2 73.3196C299.89 70.0996 302.03 66.6796 303.6 63.0496C305.17 59.4196 305.96 55.6596 305.96 51.7696C305.96 48.9996 305.45 46.9996 304.44 45.7596C303.43 44.5196 301.95 43.9096 300 43.9096C298.2 43.9096 296.8 44.4296 295.79 45.4796C294.78 46.5296 294.27 47.9896 294.27 49.8596C294.27 51.0596 294.4 52.1296 294.66 53.0596C294.92 53.9996 295.24 54.9896 295.61 56.0396L279.1 59.8596C278.5 58.0596 278.03 56.3196 277.7 54.6396C277.36 52.9596 277.19 51.1796 277.19 49.3096C277.19 42.7196 279.19 37.5796 283.2 33.8696C287.2 30.1596 292.95 28.3096 300.44 28.3096C307.93 28.3096 313.82 30.2896 317.9 34.2596C321.98 38.2296 324.02 43.8796 324.02 51.2096C324.02 55.6996 323.27 59.9696 321.77 64.0096C320.27 68.0496 318.08 71.8696 315.2 75.4596C312.32 79.0496 308.82 82.4196 304.7 85.5696V96.5696H288.08L288.1 96.5596ZM287.54 120.48V103.08H305.39V120.48H287.54Z" fill="#263238" stroke="#263238" stroke-miterlimit="10"/>
<path d="M130.4 191.63L134.92 193.07L135.32 200.56L131.92 197.65V200.56C131.92 200.56 137.02 213.18 141.87 231.87C146.72 250.56 147.45 262.46 146.97 273.86C146.48 285.27 145.51 293.04 145.51 293.04L139.93 274.35L127.06 200.31L126.33 194.48L130.4 191.62V191.63Z" fill="#92E3A9" stroke="#263238" stroke-miterlimit="10"/>
<path d="M129.35 147.48C129.35 147.48 133.78 152.14 134.01 154.24C134.24 156.34 133.19 158.43 133.78 159.37C134.37 160.31 139.84 165.66 139.6 166.36C139.36 167.06 136.57 169.04 136.57 169.04L127.72 191.52L106.98 184.06L109.31 177.07L99.99 167.87C99.99 167.87 99.41 157.85 106.51 150.86C113.61 143.87 129.34 147.48 129.34 147.48H129.35Z" fill="white" stroke="#263238" stroke-miterlimit="10"/>
<path d="M118.86 152.37C118.86 152.37 131.33 148.41 131.91 144.1C132.49 139.79 122.36 137.34 113.5 139.21C104.65 141.07 94.39 150.86 94.04 159.02C93.69 167.17 105.46 175.33 106.16 175.68C106.86 176.03 106.74 177.78 108.14 178.24C109.54 178.71 110 179.06 111.87 177.54C113.74 176.02 113.27 171.71 113.27 171.71C113.27 171.71 108.03 170.89 107.33 167.28C106.63 163.67 109.78 161.8 111.87 162.97C113.96 164.14 115.71 168.45 116.18 169.73C116.65 171.01 116.65 179.52 119.67 181.61C122.7 183.71 132.95 185.45 136.1 185.34C139.25 185.22 139.59 184.06 138.9 181.5C138.21 178.94 137.04 173.93 136.92 172.76C136.8 171.59 137.85 169.5 136.57 169.03C135.29 168.56 132.26 171.24 129.11 173.81C125.96 176.37 125.15 176.84 125.15 176.84C125.15 176.84 125.15 176.49 121.31 170.2C117.47 163.91 115.83 161 115.83 160.65C115.83 160.3 122.7 159.49 122 156.57C121.3 153.65 118.85 152.38 118.85 152.38L118.86 152.37Z" fill="#263238" stroke="#263238" stroke-miterlimit="10"/>
<path d="M132.11 157.52C130.86 157.77 129.97 157.61 128.99 157.92" stroke="#263238" stroke-width="2" stroke-miterlimit="10" stroke-linecap="round"/>
<path d="M131.44 173.81C131.44 173.81 133.42 174.97 135.87 174.51" stroke="white" stroke-miterlimit="10"/>
<path d="M131.89 162.18C132.11 163.15 131.97 164.01 131.6 164.09C131.22 164.17 130.74 163.45 130.53 162.48C130.31 161.51 130.45 160.65 130.82 160.57C131.2 160.49 131.68 161.21 131.89 162.18Z" fill="#263238"/>
<path d="M106.75 181.609L130.4 191.629L128.65 198.859L104.65 186.269L106.75 181.609Z" fill="white" stroke="#263238" stroke-miterlimit="10"/>
<path d="M142.35 272.9C142.35 272.9 144.35 302.67 144.35 308.03C144.35 313.39 140.94 380.16 140.94 387.47C140.94 394.78 142.4 421.1 142.4 421.1L147.27 425L147.76 430.36C147.76 430.36 152.63 435.23 155.56 435.72C158.48 436.21 164.33 436.69 164.33 438.64C164.33 440.59 161.41 443.03 161.41 443.03H123.88V431.82C123.88 428.41 124.37 425.48 124.37 425.48C124.37 425.48 119.01 398.19 119.01 391.37V367C119.01 364.56 115.6 300.23 115.6 300.23L116.57 270.5L142.35 272.9Z" fill="#263238" stroke="#263238" stroke-miterlimit="10"/>
<path d="M97.56 290.97C97.56 290.97 100.48 313.39 100.97 314.85C101.46 316.31 102.43 343.12 101.94 349.94C101.45 356.76 98.04 371.38 97.55 385.03C97.06 398.68 98.95 442.97 98.95 442.97H135.03C135.03 442.97 137.04 437.66 135.1 436.69C133.16 435.72 121.03 431.72 121.03 431.72L121.4 423.61L119.56 417.53C119.56 417.53 119.56 381.41 123.39 372.85C128.21 362.09 136.55 309.98 136.06 294.39" fill="#263238"/>
<path d="M97.56 290.97C97.56 290.97 100.48 313.39 100.97 314.85C101.46 316.31 102.43 343.12 101.94 349.94C101.45 356.76 98.04 371.38 97.55 385.03C97.06 398.68 98.95 442.97 98.95 442.97H135.03C135.03 442.97 137.04 437.66 135.1 436.69C133.16 435.72 121.03 431.72 121.03 431.72L121.4 423.61L119.56 417.53C119.56 417.53 119.56 381.41 123.39 372.85C128.21 362.09 136.55 309.98 136.06 294.39" stroke="#263238" stroke-miterlimit="10"/>
<path d="M128.65 198.859C128.65 198.859 137.01 212.459 138.95 235.759C140.89 259.059 142.35 272.899 142.35 272.899L132.15 274.109L128.64 198.859H128.65Z" fill="white" stroke="#263238" stroke-miterlimit="10"/>
<path d="M104.65 186.27L101.97 192.21C101.97 192.21 94.03 210.21 94.25 214.19C94.47 218.17 98.68 258.47 98.68 258.47L89.38 301.69C89.38 301.69 102.66 310.63 115.28 311.73C127.9 312.84 135.87 310.18 135.87 310.18C135.87 310.18 137.2 282.38 135.87 264.67C134.54 246.96 132.77 215.29 131.22 208.87C129.67 202.45 128.64 198.84 128.64 198.84L104.64 186.26L104.65 186.27Z" fill="#92E3A9" stroke="#263238" stroke-miterlimit="10"/>
<path d="M101.97 192.21L121.85 200.93L132.18 249.8" stroke="#263238" stroke-miterlimit="10"/>
<path d="M121.41 204.06C121.41 204.06 112.27 196.22 109.66 195.79C107.05 195.35 98.78 205.8 97.91 208.41C97.91 208.41 94.43 228.44 94.86 241.93C95.3 255.43 106.61 304.62 106.61 304.62L121.41 302.88L118.36 255.43L120.1 221.91" fill="#92E3A9"/>
<path d="M121.41 204.06C121.41 204.06 112.27 196.22 109.66 195.79C107.05 195.35 98.78 205.8 97.91 208.41C97.91 208.41 94.43 228.44 94.86 241.93C95.3 255.43 106.61 304.62 106.61 304.62L121.41 302.88L118.36 255.43L120.1 221.91" stroke="#263238" stroke-miterlimit="10"/>
<path d="M108.52 304.27L109.72 308.45L120.64 306.86L120.05 303.08L108.52 304.27Z" fill="white" stroke="#263238" stroke-miterlimit="10"/>
<path d="M106.72 317.979V324.199H108.56V320.169H129.29V324.199H131.14V317.979H106.72Z" fill="white" stroke="#263238" stroke-miterlimit="10"/>
<path d="M150.95 323.37H85.85C84.5743 323.37 83.54 324.404 83.54 325.68V369.73C83.54 371.006 84.5743 372.04 85.85 372.04H150.95C152.226 372.04 153.26 371.006 153.26 369.73V325.68C153.26 324.404 152.226 323.37 150.95 323.37Z" fill="#BFBFBF" stroke="#263238" stroke-miterlimit="10"/>
<path d="M120.64 306.859L122.03 310.239L125.01 313.419L126.2 321.569L121.83 322.759L119.64 321.569C119.64 321.569 113.88 321.969 112.88 321.369C111.89 320.769 109.7 308.459 109.7 308.459L120.63 306.869L120.64 306.859Z" fill="white" stroke="#263238" stroke-miterlimit="10"/>
<path d="M0.73999 444.27H473.12" stroke="#263238" stroke-miterlimit="10"/>
</g>
<defs>
<clipPath id="clip0_332_193">
<rect width="474.43" height="444.77" fill="white"/>
</clipPath>
</defs>
</svg>
