<svg width="1920" height="158" viewBox="0 0 1920 158" fill="none" xmlns="http://www.w3.org/2000/svg">
<g clip-path="url(#clip0_536_153)">
<path fill-rule="evenodd" clip-rule="evenodd" d="M1920 -938H0V83.9363V94.5426V96.4357L21.0109 97.9357C27.3476 104.103 43.5227 113.336 57.53 100.936C67.2017 98.4358 88.6462 96.2357 97.0505 107.436C101.886 107.103 112.158 106.136 114.56 104.936L127.566 107.436C126.566 110.77 128.867 116.437 146.076 112.436C148.244 110.936 156.582 112.036 172.59 128.437C173.424 130.437 176.892 133.237 184.096 128.437C184.477 128.437 185.514 127.891 186.994 127.112L186.996 127.112C193.277 123.805 207.539 116.298 213.611 128.437C221.115 143.438 233.121 136.937 239.625 128.437C242.626 132.437 249.73 140.338 254.132 139.938C255.466 140.438 260.636 139.837 270.641 133.437L279.646 128.437C283.147 135.104 292.152 146.738 300.156 139.938C303.325 136.271 309.861 128.137 310.662 124.937C311.462 121.737 313.33 121.27 314.164 121.437C315.331 122.603 317.966 124.937 319.166 124.937C319.267 124.937 319.373 124.939 319.483 124.943C319.622 124.947 319.768 124.954 319.921 124.961C321.441 125.031 323.626 125.132 326.17 123.437C328.812 121.676 333.781 124.178 346.537 130.602C348.271 131.475 350.148 132.42 352.183 133.437C353.684 134.771 357.786 136.037 362.189 130.437C363.022 134.771 366.891 141.738 375.696 134.937C380.031 131.27 389.803 126.437 394.205 136.437C402.209 130.604 421.62 121.237 435.227 130.437C445.732 129.937 469.044 127.437 478.249 121.437C495.591 124.77 532.978 129.437 543.783 121.437C541.115 119.27 535.579 114.736 534.779 113.936C534.641 113.799 534.427 113.756 534.132 113.78L526.61 93.0961C526.716 93.2693 526.774 93.3872 526.774 93.4366C540.782 85.436 557.624 83.4364 564.294 83.4366C580.702 73.4363 592.809 79.2698 596.811 83.4366C605.31 79.1892 609.72 80.8612 615.73 83.14C621.04 85.1534 627.6 87.6405 639.333 86.9368C659.343 92.1371 675.685 88.7703 681.355 86.4368C688.559 94.9816 701.032 93.9973 706.368 92.437C738.785 76.0364 750.558 79.9369 752.392 83.9372C758.867 80.7014 764.924 86.6805 770.154 91.8444C773.005 94.6592 775.611 97.2317 777.905 97.9373C783.081 99.5291 786.039 94.1532 787.283 91.892C787.602 91.312 787.808 90.937 787.91 90.937C788.044 90.937 788.61 91.1166 789.558 91.4178L789.563 91.4197C792.156 92.2435 797.601 93.9741 804.919 95.4371C812.923 97.0372 831.266 93.1038 839.437 90.937C850.243 94.5371 881.626 92.437 895.967 90.937C898.196 91.7122 899.693 92.3748 900.862 92.8918C901.936 93.3673 902.733 93.7198 903.566 93.924C905.954 94.5092 908.642 93.8743 919.034 91.4192C921.416 90.8564 924.203 90.1981 927.483 89.4369C944.4 85.5117 948.912 87.0563 952.036 88.1254C954.085 88.8268 955.536 89.3235 959.5 87.9369C967.504 85.1367 982.845 86.1034 989.515 86.9368C991.35 85.6035 995.819 82.8367 999.02 82.4366C1002.22 82.0366 1005.02 83.27 1006.02 83.9367C1006.02 81.9366 1010.36 78.7698 1012.53 77.4364C1034.61 73.5409 1054.07 79.0123 1059.55 80.553C1060.4 80.7921 1060.92 80.9366 1061.05 80.9366C1061.26 80.9366 1061.39 81.0038 1061.52 81.0767C1062.01 81.3477 1062.64 81.6954 1068.56 78.9365C1074.7 76.0686 1078.84 81.2573 1080.41 83.2254L1080.41 83.2265C1080.75 83.6598 1080.97 83.9367 1081.06 83.9367C1093.6 77.6702 1098.46 83.2712 1101.47 86.7417C1102.06 87.4249 1102.58 88.0256 1103.07 88.4369C1104.73 89.8145 1109.88 91.3439 1115.25 92.9414C1119.63 94.2432 1124.17 95.5902 1127.09 96.9373C1130.29 98.4135 1134.21 101.705 1138.03 104.907C1141.98 108.213 1145.8 111.422 1148.6 112.438C1153 114.038 1176.11 112.771 1187.12 111.938C1191.62 117.438 1221.64 114.938 1227.14 113.438C1230.27 112.585 1233.56 113.832 1236.09 114.793C1238.01 115.522 1239.5 116.086 1240.15 115.438C1240.66 114.928 1243.48 114.707 1247.89 114.362H1247.89H1247.9C1256.46 113.693 1270.99 112.557 1286.17 107.938C1304.58 102.337 1329.19 105.604 1339.2 107.938C1353.2 123.938 1369.21 111.438 1374.72 106.938C1379.12 103.338 1384.55 103.771 1386.72 104.438C1389.56 105.604 1395.73 107.938 1397.73 107.938C1399 107.938 1402.11 110.152 1405.24 112.387C1408.24 114.531 1411.27 116.693 1412.74 116.938C1415.14 117.338 1417.4 116.105 1418.24 115.438C1423.69 122.978 1427.38 124.552 1434.32 127.51L1434.32 127.513C1435.66 128.085 1437.13 128.709 1438.75 129.439C1446.75 133.039 1466.76 121.605 1475.77 115.438C1482.7 119.289 1490.23 117.504 1497.44 115.795L1497.44 115.795C1499.59 115.285 1501.71 114.782 1503.78 114.438C1510.99 113.238 1515.46 113.938 1516.79 114.438C1523.96 111.271 1542.9 106.138 1561.31 110.938C1579.72 115.738 1594.33 109.938 1599.33 106.438C1612.71 106.438 1627.26 98.848 1635.83 94.3745C1638.48 92.9932 1640.56 91.9089 1641.86 91.437C1647.36 89.4369 1660.36 90.437 1660.36 91.437C1660.36 92.437 1665.87 101.937 1666.87 101.937C1667.67 101.937 1668.87 100.604 1669.37 99.9374C1677.37 103.137 1699.72 106.938 1709.89 108.438L1759.42 108.938C1769.02 104.938 1786.1 110.604 1793.43 113.938H1799.94V112.438C1789.38 98.5062 1822.68 104.892 1834.81 107.218C1837.05 107.647 1838.57 107.938 1838.96 107.938C1840.96 107.938 1845.79 103.604 1847.96 101.437L1845.96 100.437C1845.53 100.223 1845.01 98.6334 1844.48 97.0033C1843.98 95.4846 1843.47 93.931 1843.02 93.4225L1863.21 90.437H1863.97C1868.14 91.937 1877.38 93.9371 1880.98 89.9369C1884.58 85.9368 1888.15 88.6035 1889.48 90.437C1890.68 89.2369 1910.33 87.9369 1920 87.4369L1920 82.0421L1920 73.4363L1920 -938ZM1842.4 93.5132L1834.92 94.6191C1835.43 94.7228 1835.94 94.8287 1836.46 94.9371C1838.09 94.9371 1841.51 94.6498 1842.4 93.5132Z" fill="white"/>
<path d="M21.0109 97.893L0 96.393V83.8941L21.0109 84.3941C26.5138 92.3941 41.0214 94.3941 46.024 94.3941C51.0266 94.3941 56.5294 88.3941 58.0302 87.3941C59.531 86.3941 78.5409 86.3941 86.0448 87.3941C93.5487 88.3941 96.05 94.8941 97.0505 94.8941C98.0511 94.8941 112.559 92.893 115.56 92.393C117.961 91.993 124.565 94.5597 127.566 95.893C129.968 103.493 136.238 102.726 139.072 101.393C157.082 97.893 160.584 102.893 167.587 111.893C174.591 120.893 178.593 119.393 179.093 119.393C186.297 114.993 197.103 111.56 201.605 110.393C214.612 108.893 214.612 126.393 227.118 127.893C230.888 128.345 237.29 122.06 240.125 118.393C240.625 121.893 253.132 133.393 259.635 129.393C264.838 126.193 275.143 121.06 279.646 118.893C282.147 126.893 290.151 131.893 294.153 131.893C298.155 131.893 307.16 123.393 307.16 120.393C307.16 117.393 314.164 109.393 314.164 110.893C314.164 112.093 319.166 113.393 321.668 113.893C321.668 114.393 323.268 114.793 329.672 112.393C335.675 111.393 349.682 123.393 353.684 123.393C356.886 123.393 360.021 121.393 361.188 120.393C366.391 129.193 370.693 127.726 372.194 125.893C372.861 124.726 376.096 121.693 383.7 118.893C393.205 115.393 391.704 127.893 394.205 125.893C396.707 123.893 408.213 118.393 417.217 115.393C426.222 112.393 432.725 118.893 444.732 120.393C456.738 121.893 470.745 111.893 479.75 109.393C488.755 106.893 506.764 113.893 517.77 115.393C528.775 116.893 533.778 112.893 534.779 113.893C535.579 114.693 541.115 119.226 543.783 121.393C532.978 129.393 495.591 124.726 478.249 121.393C469.044 127.393 445.732 129.893 435.227 130.393C421.62 121.193 402.209 130.56 394.205 136.393C389.803 126.393 380.031 131.226 375.696 134.893C366.891 141.693 363.022 134.726 362.189 130.393C357.786 135.993 353.684 134.726 352.183 133.393C335.175 124.893 329.171 121.393 326.17 123.393C323.168 125.393 320.667 124.893 319.166 124.893C317.966 124.893 315.331 122.56 314.164 121.393C313.33 121.226 311.462 121.693 310.662 124.893C309.861 128.093 303.325 136.226 300.156 139.893C292.152 146.693 283.147 135.06 279.646 128.393L270.641 133.393C260.636 139.793 255.466 140.393 254.132 139.893C249.73 140.293 242.626 132.393 239.625 128.393C233.121 136.893 221.115 143.393 213.611 128.393C206.107 113.393 186.097 128.393 184.096 128.393C176.892 133.193 173.424 130.393 172.59 128.393C156.582 111.993 148.244 110.893 146.076 112.393C128.867 116.393 126.566 110.726 127.566 107.393L114.56 104.893C112.158 106.093 101.886 107.06 97.0505 107.393C88.6462 96.193 67.2017 98.393 57.53 100.893C43.5227 113.293 27.3476 104.06 21.0109 97.893Z" fill="#E8E8E8"/>
<path d="M521.271 84.3941C520.771 85.3941 526.774 92.8941 526.774 93.3941C540.782 85.3938 557.624 83.3943 564.294 83.3945C580.702 73.3945 592.809 79.2279 596.811 83.3945C612.819 75.3945 614.32 88.3945 639.333 86.8945C659.343 92.0945 675.685 88.7279 681.355 86.3945C688.559 94.939 701.032 93.9547 706.368 92.3945C738.785 75.9945 750.558 79.8949 752.392 83.8951C762.397 78.8956 771.402 95.8945 777.905 97.8945C784.409 99.8945 787.41 90.8945 787.91 90.8945C788.411 90.8945 794.914 93.3945 804.919 95.3945C812.923 96.9945 831.266 93.0612 839.437 90.8945C850.243 94.4945 881.626 92.3945 895.967 90.8945C907.473 94.8945 899.468 95.8945 927.483 89.3945C955.498 82.8945 949.495 91.3945 959.5 87.8945C967.504 85.0945 982.845 86.0612 989.515 86.8945C991.35 85.5612 995.819 82.7945 999.02 82.3945C1002.22 81.9945 1005.02 83.2279 1006.02 83.8945C1006.02 81.8945 1010.36 78.7279 1012.53 77.3945C1038.04 72.8945 1060.05 80.8945 1061.05 80.8945C1062.05 80.8945 1061.05 82.3945 1068.56 78.8945C1076.06 75.3945 1080.56 83.8945 1081.06 83.8945C1096.07 76.3945 1100.07 85.8945 1103.07 88.3945C1106.08 90.8945 1120.58 93.8945 1127.09 96.8945C1133.59 99.8945 1143.1 110.395 1148.6 112.395C1153 113.995 1176.11 112.728 1187.12 111.895C1191.62 117.395 1221.64 114.895 1227.14 113.395C1232.64 111.895 1238.65 116.895 1240.15 115.395C1241.65 113.895 1263.16 114.895 1286.17 107.895C1304.58 102.295 1329.19 105.561 1339.2 107.895C1353.2 123.895 1369.21 111.395 1374.72 106.895C1379.12 103.295 1384.55 103.728 1386.72 104.395C1389.56 105.561 1395.73 107.895 1397.73 107.895C1400.23 107.895 1409.73 116.395 1412.74 116.895C1415.14 117.295 1417.4 116.061 1418.24 115.395C1424.74 124.395 1428.74 124.895 1438.75 129.395C1446.75 132.995 1466.76 121.561 1475.77 115.395C1484.77 120.395 1494.78 115.895 1503.78 114.395C1510.99 113.195 1515.46 113.895 1516.79 114.395C1523.96 111.228 1542.9 106.095 1561.31 110.895C1579.72 115.695 1594.33 109.895 1599.33 106.395C1616.84 106.395 1636.35 93.3945 1641.86 91.3945C1647.36 89.3945 1660.36 90.3945 1660.36 91.3945C1660.36 92.3945 1665.87 101.895 1666.87 101.895C1667.67 101.895 1668.87 100.561 1669.37 99.8945C1677.37 103.095 1699.72 106.895 1709.89 108.395L1759.42 108.895C1769.02 104.895 1786.1 110.561 1793.43 113.895H1799.94V112.395C1787.43 95.8945 1836.46 107.895 1838.96 107.895C1840.96 107.895 1845.79 103.561 1847.96 101.395L1845.96 100.395C1844.96 99.8945 1843.46 91.8945 1842.46 93.3945C1841.66 94.5945 1838.12 94.8945 1836.46 94.8945C1793.43 85.8945 1798.44 93.3945 1798.44 95.8945C1798.44 98.3945 1799.94 101.895 1797.44 102.395C1795.44 102.795 1778.26 97.8945 1769.92 95.3945C1766.92 96.3945 1760.02 97.8945 1756.41 95.8945C1751.91 93.3945 1710.89 97.8945 1708.89 95.8945C1706.89 93.8945 1682.38 91.3945 1676.37 89.8945C1671.57 88.6945 1669.37 87.0612 1668.87 86.3945C1668.7 87.0612 1668.07 88.4945 1666.87 88.8945C1665.37 89.3945 1662.87 81.8945 1660.36 77.3945C1658.36 73.7945 1646.86 75.8945 1641.35 77.3945C1633.35 85.3945 1600.83 93.8945 1598.33 94.8945C1595.83 95.8945 1590.83 102.395 1581.82 100.395C1572.82 98.3945 1543.3 97.8945 1540.3 97.3945C1537.3 96.8945 1521.29 101.895 1515.29 103.395C1509.29 104.895 1513.79 103.895 1506.28 101.895C1498.78 99.8945 1493.78 105.895 1488.28 106.395C1483.87 106.795 1478.1 104.561 1475.77 103.395C1460.76 115.395 1455.76 113.895 1444.75 118.895C1433.75 123.895 1418.24 102.395 1418.24 102.895C1418.24 103.395 1412.74 104.895 1409.73 104.395C1406.73 103.895 1398.73 96.3945 1397.73 95.8945C1396.73 95.3945 1396.73 95.8945 1390.22 92.3945C1385.02 89.5945 1380.39 91.2279 1378.72 92.3945C1375.05 95.5612 1365.81 102.395 1358.21 104.395C1348.7 106.895 1342.2 98.3945 1339.2 95.8945C1336.2 93.3945 1320.69 93.8945 1319.69 93.8945C1308.08 90.2945 1296.84 92.3945 1292.67 93.8945C1279.47 97.8945 1250.48 101.895 1237.64 103.395C1235.14 98.3945 1206.63 106.395 1195.62 103.395C1186.82 100.995 1183.62 99.7279 1183.12 99.3945C1168.11 102.895 1152.6 100.895 1147.6 99.3945C1142.6 97.8945 1132.09 81.8945 1127.09 82.8945C1123.08 83.6945 1108.41 76.5616 1101.57 72.8951C1093.57 59.8956 1086.57 67.3945 1085.57 66.8945C1084.56 66.3945 1081.56 70.3945 1080.56 68.3945C1079.56 66.3945 1074.56 63.3945 1070.56 64.3945C1066.56 65.3945 1062.05 65.3951 1061.05 65.3951C1053.55 60.3951 1028.54 62.3951 1022.53 62.3951H1013.03C1009.43 62.3951 1006.86 67.0617 1006.02 69.3951C1003.22 64.1951 994.518 69.5617 990.516 72.8951C985.313 69.6951 976.342 71.5617 972.506 72.8951C968.338 73.8951 958.199 75.2951 950.995 72.8951C941.991 69.8951 930.985 74.3951 927.483 75.8951C923.981 77.3951 908.973 80.3951 901.97 79.8951C894.966 79.3951 896.967 75.3951 894.466 76.8951C891.965 78.3951 852.444 78.3951 845.941 76.8951C840.738 75.6951 832.767 77.3951 829.432 78.3951C810.222 84.7951 793.413 80.0617 787.41 76.8951C785.809 81.2951 782.074 83.3951 780.406 83.8951C775.404 86.8951 765.399 74.3951 761.897 70.3951C758.395 66.3951 756.394 67.8951 755.393 68.8951C754.593 69.6951 752.058 69.2284 750.891 68.8951C741.386 60.8951 716.873 72.8951 705.367 78.8951C693.861 84.8951 682.856 72.8951 681.355 72.8951C679.854 72.8951 669.349 77.3951 665.847 76.8951C663.045 76.4951 647.004 74.0617 639.333 72.8951C637.665 74.2284 631.129 75.4951 618.322 69.8951C605.515 64.2951 599.312 67.2278 597.811 69.3941C591.408 62.9934 584.805 62.3945 582.303 62.8951C577.301 60.8951 564.794 69.3941 563.293 69.3941C551.287 66.3941 521.772 83.3941 521.271 84.3941Z" fill="#E8E8E8"/>
<path d="M1847.96 88.3945C1848.96 89.8945 1846.96 89.8945 1846.46 90.3945H1863.97C1868.14 91.8945 1877.38 93.8945 1880.98 89.8945C1884.58 85.8945 1888.15 88.5612 1889.48 90.3945C1890.68 89.1945 1910.33 87.8945 1920 87.3945V73.3945C1917.5 71.8945 1889.48 77.3945 1888.48 75.8945C1887.68 74.6945 1886.15 74.0612 1885.48 73.8945C1883.81 75.0612 1879.68 77.5945 1876.48 78.3945C1872.48 79.3945 1867.47 78.3945 1864.97 76.8945C1862.47 75.3945 1844.46 76.8945 1842.96 78.3945C1841.46 79.8945 1844.46 81.8945 1846.46 86.3945C1848.46 90.8945 1846.96 86.8945 1847.96 88.3945Z" fill="#E8E8E8"/>
</g>
<defs>
<clipPath id="clip0_536_153">
<rect width="1920" height="158" fill="white"/>
</clipPath>
</defs>
</svg>
